<svg width="127" height="134" viewBox="0 0 127 134" fill="none" xmlns="http://www.w3.org/2000/svg">
<path d="M126.094 8.90675V9.00664C126.094 11.071 125.279 12.9689 123.98 14.3507C122.682 15.7325 120.867 16.5815 118.886 16.5815C114.774 16.5815 110.562 16.5815 106.683 16.5649C106.117 16.5649 105.601 16.798 105.218 17.2142C97.6927 25.122 90.1511 33.0299 82.6095 40.9211C82.3265 41.2208 82.0268 41.5205 81.7272 41.8035C79.2799 44.1176 77.7816 47.2807 77.7816 50.6603V85.0553C77.7816 87.3028 77.7816 86.7701 76.1334 86.9033C72.6539 87.153 69.1911 87.0198 65.7117 86.8866C64.3965 86.8367 64.3798 87.153 64.3798 85.1053V60.2163C64.3798 53.4072 58.8693 47.8967 52.0602 47.88C52.0269 47.88 51.9769 47.88 51.9436 47.88C49.2966 47.88 47.1989 48.9788 45.5175 51.0931C44.6185 52.2252 43.6695 53.3073 42.7372 54.4061C41.7716 55.5548 40.8227 56.7202 39.8571 57.8689C38.9414 58.9677 38.0091 60.0665 37.0769 61.1819C36.1279 62.3306 35.1623 63.4793 34.1967 64.6281C33.2811 65.7102 32.3488 66.7923 31.4664 67.8911C17.0325 86.1042 -0.181681 85.1053 0.00144871 84.9055C0.584134 84.2229 1.53308 82.941 2.53197 81.5925C3.86382 79.8112 5.29556 77.88 6.04472 76.9643C7.24339 75.5326 8.44206 74.0842 9.64072 72.6358C10.573 71.5204 11.522 70.405 12.4543 69.2895C13.6696 67.8245 14.8682 66.3761 16.0835 64.9111C16.9992 63.8123 17.9315 62.7135 18.8638 61.5981C19.8127 60.466 20.745 59.334 21.694 58.1852C22.6096 57.0865 23.5419 55.9877 24.4742 54.8723C25.4398 53.7235 26.3887 52.5748 27.3543 51.4261C28.2866 50.3107 29.2023 49.2119 30.1346 48.1131C31.0835 46.9644 32.0491 45.799 33.0147 44.6669C34.513 42.8856 35.9448 41.021 37.6262 39.4394C39.3743 37.7913 41.3554 36.526 43.5363 35.5604C45.301 34.778 48.3143 34.0121 50.2122 33.879C50.4953 33.8623 50.7783 33.8457 51.0613 33.8457C56.3221 33.8457 61.5996 33.8457 66.8604 33.8457C68.6251 33.8457 70.2399 33.3129 71.6883 32.2641C71.8881 32.1143 72.2044 31.8312 72.3876 31.6481C75.3343 28.7014 78.2144 25.6714 81.0945 22.6581C81.9769 21.7258 82.8426 20.7769 83.7582 19.8779C87.3376 16.3152 90.7505 12.5527 94.2965 8.9567C95.5618 7.69144 97.443 5.74361 99.1578 3.9789C101.605 1.43174 104.901 0 108.348 0H117.587C122.282 0 126.094 3.99555 126.094 8.90675Z" fill="white"/>
<path d="M50.4265 56.4887L42.3521 66.2945C41.886 66.8605 41.6196 67.5764 41.6196 68.3089V84.2079C41.6196 85.7728 42.8849 87.038 44.4498 87.038H52.0247C53.5896 87.038 54.8549 85.7728 54.8549 84.2079V58.0869C54.8549 55.7395 51.9082 54.6741 50.4098 56.4887H50.4265Z" fill="white"/>
<path d="M95.8463 38.5073L87.772 48.3131C87.3058 48.8791 87.0394 49.595 87.0394 50.3275V84.1898C87.0394 85.7547 88.3047 87.02 89.8696 87.02H97.4445C99.0094 87.02 100.275 85.7547 100.275 84.1898V40.0889C100.275 37.7415 97.328 36.676 95.8297 38.4907L95.8463 38.5073Z" fill="white"/>
<path d="M73.5581 120.407C72.7657 119.66 71.7752 118.997 70.6095 118.418C69.4514 117.824 68.1256 117.29 66.6322 116.818C65.8322 116.559 65.1084 116.292 64.4684 116.026C63.836 115.751 63.295 115.469 62.8455 115.172C62.4112 114.883 62.0683 114.563 61.8245 114.227C61.5883 113.885 61.474 113.496 61.474 113.069C61.474 112.559 61.6188 112.086 61.9159 111.66C62.2131 111.225 62.655 110.875 63.2341 110.616C63.8131 110.365 64.5217 110.235 65.3751 110.235C66.2284 110.235 66.9751 110.387 67.5542 110.7C68.1332 111.005 68.5675 111.431 68.8494 111.972C69.1466 112.513 69.2914 113.138 69.2914 113.847H76.0344C76.0344 112.064 75.5848 110.532 74.6782 109.229C73.7943 107.919 72.56 106.905 70.9752 106.197C69.4056 105.481 67.5923 105.115 65.5274 105.115C63.9731 105.115 62.5331 105.305 61.2226 105.679C59.9121 106.037 58.7615 106.563 57.7863 107.263C56.8186 107.942 56.072 108.772 55.531 109.747C54.99 110.715 54.7157 111.805 54.7157 113.016C54.7157 114.227 54.9824 115.386 55.5081 116.338C56.0339 117.275 56.7501 118.098 57.6491 118.807C58.5558 119.5 59.5768 120.11 60.7197 120.643C61.8702 121.153 63.0588 121.618 64.2931 122.03C65.3522 122.38 66.1979 122.715 66.8456 123.035C67.5008 123.34 68.0037 123.652 68.3466 123.957C68.697 124.27 68.9332 124.605 69.0628 124.963C69.1923 125.313 69.2533 125.702 69.2533 126.144C69.2533 126.647 69.1313 127.112 68.8875 127.531C68.6437 127.942 68.2551 128.277 67.7294 128.536C67.2037 128.78 66.5103 128.902 65.6417 128.902C64.8493 128.902 64.1407 128.834 63.5236 128.689C62.9064 128.536 62.3807 128.293 61.954 127.957C61.535 127.607 61.2073 127.15 60.994 126.586C60.773 126.022 60.6664 125.329 60.6664 124.498H53.87C53.87 126.159 54.2052 127.599 54.8681 128.811C55.5538 130.007 56.4605 130.99 57.5958 131.759C58.7235 132.521 59.9883 133.085 61.375 133.458C62.7845 133.824 64.2017 133.999 65.6417 133.999C67.2189 133.999 68.6361 133.824 69.9085 133.481C71.1885 133.131 72.2781 132.62 73.1924 131.957C74.1067 131.272 74.8077 130.441 75.2953 129.466C75.7906 128.483 76.0344 127.363 76.0344 126.106C76.0344 124.917 75.821 123.858 75.3944 122.921C74.9829 121.976 74.3734 121.138 73.5581 120.407ZM98.3664 108.665C97.6959 107.507 96.7435 106.631 95.5092 106.022C94.2901 105.42 92.8424 105.115 91.1891 105.115C89.5357 105.115 88.1261 105.442 86.8385 106.098C85.5508 106.761 84.5451 107.675 83.8136 108.841C83.0746 109.999 82.7088 111.347 82.7088 112.879H85.0099C85.0099 111.683 85.2765 110.654 85.8175 109.785C86.3585 108.924 87.0899 108.262 88.0195 107.797C88.949 107.34 90.0005 107.103 91.1891 107.103C92.5377 107.103 93.6425 107.347 94.5034 107.843C95.3796 108.315 96.0349 108.985 96.454 109.846C96.8806 110.7 97.094 111.69 97.094 112.818C97.094 113.824 96.8425 114.738 96.3397 115.561C95.852 116.384 95.1206 117.047 94.1377 117.549C93.1777 118.037 91.9738 118.281 90.5262 118.281H88.1718V119.828H90.8005C92.2177 119.828 93.4596 119.63 94.5263 119.233C94.5491 119.226 94.5644 119.218 94.5872 119.21C95.6311 118.807 96.5073 118.289 97.2083 117.649C97.9321 116.978 98.4731 116.231 98.8312 115.408C99.2045 114.586 99.395 113.747 99.395 112.894C99.395 111.241 99.0521 109.831 98.3664 108.665ZM99.395 123.15C99.0445 122.273 98.4959 121.511 97.7492 120.849C97.0178 120.186 96.0806 119.668 94.9301 119.309C94.8158 119.271 94.7092 119.241 94.5872 119.21C93.5205 118.898 92.2558 118.746 90.8005 118.746H88.1718V120.27H90.5262C91.9357 120.27 93.1624 120.475 94.2139 120.871C95.2882 121.268 96.1187 121.892 96.7054 122.746C97.3149 123.592 97.6121 124.696 97.6121 126.045C97.6121 127.394 97.3607 128.422 96.8654 129.306C96.3625 130.197 95.6311 130.876 94.6787 131.333C93.7415 131.79 92.6062 132.011 91.2805 132.011C89.9547 132.011 88.8042 131.759 87.7909 131.256C86.7851 130.746 86.0004 130.037 85.4289 129.138C84.8651 128.224 84.5832 127.173 84.5832 125.992H82.2822C82.2822 127.317 82.5336 128.483 83.0365 129.504C83.5393 130.51 84.2175 131.34 85.0632 132.011C85.9242 132.666 86.8918 133.161 87.9585 133.497C89.0404 133.832 90.1528 133.999 91.2805 133.999C92.53 133.999 93.6729 133.824 94.7168 133.481C95.7758 133.116 96.6902 132.597 97.4597 131.912C98.2445 131.218 98.854 130.38 99.2731 129.39C99.6998 128.392 99.9131 127.256 99.9131 125.969C99.9131 124.963 99.7379 124.026 99.395 123.15ZM104.919 131.043C104.622 130.738 104.218 130.586 103.7 130.586C103.182 130.586 102.801 130.746 102.504 131.066C102.222 131.378 102.077 131.752 102.077 132.209C102.077 132.666 102.222 133.017 102.504 133.321C102.801 133.634 103.197 133.786 103.7 133.786C104.203 133.786 104.622 133.634 104.919 133.321C105.216 133.017 105.361 132.643 105.361 132.209C105.361 131.744 105.216 131.356 104.919 131.043ZM125.643 112.726C125.399 111.424 125.034 110.296 124.546 109.344C124.066 108.376 123.479 107.591 122.771 106.974C122.07 106.349 121.27 105.892 120.356 105.58C119.456 105.26 118.466 105.1 117.384 105.1C116.028 105.1 114.824 105.343 113.75 105.831C112.683 106.303 111.776 107.043 111.03 108.033C110.298 109.024 109.727 110.273 109.33 111.774C108.942 113.283 108.751 115.073 108.751 117.146V121.877C108.751 123.523 108.881 125.001 109.14 126.319C109.391 127.614 109.765 128.75 110.26 129.717C110.748 130.677 111.342 131.485 112.035 132.125C112.744 132.757 113.544 133.23 114.451 133.535C115.35 133.847 116.34 133.999 117.422 133.999C118.786 133.999 119.997 133.756 121.049 133.268C122.116 132.78 123.022 132.041 123.754 131.043C124.5 130.045 125.064 128.78 125.453 127.264C125.841 125.733 126.032 123.934 126.032 121.877V117.146C126.032 115.5 125.902 114.022 125.643 112.726ZM123.731 122.144C123.731 123.713 123.601 125.123 123.35 126.357C123.091 127.576 122.695 128.613 122.169 129.466C121.643 130.296 120.988 130.936 120.203 131.378C119.418 131.797 118.489 132.011 117.422 132.011C116.584 132.011 115.822 131.874 115.144 131.607C114.473 131.325 113.879 130.914 113.369 130.373C112.866 129.816 112.439 129.138 112.089 128.346C111.746 127.546 111.487 126.632 111.319 125.603C111.151 124.559 111.068 123.409 111.068 122.144V116.856C111.068 115.256 111.197 113.847 111.456 112.627C111.723 111.401 112.127 110.387 112.652 109.58C113.178 108.749 113.833 108.132 114.618 107.721C115.418 107.302 116.34 107.088 117.384 107.088C118.23 107.088 118.992 107.218 119.662 107.492C120.34 107.751 120.935 108.14 121.437 108.665C121.948 109.199 122.375 109.854 122.71 110.639C123.045 111.424 123.297 112.338 123.464 113.382C123.647 114.426 123.731 115.584 123.731 116.856V122.144Z" fill="white"/>
<path d="M50.275 113.533C49.6503 111.887 48.7436 110.462 47.5778 109.266C46.4197 108.054 45.0406 107.132 43.4406 106.485C41.8558 105.83 40.1186 105.502 38.2138 105.502H29.1774V133.609H38.3052C40.1872 133.609 41.9091 133.289 43.4787 132.649C45.0635 131.994 46.435 131.065 47.5931 129.868C48.7512 128.672 49.6503 127.247 50.275 125.602C50.9227 123.956 51.2427 122.135 51.2427 120.154V118.98C51.2427 116.984 50.9227 115.171 50.275 113.533ZM44.332 120.154C44.332 121.96 44.0958 123.476 43.6158 124.71C43.1511 125.937 42.4729 126.859 41.5663 127.476C40.6824 128.093 39.5929 128.398 38.3052 128.398H35.9509V110.736H38.2138C39.2043 110.736 40.0805 110.904 40.8348 111.254C41.612 111.605 42.252 112.123 42.7701 112.816C43.2806 113.502 43.6692 114.356 43.9282 115.384C44.1949 116.405 44.332 117.586 44.332 118.942V120.154Z" fill="white"/>
<path d="M16.7198 105.502H10.3273L0.00317383 133.609H7.27956L8.90245 128.36H18.1827L19.8132 133.609H27.1048L16.7198 105.502ZM10.5177 123.125L13.535 113.35L16.5674 123.125H10.5177Z" fill="white"/>
</svg>
