<svg width="722" height="340" viewBox="0 0 722 340" fill="none" xmlns="http://www.w3.org/2000/svg">
<g filter="url(#filter0_bi_2405_61)">
<rect width="720.713" height="339.933" rx="13.9058" fill="url(#paint0_linear_2405_61)" fill-opacity="0.1"/>
</g>
<g style="mix-blend-mode:overlay">
<rect width="720.713" height="339.933" rx="17.5647" fill="url(#paint1_linear_2405_61)"/>
</g>
<path d="M64.5098 50.1498L56.4658 72.2959H53.1781L62.4404 47.9969H64.5599L64.5098 50.1498ZM71.2521 72.2959L63.1914 50.1498L63.1413 47.9969H65.2608L74.5565 72.2959H71.2521ZM70.8349 63.3006V65.9374H57.1834V63.3006H70.8349ZM80.698 54.2386V72.2959H77.5939V54.2386H80.698ZM77.3602 49.4488C77.3602 48.9482 77.5104 48.5254 77.8108 48.1805C78.1224 47.8356 78.5785 47.6631 79.1793 47.6631C79.769 47.6631 80.2196 47.8356 80.5311 48.1805C80.8538 48.5254 81.0151 48.9482 81.0151 49.4488C81.0151 49.9273 80.8538 50.3389 80.5311 50.6838C80.2196 51.0176 79.769 51.1845 79.1793 51.1845C78.5785 51.1845 78.1224 51.0176 77.8108 50.6838C77.5104 50.3389 77.3602 49.9273 77.3602 49.4488Z" fill="white"/>
<line opacity="0.2" x1="656.609" y1="2.24199e-08" x2="656.609" y2="339.928" stroke="url(#paint2_linear_2405_61)" stroke-width="1.03322"/>
<line opacity="0.2" x1="590.483" y1="2.24199e-08" x2="590.483" y2="339.928" stroke="url(#paint3_linear_2405_61)" stroke-width="1.03322"/>
<line opacity="0.2" x1="525.39" y1="2.24199e-08" x2="525.39" y2="339.928" stroke="url(#paint4_linear_2405_61)" stroke-width="1.03322"/>
<line opacity="0.2" x1="459.265" y1="2.24199e-08" x2="459.264" y2="339.928" stroke="url(#paint5_linear_2405_61)" stroke-width="1.03322"/>
<line opacity="0.2" x1="394.172" y1="2.24199e-08" x2="394.172" y2="339.928" stroke="url(#paint6_linear_2405_61)" stroke-width="1.03322"/>
<line opacity="0.2" x1="328.046" y1="2.24199e-08" x2="328.046" y2="339.928" stroke="url(#paint7_linear_2405_61)" stroke-width="1.03322"/>
<line opacity="0.2" x1="262.953" y1="2.24199e-08" x2="262.953" y2="339.928" stroke="url(#paint8_linear_2405_61)" stroke-width="1.03322"/>
<line opacity="0.2" x1="196.828" y1="2.24199e-08" x2="196.828" y2="339.928" stroke="url(#paint9_linear_2405_61)" stroke-width="1.03322"/>
<line opacity="0.2" x1="131.735" y1="2.24199e-08" x2="131.735" y2="339.928" stroke="url(#paint10_linear_2405_61)" stroke-width="1.03322"/>
<line opacity="0.2" x1="65.6092" y1="2.24199e-08" x2="65.6092" y2="339.928" stroke="url(#paint11_linear_2405_61)" stroke-width="1.03322"/>
<line opacity="0.2" x1="721.185" y1="271.219" x2="-8.07572e-08" y2="271.219" stroke="url(#paint12_linear_2405_61)" stroke-width="1.03322"/>
<line opacity="0.2" x1="721.185" y1="204.06" x2="-8.09632e-08" y2="204.06" stroke="url(#paint13_linear_2405_61)" stroke-width="1.03322"/>
<line opacity="0.2" x1="721.185" y1="135.868" x2="-8.09632e-08" y2="135.868" stroke="url(#paint14_linear_2405_61)" stroke-width="1.03322"/>
<line opacity="0.2" x1="721.185" y1="68.709" x2="-8.13784e-08" y2="68.709" stroke="url(#paint15_linear_2405_61)" stroke-width="1.03322"/>
<defs>
<filter id="filter0_bi_2405_61" x="-17.511" y="-17.511" width="755.735" height="374.955" filterUnits="userSpaceOnUse" color-interpolation-filters="sRGB">
<feFlood flood-opacity="0" result="BackgroundImageFix"/>
<feGaussianBlur in="BackgroundImageFix" stdDeviation="8.75548"/>
<feComposite in2="SourceAlpha" operator="in" result="effect1_backgroundBlur_2405_61"/>
<feBlend mode="normal" in="SourceGraphic" in2="effect1_backgroundBlur_2405_61" result="shape"/>
<feColorMatrix in="SourceAlpha" type="matrix" values="0 0 0 0 0 0 0 0 0 0 0 0 0 0 0 0 0 0 127 0" result="hardAlpha"/>
<feOffset dy="2.06011"/>
<feGaussianBlur stdDeviation="5.15028"/>
<feComposite in2="hardAlpha" operator="arithmetic" k2="-1" k3="1"/>
<feColorMatrix type="matrix" values="0 0 0 0 1 0 0 0 0 1 0 0 0 0 1 0 0 0 0.25 0"/>
<feBlend mode="normal" in2="shape" result="effect2_innerShadow_2405_61"/>
</filter>
<linearGradient id="paint0_linear_2405_61" x1="231.973" y1="339.933" x2="231.973" y2="-105.774" gradientUnits="userSpaceOnUse">
<stop stop-color="white"/>
<stop offset="1" stop-color="white" stop-opacity="0"/>
</linearGradient>
<linearGradient id="paint1_linear_2405_61" x1="428.268" y1="339.933" x2="427.157" y2="29.7002" gradientUnits="userSpaceOnUse">
<stop stop-color="#A357D3"/>
<stop offset="0.0001" stop-color="#E06EE2"/>
<stop offset="1" stop-color="#D9D9D9" stop-opacity="0"/>
</linearGradient>
<linearGradient id="paint2_linear_2405_61" x1="656.092" y1="0" x2="656.092" y2="339.928" gradientUnits="userSpaceOnUse">
<stop stop-color="white" stop-opacity="0"/>
<stop offset="0.213542" stop-color="white"/>
<stop offset="0.786458" stop-color="white"/>
<stop offset="1" stop-color="white" stop-opacity="0"/>
</linearGradient>
<linearGradient id="paint3_linear_2405_61" x1="589.966" y1="0" x2="589.966" y2="339.928" gradientUnits="userSpaceOnUse">
<stop stop-color="white" stop-opacity="0"/>
<stop offset="0.213542" stop-color="white"/>
<stop offset="0.786458" stop-color="white"/>
<stop offset="1" stop-color="white" stop-opacity="0"/>
</linearGradient>
<linearGradient id="paint4_linear_2405_61" x1="524.874" y1="0" x2="524.874" y2="339.928" gradientUnits="userSpaceOnUse">
<stop stop-color="white" stop-opacity="0"/>
<stop offset="0.213542" stop-color="white"/>
<stop offset="0.786458" stop-color="white"/>
<stop offset="1" stop-color="white" stop-opacity="0"/>
</linearGradient>
<linearGradient id="paint5_linear_2405_61" x1="458.748" y1="0" x2="458.748" y2="339.928" gradientUnits="userSpaceOnUse">
<stop stop-color="white" stop-opacity="0"/>
<stop offset="0.213542" stop-color="white"/>
<stop offset="0.786458" stop-color="white"/>
<stop offset="1" stop-color="white" stop-opacity="0"/>
</linearGradient>
<linearGradient id="paint6_linear_2405_61" x1="393.655" y1="0" x2="393.655" y2="339.928" gradientUnits="userSpaceOnUse">
<stop stop-color="white" stop-opacity="0"/>
<stop offset="0.213542" stop-color="white"/>
<stop offset="0.786458" stop-color="white"/>
<stop offset="1" stop-color="white" stop-opacity="0"/>
</linearGradient>
<linearGradient id="paint7_linear_2405_61" x1="327.529" y1="0" x2="327.529" y2="339.928" gradientUnits="userSpaceOnUse">
<stop stop-color="white" stop-opacity="0"/>
<stop offset="0.213542" stop-color="white"/>
<stop offset="0.786458" stop-color="white"/>
<stop offset="1" stop-color="white" stop-opacity="0"/>
</linearGradient>
<linearGradient id="paint8_linear_2405_61" x1="262.437" y1="0" x2="262.437" y2="339.928" gradientUnits="userSpaceOnUse">
<stop stop-color="white" stop-opacity="0"/>
<stop offset="0.213542" stop-color="white"/>
<stop offset="0.786458" stop-color="white"/>
<stop offset="1" stop-color="white" stop-opacity="0"/>
</linearGradient>
<linearGradient id="paint9_linear_2405_61" x1="196.311" y1="0" x2="196.311" y2="339.928" gradientUnits="userSpaceOnUse">
<stop stop-color="white" stop-opacity="0"/>
<stop offset="0.213542" stop-color="white"/>
<stop offset="0.786458" stop-color="white"/>
<stop offset="1" stop-color="white" stop-opacity="0"/>
</linearGradient>
<linearGradient id="paint10_linear_2405_61" x1="131.218" y1="0" x2="131.218" y2="339.928" gradientUnits="userSpaceOnUse">
<stop stop-color="white" stop-opacity="0"/>
<stop offset="0.213542" stop-color="white"/>
<stop offset="0.786458" stop-color="white"/>
<stop offset="1" stop-color="white" stop-opacity="0"/>
</linearGradient>
<linearGradient id="paint11_linear_2405_61" x1="65.0926" y1="0" x2="65.0926" y2="339.928" gradientUnits="userSpaceOnUse">
<stop stop-color="white" stop-opacity="0"/>
<stop offset="0.213542" stop-color="white"/>
<stop offset="0.786458" stop-color="white"/>
<stop offset="1" stop-color="white" stop-opacity="0"/>
</linearGradient>
<linearGradient id="paint12_linear_2405_61" x1="721.185" y1="270.703" x2="0" y2="270.703" gradientUnits="userSpaceOnUse">
<stop stop-color="white" stop-opacity="0"/>
<stop offset="0.213542" stop-color="white"/>
<stop offset="0.786458" stop-color="white"/>
<stop offset="1" stop-color="white" stop-opacity="0"/>
</linearGradient>
<linearGradient id="paint13_linear_2405_61" x1="721.185" y1="203.543" x2="0" y2="203.543" gradientUnits="userSpaceOnUse">
<stop stop-color="white" stop-opacity="0"/>
<stop offset="0.213542" stop-color="white"/>
<stop offset="0.786458" stop-color="white"/>
<stop offset="1" stop-color="white" stop-opacity="0"/>
</linearGradient>
<linearGradient id="paint14_linear_2405_61" x1="721.185" y1="135.351" x2="0" y2="135.351" gradientUnits="userSpaceOnUse">
<stop stop-color="white" stop-opacity="0"/>
<stop offset="0.213542" stop-color="white"/>
<stop offset="0.786458" stop-color="white"/>
<stop offset="1" stop-color="white" stop-opacity="0"/>
</linearGradient>
<linearGradient id="paint15_linear_2405_61" x1="721.185" y1="68.1924" x2="0" y2="68.1923" gradientUnits="userSpaceOnUse">
<stop stop-color="white" stop-opacity="0"/>
<stop offset="0.213542" stop-color="white"/>
<stop offset="0.786458" stop-color="white"/>
<stop offset="1" stop-color="white" stop-opacity="0"/>
</linearGradient>
</defs>
</svg>
