<svg width="605" height="219" viewBox="0 0 605 219" fill="none" xmlns="http://www.w3.org/2000/svg">
<path d="M3 212.894C1.57343 212.894 0.41696 214.051 0.41696 215.477C0.41696 216.904 1.57343 218.06 3 218.06V212.894ZM577.124 14C577.124 21.6084 583.292 27.7762 590.9 27.7762C598.508 27.7762 604.676 21.6084 604.676 14C604.676 6.39161 598.508 0.223787 590.9 0.223787C583.292 0.223787 577.124 6.39161 577.124 14ZM3 218.06C63.8335 218.06 211.097 222.978 343.109 200.2C409.104 188.812 471.561 170.463 517.58 140.935C563.697 111.345 593.483 70.3846 593.483 14H588.317C588.317 68.1695 559.855 107.671 514.791 136.587C469.629 165.564 407.97 183.765 342.231 195.109C210.772 217.792 64.086 212.894 3 212.894V218.06Z" fill="url(#paint0_linear_2405_81)"/>
<defs>
<linearGradient id="paint0_linear_2405_81" x1="590.9" y1="13.4834" x2="2.99999" y2="214.961" gradientUnits="userSpaceOnUse">
<stop stop-color="white"/>
<stop offset="1" stop-color="white" stop-opacity="0"/>
</linearGradient>
</defs>
</svg>
