<svg width="101" height="309" viewBox="0 0 101 309" fill="none" xmlns="http://www.w3.org/2000/svg">
<path opacity="0.5" d="M100.791 307.066L66.1927 308.78L82.0082 277.96L100.791 307.066ZM88.5287 303.811C86.1307 302.392 83.7837 300.924 81.4874 299.409L84.7914 294.401C87.0063 295.862 89.2704 297.278 91.5841 298.647L88.5287 303.811ZM74.7018 294.69C72.4602 293.048 70.2714 291.36 68.1352 289.627L71.9146 284.967C73.9747 286.638 76.0854 288.266 78.2472 289.85L74.7018 294.69ZM61.8294 284.251C59.7686 282.404 57.7619 280.515 55.8089 278.585L60.026 274.317C61.9101 276.179 63.8457 278.001 65.8333 279.782L61.8294 284.251ZM50.052 272.614C48.1798 270.575 46.3627 268.497 44.6004 266.383L49.2091 262.541C50.9106 264.582 52.6645 266.588 54.4713 268.555L50.052 272.614ZM39.4566 259.907C37.7868 257.7 36.1727 255.458 34.6139 253.185L39.5622 249.792C41.0688 251.989 42.6285 254.155 44.2415 256.287L39.4566 259.907ZM30.0931 246.258C28.6374 243.912 27.2374 241.537 25.8926 239.136L31.1276 236.204C32.429 238.528 33.7835 240.825 35.1912 243.094L30.0931 246.258ZM22.0107 231.829C20.7701 229.365 19.5849 226.876 18.4549 224.367L23.9258 221.903C25.0207 224.335 26.1686 226.745 27.3699 229.131L22.0107 231.829ZM15.2234 216.762C14.1985 214.201 13.2289 211.62 12.3141 209.024L17.9731 207.03C18.8603 209.548 19.8005 212.05 20.794 214.533L15.2234 216.762ZM9.73015 201.179C8.92192 198.544 8.16864 195.895 7.46993 193.237L13.2729 191.712C13.9511 194.292 14.6822 196.862 15.4664 199.419L9.73015 201.179ZM5.53111 185.205C4.93818 182.512 4.4001 179.812 3.91652 177.108L9.82287 176.052C10.2925 178.678 10.815 181.3 11.3907 183.914L5.53111 185.205ZM2.62549 168.956C2.2478 166.222 1.92514 163.485 1.65718 160.75L7.6286 160.165C7.88885 162.822 8.20223 165.479 8.56906 168.135L2.62549 168.956ZM1.01533 152.519C0.855554 149.766 0.750981 147.017 0.701274 144.274L6.70029 144.166C6.74855 146.828 6.85009 149.498 7.00525 152.171L1.01533 152.519ZM0.717836 136.006C0.779182 133.244 0.896506 130.491 1.06947 127.752L7.05755 128.13C6.88975 130.788 6.7759 133.458 6.71636 136.139L0.717836 136.006ZM1.75968 119.531C2.04893 116.776 2.39535 114.037 2.7986 111.318L8.73368 112.199C8.34304 114.832 8.00731 117.487 7.72689 120.158L1.75968 119.531ZM4.19031 103.163C4.71569 100.446 5.29934 97.7529 5.94095 95.0866L11.7744 96.4904C11.1542 99.0678 10.5896 101.673 10.0812 104.302L4.19031 103.163ZM8.06469 87.085C8.8407 84.4166 9.67707 81.78 10.5735 79.1789L16.2461 81.1339C15.382 83.6411 14.5752 86.1844 13.826 88.7605L8.06469 87.085ZM13.4717 71.4134C14.5089 68.8383 15.6084 66.3037 16.7696 63.8138L22.2073 66.3498C21.0921 68.7409 20.0352 71.1773 19.0371 73.6552L13.4717 71.4134ZM20.4935 56.3795C21.8129 53.9227 23.197 51.517 24.6456 49.1667L29.7533 52.3149C28.3685 54.5616 27.0437 56.8641 25.7795 59.2182L20.4935 56.3795ZM29.2305 42.2211C30.8392 39.9444 32.5145 37.7297 34.2561 35.5818L38.9165 39.3607C37.2602 41.4035 35.6647 43.5125 34.1307 45.6834L29.2305 42.2211ZM39.7338 29.2848C41.6403 27.2428 43.6149 25.2749 45.6571 23.3859L49.7313 27.7906C47.7987 29.5781 45.9279 31.4425 44.1194 33.3795L39.7338 29.2848ZM52.0066 17.9449C54.192 16.213 56.4449 14.5661 58.7647 13.0089L62.1086 17.9907C59.9219 19.4585 57.7965 21.0122 55.733 22.6474L52.0066 17.9449ZM65.9073 8.62157C68.3335 7.26353 70.8241 5.99869 73.3784 4.8318L75.8716 10.2893C73.4672 11.3877 71.1224 12.5785 68.8377 13.8572L65.9073 8.62157ZM81.1232 1.66891C82.4401 1.19265 83.772 0.741253 85.1189 0.315265L86.9282 6.03597C85.6589 6.43741 84.4041 6.86268 83.1638 7.31125L81.1232 1.66891Z" fill="url(#paint0_linear_2421_339)"/>
<defs>
<linearGradient id="paint0_linear_2421_339" x1="-98.283" y1="290.573" x2="109.909" y2="10.4818" gradientUnits="userSpaceOnUse">
<stop stop-color="white"/>
<stop offset="1" stop-color="white" stop-opacity="0"/>
</linearGradient>
</defs>
</svg>
