<svg width="95" height="180" viewBox="0 0 95 180" fill="none" xmlns="http://www.w3.org/2000/svg">
<path opacity="0.5" d="M91.9219 169.562L58.8254 179.79L66.5156 146.013L91.9219 169.562ZM79.7353 169.609C77.1293 168.868 74.5872 168.081 72.109 167.25L74.0166 161.561C76.4048 162.362 78.8578 163.122 81.3761 163.838L79.7353 169.609ZM64.6181 164.53C62.1036 163.544 59.6625 162.511 57.2947 161.431L59.7832 155.972C62.0507 157.005 64.3923 157.997 66.8082 158.944L64.6181 164.53ZM50.1584 157.927C47.7596 156.66 45.4466 155.342 43.2196 153.978L46.3534 148.862C48.4699 150.158 50.6723 151.413 52.9613 152.622L50.1584 157.927ZM36.5198 149.553C34.2955 147.97 32.1726 146.335 30.1513 144.654L33.9882 140.041C35.8916 141.624 37.8953 143.167 39.9999 144.666L36.5198 149.553ZM24.1757 139.263C22.2203 137.347 20.3838 135.382 18.6663 133.374L23.2262 129.474C24.8268 131.346 26.5428 133.182 28.3749 134.977L24.1757 139.263ZM13.7069 126.992C12.1297 124.748 10.6901 122.461 9.3883 120.138L14.6223 117.205C15.8229 119.347 17.1537 121.462 18.6158 123.542L13.7069 126.992ZM5.80413 112.854C4.72947 110.331 3.80932 107.777 3.04378 105.202L8.7951 103.492C9.49507 105.847 10.3377 108.187 11.3242 110.503L5.80413 112.854ZM1.18297 97.2558C0.718725 94.5604 0.419574 91.8525 0.285196 89.1417L6.27784 88.8447C6.40018 91.3127 6.67262 93.7798 7.0959 96.2373L1.18297 97.2558ZM0.378338 80.9793C0.574555 78.2715 0.935268 75.5722 1.45963 72.8913L7.34806 74.0429C6.86987 76.4879 6.54131 78.9474 6.36265 81.4129L0.378338 80.9793ZM3.49629 64.9951C4.3207 62.4314 5.29883 59.8952 6.42955 57.3953L11.8963 59.868C10.8582 62.1632 9.96221 64.4872 9.20823 66.8319L3.49629 64.9951ZM10.1796 50.1804C11.5337 47.8849 13.0236 45.6303 14.6484 43.424L19.4797 46.9818C17.9737 49.0268 16.5964 51.1116 15.3475 53.2288L10.1796 50.1804ZM19.7496 37.1532C21.5144 35.1814 23.3962 33.2581 25.3941 31.3893L29.4928 35.7713C27.622 37.5211 25.8646 39.3175 24.2205 41.1546L19.7496 37.1532ZM31.4997 26.1383C33.565 24.5035 35.7298 22.9206 37.9937 21.3942L41.3479 26.3691C39.2082 27.8117 37.1669 29.3046 35.2238 30.8427L31.4997 26.1383ZM44.7885 17.1575C47.0517 15.8535 49.3985 14.6014 51.8286 13.4047L54.4794 18.7874C52.1638 19.9277 49.932 21.1186 47.7839 22.3563L44.7885 17.1575ZM59.0804 10.1048C61.486 9.09553 63.9632 8.137 66.5115 7.23208L68.5193 12.8862C66.0746 13.7543 63.702 14.6725 61.4017 15.6376L59.0804 10.1048ZM74.099 4.76126C76.6023 4.01685 79.1673 3.3214 81.7936 2.67724L83.2229 8.50452C80.6891 9.12598 78.2179 9.7961 75.8093 10.5124L74.099 4.76126ZM89.4997 0.971273C90.8061 0.712261 92.1265 0.465377 93.4606 0.230873L94.4993 6.14029C93.2076 6.36733 91.9299 6.60624 90.6665 6.85672L89.4997 0.971273Z" fill="url(#paint0_linear_2421_337)"/>
<defs>
<linearGradient id="paint0_linear_2421_337" x1="-27.3564" y1="167.678" x2="86.1869" y2="-7.8363" gradientUnits="userSpaceOnUse">
<stop stop-color="white"/>
<stop offset="1" stop-color="white" stop-opacity="0"/>
</linearGradient>
</defs>
</svg>
