<svg width="115" height="247" viewBox="0 0 115 247" fill="none" xmlns="http://www.w3.org/2000/svg">
<path opacity="0.5" d="M114.875 235.429L81.9008 246.045L89.1948 212.18L114.875 235.429ZM102.359 235.543C99.7038 234.823 97.1038 234.056 94.5591 233.242L96.3868 227.527C98.8449 228.313 101.359 229.055 103.929 229.752L102.359 235.543ZM86.9159 230.599C84.3235 229.633 81.7934 228.616 79.3249 227.552L81.7007 222.042C84.0755 223.066 86.5121 224.045 89.0112 224.976L86.9159 230.599ZM72.0039 224.167C69.5145 222.936 67.0942 221.653 64.7422 220.321L67.699 215.1C69.9527 216.376 72.2742 217.607 74.6644 218.789L72.0039 224.167ZM57.7772 216.107C55.4673 214.616 53.2313 213.075 51.0685 211.487L54.6195 206.651C56.6847 208.167 58.8215 209.64 61.0309 211.066L57.7772 216.107ZM44.6115 206.429C42.5023 204.667 40.4728 202.857 38.5221 201.003L42.6559 196.654C44.5135 198.42 46.4473 200.145 48.4584 201.825L44.6115 206.429ZM32.7857 195.182C30.9146 193.153 29.1287 191.081 27.4268 188.969L32.0987 185.205C33.7169 187.213 35.4155 189.184 37.1957 191.113L32.7857 195.182ZM22.5119 182.432C20.9391 180.187 19.4538 177.904 18.0547 175.588L23.19 172.485C24.5198 174.686 25.9315 176.856 27.4264 178.99L22.5119 182.432ZM14.0506 168.424C12.7935 165.985 11.6259 163.516 10.5464 161.023L16.0523 158.639C17.0789 161.01 18.1891 163.357 19.3841 165.676L14.0506 168.424ZM7.54832 153.414C6.63006 150.835 5.80129 148.236 5.06049 145.622L10.8331 143.986C11.5383 146.474 12.327 148.948 13.2007 151.401L7.54832 153.414ZM3.08602 137.675C2.51317 134.999 2.02918 132.314 1.63243 129.624L7.56822 128.748C7.94629 131.312 8.40742 133.87 8.95303 136.418L3.08602 137.675ZM0.698813 121.503C0.473493 118.78 0.335662 116.057 0.2837 113.341L6.2826 113.226C6.33215 115.816 6.46357 118.412 6.67837 121.008L0.698813 121.503ZM0.386335 105.159C0.507184 102.426 0.714406 99.7057 1.00636 97.0024L6.97167 97.6467C6.69331 100.224 6.49572 102.818 6.38047 105.424L0.386335 105.159ZM2.14263 88.905C2.60876 86.2111 3.15999 83.5406 3.79465 80.8993L9.62859 82.3012C9.02418 84.8165 8.49901 87.3607 8.05478 89.928L2.14263 88.905ZM5.96691 73.0062C6.78099 70.3886 7.67958 67.8071 8.66101 65.2678L14.2575 67.4308C13.3251 69.8434 12.4707 72.2977 11.6962 74.788L5.96691 73.0062ZM11.8772 57.7296C13.0407 55.2457 14.2878 52.8116 15.617 50.4337L20.8543 53.3613C19.5961 55.6122 18.4142 57.9188 17.3106 60.2747L11.8772 57.7296ZM19.8818 43.4255C21.3978 41.1325 22.9967 38.9041 24.6767 36.7475L29.41 40.4347C27.8271 42.4666 26.3188 44.5686 24.887 46.7344L19.8818 43.4255ZM29.9927 30.4622C31.8529 28.4367 33.794 26.4915 35.8142 24.6339L39.8753 29.0507C37.9817 30.7918 36.1599 32.6172 34.412 34.5206L29.9927 30.4622ZM42.121 19.3232C44.2991 17.6476 46.5542 16.0673 48.8843 14.5896L52.0977 19.6566C49.9229 21.0358 47.8162 22.5119 45.7796 24.0788L42.121 19.3232ZM56.0657 10.488C58.5033 9.24242 61.0108 8.10356 63.5863 7.07835L65.8054 12.6529C63.4053 13.6083 61.0682 14.6697 58.796 15.8309L56.0657 10.488ZM71.3853 4.38828C73.9971 3.62137 76.6692 2.96682 79.3997 2.43055L80.556 8.31807C78.0053 8.81904 75.5114 9.43004 73.0757 10.1452L71.3853 4.38828ZM87.571 1.20264C90.2698 0.918363 93.0186 0.746015 95.8156 0.690421L95.9348 6.68924C93.3062 6.74148 90.7274 6.90336 88.1995 7.16963L87.571 1.20264ZM103.99 0.856618C105.368 0.938981 106.756 1.04895 108.154 1.18704L107.564 7.158C106.242 7.02745 104.931 6.92362 103.632 6.84592L103.99 0.856618Z" fill="url(#paint0_linear_2421_338)"/>
<defs>
<linearGradient id="paint0_linear_2421_338" x1="-40.8993" y1="225.853" x2="117.9" y2="3.26641" gradientUnits="userSpaceOnUse">
<stop stop-color="white"/>
<stop offset="1" stop-color="white" stop-opacity="0"/>
</linearGradient>
</defs>
</svg>
