<svg width="28" height="30" viewBox="0 0 28 30" fill="none" xmlns="http://www.w3.org/2000/svg">
<path d="M13.9905 30C12.0796 30 10.2736 29.6063 8.57239 28.8189C6.87125 28.0315 5.38468 26.9564 4.11267 25.5936C2.84068 24.2307 1.83724 22.6381 1.10233 20.8158C0.367443 18.9934 0 17.0587 0 15.0117C0 12.8914 0.369549 10.9214 1.10865 9.10153C1.84777 7.28168 2.86492 5.69483 4.1601 4.34099C5.45531 2.98715 6.96902 1.92519 8.70124 1.15511C10.4335 0.385037 12.2876 0 14.2637 0C16.1016 0 17.8506 0.333072 19.5106 0.999218C21.1707 1.66536 22.6299 2.58967 23.8884 3.77214C25.147 4.95458 26.1469 6.35607 26.8881 7.9766C27.6294 9.59713 28 11.361 28 13.2681C28 15.956 27.2842 18.1257 25.8526 19.7771C24.421 21.4284 22.4704 22.2541 20.0008 22.2541H17.7918C17.4118 22.2541 17.0818 22.4162 16.8018 22.7404C16.5217 23.0646 16.3817 23.425 16.3817 23.8215C16.3817 24.4458 16.5164 24.9258 16.7856 25.2615C17.0549 25.5972 17.1895 26.0394 17.1895 26.5882C17.1895 27.5869 16.897 28.4053 16.3121 29.0432C15.7271 29.6811 14.9532 30 13.9905 30ZM6.29094 15.9513C6.74138 15.9513 7.13551 15.7703 7.47334 15.4084C7.81116 15.0464 7.98008 14.6241 7.98008 14.1415C7.98008 13.6589 7.81116 13.2366 7.47334 12.8747C7.13551 12.5127 6.74138 12.3317 6.29094 12.3317C5.84051 12.3317 5.44638 12.5127 5.10855 12.8747C4.77072 13.2366 4.60181 13.6589 4.60181 14.1415C4.60181 14.6241 4.77072 15.0464 5.10855 15.4084C5.44638 15.7703 5.84051 15.9513 6.29094 15.9513ZM10.4617 9.94127C10.9184 9.94127 11.3157 9.76029 11.6536 9.39833C11.9914 9.03637 12.1603 8.61409 12.1603 8.13148C12.1603 7.63521 11.9914 7.20951 11.6536 6.85439C11.3157 6.49926 10.9216 6.32169 10.4712 6.32169C10.008 6.32169 9.61071 6.49926 9.27926 6.85439C8.94778 7.20951 8.78204 7.6318 8.78204 8.12124C8.78204 8.61067 8.94778 9.03637 9.27926 9.39833C9.61071 9.76029 10.0048 9.94127 10.4617 9.94127ZM17.5193 9.94127C17.9761 9.94127 18.3734 9.76029 18.7112 9.39833C19.049 9.03637 19.218 8.61409 19.218 8.13148C19.218 7.63521 19.049 7.20951 18.7112 6.85439C18.3734 6.49926 17.9793 6.32169 17.5288 6.32169C17.0657 6.32169 16.6683 6.49926 16.3369 6.85439C16.0054 7.20951 15.8397 7.6318 15.8397 8.12124C15.8397 8.61067 16.0054 9.03637 16.3369 9.39833C16.6683 9.76029 17.0625 9.94127 17.5193 9.94127ZM21.8207 15.9513C22.2711 15.9513 22.6652 15.7703 23.0031 15.4084C23.3409 15.0464 23.5098 14.6241 23.5098 14.1415C23.5098 13.6589 23.3409 13.2366 23.0031 12.8747C22.6652 12.5127 22.2711 12.3317 21.8207 12.3317C21.3575 12.3317 20.9602 12.5127 20.6288 12.8747C20.2973 13.2366 20.1315 13.6589 20.1315 14.1415C20.1315 14.6241 20.2973 15.0464 20.6288 15.4084C20.9602 15.7703 21.3575 15.9513 21.8207 15.9513ZM13.9141 27.1326C14.1204 27.1326 14.2719 27.0849 14.3685 26.9893C14.4651 26.8937 14.5133 26.7357 14.5133 26.5153C14.5133 26.1715 14.3469 25.8735 14.0139 25.6215C13.681 25.3694 13.5146 24.7657 13.5146 23.8105C13.5146 22.6572 13.8713 21.6316 14.5849 20.7337C15.2985 19.8357 16.1911 19.3868 17.2626 19.3868H20.0008C21.687 19.3868 22.9926 18.8533 23.9174 17.7863C24.8423 16.7193 25.3047 15.2541 25.3047 13.3909C25.3047 10.2056 24.1876 7.65882 21.9533 5.75042C19.719 3.84201 17.1571 2.8878 14.2674 2.8878C11.0342 2.8878 8.29407 4.06171 6.04693 6.40954C3.79977 8.75736 2.6762 11.6275 2.6762 15.02C2.6762 18.375 3.77413 21.2325 5.97001 23.5926C8.16586 25.9526 10.8139 27.1326 13.9141 27.1326Z" fill="white"/>
</svg>
