<svg width="627" height="394" viewBox="0 0 627 394" fill="none" xmlns="http://www.w3.org/2000/svg">
<mask id="mask0_2406_121" style="mask-type:alpha" maskUnits="userSpaceOnUse" x="200" y="0" width="226" height="251">
<path d="M343.824 12.8945L245.53 68.6325C236.822 73.5711 231.422 82.8539 231.422 92.854V208.275L216.433 199.617C206.27 193.746 200 182.895 200 171.143V78.9707C200 67.2186 206.27 56.3681 216.433 50.4972L296.265 4.41088C306.438 -1.47029 318.968 -1.47029 329.132 4.41088L343.824 12.8945Z" fill="#FF3F61"/>
<path d="M384.323 36.2751L286.173 91.9311C277.464 96.8594 272.055 106.142 272.055 116.142V231.727L239.618 212.997V92.8533C239.618 85.7938 243.429 79.2466 249.566 75.763L352.06 17.6479L384.323 36.2751Z" fill="#DE46D8"/>
<path d="M425.395 78.9704V88.0278C425.395 90.3127 424.432 92.5053 422.7 93.9807C421.502 94.9951 420.077 95.9992 418.51 96.8803L326.732 148.909C319.335 153.1 310.156 153.1 302.758 148.909L281.786 137.024C280.834 136.481 280.25 135.477 280.25 134.381V116.132C280.25 109.073 284.071 102.526 290.208 99.0525L390.878 41.9722H390.899C391.923 41.3677 393.184 41.3677 394.208 41.962L408.972 50.4866C419.145 56.3576 425.405 67.208 425.405 78.9601L425.395 78.9704Z" fill="#A34EDF"/>
<path d="M425.395 105.66V138.98C425.395 141.521 424.247 143.919 422.27 145.517C421.163 146.408 419.883 147.279 418.51 148.058L326.732 200.087C319.335 204.288 310.156 204.288 302.758 200.087L282.739 188.745C281.202 187.874 280.25 186.234 280.25 184.462V148.826C280.25 147.382 281.807 146.48 283.057 147.187L298.712 156.06C303.66 158.867 309.203 160.261 314.745 160.261C320.288 160.261 325.831 158.867 330.779 156.06L422.547 104.031H422.567C423.827 103.304 425.395 104.205 425.395 105.66Z" fill="#9378FF"/>
<path d="M422.567 155.168C423.828 154.451 425.395 155.342 425.395 156.797V171.141C425.395 182.893 419.135 193.744 408.962 199.615L329.13 245.701C318.967 251.582 306.437 251.582 296.263 245.701L280.107 236.377C280.199 236.039 280.25 235.681 280.25 235.312V199.973C280.25 198.529 281.807 197.627 283.057 198.334L298.712 207.207C303.66 210.015 309.203 211.418 314.746 211.418C320.289 211.418 325.831 210.015 330.78 207.207L422.547 155.178C422.547 155.178 422.557 155.178 422.567 155.168Z" fill="#78BEFF"/>
</mask>
<g mask="url(#mask0_2406_121)">
<rect x="138.481" y="-29.3979" width="348.33" height="349.31" fill="url(#paint0_linear_2406_121)"/>
</g>
<path d="M56.6698 391.474L52.7422 379.183H23.5657L19.638 391.474H0L26.7077 313.262H49.6001L76.3078 391.474H56.6698ZM28.9521 362.423H47.3557L38.1539 333.708L28.9521 362.423Z" fill="white"/>
<path d="M105.449 313.262H123.404V391.474H105.449V313.262Z" fill="white"/>
<path d="M196.825 393.038C185.079 393.038 175.317 389.165 167.536 381.418C159.831 373.597 155.978 363.913 155.978 352.368C155.978 340.822 159.831 331.176 167.536 323.429C175.317 315.608 185.079 311.697 196.825 311.697C203.857 311.697 210.366 313.336 216.351 316.613C222.336 319.816 227.049 324.211 230.49 329.798L215.004 338.736C213.283 335.682 210.815 333.336 207.598 331.697C204.381 329.984 200.79 329.127 196.825 329.127C189.867 329.127 184.294 331.25 180.105 335.496C175.99 339.742 173.933 345.366 173.933 352.368C173.933 359.369 175.99 364.993 180.105 369.239C184.294 373.485 189.867 375.608 196.825 375.608C200.79 375.608 204.381 374.751 207.598 373.038C210.889 371.325 213.358 368.978 215.004 365.999L230.49 374.937C227.124 380.524 222.448 384.956 216.463 388.233C210.478 391.436 203.932 393.038 196.825 393.038Z" fill="white"/>
<path d="M303.991 313.262H321.946V391.474H303.991V360.412H279.303V391.474H261.348V313.262H279.303V343.206H303.991V313.262Z" fill="white"/>
<path d="M407.809 391.474L403.882 379.183H374.705L370.778 391.474H351.14L377.847 313.262H400.74L427.447 391.474H407.809ZM380.092 362.423H398.495L389.293 333.708L380.092 362.423Z" fill="white"/>
<path d="M497.885 391.474L483.072 365.775H474.544V391.474H456.589V313.262H488.01C495.491 313.262 501.85 315.869 507.087 321.083C512.323 326.297 514.942 332.628 514.942 340.077C514.942 344.844 513.595 349.276 510.902 353.373C508.284 357.396 504.805 360.524 500.466 362.759L517.186 391.474H497.885ZM474.544 330.021V350.133H488.01C490.479 350.133 492.573 349.165 494.294 347.228C496.089 345.291 496.987 342.908 496.987 340.077C496.987 337.247 496.089 334.863 494.294 332.926C492.573 330.99 490.479 330.021 488.01 330.021H474.544Z" fill="white"/>
<path d="M626.625 313.262V391.474H608.67V345.999L588.358 379.183H586.338L566.027 345.999V391.474H548.072V313.262H566.027L587.348 348.01L608.67 313.262H626.625Z" fill="white"/>
<defs>
<linearGradient id="paint0_linear_2406_121" x1="253.793" y1="10.1281" x2="380.81" y2="224.636" gradientUnits="userSpaceOnUse">
<stop stop-color="#F9206A"/>
<stop offset="0.515625" stop-color="#9A46CA"/>
<stop offset="1" stop-color="#35EBF3"/>
</linearGradient>
</defs>
</svg>
