<svg width="20" height="29" viewBox="0 0 20 29" fill="none" xmlns="http://www.w3.org/2000/svg">
<path d="M2.70371 29C1.96408 29 1.32855 28.7508 0.797131 28.2524C0.26571 27.754 0 27.158 0 26.4643V2.5357C0 1.84203 0.26571 1.24599 0.797131 0.747595C1.32855 0.249197 1.96408 0 2.70371 0H17.2963C18.0359 0 18.6714 0.249197 19.2029 0.747595C19.7343 1.24599 20 1.84203 20 2.5357V26.4643C20 27.158 19.7343 27.754 19.2029 28.2524C18.6714 28.7508 18.0359 29 17.2963 29L2.70371 29ZM2.70371 25.504V26.4643H17.2963V25.504H2.70371ZM2.70371 23.5835H17.2963V5.41649H2.70371V23.5835ZM2.70371 3.49596H17.2963V2.5357H2.70371V3.49596Z" fill="white"/>
</svg>
