<svg width="63" height="61" viewBox="0 0 63 61" fill="none" xmlns="http://www.w3.org/2000/svg">
<path d="M23.73 61C21.0189 61 18.6753 60.0461 16.6994 58.1383C14.7233 56.2305 13.4918 54.0416 13.0049 51.5716C9.36724 51.6073 6.29034 50.3235 3.7742 47.7203C1.25807 45.1171 0 41.8551 0 37.9341C0 36.5861 0.172552 35.2923 0.517655 34.0529C0.862705 32.8135 1.38033 31.628 2.07054 30.4965C1.38033 29.4504 0.862705 28.3159 0.517655 27.093C0.172552 25.87 0 24.5586 0 23.1587C0 19.7186 1.19718 16.7467 3.59154 14.2431C5.98596 11.7394 8.8401 10.3116 12.154 9.95985C12.4778 7.14029 13.6668 4.77544 15.7211 2.8653C17.7754 0.955098 20.2368 0 23.1052 0C24.8523 0 26.3895 0.325695 27.7168 0.977081C29.0441 1.62847 30.2974 2.5782 31.4769 3.8263C32.6564 2.60997 33.9031 1.66816 35.2169 1.00086C36.5306 0.333622 38.0424 0 39.7522 0C42.5555 0 44.9836 0.962807 47.0364 2.88842C49.0892 4.81409 50.3047 7.18668 50.6829 10.0062C54.0479 10.2714 56.9419 11.6474 59.3652 14.1344C61.7884 16.6213 63 19.6249 63 23.145C63 24.5994 62.7985 25.9601 62.3954 27.2272C61.9924 28.4942 61.4304 29.6577 60.7095 30.7175C61.3075 31.842 61.7696 33.0289 62.0958 34.2782C62.422 35.5275 62.5851 36.7421 62.5851 37.922C62.5851 41.7032 61.3808 44.8396 58.9723 47.3312C56.5637 49.8229 53.602 51.1127 50.0872 51.2007C49.631 53.7634 48.3828 56.0374 46.3425 58.0224C44.3023 60.0075 41.9294 61 39.2238 61C37.5822 61 36.1738 60.7421 34.9984 60.2262C33.8231 59.7103 32.6493 58.9365 31.4769 57.9047C30.3046 58.9511 29.1253 59.7286 27.9393 60.2372C26.7532 60.7457 25.3501 61 23.73 61ZM34.5686 10.8157V50.5088C34.5686 51.7244 35.0301 52.748 35.953 53.5797C36.8759 54.4114 37.9921 54.8273 39.3014 54.8273C40.5639 54.8273 41.6578 54.2757 42.5831 53.1726C43.5085 52.0695 44.0102 50.9391 44.0882 49.7813C43.0837 49.3748 42.1453 48.8488 41.2731 48.2034C40.4009 47.558 39.6611 46.7812 39.0536 45.873C38.5266 45.1479 38.3346 44.3836 38.4777 43.5801C38.6209 42.7766 39.0512 42.1121 39.7684 41.5867C40.4855 41.0613 41.2489 40.8687 42.0585 41.009C42.8681 41.1493 43.5364 41.582 44.0635 42.3071C44.7087 43.1985 45.5043 43.8808 46.4502 44.3539C47.396 44.827 48.4429 45.0635 49.5909 45.0635C51.4793 45.0635 53.0942 44.4112 54.4356 43.1066C55.7771 41.8021 56.4478 40.0735 56.4478 37.9209C56.4478 37.4674 56.4011 36.9693 56.3077 36.4267C56.2144 35.8841 56.098 35.3587 55.9586 34.8506C55.1336 35.3759 54.2217 35.7854 53.2226 36.079C52.2236 36.3726 51.1903 36.5194 50.1227 36.5194C49.2662 36.5194 48.5445 36.2252 47.9575 35.6368C47.3706 35.0484 47.0771 34.3139 47.0771 33.433C47.0771 32.5522 47.3706 31.8176 47.9575 31.2292C48.5445 30.6408 49.2662 30.3466 50.1227 30.3466C51.9911 30.3466 53.5815 29.6422 54.894 28.2333C56.2064 26.8244 56.8627 25.1395 56.8627 23.1785C56.8627 21.2722 56.163 19.6427 54.7637 18.29C53.3645 16.9373 51.7784 16.2063 50.0057 16.0969C49.4006 17.5638 48.5568 18.8571 47.4742 19.9768C46.3917 21.0965 45.1212 21.9333 43.6628 22.4873C42.8261 22.7915 42.0143 22.7696 41.2276 22.4215C40.4408 22.0734 39.9123 21.4796 39.6421 20.6401C39.394 19.8294 39.4519 19.0401 39.8159 18.2722C40.1799 17.5043 40.7496 16.9647 41.5249 16.6532C42.4519 16.3187 43.1948 15.6742 43.7535 14.7196C44.3123 13.765 44.5917 12.7097 44.5917 11.5539C44.5917 10.072 44.0886 8.80471 43.0824 7.75192C42.0762 6.69914 40.8858 6.17275 39.511 6.17275C38.159 6.17275 36.9972 6.62926 36.0258 7.54228C35.0543 8.45525 34.5686 9.54639 34.5686 10.8157ZM28.4313 50.5088V10.8157C28.4313 9.54639 27.9498 8.45525 26.9867 7.54228C26.0235 6.62926 24.8559 6.17275 23.4838 6.17275C22.0947 6.17275 20.8878 6.69766 19.8634 7.74749C18.8389 8.79727 18.3267 10.0609 18.3267 11.5384C18.3267 12.7136 18.5957 13.7618 19.1336 14.6829C19.6715 15.604 20.3977 16.2335 21.312 16.5712C22.0873 16.8827 22.6629 17.4223 23.0387 18.1902C23.4145 18.9581 23.4783 19.72 23.2302 20.476C22.9276 21.3176 22.3715 21.9256 21.562 22.3C20.7524 22.6745 19.9292 22.7095 19.0925 22.4052C17.6341 21.906 16.3772 21.0965 15.3218 19.9768C14.2664 18.8571 13.4362 17.5638 12.8311 16.0969C11.082 16.2919 9.52911 17.0443 8.1724 18.3542C6.81563 19.6642 6.13725 21.2591 6.13725 23.1391C6.13725 25.1313 6.78579 26.8306 8.08286 28.237C9.37999 29.6434 10.9627 30.3466 12.8311 30.3466C13.7007 30.3466 14.4334 30.6418 15.0292 31.2321C15.6249 31.8224 15.9228 32.5483 15.9228 33.4098C15.9228 34.3061 15.6249 35.0484 15.0292 35.6368C14.4334 36.2252 13.7007 36.5194 12.8311 36.5194C11.7313 36.5194 10.6669 36.3667 9.63787 36.0612C8.60886 35.7557 7.65118 35.3367 6.76483 34.8042C6.57102 35.3343 6.41799 35.8609 6.30572 36.384C6.19341 36.907 6.13725 37.4454 6.13725 37.9993C6.13725 40.1848 6.79258 41.9703 8.10325 43.356C9.41391 44.7416 11.0109 45.4344 12.8943 45.4344C13.9796 45.4344 15.014 45.1842 15.9972 44.6838C16.9805 44.1834 17.7948 43.4993 18.44 42.6315C18.9672 41.9611 19.6435 41.5421 20.4689 41.3745C21.2944 41.2069 22.046 41.3933 22.7239 41.9338C23.4017 42.4536 23.8239 43.1343 23.9906 43.976C24.1572 44.8175 23.977 45.5735 23.4499 46.2439C22.8732 47.0593 22.193 47.7589 21.4095 48.3425C20.6259 48.9261 19.7933 49.4014 18.9117 49.7681C18.9897 50.9347 19.4837 52.0695 20.3937 53.1726C21.3037 54.2757 22.4177 54.8273 23.7357 54.8273C25.0461 54.8273 26.1563 54.4114 27.0663 53.5797C27.9763 52.748 28.4313 51.7244 28.4313 50.5088Z" fill="white"/>
</svg>
