<svg width="74" height="68" viewBox="0 0 74 68" fill="none" xmlns="http://www.w3.org/2000/svg">
<path d="M28.0275 45.6187L52.725 29.7993L28.0275 13.9798V45.6187ZM23.125 67.0215V59.577H5.55C4.07 59.577 2.775 59.0187 1.665 57.902C0.555 56.7854 0 55.4826 0 53.9937V5.60482C0 4.11593 0.555 2.81315 1.665 1.69648C2.775 0.579818 4.07 0.0214844 5.55 0.0214844H68.45C69.93 0.0214844 71.225 0.579818 72.335 1.69648C73.445 2.81315 74 4.11593 74 5.60482V53.9937C74 55.4826 73.445 56.7854 72.335 57.902C71.225 59.0187 69.93 59.577 68.45 59.577H50.875V67.0215H23.125ZM5.55 53.9937H68.45V5.60482H5.55V53.9937Z" fill="white"/>
</svg>
