<svg width="722" height="340" viewBox="0 0 722 340" fill="none" xmlns="http://www.w3.org/2000/svg">
<g filter="url(#filter0_bi_2504_374)">
<rect x="0.561035" width="720.713" height="339.933" rx="13.9058" fill="url(#paint0_linear_2504_374)" fill-opacity="0.1"/>
</g>
<path d="M71.217 64.5685H74.4212C74.2543 66.1038 73.8149 67.4779 73.1028 68.6906C72.3908 69.9033 71.3839 70.8657 70.0821 71.5778C68.7804 72.2787 67.156 72.6292 65.209 72.6292C63.7849 72.6292 62.4887 72.3622 61.3205 71.8281C60.1634 71.2941 59.1676 70.5375 58.3332 69.5584C57.4987 68.5682 56.8534 67.3833 56.3973 66.0037C55.9522 64.613 55.7297 63.0665 55.7297 61.3642V58.9443C55.7297 57.2421 55.9522 55.7011 56.3973 54.3215C56.8534 52.9308 57.5043 51.7403 58.3499 50.7501C59.2066 49.7599 60.2357 48.9978 61.4373 48.4637C62.6389 47.9297 63.9907 47.6627 65.4927 47.6627C67.3285 47.6627 68.8805 48.0076 70.1489 48.6974C71.4172 49.3872 72.4019 50.344 73.1028 51.5678C73.8149 52.7806 74.2543 54.188 74.4212 55.7901H71.217C71.0612 54.6553 70.7719 53.6818 70.3492 52.8696C69.9264 52.0463 69.3256 51.4121 68.5468 50.967C67.7679 50.522 66.7499 50.2995 65.4927 50.2995C64.4135 50.2995 63.4622 50.5053 62.6389 50.917C61.8267 51.3286 61.1425 51.9127 60.5862 52.6693C60.041 53.4259 59.6293 54.3326 59.3512 55.3896C59.073 56.4466 58.934 57.6203 58.934 58.9109V61.3642C58.934 62.5547 59.0564 63.6728 59.3011 64.7187C59.557 65.7645 59.9409 66.6824 60.4527 67.4723C60.9645 68.2623 61.6153 68.8853 62.4053 69.3415C63.1952 69.7865 64.1298 70.009 65.209 70.009C66.5775 70.009 67.6678 69.7921 68.48 69.3582C69.2922 68.9243 69.9041 68.3012 70.3158 67.489C70.7386 66.6768 71.039 65.7033 71.217 64.5685ZM81.4306 57.0752V72.2954H78.3431V54.2381H81.3471L81.4306 57.0752ZM87.0714 54.1379L87.0547 57.0084C86.7988 56.9528 86.554 56.9194 86.3204 56.9083C86.0979 56.886 85.842 56.8749 85.5527 56.8749C84.8407 56.8749 84.212 56.9862 83.6669 57.2087C83.1217 57.4312 82.66 57.7427 82.2817 58.1433C81.9034 58.5438 81.603 59.0222 81.3805 59.5785C81.1691 60.1237 81.03 60.7245 80.9633 61.3809L80.0955 61.8816C80.0955 60.7912 80.2011 59.7676 80.4125 58.8108C80.6351 57.854 80.9744 57.0084 81.4306 56.2741C81.8867 55.5287 82.4653 54.9501 83.1662 54.5385C83.8783 54.1157 84.7238 53.9043 85.7029 53.9043C85.9254 53.9043 86.1813 53.9321 86.4706 53.9877C86.7599 54.0322 86.9601 54.0823 87.0714 54.1379ZM95.299 70.4263L100.322 54.2381H103.627L96.3838 75.0824C96.2169 75.5275 95.9944 76.0059 95.7162 76.5177C95.4492 77.0406 95.1043 77.5357 94.6815 78.003C94.2587 78.4703 93.7469 78.8486 93.1461 79.1378C92.5565 79.4382 91.85 79.5884 91.0267 79.5884C90.7819 79.5884 90.4704 79.5551 90.0921 79.4883C89.7138 79.4216 89.4468 79.3659 89.291 79.3214L89.2743 76.8181C89.3633 76.8292 89.5024 76.8403 89.6915 76.8515C89.8918 76.8737 90.0309 76.8848 90.1088 76.8848C90.8097 76.8848 91.4049 76.7903 91.8945 76.6011C92.384 76.4231 92.7957 76.1172 93.1295 75.6832C93.4744 75.2605 93.7692 74.6764 94.014 73.9309L95.299 70.4263ZM91.6108 54.2381L96.3003 68.2567L97.1014 71.511L94.8818 72.6459L88.2396 54.2381H91.6108ZM109.501 57.7093V79.238H106.397V54.2381H109.234L109.501 57.7093ZM121.667 63.1165V63.467C121.667 64.7799 121.512 65.9981 121.2 67.1219C120.889 68.2345 120.432 69.2024 119.832 70.0257C119.242 70.849 118.513 71.4888 117.645 71.9449C116.778 72.4011 115.782 72.6292 114.658 72.6292C113.512 72.6292 112.5 72.44 111.621 72.0618C110.742 71.6835 109.996 71.1328 109.384 70.4096C108.772 69.6864 108.283 68.8186 107.916 67.8061C107.56 66.7936 107.315 65.6532 107.181 64.3849V62.5157C107.315 61.1806 107.565 59.9846 107.932 58.9276C108.3 57.8707 108.784 56.9695 109.384 56.224C109.996 55.4675 110.736 54.8945 111.604 54.5051C112.472 54.1046 113.473 53.9043 114.608 53.9043C115.743 53.9043 116.75 54.1268 117.629 54.5718C118.508 55.0058 119.248 55.6288 119.848 56.441C120.449 57.2532 120.9 58.2267 121.2 59.3615C121.512 60.4853 121.667 61.7369 121.667 63.1165ZM118.563 63.467V63.1165C118.563 62.2153 118.469 61.3698 118.28 60.5798C118.09 59.7788 117.796 59.0778 117.395 58.477C117.006 57.8651 116.505 57.3867 115.893 57.0418C115.281 56.6858 114.552 56.5077 113.707 56.5077C112.928 56.5077 112.249 56.6413 111.671 56.9083C111.103 57.1753 110.619 57.5369 110.219 57.9931C109.818 58.4381 109.49 58.9499 109.234 59.5284C108.989 60.0959 108.806 60.6855 108.683 61.2975V65.6199C108.906 66.3987 109.218 67.133 109.618 67.8228C110.019 68.5015 110.553 69.0522 111.22 69.475C111.888 69.8867 112.728 70.0925 113.74 70.0925C114.575 70.0925 115.292 69.92 115.893 69.5751C116.505 69.2191 117.006 68.7351 117.395 68.1232C117.796 67.5113 118.09 66.8103 118.28 66.0204C118.469 65.2193 118.563 64.3682 118.563 63.467ZM133.166 54.2381V56.6079H123.403V54.2381H133.166ZM126.707 49.8489H129.795V67.8228C129.795 68.4347 129.889 68.8964 130.079 69.208C130.268 69.5195 130.513 69.7253 130.813 69.8255C131.113 69.9256 131.436 69.9757 131.781 69.9757C132.037 69.9757 132.304 69.9534 132.582 69.9089C132.871 69.8533 133.088 69.8088 133.233 69.7754L133.249 72.2954C133.005 72.3733 132.682 72.4456 132.282 72.5124C131.892 72.5902 131.419 72.6292 130.863 72.6292C130.106 72.6292 129.411 72.479 128.777 72.1786C128.143 71.8782 127.636 71.3775 127.258 70.6766C126.891 69.9645 126.707 69.0077 126.707 67.8061V49.8489ZM135.636 63.467V63.0832C135.636 61.7814 135.825 60.5743 136.203 59.4617C136.582 58.338 137.127 57.3644 137.839 56.5411C138.551 55.7067 139.413 55.0614 140.426 54.6052C141.438 54.1379 142.573 53.9043 143.83 53.9043C145.099 53.9043 146.239 54.1379 147.251 54.6052C148.275 55.0614 149.143 55.7067 149.855 56.5411C150.578 57.3644 151.129 58.338 151.507 59.4617C151.885 60.5743 152.075 61.7814 152.075 63.0832V63.467C152.075 64.7687 151.885 65.9759 151.507 67.0885C151.129 68.2011 150.578 69.1746 149.855 70.009C149.143 70.8324 148.281 71.4777 147.268 71.9449C146.267 72.4011 145.132 72.6292 143.864 72.6292C142.595 72.6292 141.455 72.4011 140.442 71.9449C139.43 71.4777 138.562 70.8324 137.839 70.009C137.127 69.1746 136.582 68.2011 136.203 67.0885C135.825 65.9759 135.636 64.7687 135.636 63.467ZM138.723 63.0832V63.467C138.723 64.3682 138.829 65.2193 139.041 66.0204C139.252 66.8103 139.569 67.5113 139.992 68.1232C140.426 68.7351 140.965 69.2191 141.611 69.5751C142.256 69.92 143.007 70.0925 143.864 70.0925C144.709 70.0925 145.449 69.92 146.083 69.5751C146.729 69.2191 147.263 68.7351 147.685 68.1232C148.108 67.5113 148.425 66.8103 148.637 66.0204C148.859 65.2193 148.97 64.3682 148.97 63.467V63.0832C148.97 62.1931 148.859 61.3531 148.637 60.5631C148.425 59.7621 148.103 59.0556 147.669 58.4437C147.246 57.8206 146.712 57.3311 146.067 56.975C145.432 56.619 144.687 56.441 143.83 56.441C142.985 56.441 142.239 56.619 141.594 56.975C140.96 57.3311 140.426 57.8206 139.992 58.4437C139.569 59.0556 139.252 59.7621 139.041 60.5631C138.829 61.3531 138.723 62.1931 138.723 63.0832ZM158.75 68.6239V71.1105C158.75 72.123 158.494 73.191 157.982 74.3148C157.471 75.4496 156.753 76.3953 155.83 77.1519L154.077 75.9336C154.433 75.444 154.734 74.9434 154.978 74.4316C155.223 73.9309 155.407 73.408 155.529 72.8628C155.663 72.3288 155.729 71.7614 155.729 71.1606V68.6239H158.75ZM182.865 54.2381H185.669V71.9116C185.669 73.5026 185.347 74.8599 184.701 75.9836C184.056 77.1074 183.155 77.9585 181.998 78.537C180.852 79.1267 179.528 79.4216 178.026 79.4216C177.403 79.4216 176.668 79.3214 175.823 79.1212C174.988 78.932 174.165 78.6038 173.353 78.1365C172.552 77.6803 171.879 77.0629 171.333 76.284L172.952 74.4483C173.709 75.3606 174.499 75.9948 175.322 76.3508C176.157 76.7068 176.98 76.8848 177.792 76.8848C178.771 76.8848 179.617 76.7013 180.329 76.3341C181.041 75.967 181.592 75.4218 181.981 74.6986C182.381 73.9865 182.582 73.1076 182.582 72.0618V58.21L182.865 54.2381ZM170.432 63.467V63.1165C170.432 61.7369 170.594 60.4853 170.916 59.3615C171.25 58.2267 171.723 57.2532 172.335 56.441C172.958 55.6288 173.709 55.0058 174.588 54.5718C175.467 54.1268 176.457 53.9043 177.558 53.9043C178.693 53.9043 179.683 54.1046 180.529 54.5051C181.386 54.8945 182.109 55.4675 182.699 56.224C183.299 56.9695 183.772 57.8707 184.117 58.9276C184.462 59.9846 184.701 61.1806 184.835 62.5157V64.0511C184.712 65.3751 184.473 66.5656 184.117 67.6225C183.772 68.6795 183.299 69.5807 182.699 70.3261C182.109 71.0716 181.386 71.6445 180.529 72.0451C179.672 72.4345 178.671 72.6292 177.525 72.6292C176.446 72.6292 175.467 72.4011 174.588 71.9449C173.72 71.4888 172.975 70.849 172.351 70.0257C171.728 69.2024 171.25 68.2345 170.916 67.1219C170.594 65.9981 170.432 64.7799 170.432 63.467ZM173.52 63.1165V63.467C173.52 64.3682 173.609 65.2138 173.787 66.0037C173.976 66.7936 174.26 67.489 174.638 68.0898C175.027 68.6906 175.522 69.1635 176.123 69.5084C176.724 69.8421 177.442 70.009 178.276 70.009C179.3 70.009 180.145 69.7921 180.813 69.3582C181.48 68.9243 182.009 68.3513 182.398 67.6392C182.799 66.9272 183.11 66.1539 183.333 65.3195V61.2975C183.21 60.6855 183.021 60.0959 182.765 59.5284C182.521 58.9499 182.198 58.4381 181.797 57.9931C181.408 57.5369 180.924 57.1753 180.345 56.9083C179.767 56.6413 179.088 56.5077 178.309 56.5077C177.464 56.5077 176.735 56.6858 176.123 57.0418C175.522 57.3867 175.027 57.8651 174.638 58.477C174.26 59.0778 173.976 59.7788 173.787 60.5798C173.609 61.3698 173.52 62.2153 173.52 63.1165ZM201.006 69.208V59.9123C201.006 59.2002 200.862 58.5827 200.572 58.0598C200.294 57.5258 199.871 57.1141 199.304 56.8248C198.737 56.5356 198.036 56.3909 197.201 56.3909C196.422 56.3909 195.738 56.5244 195.148 56.7915C194.57 57.0585 194.114 57.4089 193.78 57.8429C193.457 58.2768 193.296 58.7441 193.296 59.2447H190.209C190.209 58.5994 190.375 57.9597 190.709 57.3255C191.043 56.6913 191.521 56.1183 192.144 55.6065C192.779 55.0836 193.535 54.672 194.414 54.3716C195.304 54.06 196.294 53.9043 197.385 53.9043C198.698 53.9043 199.855 54.1268 200.856 54.5718C201.869 55.0169 202.658 55.69 203.226 56.5912C203.804 57.4813 204.094 58.5994 204.094 59.9457V68.3568C204.094 68.9576 204.144 69.5974 204.244 70.2761C204.355 70.9547 204.516 71.5388 204.728 72.0284V72.2954H201.507C201.351 71.9394 201.229 71.4665 201.14 70.8769C201.051 70.2761 201.006 69.7198 201.006 69.208ZM201.54 61.3475L201.574 63.5171H198.453C197.574 63.5171 196.79 63.5894 196.1 63.734C195.41 63.8675 194.831 64.0734 194.364 64.3515C193.897 64.6297 193.541 64.9801 193.296 65.4029C193.051 65.8146 192.929 66.2985 192.929 66.8548C192.929 67.4223 193.057 67.9396 193.313 68.4069C193.569 68.8742 193.952 69.2469 194.464 69.5251C194.987 69.7921 195.627 69.9256 196.383 69.9256C197.329 69.9256 198.164 69.7253 198.887 69.3248C199.61 68.9243 200.183 68.4347 200.606 67.8562C201.04 67.2776 201.273 66.7158 201.307 66.1706L202.625 67.6559C202.547 68.1232 202.336 68.6405 201.991 69.208C201.646 69.7754 201.184 70.3206 200.606 70.8435C200.038 71.3553 199.36 71.7836 198.57 72.1285C197.791 72.4623 196.912 72.6292 195.933 72.6292C194.709 72.6292 193.635 72.39 192.712 71.9116C191.8 71.4332 191.088 70.7934 190.576 69.9923C190.075 69.1802 189.825 68.2734 189.825 67.2721C189.825 66.3041 190.014 65.453 190.392 64.7187C190.77 63.9732 191.316 63.3557 192.028 62.8662C192.74 62.3655 193.596 61.9873 194.598 61.7314C195.599 61.4755 196.717 61.3475 197.952 61.3475H201.54ZM212.021 57.8262V72.2954H208.917V54.2381H211.854L212.021 57.8262ZM211.387 62.5825L209.951 62.5324C209.963 61.2975 210.124 60.157 210.435 59.1112C210.747 58.0542 211.209 57.1364 211.821 56.3575C212.433 55.5787 213.195 54.9779 214.107 54.5552C215.019 54.1212 216.076 53.9043 217.278 53.9043C218.123 53.9043 218.902 54.0267 219.614 54.2714C220.326 54.5051 220.944 54.8778 221.467 55.3896C221.99 55.9014 222.396 56.5578 222.685 57.3589C222.974 58.1599 223.119 59.1279 223.119 60.2627V72.2954H220.032V60.4129C220.032 59.4672 219.87 58.7107 219.548 58.1433C219.236 57.5758 218.791 57.1642 218.212 56.9083C217.634 56.6413 216.955 56.5077 216.176 56.5077C215.264 56.5077 214.502 56.6691 213.89 56.9917C213.278 57.3144 212.789 57.7594 212.421 58.3268C212.054 58.8943 211.787 59.5451 211.62 60.2794C211.465 61.0026 211.387 61.7703 211.387 62.5825ZM223.086 60.8802L221.016 61.5144C221.027 60.5242 221.189 59.5729 221.5 58.6606C221.823 57.7483 222.285 56.9361 222.885 56.224C223.497 55.512 224.248 54.9501 225.138 54.5385C226.028 54.1157 227.046 53.9043 228.192 53.9043C229.16 53.9043 230.017 54.0322 230.762 54.2881C231.519 54.544 232.153 54.939 232.665 55.473C233.188 55.996 233.583 56.6691 233.85 57.4924C234.117 58.3157 234.25 59.2948 234.25 60.4296V72.2954H231.146V60.3963C231.146 59.3838 230.985 58.5994 230.662 58.0431C230.351 57.4757 229.906 57.0807 229.327 56.8582C228.76 56.6246 228.081 56.5077 227.291 56.5077C226.613 56.5077 226.012 56.6246 225.489 56.8582C224.966 57.0919 224.526 57.4145 224.17 57.8262C223.814 58.2267 223.542 58.6884 223.353 59.2113C223.175 59.7343 223.086 60.2906 223.086 60.8802ZM246.417 72.6292C245.159 72.6292 244.019 72.4178 242.995 71.995C241.983 71.5611 241.11 70.9547 240.375 70.1759C239.652 69.3971 239.096 68.4737 238.706 67.4056C238.317 66.3375 238.122 65.1693 238.122 63.9009V63.2C238.122 61.7314 238.339 60.4241 238.773 59.2781C239.207 58.121 239.797 57.1419 240.542 56.3409C241.288 55.5398 242.133 54.9334 243.079 54.5218C244.025 54.1101 245.004 53.9043 246.016 53.9043C247.307 53.9043 248.419 54.1268 249.354 54.5718C250.3 55.0169 251.073 55.6399 251.674 56.441C252.274 57.2309 252.719 58.1655 253.009 59.2447C253.298 60.3128 253.443 61.481 253.443 62.7494V64.1346H239.958V61.6145H250.355V61.3809C250.311 60.5798 250.144 59.801 249.855 59.0445C249.576 58.2879 249.131 57.6648 248.519 57.1753C247.908 56.6858 247.073 56.441 246.016 56.441C245.315 56.441 244.67 56.5912 244.08 56.8916C243.491 57.1809 242.984 57.6148 242.562 58.1933C242.139 58.7719 241.811 59.4784 241.577 60.3128C241.343 61.1473 241.226 62.1096 241.226 63.2V63.9009C241.226 64.7576 241.343 65.5642 241.577 66.3208C241.822 67.0662 242.172 67.7227 242.628 68.2901C243.096 68.8575 243.657 69.3025 244.314 69.6252C244.981 69.9478 245.738 70.1092 246.584 70.1092C247.674 70.1092 248.597 69.8867 249.354 69.4416C250.11 68.9966 250.772 68.4013 251.34 67.6559L253.209 69.1412C252.82 69.7309 252.324 70.2927 251.724 70.8268C251.123 71.3608 250.383 71.7947 249.504 72.1285C248.636 72.4623 247.607 72.6292 246.417 72.6292ZM267.561 67.5057C267.561 67.0607 267.461 66.649 267.261 66.2707C267.072 65.8813 266.677 65.5309 266.076 65.2193C265.486 64.8967 264.596 64.6185 263.406 64.3849C262.405 64.1735 261.498 63.9232 260.686 63.6339C259.885 63.3446 259.2 62.9942 258.633 62.5825C258.077 62.1708 257.648 61.6869 257.348 61.1306C257.047 60.5743 256.897 59.9234 256.897 59.178C256.897 58.4659 257.053 57.7928 257.365 57.1586C257.687 56.5244 258.138 55.9626 258.716 55.473C259.306 54.9835 260.013 54.5997 260.836 54.3215C261.659 54.0434 262.577 53.9043 263.589 53.9043C265.036 53.9043 266.271 54.1602 267.294 54.672C268.318 55.1838 269.102 55.868 269.648 56.7247C270.193 57.5703 270.465 58.5104 270.465 59.5451H267.378C267.378 59.0445 267.228 58.5605 266.927 58.0932C266.638 57.6148 266.21 57.2198 265.642 56.9083C265.086 56.5968 264.402 56.441 263.589 56.441C262.733 56.441 262.037 56.5745 261.503 56.8415C260.98 57.0974 260.597 57.4256 260.352 57.8262C260.118 58.2267 260.001 58.6495 260.001 59.0945C260.001 59.4283 260.057 59.7287 260.168 59.9957C260.291 60.2516 260.502 60.4908 260.802 60.7133C261.103 60.9247 261.526 61.125 262.071 61.3141C262.616 61.5033 263.311 61.6924 264.157 61.8816C265.637 62.2153 266.855 62.6159 267.812 63.0832C268.769 63.5504 269.481 64.1234 269.948 64.8021C270.415 65.4808 270.649 66.3041 270.649 67.2721C270.649 68.062 270.482 68.7852 270.148 69.4416C269.826 70.098 269.353 70.6655 268.73 71.1439C268.118 71.6112 267.383 71.9783 266.527 72.2453C265.681 72.5012 264.73 72.6292 263.673 72.6292C262.082 72.6292 260.736 72.3455 259.634 71.7781C258.533 71.2106 257.698 70.4763 257.131 69.5751C256.563 68.6739 256.28 67.7227 256.28 66.7213H259.384C259.428 67.5669 259.673 68.24 260.118 68.7407C260.563 69.2302 261.108 69.5807 261.754 69.7921C262.399 69.9923 263.039 70.0925 263.673 70.0925C264.518 70.0925 265.225 69.9812 265.792 69.7587C266.371 69.5362 266.81 69.2302 267.111 68.8408C267.411 68.4514 267.561 68.0064 267.561 67.5057ZM277.508 68.6239V71.1105C277.508 72.123 277.252 73.191 276.74 74.3148C276.229 75.4496 275.511 76.3953 274.587 77.1519L272.835 75.9336C273.191 75.444 273.492 74.9434 273.736 74.4316C273.981 73.9309 274.165 73.408 274.287 72.8628C274.421 72.3288 274.487 71.7614 274.487 71.1606V68.6239H277.508ZM295.415 69.5084L300.355 54.2381H303.509L297.017 72.2954H294.948L295.415 69.5084ZM291.293 54.2381L296.383 69.5918L296.734 72.2954H294.664L288.122 54.2381H291.293ZM309.834 54.2381V72.2954H306.73V54.2381H309.834ZM306.497 49.4484C306.497 48.9477 306.647 48.5249 306.947 48.18C307.259 47.8351 307.715 47.6627 308.316 47.6627C308.905 47.6627 309.356 47.8351 309.667 48.18C309.99 48.5249 310.151 48.9477 310.151 49.4484C310.151 49.9268 309.99 50.3384 309.667 50.6833C309.356 51.0171 308.905 51.184 308.316 51.184C307.715 51.184 307.259 51.0171 306.947 50.6833C306.647 50.3384 306.497 49.9268 306.497 49.4484ZM317.878 57.0752V72.2954H314.791V54.2381H317.795L317.878 57.0752ZM323.519 54.1379L323.502 57.0084C323.247 56.9528 323.002 56.9194 322.768 56.9083C322.546 56.886 322.29 56.8749 322 56.8749C321.288 56.8749 320.66 56.9862 320.115 57.2087C319.569 57.4312 319.108 57.7427 318.729 58.1433C318.351 58.5438 318.051 59.0222 317.828 59.5785C317.617 60.1237 317.478 60.7245 317.411 61.3809L316.543 61.8816C316.543 60.7912 316.649 59.7676 316.86 58.8108C317.083 57.854 317.422 57.0084 317.878 56.2741C318.335 55.5287 318.913 54.9501 319.614 54.5385C320.326 54.1157 321.172 53.9043 322.151 53.9043C322.373 53.9043 322.629 53.9321 322.918 53.9877C323.208 54.0322 323.408 54.0823 323.519 54.1379ZM334.767 54.2381V56.6079H325.004V54.2381H334.767ZM328.309 49.8489H331.396V67.8228C331.396 68.4347 331.491 68.8964 331.68 69.208C331.869 69.5195 332.114 69.7253 332.414 69.8255C332.715 69.9256 333.037 69.9757 333.382 69.9757C333.638 69.9757 333.905 69.9534 334.183 69.9089C334.473 69.8533 334.69 69.8088 334.834 69.7754L334.851 72.2954C334.606 72.3733 334.283 72.4456 333.883 72.5124C333.494 72.5902 333.021 72.6292 332.464 72.6292C331.708 72.6292 331.012 72.479 330.378 72.1786C329.744 71.8782 329.238 71.3775 328.86 70.6766C328.492 69.9645 328.309 69.0077 328.309 67.8061V49.8489ZM349.437 68.1232V54.2381H352.541V72.2954H349.587L349.437 68.1232ZM350.021 64.3181L351.306 64.2848C351.306 65.4864 351.178 66.5989 350.922 67.6225C350.678 68.635 350.277 69.5139 349.721 70.2594C349.164 71.0048 348.436 71.5889 347.534 72.0117C346.633 72.4234 345.537 72.6292 344.247 72.6292C343.368 72.6292 342.561 72.5012 341.827 72.2453C341.104 71.9894 340.481 71.5945 339.958 71.0604C339.435 70.5264 339.029 69.831 338.739 68.9743C338.461 68.1176 338.322 67.0885 338.322 65.8869V54.2381H341.41V65.9203C341.41 66.7325 341.499 67.4056 341.677 67.9396C341.866 68.4625 342.116 68.8798 342.428 69.1913C342.75 69.4917 343.106 69.7031 343.496 69.8255C343.896 69.9478 344.308 70.009 344.731 70.009C346.044 70.009 347.084 69.7587 347.852 69.258C348.619 68.7462 349.17 68.062 349.504 67.2053C349.849 66.3375 350.021 65.3751 350.021 64.3181ZM367.895 69.208V59.9123C367.895 59.2002 367.75 58.5827 367.461 58.0598C367.183 57.5258 366.76 57.1141 366.193 56.8248C365.625 56.5356 364.924 56.3909 364.09 56.3909C363.311 56.3909 362.627 56.5244 362.037 56.7915C361.459 57.0585 361.002 57.4089 360.669 57.8429C360.346 58.2768 360.185 58.7441 360.185 59.2447H357.097C357.097 58.5994 357.264 57.9597 357.598 57.3255C357.932 56.6913 358.41 56.1183 359.033 55.6065C359.667 55.0836 360.424 54.672 361.303 54.3716C362.193 54.06 363.183 53.9043 364.273 53.9043C365.586 53.9043 366.743 54.1268 367.745 54.5718C368.757 55.0169 369.547 55.69 370.114 56.5912C370.693 57.4813 370.982 58.5994 370.982 59.9457V68.3568C370.982 68.9576 371.032 69.5974 371.132 70.2761C371.244 70.9547 371.405 71.5388 371.616 72.0284V72.2954H368.396C368.24 71.9394 368.117 71.4665 368.028 70.8769C367.939 70.2761 367.895 69.7198 367.895 69.208ZM368.429 61.3475L368.462 63.5171H365.341C364.463 63.5171 363.678 63.5894 362.988 63.734C362.299 63.8675 361.72 64.0734 361.253 64.3515C360.785 64.6297 360.429 64.9801 360.185 65.4029C359.94 65.8146 359.817 66.2985 359.817 66.8548C359.817 67.4223 359.945 67.9396 360.201 68.4069C360.457 68.8742 360.841 69.2469 361.353 69.5251C361.876 69.7921 362.515 69.9256 363.272 69.9256C364.218 69.9256 365.052 69.7253 365.775 69.3248C366.499 68.9243 367.072 68.4347 367.494 67.8562C367.928 67.2776 368.162 66.7158 368.195 66.1706L369.514 67.6559C369.436 68.1232 369.224 68.6405 368.879 69.208C368.535 69.7754 368.073 70.3206 367.494 70.8435C366.927 71.3553 366.248 71.7836 365.458 72.1285C364.679 72.4623 363.801 72.6292 362.821 72.6292C361.598 72.6292 360.524 72.39 359.6 71.9116C358.688 71.4332 357.976 70.7934 357.464 69.9923C356.964 69.1802 356.713 68.2734 356.713 67.2721C356.713 66.3041 356.902 65.453 357.281 64.7187C357.659 63.9732 358.204 63.3557 358.916 62.8662C359.628 62.3655 360.485 61.9873 361.486 61.7314C362.488 61.4755 363.606 61.3475 364.841 61.3475H368.429ZM379.193 46.6613V72.2954H376.089V46.6613H379.193ZM397.201 69.0911L401.84 54.2381H403.876L403.476 57.192L398.753 72.2954H396.767L397.201 69.0911ZM394.08 54.2381L398.035 69.258L398.319 72.2954H396.233L390.992 54.2381H394.08ZM408.315 69.1412L412.087 54.2381H415.158L409.917 72.2954H407.848L408.315 69.1412ZM404.327 54.2381L408.866 68.8408L409.383 72.2954H407.414L402.558 57.1586L402.157 54.2381H404.327ZM417.511 63.467V63.0832C417.511 61.7814 417.7 60.5743 418.078 59.4617C418.457 58.338 419.002 57.3644 419.714 56.5411C420.426 55.7067 421.288 55.0614 422.301 54.6052C423.313 54.1379 424.448 53.9043 425.705 53.9043C426.973 53.9043 428.114 54.1379 429.126 54.6052C430.15 55.0614 431.018 55.7067 431.73 56.5411C432.453 57.3644 433.004 58.338 433.382 59.4617C433.76 60.5743 433.949 61.7814 433.949 63.0832V63.467C433.949 64.7687 433.76 65.9759 433.382 67.0885C433.004 68.2011 432.453 69.1746 431.73 70.009C431.018 70.8324 430.155 71.4777 429.143 71.9449C428.142 72.4011 427.007 72.6292 425.738 72.6292C424.47 72.6292 423.33 72.4011 422.317 71.9449C421.305 71.4777 420.437 70.8324 419.714 70.009C419.002 69.1746 418.457 68.2011 418.078 67.0885C417.7 65.9759 417.511 64.7687 417.511 63.467ZM420.598 63.0832V63.467C420.598 64.3682 420.704 65.2193 420.915 66.0204C421.127 66.8103 421.444 67.5113 421.867 68.1232C422.301 68.7351 422.84 69.2191 423.485 69.5751C424.131 69.92 424.882 70.0925 425.738 70.0925C426.584 70.0925 427.324 69.92 427.958 69.5751C428.603 69.2191 429.137 68.7351 429.56 68.1232C429.983 67.5113 430.3 66.8103 430.511 66.0204C430.734 65.2193 430.845 64.3682 430.845 63.467V63.0832C430.845 62.1931 430.734 61.3531 430.511 60.5631C430.3 59.7621 429.977 59.0556 429.544 58.4437C429.121 57.8206 428.587 57.3311 427.941 56.975C427.307 56.619 426.562 56.441 425.705 56.441C424.86 56.441 424.114 56.619 423.469 56.975C422.835 57.3311 422.301 57.8206 421.867 58.4437C421.444 59.0556 421.127 59.7621 420.915 60.5631C420.704 61.3531 420.598 62.1931 420.598 63.0832ZM440.909 57.0752V72.2954H437.821V54.2381H440.825L440.909 57.0752ZM446.549 54.1379L446.533 57.0084C446.277 56.9528 446.032 56.9194 445.798 56.9083C445.576 56.886 445.32 56.8749 445.031 56.8749C444.319 56.8749 443.69 56.9862 443.145 57.2087C442.6 57.4312 442.138 57.7427 441.76 58.1433C441.381 58.5438 441.081 59.0222 440.859 59.5785C440.647 60.1237 440.508 60.7245 440.441 61.3809L439.574 61.8816C439.574 60.7912 439.679 59.7676 439.891 58.8108C440.113 57.854 440.452 57.0084 440.909 56.2741C441.365 55.5287 441.943 54.9501 442.644 54.5385C443.356 54.1157 444.202 53.9043 445.181 53.9043C445.403 53.9043 445.659 53.9321 445.949 53.9877C446.238 54.0322 446.438 54.0823 446.549 54.1379ZM452.758 46.6613V72.2954H449.654V46.6613H452.758ZM469.096 68.7907V46.6613H472.2V72.2954H469.363L469.096 68.7907ZM456.947 63.467V63.1165C456.947 61.7369 457.114 60.4853 457.447 59.3615C457.792 58.2267 458.276 57.2532 458.899 56.441C459.533 55.6288 460.284 55.0058 461.152 54.5718C462.031 54.1268 463.01 53.9043 464.089 53.9043C465.224 53.9043 466.214 54.1046 467.06 54.5051C467.917 54.8945 468.64 55.4675 469.23 56.224C469.83 56.9695 470.303 57.8707 470.648 58.9276C470.993 59.9846 471.232 61.1806 471.366 62.5157V64.0511C471.243 65.3751 471.004 66.5656 470.648 67.6225C470.303 68.6795 469.83 69.5807 469.23 70.3261C468.64 71.0716 467.917 71.6445 467.06 72.0451C466.203 72.4345 465.202 72.6292 464.056 72.6292C462.999 72.6292 462.031 72.4011 461.152 71.9449C460.284 71.4888 459.533 70.849 458.899 70.0257C458.276 69.2024 457.792 68.2345 457.447 67.1219C457.114 65.9981 456.947 64.7799 456.947 63.467ZM460.051 63.1165V63.467C460.051 64.3682 460.14 65.2138 460.318 66.0037C460.507 66.7936 460.796 67.489 461.186 68.0898C461.575 68.6906 462.07 69.1635 462.671 69.5084C463.272 69.8421 463.989 70.009 464.824 70.009C465.847 70.009 466.687 69.7921 467.344 69.3582C468.011 68.9243 468.545 68.3513 468.946 67.6392C469.346 66.9272 469.658 66.1539 469.88 65.3195V61.2975C469.747 60.6855 469.552 60.0959 469.296 59.5284C469.052 58.9499 468.729 58.4381 468.328 57.9931C467.939 57.5369 467.455 57.1753 466.876 56.9083C466.309 56.6413 465.636 56.5077 464.857 56.5077C464.012 56.5077 463.283 56.6858 462.671 57.0418C462.07 57.3867 461.575 57.8651 461.186 58.477C460.796 59.0778 460.507 59.7788 460.318 60.5798C460.14 61.3698 460.051 62.2153 460.051 63.1165ZM487.521 67.5057C487.521 67.0607 487.42 66.649 487.22 66.2707C487.031 65.8813 486.636 65.5309 486.035 65.2193C485.446 64.8967 484.556 64.6185 483.365 64.3849C482.364 64.1735 481.457 63.9232 480.645 63.6339C479.844 63.3446 479.159 62.9942 478.592 62.5825C478.036 62.1708 477.607 61.6869 477.307 61.1306C477.007 60.5743 476.856 59.9234 476.856 59.178C476.856 58.4659 477.012 57.7928 477.324 57.1586C477.646 56.5244 478.097 55.9626 478.676 55.473C479.265 54.9835 479.972 54.5997 480.795 54.3215C481.618 54.0434 482.536 53.9043 483.549 53.9043C484.995 53.9043 486.23 54.1602 487.254 54.672C488.277 55.1838 489.062 55.868 489.607 56.7247C490.152 57.5703 490.424 58.5104 490.424 59.5451H487.337C487.337 59.0445 487.187 58.5605 486.886 58.0932C486.597 57.6148 486.169 57.2198 485.601 56.9083C485.045 56.5968 484.361 56.441 483.549 56.441C482.692 56.441 481.997 56.5745 481.463 56.8415C480.94 57.0974 480.556 57.4256 480.311 57.8262C480.077 58.2267 479.961 58.6495 479.961 59.0945C479.961 59.4283 480.016 59.7287 480.127 59.9957C480.25 60.2516 480.461 60.4908 480.762 60.7133C481.062 60.9247 481.485 61.125 482.03 61.3141C482.575 61.5033 483.271 61.6924 484.116 61.8816C485.596 62.2153 486.814 62.6159 487.771 63.0832C488.728 63.5504 489.44 64.1234 489.907 64.8021C490.374 65.4808 490.608 66.3041 490.608 67.2721C490.608 68.062 490.441 68.7852 490.107 69.4416C489.785 70.098 489.312 70.6655 488.689 71.1439C488.077 71.6112 487.343 71.9783 486.486 72.2453C485.64 72.5012 484.689 72.6292 483.632 72.6292C482.041 72.6292 480.695 72.3455 479.593 71.7781C478.492 71.2106 477.657 70.4763 477.09 69.5751C476.523 68.6739 476.239 67.7227 476.239 66.7213H479.343C479.388 67.5669 479.632 68.24 480.077 68.7407C480.522 69.2302 481.068 69.5807 481.713 69.7921C482.358 69.9923 482.998 70.0925 483.632 70.0925C484.478 70.0925 485.184 69.9812 485.752 69.7587C486.33 69.5362 486.77 69.2302 487.07 68.8408C487.37 68.4514 487.521 68.0064 487.521 67.5057Z" fill="white"/>
<line opacity="0.2" x1="656.609" y1="2.24199e-08" x2="656.609" y2="339.928" stroke="url(#paint1_linear_2504_374)" stroke-width="1.03322"/>
<line opacity="0.2" x1="590.483" y1="2.24199e-08" x2="590.483" y2="339.928" stroke="url(#paint2_linear_2504_374)" stroke-width="1.03322"/>
<line opacity="0.2" x1="525.39" y1="2.24199e-08" x2="525.39" y2="339.928" stroke="url(#paint3_linear_2504_374)" stroke-width="1.03322"/>
<line opacity="0.2" x1="459.265" y1="2.24199e-08" x2="459.265" y2="339.928" stroke="url(#paint4_linear_2504_374)" stroke-width="1.03322"/>
<line opacity="0.2" x1="394.172" y1="2.24199e-08" x2="394.172" y2="339.928" stroke="url(#paint5_linear_2504_374)" stroke-width="1.03322"/>
<line opacity="0.2" x1="328.046" y1="2.24199e-08" x2="328.046" y2="339.928" stroke="url(#paint6_linear_2504_374)" stroke-width="1.03322"/>
<line opacity="0.2" x1="262.954" y1="2.24199e-08" x2="262.954" y2="339.928" stroke="url(#paint7_linear_2504_374)" stroke-width="1.03322"/>
<line opacity="0.2" x1="196.828" y1="2.24199e-08" x2="196.828" y2="339.928" stroke="url(#paint8_linear_2504_374)" stroke-width="1.03322"/>
<line opacity="0.2" x1="131.735" y1="2.24199e-08" x2="131.735" y2="339.928" stroke="url(#paint9_linear_2504_374)" stroke-width="1.03322"/>
<line opacity="0.2" x1="65.6094" y1="2.24199e-08" x2="65.6094" y2="339.928" stroke="url(#paint10_linear_2504_374)" stroke-width="1.03322"/>
<line opacity="0.2" x1="721.185" y1="271.219" x2="-0.000183186" y2="271.219" stroke="url(#paint11_linear_2504_374)" stroke-width="1.03322"/>
<line opacity="0.2" x1="721.185" y1="204.06" x2="-0.000183186" y2="204.06" stroke="url(#paint12_linear_2504_374)" stroke-width="1.03322"/>
<line opacity="0.2" x1="721.185" y1="135.868" x2="-0.000183186" y2="135.868" stroke="url(#paint13_linear_2504_374)" stroke-width="1.03322"/>
<line opacity="0.2" x1="721.185" y1="68.7087" x2="-0.000183187" y2="68.7087" stroke="url(#paint14_linear_2504_374)" stroke-width="1.03322"/>
<defs>
<filter id="filter0_bi_2504_374" x="-16.9499" y="-17.511" width="755.735" height="374.955" filterUnits="userSpaceOnUse" color-interpolation-filters="sRGB">
<feFlood flood-opacity="0" result="BackgroundImageFix"/>
<feGaussianBlur in="BackgroundImageFix" stdDeviation="8.75548"/>
<feComposite in2="SourceAlpha" operator="in" result="effect1_backgroundBlur_2504_374"/>
<feBlend mode="normal" in="SourceGraphic" in2="effect1_backgroundBlur_2504_374" result="shape"/>
<feColorMatrix in="SourceAlpha" type="matrix" values="0 0 0 0 0 0 0 0 0 0 0 0 0 0 0 0 0 0 127 0" result="hardAlpha"/>
<feOffset dy="2.06011"/>
<feGaussianBlur stdDeviation="5.15028"/>
<feComposite in2="hardAlpha" operator="arithmetic" k2="-1" k3="1"/>
<feColorMatrix type="matrix" values="0 0 0 0 1 0 0 0 0 1 0 0 0 0 1 0 0 0 0.25 0"/>
<feBlend mode="normal" in2="shape" result="effect2_innerShadow_2504_374"/>
</filter>
<linearGradient id="paint0_linear_2504_374" x1="232.534" y1="339.933" x2="232.534" y2="-105.774" gradientUnits="userSpaceOnUse">
<stop stop-color="white"/>
<stop offset="1" stop-color="white" stop-opacity="0"/>
</linearGradient>
<linearGradient id="paint1_linear_2504_374" x1="656.092" y1="0" x2="656.092" y2="339.928" gradientUnits="userSpaceOnUse">
<stop stop-color="white" stop-opacity="0"/>
<stop offset="0.213542" stop-color="white"/>
<stop offset="0.786458" stop-color="white"/>
<stop offset="1" stop-color="white" stop-opacity="0"/>
</linearGradient>
<linearGradient id="paint2_linear_2504_374" x1="589.966" y1="0" x2="589.966" y2="339.928" gradientUnits="userSpaceOnUse">
<stop stop-color="white" stop-opacity="0"/>
<stop offset="0.213542" stop-color="white"/>
<stop offset="0.786458" stop-color="white"/>
<stop offset="1" stop-color="white" stop-opacity="0"/>
</linearGradient>
<linearGradient id="paint3_linear_2504_374" x1="524.874" y1="0" x2="524.874" y2="339.928" gradientUnits="userSpaceOnUse">
<stop stop-color="white" stop-opacity="0"/>
<stop offset="0.213542" stop-color="white"/>
<stop offset="0.786458" stop-color="white"/>
<stop offset="1" stop-color="white" stop-opacity="0"/>
</linearGradient>
<linearGradient id="paint4_linear_2504_374" x1="458.748" y1="0" x2="458.748" y2="339.928" gradientUnits="userSpaceOnUse">
<stop stop-color="white" stop-opacity="0"/>
<stop offset="0.213542" stop-color="white"/>
<stop offset="0.786458" stop-color="white"/>
<stop offset="1" stop-color="white" stop-opacity="0"/>
</linearGradient>
<linearGradient id="paint5_linear_2504_374" x1="393.655" y1="0" x2="393.655" y2="339.928" gradientUnits="userSpaceOnUse">
<stop stop-color="white" stop-opacity="0"/>
<stop offset="0.213542" stop-color="white"/>
<stop offset="0.786458" stop-color="white"/>
<stop offset="1" stop-color="white" stop-opacity="0"/>
</linearGradient>
<linearGradient id="paint6_linear_2504_374" x1="327.529" y1="0" x2="327.529" y2="339.928" gradientUnits="userSpaceOnUse">
<stop stop-color="white" stop-opacity="0"/>
<stop offset="0.213542" stop-color="white"/>
<stop offset="0.786458" stop-color="white"/>
<stop offset="1" stop-color="white" stop-opacity="0"/>
</linearGradient>
<linearGradient id="paint7_linear_2504_374" x1="262.437" y1="0" x2="262.437" y2="339.928" gradientUnits="userSpaceOnUse">
<stop stop-color="white" stop-opacity="0"/>
<stop offset="0.213542" stop-color="white"/>
<stop offset="0.786458" stop-color="white"/>
<stop offset="1" stop-color="white" stop-opacity="0"/>
</linearGradient>
<linearGradient id="paint8_linear_2504_374" x1="196.311" y1="0" x2="196.311" y2="339.928" gradientUnits="userSpaceOnUse">
<stop stop-color="white" stop-opacity="0"/>
<stop offset="0.213542" stop-color="white"/>
<stop offset="0.786458" stop-color="white"/>
<stop offset="1" stop-color="white" stop-opacity="0"/>
</linearGradient>
<linearGradient id="paint9_linear_2504_374" x1="131.218" y1="0" x2="131.218" y2="339.928" gradientUnits="userSpaceOnUse">
<stop stop-color="white" stop-opacity="0"/>
<stop offset="0.213542" stop-color="white"/>
<stop offset="0.786458" stop-color="white"/>
<stop offset="1" stop-color="white" stop-opacity="0"/>
</linearGradient>
<linearGradient id="paint10_linear_2504_374" x1="65.0928" y1="0" x2="65.0928" y2="339.928" gradientUnits="userSpaceOnUse">
<stop stop-color="white" stop-opacity="0"/>
<stop offset="0.213542" stop-color="white"/>
<stop offset="0.786458" stop-color="white"/>
<stop offset="1" stop-color="white" stop-opacity="0"/>
</linearGradient>
<linearGradient id="paint11_linear_2504_374" x1="721.185" y1="270.703" x2="-0.000183105" y2="270.703" gradientUnits="userSpaceOnUse">
<stop stop-color="white" stop-opacity="0"/>
<stop offset="0.213542" stop-color="white"/>
<stop offset="0.786458" stop-color="white"/>
<stop offset="1" stop-color="white" stop-opacity="0"/>
</linearGradient>
<linearGradient id="paint12_linear_2504_374" x1="721.185" y1="203.543" x2="-0.000183105" y2="203.543" gradientUnits="userSpaceOnUse">
<stop stop-color="white" stop-opacity="0"/>
<stop offset="0.213542" stop-color="white"/>
<stop offset="0.786458" stop-color="white"/>
<stop offset="1" stop-color="white" stop-opacity="0"/>
</linearGradient>
<linearGradient id="paint13_linear_2504_374" x1="721.185" y1="135.351" x2="-0.000183105" y2="135.351" gradientUnits="userSpaceOnUse">
<stop stop-color="white" stop-opacity="0"/>
<stop offset="0.213542" stop-color="white"/>
<stop offset="0.786458" stop-color="white"/>
<stop offset="1" stop-color="white" stop-opacity="0"/>
</linearGradient>
<linearGradient id="paint14_linear_2504_374" x1="721.185" y1="68.1921" x2="-0.000183105" y2="68.1921" gradientUnits="userSpaceOnUse">
<stop stop-color="white" stop-opacity="0"/>
<stop offset="0.213542" stop-color="white"/>
<stop offset="0.786458" stop-color="white"/>
<stop offset="1" stop-color="white" stop-opacity="0"/>
</linearGradient>
</defs>
</svg>
