<svg width="605" height="154" viewBox="0 0 605 154" fill="none" xmlns="http://www.w3.org/2000/svg">
<path d="M1.80162 148.613C0.537868 149.275 0.0499264 150.836 0.711773 152.099C1.37362 153.363 2.93463 153.851 4.19838 153.189L1.80162 148.613ZM577.124 14C577.124 21.6084 583.292 27.7762 590.9 27.7762C598.508 27.7762 604.676 21.6084 604.676 14C604.676 6.39161 598.508 0.223787 590.9 0.223787C583.292 0.223787 577.124 6.39161 577.124 14ZM545.058 36.9208L546.213 39.2312L545.058 36.9208ZM173.428 61.6454L174.626 63.9336L173.428 61.6454ZM4.19838 153.189L174.626 63.9336L172.23 59.3572L1.80162 148.613L4.19838 153.189ZM546.213 39.2312L592.055 16.3103L589.745 11.6897L543.903 34.6105L546.213 39.2312ZM360.35 50.7103C421.292 72.2871 488.39 68.1431 546.213 39.2312L543.903 34.6105C487.334 62.8948 421.693 66.9489 362.074 45.8405L360.35 50.7103ZM174.626 63.9336C232 33.8859 299.297 29.0945 360.35 50.7103L362.074 45.8405C299.667 23.745 230.877 28.6428 172.23 59.3572L174.626 63.9336Z" fill="url(#paint0_linear_2504_373)"/>
<defs>
<linearGradient id="paint0_linear_2504_373" x1="590.9" y1="14" x2="-10.4318" y2="159.167" gradientUnits="userSpaceOnUse">
<stop offset="0.0836554" stop-color="white"/>
<stop offset="1" stop-color="white" stop-opacity="0"/>
</linearGradient>
</defs>
</svg>
