<svg width="722" height="340" viewBox="0 0 722 340" fill="none" xmlns="http://www.w3.org/2000/svg">
<g filter="url(#filter0_bi_2504_375)">
<rect width="720.713" height="339.933" rx="13.9058" fill="url(#paint0_linear_2504_375)" fill-opacity="0.1"/>
</g>
<path d="M62.0902 72.2959H57.0168L57.0501 69.6757H62.0902C63.8258 69.6757 65.2722 69.3142 66.4293 68.591C67.5864 67.8567 68.4542 66.8331 69.0327 65.5202C69.6224 64.1962 69.9172 62.6497 69.9172 60.8807V59.3954C69.9172 58.0047 69.7504 56.7697 69.4166 55.6905C69.0828 54.6001 68.5933 53.6823 67.948 52.9368C67.3027 52.1803 66.5127 51.6073 65.5781 51.2179C64.6547 50.8285 63.5922 50.6338 62.3906 50.6338H56.9166V47.9969H62.3906C63.9816 47.9969 65.4335 48.2639 66.7464 48.798C68.0592 49.3209 69.1885 50.083 70.1342 51.0844C71.091 52.0746 71.8253 53.2762 72.3371 54.6892C72.8489 56.091 73.1048 57.6709 73.1048 59.4288V60.8807C73.1048 62.6386 72.8489 64.2241 72.3371 65.637C71.8253 67.0389 71.0855 68.2349 70.1175 69.2251C69.1607 70.2154 68.0036 70.9775 66.6462 71.5115C65.3 72.0344 63.7813 72.2959 62.0902 72.2959ZM58.7357 47.9969V72.2959H55.5148V47.9969H58.7357ZM80.8318 54.2386V72.2959H77.7276V54.2386H80.8318ZM77.494 49.4488C77.494 48.9482 77.6442 48.5254 77.9446 48.1805C78.2561 47.8356 78.7123 47.6631 79.3131 47.6631C79.9027 47.6631 80.3533 47.8356 80.6649 48.1805C80.9875 48.5254 81.1488 48.9482 81.1488 49.4488C81.1488 49.9273 80.9875 50.3389 80.6649 50.6838C80.3533 51.0176 79.9027 51.1845 79.3131 51.1845C78.7123 51.1845 78.2561 51.0176 77.9446 50.6838C77.6442 50.3389 77.494 49.9273 77.494 49.4488ZM97.4872 54.2386H100.291V71.9121C100.291 73.5031 99.9683 74.8604 99.323 75.9841C98.6777 77.1079 97.7765 77.959 96.6194 78.5375C95.4734 79.1272 94.1495 79.422 92.6475 79.422C92.0244 79.422 91.2901 79.3219 90.4445 79.1216C89.6101 78.9325 88.7868 78.6043 87.9746 78.137C87.1735 77.6808 86.5004 77.0633 85.9552 76.2845L87.5741 74.4488C88.3306 75.3611 89.1206 75.9953 89.9439 76.3513C90.7783 76.7073 91.6016 76.8853 92.4138 76.8853C93.3929 76.8853 94.2385 76.7018 94.9505 76.3346C95.6626 75.9674 96.2133 75.4223 96.6027 74.6991C97.0033 73.987 97.2035 73.1081 97.2035 72.0623V58.2105L97.4872 54.2386ZM85.054 63.4675V63.117C85.054 61.7374 85.2154 60.4857 85.538 59.362C85.8718 58.2272 86.3446 57.2537 86.9566 56.4415C87.5796 55.6293 88.3306 55.0062 89.2096 54.5723C90.0885 54.1273 91.0787 53.9048 92.1802 53.9048C93.315 53.9048 94.3052 54.105 95.1508 54.5056C96.0075 54.895 96.7307 55.468 97.3203 56.2245C97.9211 56.97 98.394 57.8712 98.7389 58.9281C99.0838 59.9851 99.323 61.1811 99.4565 62.5162V64.0516C99.3341 65.3756 99.0949 66.5661 98.7389 67.623C98.394 68.68 97.9211 69.5812 97.3203 70.3266C96.7307 71.072 96.0075 71.645 95.1508 72.0456C94.2941 72.435 93.2928 72.6297 92.1468 72.6297C91.0676 72.6297 90.0885 72.4016 89.2096 71.9454C88.3417 71.4893 87.5963 70.8495 86.9733 70.0262C86.3502 69.2029 85.8718 68.2349 85.538 67.1224C85.2154 65.9986 85.054 64.7803 85.054 63.4675ZM88.1415 63.117V63.4675C88.1415 64.3687 88.2305 65.2143 88.4085 66.0042C88.5976 66.7941 88.8813 67.4895 89.2596 68.0903C89.649 68.6911 90.1441 69.164 90.7449 69.5089C91.3457 69.8426 92.0634 70.0095 92.8978 70.0095C93.9214 70.0095 94.767 69.7926 95.4345 69.3587C96.1021 68.9247 96.6305 68.3518 97.0199 67.6397C97.4205 66.9276 97.732 66.1544 97.9545 65.32V61.2979C97.8321 60.686 97.643 60.0963 97.3871 59.5289C97.1423 58.9504 96.8197 58.4386 96.4192 57.9935C96.0297 57.5374 95.5458 57.1758 94.9672 56.9088C94.3887 56.6417 93.71 56.5082 92.9312 56.5082C92.0856 56.5082 91.3569 56.6863 90.7449 57.0423C90.1441 57.3872 89.649 57.8656 89.2596 58.4775C88.8813 59.0783 88.5976 59.7793 88.4085 60.5803C88.2305 61.3703 88.1415 62.2158 88.1415 63.117ZM108.335 54.2386V72.2959H105.231V54.2386H108.335ZM104.997 49.4488C104.997 48.9482 105.147 48.5254 105.448 48.1805C105.759 47.8356 106.216 47.6631 106.816 47.6631C107.406 47.6631 107.857 47.8356 108.168 48.1805C108.491 48.5254 108.652 48.9482 108.652 49.4488C108.652 49.9273 108.491 50.3389 108.168 50.6838C107.857 51.0176 107.406 51.1845 106.816 51.1845C106.216 51.1845 105.759 51.0176 105.448 50.6838C105.147 50.3389 104.997 49.9273 104.997 49.4488ZM120.852 54.2386V56.6084H111.089V54.2386H120.852ZM114.393 49.8494H117.48V67.8233C117.48 68.4352 117.575 68.8969 117.764 69.2085C117.953 69.52 118.198 69.7258 118.499 69.8259C118.799 69.9261 119.122 69.9761 119.466 69.9761C119.722 69.9761 119.989 69.9539 120.268 69.9094C120.557 69.8538 120.774 69.8093 120.918 69.7759L120.935 72.2959C120.69 72.3738 120.368 72.4461 119.967 72.5129C119.578 72.5907 119.105 72.6297 118.549 72.6297C117.792 72.6297 117.097 72.4795 116.462 72.1791C115.828 71.8787 115.322 71.378 114.944 70.6771C114.577 69.965 114.393 69.0082 114.393 67.8066V49.8494ZM135.121 69.2085V59.9128C135.121 59.2007 134.976 58.5832 134.687 58.0603C134.409 57.5263 133.986 57.1146 133.418 56.8253C132.851 56.5361 132.15 56.3914 131.316 56.3914C130.537 56.3914 129.853 56.5249 129.263 56.7919C128.684 57.059 128.228 57.4094 127.894 57.8433C127.572 58.2773 127.41 58.7445 127.41 59.2452H124.323C124.323 58.5999 124.49 57.9602 124.824 57.326C125.157 56.6918 125.636 56.1188 126.259 55.607C126.893 55.0841 127.65 54.6725 128.529 54.3721C129.419 54.0605 130.409 53.9048 131.499 53.9048C132.812 53.9048 133.969 54.1273 134.97 54.5723C135.983 55.0174 136.773 55.6905 137.34 56.5917C137.919 57.4818 138.208 58.5999 138.208 59.9461V68.3573C138.208 68.9581 138.258 69.5979 138.358 70.2765C138.47 70.9552 138.631 71.5393 138.842 72.0289V72.2959H135.621C135.466 71.9399 135.343 71.467 135.254 70.8773C135.165 70.2765 135.121 69.7203 135.121 69.2085ZM135.655 61.348L135.688 63.5176H132.567C131.688 63.5176 130.904 63.5899 130.214 63.7345C129.524 63.868 128.946 64.0739 128.478 64.352C128.011 64.6301 127.655 64.9806 127.41 65.4034C127.166 65.8151 127.043 66.299 127.043 66.8553C127.043 67.4228 127.171 67.9401 127.427 68.4074C127.683 68.8747 128.067 69.2474 128.579 69.5255C129.102 69.7926 129.741 69.9261 130.498 69.9261C131.444 69.9261 132.278 69.7258 133.001 69.3253C133.724 68.9247 134.297 68.4352 134.72 67.8567C135.154 67.2781 135.388 66.7163 135.421 66.1711L136.739 67.6564C136.662 68.1237 136.45 68.641 136.105 69.2085C135.76 69.7759 135.299 70.321 134.72 70.844C134.153 71.3558 133.474 71.7841 132.684 72.129C131.905 72.4628 131.026 72.6297 130.047 72.6297C128.823 72.6297 127.75 72.3905 126.826 71.9121C125.914 71.4336 125.202 70.7939 124.69 69.9928C124.189 69.1806 123.939 68.2739 123.939 67.2726C123.939 66.3046 124.128 65.4535 124.507 64.7192C124.885 63.9737 125.43 63.3562 126.142 62.8667C126.854 62.366 127.711 61.9877 128.712 61.7318C129.713 61.476 130.832 61.348 132.067 61.348H135.655ZM146.419 46.6618V72.2959H143.315V46.6618H146.419ZM154.73 54.2386V72.2959H151.626V54.2386H154.73ZM151.392 49.4488C151.392 48.9482 151.542 48.5254 151.843 48.1805C152.154 47.8356 152.611 47.6631 153.211 47.6631C153.801 47.6631 154.252 47.8356 154.563 48.1805C154.886 48.5254 155.047 48.9482 155.047 49.4488C155.047 49.9273 154.886 50.3389 154.563 50.6838C154.252 51.0176 153.801 51.1845 153.211 51.1845C152.611 51.1845 152.154 51.0176 151.843 50.6838C151.542 50.3389 151.392 49.9273 151.392 49.4488ZM173.138 69.7592V72.2959H160.004V69.7592H173.138ZM172.654 56.4248L160.705 72.2959H158.819V70.0262L170.685 54.2386H172.654V56.4248ZM171.285 54.2386V56.7919H158.952V54.2386H171.285ZM187.29 69.2085V59.9128C187.29 59.2007 187.145 58.5832 186.856 58.0603C186.578 57.5263 186.155 57.1146 185.588 56.8253C185.02 56.5361 184.319 56.3914 183.485 56.3914C182.706 56.3914 182.022 56.5249 181.432 56.7919C180.854 57.059 180.397 57.4094 180.064 57.8433C179.741 58.2773 179.58 58.7445 179.58 59.2452H176.492C176.492 58.5999 176.659 57.9602 176.993 57.326C177.327 56.6918 177.805 56.1188 178.428 55.607C179.062 55.0841 179.819 54.6725 180.698 54.3721C181.588 54.0605 182.578 53.9048 183.669 53.9048C184.981 53.9048 186.138 54.1273 187.14 54.5723C188.152 55.0174 188.942 55.6905 189.51 56.5917C190.088 57.4818 190.377 58.5999 190.377 59.9461V68.3573C190.377 68.9581 190.428 69.5979 190.528 70.2765C190.639 70.9552 190.8 71.5393 191.012 72.0289V72.2959H187.791C187.635 71.9399 187.513 71.467 187.424 70.8773C187.335 70.2765 187.29 69.7203 187.29 69.2085ZM187.824 61.348L187.857 63.5176H184.737C183.858 63.5176 183.073 63.5899 182.383 63.7345C181.694 63.868 181.115 64.0739 180.648 64.352C180.181 64.6301 179.825 64.9806 179.58 65.4034C179.335 65.8151 179.213 66.299 179.213 66.8553C179.213 67.4228 179.341 67.9401 179.596 68.4074C179.852 68.8747 180.236 69.2474 180.748 69.5255C181.271 69.7926 181.911 69.9261 182.667 69.9261C183.613 69.9261 184.447 69.7258 185.171 69.3253C185.894 68.9247 186.467 68.4352 186.889 67.8567C187.323 67.2781 187.557 66.7163 187.59 66.1711L188.909 67.6564C188.831 68.1237 188.62 68.641 188.275 69.2085C187.93 69.7759 187.468 70.321 186.889 70.844C186.322 71.3558 185.643 71.7841 184.853 72.129C184.075 72.4628 183.196 72.6297 182.217 72.6297C180.993 72.6297 179.919 72.3905 178.996 71.9121C178.083 71.4336 177.371 70.7939 176.859 69.9928C176.359 69.1806 176.108 68.2739 176.108 67.2726C176.108 66.3046 176.298 65.4535 176.676 64.7192C177.054 63.9737 177.599 63.3562 178.311 62.8667C179.023 62.366 179.88 61.9877 180.881 61.7318C181.883 61.476 183.001 61.348 184.236 61.348H187.824ZM202.794 54.2386V56.6084H193.031V54.2386H202.794ZM196.335 49.8494H199.423V67.8233C199.423 68.4352 199.517 68.8969 199.707 69.2085C199.896 69.52 200.14 69.7258 200.441 69.8259C200.741 69.9261 201.064 69.9761 201.409 69.9761C201.665 69.9761 201.932 69.9539 202.21 69.9094C202.499 69.8538 202.716 69.8093 202.861 69.7759L202.877 72.2959C202.633 72.3738 202.31 72.4461 201.909 72.5129C201.52 72.5907 201.047 72.6297 200.491 72.6297C199.734 72.6297 199.039 72.4795 198.405 72.1791C197.771 71.8787 197.264 71.378 196.886 70.6771C196.519 69.965 196.335 69.0082 196.335 67.8066V49.8494ZM209.77 54.2386V72.2959H206.666V54.2386H209.77ZM206.432 49.4488C206.432 48.9482 206.582 48.5254 206.883 48.1805C207.194 47.8356 207.65 47.6631 208.251 47.6631C208.841 47.6631 209.291 47.8356 209.603 48.1805C209.926 48.5254 210.087 48.9482 210.087 49.4488C210.087 49.9273 209.926 50.3389 209.603 50.6838C209.291 51.0176 208.841 51.1845 208.251 51.1845C207.65 51.1845 207.194 51.0176 206.883 50.6838C206.582 50.3389 206.432 49.9273 206.432 49.4488ZM213.909 63.4675V63.0836C213.909 61.7819 214.098 60.5748 214.476 59.4622C214.854 58.3384 215.4 57.3649 216.112 56.5416C216.824 55.7072 217.686 55.0619 218.698 54.6057C219.711 54.1384 220.846 53.9048 222.103 53.9048C223.371 53.9048 224.512 54.1384 225.524 54.6057C226.548 55.0619 227.416 55.7072 228.128 56.5416C228.851 57.3649 229.402 58.3384 229.78 59.4622C230.158 60.5748 230.347 61.7819 230.347 63.0836V63.4675C230.347 64.7692 230.158 65.9764 229.78 67.089C229.402 68.2016 228.851 69.1751 228.128 70.0095C227.416 70.8328 226.553 71.4781 225.541 71.9454C224.54 72.4016 223.405 72.6297 222.136 72.6297C220.868 72.6297 219.728 72.4016 218.715 71.9454C217.703 71.4781 216.835 70.8328 216.112 70.0095C215.4 69.1751 214.854 68.2016 214.476 67.089C214.098 65.9764 213.909 64.7692 213.909 63.4675ZM216.996 63.0836V63.4675C216.996 64.3687 217.102 65.2198 217.313 66.0209C217.525 66.8108 217.842 67.5118 218.265 68.1237C218.698 68.7356 219.238 69.2196 219.883 69.5756C220.529 69.9205 221.28 70.093 222.136 70.093C222.982 70.093 223.722 69.9205 224.356 69.5756C225.001 69.2196 225.535 68.7356 225.958 68.1237C226.381 67.5118 226.698 66.8108 226.909 66.0209C227.132 65.2198 227.243 64.3687 227.243 63.4675V63.0836C227.243 62.1936 227.132 61.3536 226.909 60.5636C226.698 59.7626 226.375 59.0561 225.941 58.4441C225.519 57.8211 224.985 57.3316 224.339 56.9755C223.705 56.6195 222.96 56.4415 222.103 56.4415C221.257 56.4415 220.512 56.6195 219.867 56.9755C219.232 57.3316 218.698 57.8211 218.265 58.4441C217.842 59.0561 217.525 59.7626 217.313 60.5636C217.102 61.3536 216.996 62.1936 216.996 63.0836ZM237.307 58.0937V72.2959H234.219V54.2386H237.14L237.307 58.0937ZM236.572 62.583L235.287 62.5329C235.298 61.2979 235.482 60.1575 235.838 59.1117C236.194 58.0547 236.695 57.1368 237.34 56.358C237.985 55.5792 238.753 54.9784 239.643 54.5556C240.544 54.1217 241.54 53.9048 242.63 53.9048C243.52 53.9048 244.321 54.0272 245.033 54.2719C245.746 54.5056 246.352 54.8839 246.853 55.4068C247.364 55.9297 247.754 56.6084 248.021 57.4428C248.288 58.2661 248.421 59.273 248.421 60.4635V72.2959H245.317V60.4301C245.317 59.4844 245.178 58.7279 244.9 58.1604C244.622 57.5819 244.216 57.1647 243.682 56.9088C243.148 56.6417 242.491 56.5082 241.712 56.5082C240.945 56.5082 240.244 56.6696 239.61 56.9922C238.987 57.3149 238.447 57.7599 237.991 58.3273C237.546 58.8947 237.195 59.5456 236.939 60.2799C236.695 61.0031 236.572 61.7708 236.572 62.583Z" fill="white"/>
<line opacity="0.2" x1="656.609" y1="2.24199e-08" x2="656.609" y2="339.928" stroke="url(#paint1_linear_2504_375)" stroke-width="1.03322"/>
<line opacity="0.2" x1="590.483" y1="2.24199e-08" x2="590.483" y2="339.928" stroke="url(#paint2_linear_2504_375)" stroke-width="1.03322"/>
<line opacity="0.2" x1="525.39" y1="2.24199e-08" x2="525.39" y2="339.928" stroke="url(#paint3_linear_2504_375)" stroke-width="1.03322"/>
<line opacity="0.2" x1="459.265" y1="2.24199e-08" x2="459.265" y2="339.928" stroke="url(#paint4_linear_2504_375)" stroke-width="1.03322"/>
<line opacity="0.2" x1="394.172" y1="2.24199e-08" x2="394.172" y2="339.928" stroke="url(#paint5_linear_2504_375)" stroke-width="1.03322"/>
<line opacity="0.2" x1="328.046" y1="2.24199e-08" x2="328.046" y2="339.928" stroke="url(#paint6_linear_2504_375)" stroke-width="1.03322"/>
<line opacity="0.2" x1="262.954" y1="2.24199e-08" x2="262.954" y2="339.928" stroke="url(#paint7_linear_2504_375)" stroke-width="1.03322"/>
<line opacity="0.2" x1="196.828" y1="2.24199e-08" x2="196.828" y2="339.928" stroke="url(#paint8_linear_2504_375)" stroke-width="1.03322"/>
<line opacity="0.2" x1="131.735" y1="2.24199e-08" x2="131.735" y2="339.928" stroke="url(#paint9_linear_2504_375)" stroke-width="1.03322"/>
<line opacity="0.2" x1="65.6094" y1="2.24199e-08" x2="65.6094" y2="339.928" stroke="url(#paint10_linear_2504_375)" stroke-width="1.03322"/>
<line opacity="0.2" x1="721.185" y1="271.219" x2="-0.000183186" y2="271.219" stroke="url(#paint11_linear_2504_375)" stroke-width="1.03322"/>
<line opacity="0.2" x1="721.185" y1="204.06" x2="-0.000183186" y2="204.06" stroke="url(#paint12_linear_2504_375)" stroke-width="1.03322"/>
<line opacity="0.2" x1="721.185" y1="135.868" x2="-0.000183186" y2="135.868" stroke="url(#paint13_linear_2504_375)" stroke-width="1.03322"/>
<line opacity="0.2" x1="721.185" y1="68.709" x2="-0.000183187" y2="68.709" stroke="url(#paint14_linear_2504_375)" stroke-width="1.03322"/>
<defs>
<filter id="filter0_bi_2504_375" x="-17.511" y="-17.511" width="755.735" height="374.955" filterUnits="userSpaceOnUse" color-interpolation-filters="sRGB">
<feFlood flood-opacity="0" result="BackgroundImageFix"/>
<feGaussianBlur in="BackgroundImageFix" stdDeviation="8.75548"/>
<feComposite in2="SourceAlpha" operator="in" result="effect1_backgroundBlur_2504_375"/>
<feBlend mode="normal" in="SourceGraphic" in2="effect1_backgroundBlur_2504_375" result="shape"/>
<feColorMatrix in="SourceAlpha" type="matrix" values="0 0 0 0 0 0 0 0 0 0 0 0 0 0 0 0 0 0 127 0" result="hardAlpha"/>
<feOffset dy="2.06011"/>
<feGaussianBlur stdDeviation="5.15028"/>
<feComposite in2="hardAlpha" operator="arithmetic" k2="-1" k3="1"/>
<feColorMatrix type="matrix" values="0 0 0 0 1 0 0 0 0 1 0 0 0 0 1 0 0 0 0.25 0"/>
<feBlend mode="normal" in2="shape" result="effect2_innerShadow_2504_375"/>
</filter>
<linearGradient id="paint0_linear_2504_375" x1="231.973" y1="339.933" x2="231.973" y2="-105.774" gradientUnits="userSpaceOnUse">
<stop stop-color="white"/>
<stop offset="1" stop-color="white" stop-opacity="0"/>
</linearGradient>
<linearGradient id="paint1_linear_2504_375" x1="656.092" y1="0" x2="656.092" y2="339.928" gradientUnits="userSpaceOnUse">
<stop stop-color="white" stop-opacity="0"/>
<stop offset="0.213542" stop-color="white"/>
<stop offset="0.786458" stop-color="white"/>
<stop offset="1" stop-color="white" stop-opacity="0"/>
</linearGradient>
<linearGradient id="paint2_linear_2504_375" x1="589.966" y1="0" x2="589.966" y2="339.928" gradientUnits="userSpaceOnUse">
<stop stop-color="white" stop-opacity="0"/>
<stop offset="0.213542" stop-color="white"/>
<stop offset="0.786458" stop-color="white"/>
<stop offset="1" stop-color="white" stop-opacity="0"/>
</linearGradient>
<linearGradient id="paint3_linear_2504_375" x1="524.874" y1="0" x2="524.874" y2="339.928" gradientUnits="userSpaceOnUse">
<stop stop-color="white" stop-opacity="0"/>
<stop offset="0.213542" stop-color="white"/>
<stop offset="0.786458" stop-color="white"/>
<stop offset="1" stop-color="white" stop-opacity="0"/>
</linearGradient>
<linearGradient id="paint4_linear_2504_375" x1="458.748" y1="0" x2="458.748" y2="339.928" gradientUnits="userSpaceOnUse">
<stop stop-color="white" stop-opacity="0"/>
<stop offset="0.213542" stop-color="white"/>
<stop offset="0.786458" stop-color="white"/>
<stop offset="1" stop-color="white" stop-opacity="0"/>
</linearGradient>
<linearGradient id="paint5_linear_2504_375" x1="393.655" y1="0" x2="393.655" y2="339.928" gradientUnits="userSpaceOnUse">
<stop stop-color="white" stop-opacity="0"/>
<stop offset="0.213542" stop-color="white"/>
<stop offset="0.786458" stop-color="white"/>
<stop offset="1" stop-color="white" stop-opacity="0"/>
</linearGradient>
<linearGradient id="paint6_linear_2504_375" x1="327.529" y1="0" x2="327.529" y2="339.928" gradientUnits="userSpaceOnUse">
<stop stop-color="white" stop-opacity="0"/>
<stop offset="0.213542" stop-color="white"/>
<stop offset="0.786458" stop-color="white"/>
<stop offset="1" stop-color="white" stop-opacity="0"/>
</linearGradient>
<linearGradient id="paint7_linear_2504_375" x1="262.437" y1="0" x2="262.437" y2="339.928" gradientUnits="userSpaceOnUse">
<stop stop-color="white" stop-opacity="0"/>
<stop offset="0.213542" stop-color="white"/>
<stop offset="0.786458" stop-color="white"/>
<stop offset="1" stop-color="white" stop-opacity="0"/>
</linearGradient>
<linearGradient id="paint8_linear_2504_375" x1="196.311" y1="0" x2="196.311" y2="339.928" gradientUnits="userSpaceOnUse">
<stop stop-color="white" stop-opacity="0"/>
<stop offset="0.213542" stop-color="white"/>
<stop offset="0.786458" stop-color="white"/>
<stop offset="1" stop-color="white" stop-opacity="0"/>
</linearGradient>
<linearGradient id="paint9_linear_2504_375" x1="131.218" y1="0" x2="131.218" y2="339.928" gradientUnits="userSpaceOnUse">
<stop stop-color="white" stop-opacity="0"/>
<stop offset="0.213542" stop-color="white"/>
<stop offset="0.786458" stop-color="white"/>
<stop offset="1" stop-color="white" stop-opacity="0"/>
</linearGradient>
<linearGradient id="paint10_linear_2504_375" x1="65.0928" y1="0" x2="65.0928" y2="339.928" gradientUnits="userSpaceOnUse">
<stop stop-color="white" stop-opacity="0"/>
<stop offset="0.213542" stop-color="white"/>
<stop offset="0.786458" stop-color="white"/>
<stop offset="1" stop-color="white" stop-opacity="0"/>
</linearGradient>
<linearGradient id="paint11_linear_2504_375" x1="721.185" y1="270.703" x2="-0.000183105" y2="270.703" gradientUnits="userSpaceOnUse">
<stop stop-color="white" stop-opacity="0"/>
<stop offset="0.213542" stop-color="white"/>
<stop offset="0.786458" stop-color="white"/>
<stop offset="1" stop-color="white" stop-opacity="0"/>
</linearGradient>
<linearGradient id="paint12_linear_2504_375" x1="721.185" y1="203.543" x2="-0.000183105" y2="203.543" gradientUnits="userSpaceOnUse">
<stop stop-color="white" stop-opacity="0"/>
<stop offset="0.213542" stop-color="white"/>
<stop offset="0.786458" stop-color="white"/>
<stop offset="1" stop-color="white" stop-opacity="0"/>
</linearGradient>
<linearGradient id="paint13_linear_2504_375" x1="721.185" y1="135.351" x2="-0.000183105" y2="135.351" gradientUnits="userSpaceOnUse">
<stop stop-color="white" stop-opacity="0"/>
<stop offset="0.213542" stop-color="white"/>
<stop offset="0.786458" stop-color="white"/>
<stop offset="1" stop-color="white" stop-opacity="0"/>
</linearGradient>
<linearGradient id="paint14_linear_2504_375" x1="721.185" y1="68.1924" x2="-0.000183105" y2="68.1923" gradientUnits="userSpaceOnUse">
<stop stop-color="white" stop-opacity="0"/>
<stop offset="0.213542" stop-color="white"/>
<stop offset="0.786458" stop-color="white"/>
<stop offset="1" stop-color="white" stop-opacity="0"/>
</linearGradient>
</defs>
</svg>
