<svg width="605" height="219" viewBox="0 0 605 219" fill="none" xmlns="http://www.w3.org/2000/svg">
<path d="M3 212.894C1.57343 212.894 0.41696 214.051 0.41696 215.477C0.41696 216.904 1.57343 218.06 3 218.06V212.894ZM577.124 14C577.124 21.6084 583.292 27.7762 590.9 27.7762C598.508 27.7762 604.676 21.6084 604.676 14C604.676 6.39161 598.508 0.223787 590.9 0.223787C583.292 0.223787 577.124 6.39161 577.124 14ZM3 218.06C63.9453 218.06 199.406 218.066 325.547 192.825C388.613 180.206 449.521 161.244 497.67 132.701C545.84 104.145 581.451 65.8639 593.415 14.5869L588.384 13.4131C576.843 62.8746 542.453 100.147 495.035 128.257C447.596 156.379 387.327 175.195 324.534 187.76C198.958 212.888 63.9742 212.894 3 212.894V218.06Z" fill="url(#paint0_linear_2504_395)"/>
<defs>
<linearGradient id="paint0_linear_2504_395" x1="590.9" y1="13.4834" x2="2.99998" y2="214.961" gradientUnits="userSpaceOnUse">
<stop stop-color="white"/>
<stop offset="1" stop-color="white" stop-opacity="0"/>
</linearGradient>
</defs>
</svg>
