<svg width="74" height="74" viewBox="0 0 74 74" fill="none" xmlns="http://www.w3.org/2000/svg">
<path d="M37.0114 10.4547C44.3595 10.4547 50.6189 13.0438 55.7894 18.2219C60.96 23.4001 63.5453 29.6633 63.5453 37.0114C63.5453 44.3595 60.9562 50.6189 55.7781 55.7895C50.5999 60.9601 44.3367 63.5453 36.9886 63.5453C29.6405 63.5453 23.3811 60.9562 18.2106 55.778C13.04 50.5999 10.4547 44.3368 10.4547 36.9887C10.4547 29.6405 13.0438 23.3812 18.222 18.2106C23.4001 13.04 29.6633 10.4547 37.0114 10.4547ZM37 57.5828C42.663 57.5828 47.5092 55.5681 51.5386 51.5387C55.568 47.5092 57.5827 42.663 57.5827 37C57.5827 31.3371 55.568 26.4909 51.5386 22.4614C47.5092 18.432 42.663 16.4173 37 16.4173C31.337 16.4173 26.4908 18.432 22.4614 22.4614C18.432 26.4909 16.4173 31.3371 16.4173 37C16.4173 42.663 18.432 47.5092 22.4614 51.5387C26.4908 55.5681 31.337 57.5828 37 57.5828ZM37.0096 48.5131C39.6548 48.5131 42.0454 47.7409 44.1815 46.1967C46.3175 44.6524 47.9129 42.6262 48.9676 40.118H25.0324C26.0433 42.637 27.631 44.6659 29.7954 46.2048C31.9598 47.7436 34.3645 48.5131 37.0096 48.5131ZM25.3095 30.1853C25.3095 31.1663 25.6348 31.9887 26.2853 32.6523C26.9358 33.3159 27.757 33.6477 28.7488 33.6477C29.7275 33.6477 30.5454 33.3176 31.2025 32.6574C31.8596 31.9972 32.1881 31.1791 32.1881 30.2031C32.1881 29.2271 31.8607 28.4031 31.2057 27.731C30.5508 27.0589 29.7392 26.7229 28.7711 26.7229C27.7767 26.7229 26.9512 27.0547 26.2945 27.7183C25.6378 28.3819 25.3095 29.2043 25.3095 30.1853ZM41.8119 30.1853C41.8119 31.1663 42.1393 31.9887 42.7943 32.6523C43.4492 33.3159 44.2608 33.6477 45.2289 33.6477C46.2233 33.6477 47.0488 33.3176 47.7055 32.6574C48.3622 31.9972 48.6905 31.1791 48.6905 30.2031C48.6905 29.2271 48.3652 28.4031 47.7147 27.731C47.0642 27.0589 46.243 26.7229 45.2512 26.7229C44.2725 26.7229 43.4546 27.0547 42.7975 27.7183C42.1404 28.3819 41.8119 29.2043 41.8119 30.1853ZM0 16.499V10.2098C0 7.39724 1.00169 4.99246 3.00508 2.99544C5.00847 0.998478 7.41003 0 10.2098 0H16.4989V5.96255H10.2098C9.00639 5.96255 7.99767 6.36957 7.18362 7.18363C6.36957 7.99768 5.96254 9.0064 5.96254 10.2098V16.499H0ZM10.2098 74C7.39723 74 4.99246 72.9983 2.99544 70.995C0.998535 68.9916 8.16327e-05 66.59 8.16327e-05 63.7903V57.5011H5.96254V63.7903C5.96254 64.9937 6.36957 66.0024 7.18362 66.8165C7.99767 67.6305 9.00639 68.0375 10.2098 68.0375H16.4989V74H10.2098ZM57.5011 73.6733V67.7108H63.7902C64.9936 67.7108 66.0023 67.3038 66.8164 66.4897C67.6304 65.6757 68.0375 64.667 68.0375 63.4636V57.0927H74V63.4636C74 66.2761 72.9983 68.6809 70.9949 70.6779C68.9915 72.6748 66.59 73.6733 63.7902 73.6733H57.5011ZM68.0375 16.499V10.2098C68.0375 9.0064 67.6304 7.99768 66.8164 7.18363C66.0023 6.36957 64.9936 5.96255 63.7902 5.96255H57.5011V0H63.7902C66.6028 0 69.0075 1.00169 71.0046 3.00508C73.0015 5.00847 74 7.41004 74 10.2098V16.499H68.0375Z" fill="white"/>
</svg>
