<svg width="26" height="28" viewBox="0 0 26 28" fill="none" xmlns="http://www.w3.org/2000/svg">
<path d="M6.02304 28V19.6571H3.49406C2.54822 19.6571 1.72941 19.3376 1.03763 18.6986C0.345878 18.0596 0 17.2724 0 16.3368C0 15.6173 0.185745 14.9496 0.557235 14.3338C0.928747 13.718 1.45294 13.2732 2.1298 12.9993L11.6975 9.03843V7.78458C10.8467 7.58373 10.1609 7.13156 9.64005 6.42806C9.11921 5.72459 8.85878 4.94259 8.85878 4.08207C8.85878 2.94439 9.26759 1.97962 10.0852 1.18776C10.9028 0.395919 11.8826 0 13.0246 0C14.1665 0 15.1463 0.395919 15.9639 1.18776C16.7815 1.97962 17.1903 2.94439 17.1903 4.08207H14.6897C14.6897 3.63213 14.5236 3.25577 14.1915 2.95301C13.8594 2.65026 13.4697 2.49889 13.0225 2.49889C12.5753 2.49889 12.1863 2.65201 11.8556 2.95827C11.5248 3.26455 11.3594 3.63915 11.3594 4.08207C11.3594 4.57028 11.528 4.97884 11.8653 5.30777C12.2024 5.63669 12.6085 5.80115 13.0834 5.80115C13.4333 5.80115 13.7291 5.91947 13.971 6.15612C14.2128 6.39276 14.3337 6.6796 14.3337 7.01663V8.96163L23.8508 12.9994C24.5277 13.2732 25.0551 13.7181 25.433 14.3338C25.811 14.9496 26 15.6173 26 16.3369C26 17.2724 25.6522 18.0596 24.9567 18.6987C24.2611 19.3377 23.4378 19.6572 22.4865 19.6572H19.9576V28L6.02304 28ZM3.48632 17.1775H6.02304V15.5603H19.9576V17.1775H22.4865C22.7507 17.1775 22.9823 17.0939 23.1813 16.9269C23.3804 16.7598 23.48 16.554 23.48 16.3093C23.48 16.1083 23.4261 15.9267 23.3183 15.7647C23.2106 15.6026 23.059 15.4734 22.8634 15.3772L13.0943 11.0972L3.11979 15.3772C2.93446 15.4649 2.78495 15.5919 2.67124 15.7583C2.55752 15.9246 2.50065 16.097 2.50065 16.2753C2.50065 16.52 2.59699 16.7315 2.78967 16.9099C2.98232 17.0883 3.21454 17.1775 3.48632 17.1775ZM8.5237 25.5203H17.4569V18.0208H8.5237V25.5203Z" fill="white"/>
</svg>
