<svg width="527" height="135" viewBox="0 0 527 135" fill="none" xmlns="http://www.w3.org/2000/svg">
<g filter="url(#filter0_d_2334_485)">
<path d="M173.456 86.9333L171.169 79.7774H154.181L151.895 86.9333H140.461L156.011 41.3959H169.339L184.889 86.9333H173.456ZM157.317 70.0194H168.033L162.675 53.3007L157.317 70.0194Z" fill="white"/>
<path d="M201.856 41.3959H212.31V86.9333H201.856V41.3959Z" fill="white"/>
<path d="M255.058 87.8441C248.219 87.8441 242.535 85.5889 238.005 81.0785C233.519 76.5248 231.276 70.8868 231.276 64.1646C231.276 57.4424 233.519 51.8261 238.005 47.3157C242.535 42.762 248.219 40.4851 255.058 40.4851C259.152 40.4851 262.942 41.4392 266.427 43.3475C269.911 45.2123 272.655 47.7711 274.659 51.0238L265.642 56.2281C264.641 54.4499 263.203 53.0838 261.33 52.1297C259.457 51.1322 257.367 50.6335 255.058 50.6335C251.007 50.6335 247.762 51.8695 245.323 54.3415C242.927 56.8135 241.729 60.0879 241.729 64.1646C241.729 68.2413 242.927 71.5156 245.323 73.9877C247.762 76.4597 251.007 77.6957 255.058 77.6957C257.367 77.6957 259.457 77.197 261.33 76.1995C263.247 75.202 264.684 73.8359 265.642 72.1011L274.659 77.3054C272.699 80.5581 269.976 83.1385 266.492 85.0468C263.007 86.9116 259.196 87.8441 255.058 87.8441Z" fill="white"/>
<path d="M317.453 41.3959H327.907V86.9333H317.453V68.8484H303.079V86.9333H292.625V41.3959H303.079V58.8302H317.453V41.3959Z" fill="white"/>
<path d="M377.899 86.9333L375.613 79.7774H358.625L356.338 86.9333H344.905L360.455 41.3959H373.783L389.333 86.9333H377.899ZM361.761 70.0194H372.477L367.119 53.3007L361.761 70.0194Z" fill="white"/>
<path d="M430.344 86.9333L421.72 71.971H416.754V86.9333H406.3V41.3959H424.594C428.95 41.3959 432.653 42.9138 435.702 45.9496C438.751 48.9854 440.275 52.6718 440.275 57.0087C440.275 59.7843 439.491 62.3648 437.923 64.7501C436.399 67.092 434.373 68.9135 431.847 70.2146L441.582 86.9333H430.344ZM416.754 51.1539V62.8635H424.594C426.032 62.8635 427.251 62.2997 428.253 61.1721C429.299 60.0445 429.821 58.6567 429.821 57.0087C429.821 55.3607 429.299 53.9729 428.253 52.8453C427.251 51.7177 426.032 51.1539 424.594 51.1539H416.754Z" fill="white"/>
<path d="M505.3 41.3959V86.9333H494.846V60.4565L483.02 79.7774H481.844L470.018 60.4565V86.9333H459.565V41.3959H470.018L482.432 61.6275L494.846 41.3959H505.3Z" fill="white"/>
<path d="M74.6661 22.7199L38.6725 43.1223C35.4835 44.93 33.5064 48.3279 33.5064 51.9883V94.237L28.0177 91.0678C24.296 88.9188 22 84.9471 22 80.6454V46.9065C22 42.6047 24.296 38.633 28.0177 36.484L57.2508 19.6146C60.9762 17.4618 65.5645 17.4618 69.2862 19.6146L74.6661 22.7199Z" fill="white"/>
<path d="M89.3979 31.2705L53.5507 51.665C50.3701 53.4709 48.3944 56.8725 48.3944 60.5369V102.892L36.5476 96.0283V52.0029C36.5476 49.4161 37.9396 47.0169 40.181 45.7404L77.6147 24.4448L89.3979 31.2705Z" fill="white"/>
<path d="M104.495 46.8273V50.147C104.495 50.9844 104.143 51.788 103.51 52.3288C103.072 52.7005 102.552 53.0686 101.979 53.3915L68.4472 72.4608C65.7446 73.9967 62.3907 73.9967 59.688 72.4608L52.0256 68.1047C51.6775 67.9056 51.4641 67.5376 51.4641 67.1358V60.4477C51.4641 57.8603 52.8603 55.4607 55.1026 54.1876L91.8838 33.267H91.8912C92.2656 33.0454 92.726 33.0454 93.1003 33.2632L98.4943 36.3876C102.211 38.5394 104.499 42.5162 104.499 46.8235L104.495 46.8273Z" fill="white"/>
<path d="M104.499 56.6258V68.8401C104.499 69.7716 104.079 70.6505 103.357 71.2364C102.952 71.5632 102.484 71.8824 101.983 72.1679L68.4484 91.2405C65.7456 92.7805 62.3914 92.7805 59.6886 91.2405L52.3738 87.0827C51.8123 86.7635 51.4641 86.1625 51.4641 85.5127V72.4496C51.4641 71.92 52.0331 71.5895 52.4898 71.8486L58.2099 75.1013C60.018 76.1304 62.0433 76.6412 64.0685 76.6412C66.0938 76.6412 68.119 76.1304 69.9271 75.1013L103.458 56.0286H103.465C103.926 55.7619 104.499 56.0924 104.499 56.6258Z" fill="white"/>
<path d="M103.462 74.8097C103.923 74.5475 104.498 74.8734 104.498 75.4053V80.6496C104.498 84.9461 102.205 88.9131 98.4781 91.0595L69.2362 107.909C65.5134 110.059 60.9238 110.059 57.1972 107.909L51.2791 104.5C51.3128 104.376 51.3316 104.245 51.3316 104.11V91.1906C51.3316 90.6624 51.902 90.3327 52.3599 90.5912L58.0941 93.8352C59.9068 94.8615 61.937 95.3747 63.9673 95.3747C65.9976 95.3747 68.0278 94.8615 69.8404 93.8352L103.454 74.8135C103.454 74.8135 103.458 74.8135 103.462 74.8097Z" fill="white"/>
</g>
<defs>
<filter id="filter0_d_2334_485" x="0.399998" y="-1.90735e-06" width="526.5" height="134.721" filterUnits="userSpaceOnUse" color-interpolation-filters="sRGB">
<feFlood flood-opacity="0" result="BackgroundImageFix"/>
<feColorMatrix in="SourceAlpha" type="matrix" values="0 0 0 0 0 0 0 0 0 0 0 0 0 0 0 0 0 0 127 0" result="hardAlpha"/>
<feOffset dy="3.6"/>
<feGaussianBlur stdDeviation="10.8"/>
<feComposite in2="hardAlpha" operator="out"/>
<feColorMatrix type="matrix" values="0 0 0 0 0 0 0 0 0 0 0 0 0 0 0 0 0 0 0.25 0"/>
<feBlend mode="normal" in2="BackgroundImageFix" result="effect1_dropShadow_2334_485"/>
<feBlend mode="normal" in="SourceGraphic" in2="effect1_dropShadow_2334_485" result="shape"/>
</filter>
</defs>
</svg>
