<svg width="27" height="29" viewBox="0 0 27 29" fill="none" xmlns="http://www.w3.org/2000/svg">
<path d="M4.1065 29V22.7188C2.80611 21.4612 1.79659 19.9986 1.07796 18.331C0.359319 16.6635 0 14.9213 0 13.1046C0 9.46444 1.2382 6.3703 3.7146 3.82218C6.19103 1.27406 9.19812 0 12.7359 0C15.684 0 18.2975 0.897164 20.5764 2.6915C22.8553 4.48583 24.3449 6.81123 25.0452 9.6677L26.9467 17.4458C27.0638 17.8929 26.988 18.2908 26.7193 18.6396C26.4507 18.9884 26.0925 19.1628 25.6448 19.1628H22.7718V23.4062C22.7718 24.1851 22.5077 24.8437 21.9797 25.382C21.4516 25.9202 20.8055 26.1893 20.0415 26.1893H17.2964V29H14.5662V23.4062H20.0415V16.3796H23.8846L22.4221 10.3536C21.8745 8.14782 20.6962 6.33796 18.8869 4.92398C17.0777 3.51002 15.0333 2.80304 12.7539 2.80304C9.9638 2.80304 7.59245 3.79511 5.63984 5.77926C3.68722 7.76338 2.71091 10.1778 2.71091 13.0226C2.71091 14.4869 3.00474 15.8885 3.5924 17.2274C4.18007 18.5664 5.01254 19.7441 6.08984 20.7605L6.81741 21.4696V29L4.1065 29ZM11.6842 18.234H13.7374L13.8401 16.6882C14.1139 16.6413 14.3709 16.5422 14.6111 16.3909C14.8513 16.2395 15.0625 16.0693 15.2448 15.8801L16.6611 16.372L17.6386 14.6856L16.612 13.8424C16.7261 13.5145 16.7831 13.1749 16.7831 12.8235C16.7831 12.4722 16.7261 12.1326 16.612 11.8047L17.6386 10.9615L16.6611 9.27512L15.2473 9.76698C15.0589 9.58682 14.8406 9.42467 14.5924 9.28053C14.3441 9.13639 14.0939 9.02919 13.8416 8.95893L13.7374 7.41308H11.6842L11.5815 8.95893C11.3306 9.02919 11.0815 9.13639 10.8344 9.28053C10.5872 9.42467 10.3699 9.58682 10.1823 9.76698L8.77987 9.27512L7.78302 10.9615L8.80964 11.8047C8.69557 12.1326 8.63854 12.4722 8.63854 12.8235C8.63854 13.1749 8.69557 13.5145 8.80964 13.8424L7.78302 14.6856L8.77987 16.372L10.1823 15.8801C10.3635 16.0693 10.5736 16.2395 10.8125 16.3909C11.0514 16.5422 11.3078 16.6413 11.5815 16.6882L11.6842 18.234ZM12.7149 15.2828C12.0506 15.2828 11.4846 15.0442 11.0169 14.5668C10.5492 14.0894 10.3154 13.5097 10.3154 12.8277C10.3154 12.1457 10.5479 11.5646 11.0128 11.0845C11.4779 10.6043 12.0425 10.3642 12.7068 10.3642C13.3711 10.3642 13.9371 10.6029 14.4048 11.0803C14.8724 11.5577 15.1063 12.1374 15.1063 12.8194C15.1063 13.5014 14.8738 14.0825 14.4088 14.5626C13.9438 15.0428 13.3791 15.2828 12.7149 15.2828Z" fill="white"/>
</svg>
