<svg width="130" height="168" viewBox="0 0 130 168" fill="none" xmlns="http://www.w3.org/2000/svg">
<path opacity="0.5" d="M78.9992 167.528L113.131 161.61L90.9396 135.01L78.9992 167.528ZM90.2864 161.592C92.3324 159.642 94.2934 157.664 96.1704 155.661L91.7928 151.558C89.9934 153.478 88.1117 155.376 86.1462 157.25L90.2864 161.592ZM101.712 149.391C103.519 147.219 105.234 145.024 106.857 142.81L102.018 139.263C100.468 141.377 98.8292 143.475 97.0999 145.553L101.712 149.391ZM111.576 135.92C113.096 133.54 114.515 131.143 115.835 128.733L110.573 125.85C109.318 128.141 107.967 130.423 106.519 132.691L111.576 135.92ZM119.605 121.246C120.792 118.668 121.869 116.081 122.84 113.492L117.221 111.387C116.302 113.839 115.281 116.291 114.155 118.738L119.605 121.246ZM125.491 105.518C126.284 102.792 126.96 100.07 127.523 97.3581L121.648 96.1391C121.117 98.6965 120.479 101.266 119.73 103.842L125.491 105.518ZM128.898 89.055C129.247 86.2346 129.473 83.4329 129.58 80.6576L123.585 80.4271C123.484 83.0317 123.272 85.6644 122.943 88.318L128.898 89.055ZM129.534 72.2226C129.392 69.3795 129.122 66.5739 128.727 63.8149L122.788 64.6652C123.156 67.2394 123.409 69.861 123.542 72.5218L129.534 72.2226ZM127.128 55.5086C126.453 52.7381 125.645 50.028 124.709 47.3887L119.054 49.3942C119.921 51.8386 120.671 54.3533 121.298 56.9291L127.128 55.5086ZM121.451 39.5513C120.213 36.977 118.842 34.49 117.34 32.102L112.261 35.2959C113.639 37.4886 114.902 39.7769 116.043 42.151L121.451 39.5513ZM112.381 25.1619C110.586 22.9435 108.66 20.8411 106.609 18.8672L102.449 23.1905C104.318 24.9892 106.075 26.908 107.717 28.9365L112.381 25.1619ZM100.084 13.344C97.8042 11.6533 95.4072 10.1027 92.8978 8.70423L89.9769 13.9453C92.2578 15.2165 94.4367 16.6259 96.5093 18.1631L100.084 13.344ZM85.1739 5.0314C82.5625 3.98925 79.8547 3.09852 77.0554 2.36914L75.5425 8.17529C78.1017 8.8421 80.572 9.65503 82.9501 10.604L85.1739 5.0314ZM68.6914 0.716014C65.9394 0.337758 63.1147 0.106319 60.2212 0.0290005L60.0609 6.02686C62.7389 6.09842 65.3443 6.31236 67.8744 6.66013L68.6914 0.716014ZM51.7603 0.234476C49.0231 0.436684 46.2332 0.771035 43.3932 1.24275L44.3764 7.16166C47.0418 6.71894 49.6512 6.40664 52.2023 6.21817L51.7603 0.234476ZM35.1727 2.96191C32.5274 3.6269 29.8437 4.40768 27.1233 5.30805L29.0086 11.0042C31.5938 10.1485 34.1366 9.40906 36.6355 8.78085L35.1727 2.96191ZM19.2484 8.2111C16.7177 9.23829 14.1582 10.367 11.5713 11.6003L14.1532 17.0163C16.6362 15.8326 19.0873 14.7519 21.505 13.7706L19.2484 8.2111ZM4.21543 15.3514C2.9836 16.0202 1.74602 16.7125 0.502831 17.4284L3.49716 22.6278C4.69747 21.9366 5.89126 21.2688 7.07838 20.6243L4.21543 15.3514Z" fill="url(#paint0_linear_2418_318)"/>
<defs>
<linearGradient id="paint0_linear_2418_318" x1="184.56" y1="111.961" x2="3.97216" y2="6.67328" gradientUnits="userSpaceOnUse">
<stop stop-color="white"/>
<stop offset="1" stop-color="white" stop-opacity="0"/>
</linearGradient>
</defs>
</svg>
