<svg width="257" height="279" viewBox="0 0 257 279" fill="none" xmlns="http://www.w3.org/2000/svg">
<path opacity="0.5" d="M222.073 263.693L190.78 278.551L193.559 244.022L222.073 263.693ZM209.74 265.595C207.033 265.312 204.354 265.005 201.702 264.673L202.447 258.72C205.058 259.046 207.697 259.349 210.364 259.628L209.74 265.595ZM193.723 263.59C191.02 263.194 188.348 262.771 185.705 262.323L186.709 256.407C189.306 256.848 191.935 257.264 194.594 257.654L193.723 263.59ZM177.807 260.888C175.114 260.366 172.454 259.816 169.826 259.238L171.116 253.378C173.693 253.945 176.304 254.485 178.949 254.998L177.807 260.888ZM161.966 257.401C159.317 256.745 156.704 256.059 154.126 255.343L155.73 249.562C158.253 250.262 160.813 250.934 163.409 251.577L161.966 257.401ZM146.335 253.058C143.741 252.255 141.186 251.42 138.669 250.555L140.62 244.881C143.077 245.726 145.574 246.541 148.109 247.326L146.335 253.058ZM131.001 247.776C128.447 246.801 125.935 245.793 123.466 244.75L125.8 239.223C128.203 240.237 130.65 241.22 133.14 242.17L131.001 247.776ZM116.074 241.469C113.581 240.307 111.135 239.108 108.737 237.873L111.484 232.539C113.811 233.738 116.186 234.902 118.609 236.032L116.074 241.469ZM101.577 233.997C99.2021 232.647 96.8775 231.258 94.6036 229.831L97.7932 224.749C99.9922 226.129 102.242 227.473 104.543 228.781L101.577 233.997ZM87.7894 225.335C85.5341 223.77 83.3339 222.165 81.1892 220.52L84.8416 215.759C86.9089 217.346 89.0313 218.894 91.2088 220.404L87.7894 225.335ZM74.8412 215.393C72.7565 213.621 70.7307 211.807 68.7641 209.951L72.8822 205.587C74.7725 207.371 76.7209 209.116 78.7272 210.822L74.8412 215.393ZM62.9637 204.176C61.0756 202.192 59.2499 200.164 57.4869 198.095L62.0546 194.204C63.7456 196.189 65.4976 198.135 67.3103 200.04L62.9637 204.176ZM52.3588 191.721C50.7068 189.546 49.1193 187.328 47.5966 185.068L52.5727 181.715C54.032 183.881 55.5535 186.007 57.1372 188.093L52.3588 191.721ZM43.2166 178.15C41.8252 175.808 40.4989 173.425 39.2381 171.001L44.561 168.232C45.7699 170.556 47.0413 172.841 48.375 175.086L43.2166 178.15ZM35.6681 163.643C34.5504 161.167 33.4971 158.652 32.5083 156.098L38.1036 153.932C39.0532 156.384 40.0644 158.799 41.1369 161.175L35.6681 163.643ZM29.7567 148.386C28.9158 145.817 28.1369 143.212 27.42 140.571L33.2104 138.999C33.9008 141.542 34.6504 144.049 35.4591 146.52L29.7567 148.386ZM25.4794 132.652C24.9009 130.014 24.3814 127.343 23.9211 124.639L29.8359 123.632C30.2807 126.244 30.7822 128.822 31.3402 131.367L25.4794 132.652ZM22.7322 116.552C22.4015 113.89 22.1257 111.199 21.9047 108.478L27.885 107.993C28.0992 110.63 28.3664 113.236 28.6864 115.812L22.7322 116.552ZM21.4121 100.361C21.3028 97.6677 21.2452 94.9477 21.2395 92.2011L27.2395 92.1885C27.245 94.8596 27.301 97.5026 27.4071 100.117L21.4121 100.361ZM21.3702 84.1019C21.4613 81.426 21.5999 78.726 21.786 76.0023L27.772 76.4114C27.5905 79.0681 27.4554 81.6998 27.3667 84.306L21.3702 84.1019ZM22.4753 67.8763C22.7431 65.2267 23.0545 62.5557 23.4095 59.8634L29.358 60.6478C29.0108 63.2809 28.7065 65.8916 28.4449 68.4796L22.4753 67.8763ZM24.5866 51.8412C25.0135 49.1953 25.4815 46.5298 25.9904 43.8448L31.8855 44.9623C31.3865 47.5945 30.928 50.2062 30.5099 52.7971L24.5866 51.8412ZM27.5945 35.9447C28.1625 33.319 28.7688 30.6754 29.4135 28.014L35.2448 29.4265C34.6116 32.0409 34.0163 34.6366 33.4588 37.2134L27.5945 35.9447ZM31.3973 20.221C32.0872 17.6349 32.8124 15.0328 33.573 12.4147L39.3348 14.0886C38.5862 16.6651 37.8729 19.2248 37.1946 21.7675L31.3973 20.221ZM35.9049 4.69239C36.3105 3.39777 36.7246 2.09937 37.1471 0.797214L42.8542 2.64918C42.4378 3.93212 42.03 5.21112 41.6305 6.48616L35.9049 4.69239Z" fill="url(#paint0_linear_2418_326)"/>
<defs>
<linearGradient id="paint0_linear_2418_326" x1="104.25" y1="195.766" x2="26.5001" y2="1.72361" gradientUnits="userSpaceOnUse">
<stop stop-color="white"/>
<stop offset="1" stop-color="white" stop-opacity="0"/>
</linearGradient>
</defs>
</svg>
