<svg width="71" height="69" viewBox="0 0 71 69" fill="none" xmlns="http://www.w3.org/2000/svg">
<path d="M27.7963 27.0948C24.014 27.0948 20.79 25.7693 18.1242 23.1183C15.4584 20.4672 14.1255 17.2804 14.1255 13.5577C14.1255 9.77313 15.4599 6.56737 18.1286 3.94046C20.7973 1.31349 24.0055 0 27.753 0C31.5629 0 34.7979 1.31648 37.4581 3.94945C40.1182 6.58241 41.4483 9.77115 41.4483 13.5157C41.4483 17.2729 40.1185 20.4754 37.4589 23.1232C34.7993 25.7709 31.5784 27.0948 27.7963 27.0948ZM27.7539 20.5561C29.74 20.5561 31.414 19.8707 32.776 18.5001C34.138 17.1294 34.819 15.4817 34.819 13.5569C34.819 11.584 34.1412 9.92107 32.7856 8.56813C31.43 7.21519 29.7729 6.53872 27.8145 6.53872C25.8561 6.53872 24.1821 7.218 22.7924 8.57655C21.4027 9.93516 20.7079 11.581 20.7079 13.514C20.7079 15.4599 21.3978 17.12 22.7777 18.4945C24.1575 19.8689 25.8162 20.5561 27.7539 20.5561ZM66.336 69L55.1259 57.8176C53.8518 58.7219 52.5512 59.3296 51.2241 59.6406C49.897 59.9517 48.5423 60.1072 47.1599 60.1072C43.0043 60.1072 39.4721 58.6665 36.5632 55.7852C33.6542 52.9039 32.1998 49.4052 32.1998 45.289C32.1998 41.1728 33.6533 37.6718 36.5603 34.786C39.4674 31.9002 42.9973 30.4573 47.1502 30.4573C51.303 30.4573 54.832 31.9021 57.7371 34.7917C60.6422 37.6813 62.0948 41.1901 62.0948 45.3181C62.0948 46.6913 61.9304 48.037 61.6016 49.3554C61.2729 50.6736 60.6533 51.9566 59.7429 53.2043L71 64.367L66.336 69ZM47.1125 53.5684C49.4894 53.5684 51.4757 52.7812 53.0716 51.2066C54.6675 49.6321 55.4654 47.6667 55.4654 45.3105C55.4654 42.9543 54.6729 40.9794 53.0878 39.386C51.5028 37.7927 49.5242 36.996 47.1523 36.996C44.7803 36.996 42.8001 37.7864 41.2117 39.3673C39.6233 40.9482 38.8291 42.9214 38.8291 45.2868C38.8291 47.6523 39.6188 49.6239 41.1981 51.2018C42.7774 52.7795 44.7489 53.5684 47.1125 53.5684ZM0 57.5376V48.5192C0 46.2648 0.539485 44.3291 1.61846 42.7121C2.69748 41.0952 4.26057 39.7723 6.30772 38.7435C8.94261 37.4468 12.5234 36.2034 17.05 35.0132C21.5768 33.8229 26.2666 33.4431 31.1197 33.8737C30.2976 34.8363 29.6073 35.9 29.0489 37.0647C28.4906 38.2294 28.0849 39.3023 27.8321 40.2832C23.5426 40.197 19.8071 40.6672 16.6256 41.6935C13.444 42.7199 10.9871 43.6613 9.25473 44.5177C8.47023 44.9508 7.82871 45.5346 7.33016 46.2692C6.83162 47.0038 6.58234 47.8004 6.58234 48.6591V50.999H27.6911C28.2692 52.106 28.831 53.1866 29.3765 54.2409C29.922 55.2951 30.6247 56.394 31.4845 57.5376H0Z" fill="white"/>
</svg>
