<svg width="230" height="260" viewBox="0 0 230 260" fill="none" xmlns="http://www.w3.org/2000/svg">
<path opacity="0.5" d="M140.986 260L175.466 256.665L155.337 228.472L140.986 260ZM152.642 255.144C154.788 253.49 156.887 251.821 158.938 250.139L155.134 245.499C153.129 247.143 151.078 248.774 148.979 250.392L152.642 255.144ZM165.232 244.807C167.277 243.016 169.272 241.211 171.215 239.394L167.116 235.012C165.222 236.784 163.276 238.544 161.279 240.293L165.232 244.807ZM177.124 233.671C179.056 231.733 180.931 229.782 182.751 227.82L178.352 223.74C176.581 225.649 174.756 227.548 172.875 229.435L177.124 233.671ZM188.21 221.708C190 219.625 191.729 217.53 193.399 215.426L188.698 211.697C187.078 213.739 185.399 215.773 183.659 217.797L188.21 221.708ZM198.356 208.906C199.976 206.682 201.53 204.449 203.02 202.208L198.023 198.886C196.581 201.056 195.076 203.219 193.506 205.374L198.356 208.906ZM207.408 195.277C208.827 192.921 210.176 190.558 211.456 188.19L206.178 185.337C204.942 187.622 203.639 189.905 202.268 192.182L207.408 195.277ZM215.193 180.859C216.38 178.384 217.492 175.906 218.532 173.427L212.999 171.106C211.998 173.493 210.926 175.879 209.783 178.265L215.193 180.859ZM221.527 165.727C222.456 163.137 223.307 160.548 224.08 157.963L218.332 156.244C217.59 158.725 216.773 161.211 215.879 163.7L221.527 165.727ZM226.222 149.997C226.864 147.306 227.423 144.623 227.899 141.948L221.992 140.896C221.536 143.455 221.001 146.025 220.386 148.604L226.222 149.997ZM229.098 133.827C229.421 131.069 229.657 128.323 229.806 125.593L223.815 125.266C223.672 127.871 223.448 130.493 223.139 133.13L229.098 133.827ZM229.995 117.373C229.971 114.603 229.856 111.854 229.654 109.129L223.67 109.573C223.863 112.167 223.972 114.786 223.995 117.426L229.995 117.373ZM228.768 100.915C228.379 98.1803 227.9 95.4742 227.332 92.8002L221.463 94.0474C222.003 96.5871 222.458 99.1587 222.827 101.759L228.768 100.915ZM225.333 84.7777C224.57 82.1186 223.717 79.4968 222.774 76.9162L217.138 78.9752C218.032 81.4217 218.842 83.9083 219.565 86.4315L225.333 84.7777ZM219.663 69.2648C218.531 66.7447 217.309 64.2708 216 61.847L210.721 64.6981C211.96 66.9932 213.117 69.3363 214.19 71.7237L219.663 69.2648ZM211.806 54.7192C210.321 52.3965 208.751 50.1282 207.097 47.9182L202.294 51.5132C203.859 53.6048 205.345 55.7517 206.75 57.9502L211.806 54.7192ZM201.898 41.4806C200.094 39.4085 198.209 37.3978 196.246 35.4524L192.023 39.714C193.881 41.5559 195.665 43.4593 197.372 45.4204L201.898 41.4806ZM190.16 29.8466C188.075 28.0621 185.916 26.3448 183.684 24.6981L180.122 29.526C182.237 31.0872 184.283 32.7147 186.259 34.4051L190.16 29.8466ZM176.88 20.041C174.567 18.5746 172.187 17.179 169.743 15.8575L166.889 21.1357C169.213 22.3915 171.473 23.7169 173.668 25.1085L176.88 20.041ZM162.355 12.1826C159.882 11.0542 157.351 9.99752 154.762 9.01527L152.634 14.625C155.101 15.5611 157.512 16.5676 159.865 17.6413L162.355 12.1826ZM146.923 6.3241C144.343 5.52867 141.712 4.80395 139.033 4.15241L137.615 9.98255C140.178 10.6057 142.692 11.2984 145.155 12.0578L146.923 6.3241ZM130.972 2.44244C128.307 1.95749 125.598 1.54234 122.846 1.19916L122.103 7.15304C124.745 7.48253 127.344 7.88081 129.898 8.34552L130.972 2.44244ZM114.697 0.404196C111.987 0.211886 109.24 0.0873202 106.455 0.0323902L106.337 6.03122C109.02 6.08416 111.666 6.20416 114.272 6.38914L114.697 0.404196ZM98.3176 0.0688584C95.5988 0.145797 92.8474 0.287544 90.0643 0.495726L90.5119 6.47901C93.2037 6.27766 95.8624 6.14074 98.4873 6.06646L98.3176 0.0688584ZM82.0023 1.27565C79.3041 1.59512 76.5781 1.97583 73.825 2.41918L74.7789 8.34286C77.4505 7.91263 80.0937 7.54354 82.7078 7.23403L82.0023 1.27565ZM65.8706 3.86061C63.2166 4.39455 60.539 4.98578 57.8384 5.63548L59.2419 11.469C61.8704 10.8367 64.4746 10.2617 67.054 9.74275L65.8706 3.86061ZM49.997 7.66951C47.4056 8.39009 44.7942 9.16382 42.1633 9.99171L43.9643 15.715C46.5318 14.9071 49.0787 14.1525 51.6044 13.4502L49.997 7.66951ZM34.4203 12.566C31.9048 13.4468 29.3724 14.3765 26.8235 15.3561L28.976 20.9568C31.4694 19.9985 33.9452 19.0895 36.4031 18.2289L34.4203 12.566ZM19.151 18.4356C16.7206 19.4523 14.276 20.5138 11.8175 21.621L14.2813 27.0918C16.6912 26.0065 19.0864 24.9664 21.4665 23.9708L19.151 18.4356ZM4.40063 25.0802C3.15775 25.6797 1.91148 26.2908 0.66187 26.9136L3.33815 32.2836C4.56481 31.6723 5.78791 31.0725 7.0074 30.4843L4.40063 25.0802Z" fill="url(#paint0_linear_2418_322)"/>
<defs>
<linearGradient id="paint0_linear_2418_322" x1="331.526" y1="173.201" x2="31.1142" y2="-29.1925" gradientUnits="userSpaceOnUse">
<stop stop-color="white"/>
<stop offset="1" stop-color="white" stop-opacity="0"/>
</linearGradient>
</defs>
</svg>
