<svg width="726" height="442" viewBox="0 0 726 442" fill="none" xmlns="http://www.w3.org/2000/svg">
<g filter="url(#filter0_bi_2413_271)">
<path d="M15.4798 405.569C6.93056 405.569 3.02178e-05 398.639 2.9848e-05 390.09L1.51846e-05 51.0832C1.48148e-05 42.534 6.93053 35.6035 15.4798 35.6035L27.8636 35.6035L27.8636 405.569L15.4798 405.569Z" fill="url(#paint0_linear_2413_271)" fill-opacity="0.1"/>
</g>
<g filter="url(#filter1_bi_2413_271)">
<path d="M710.52 405.569C719.069 405.569 726 398.639 726 390.09L726 51.0832C726 42.534 719.069 35.6035 710.52 35.6035L698.136 35.6035L698.136 405.569L710.52 405.569Z" fill="url(#paint1_linear_2413_271)" fill-opacity="0.1"/>
</g>
<g filter="url(#filter2_bi_2413_271)">
<path d="M35.6034 15.4798C35.6034 6.93053 42.5339 0 51.0831 0H674.917C683.466 0 690.397 6.93052 690.397 15.4797V27.8635H35.6034V15.4798Z" fill="url(#paint2_linear_2413_271)" fill-opacity="0.1"/>
</g>
<g filter="url(#filter3_bi_2413_271)">
<path d="M35.6034 425.693C35.6034 434.242 42.5339 441.173 51.0831 441.173H671.047C679.596 441.173 686.527 434.242 686.527 425.693V413.309H35.6034V425.693Z" fill="url(#paint3_linear_2413_271)" fill-opacity="0.1"/>
</g>
<path d="M333.208 18.644V8.19099H337.128C337.931 8.19099 338.605 8.34071 339.149 8.64015C339.697 8.93958 340.11 9.35131 340.389 9.87532C340.672 10.3959 340.813 10.988 340.813 11.6515C340.813 12.3219 340.672 12.9173 340.389 13.4379C340.107 13.9585 339.69 14.3686 339.139 14.668C338.588 14.964 337.909 15.1121 337.102 15.1121H334.504V13.5553H336.847C337.317 13.5553 337.701 13.4737 338.001 13.3103C338.3 13.147 338.521 12.9224 338.664 12.6366C338.811 12.3508 338.884 12.0224 338.884 11.6515C338.884 11.2806 338.811 10.954 338.664 10.6716C338.521 10.3891 338.298 10.1697 337.996 10.0131C337.696 9.85321 337.31 9.77324 336.837 9.77324H335.102V18.644H333.208ZM345.684 18.7972C344.918 18.7972 344.254 18.6287 343.693 18.2919C343.132 17.955 342.696 17.4837 342.386 16.878C342.08 16.2724 341.927 15.5646 341.927 14.7548C341.927 13.9449 342.08 13.2355 342.386 12.6264C342.696 12.0173 343.132 11.5443 343.693 11.2075C344.254 10.8706 344.918 10.7022 345.684 10.7022C346.449 10.7022 347.113 10.8706 347.674 11.2075C348.236 11.5443 348.669 12.0173 348.976 12.6264C349.285 13.2355 349.44 13.9449 349.44 14.7548C349.44 15.5646 349.285 16.2724 348.976 16.878C348.669 17.4837 348.236 17.955 347.674 18.2919C347.113 18.6287 346.449 18.7972 345.684 18.7972ZM345.694 17.317C346.109 17.317 346.456 17.203 346.735 16.975C347.014 16.7436 347.222 16.434 347.358 16.0461C347.497 15.6582 347.567 15.226 347.567 14.7497C347.567 14.2699 347.497 13.836 347.358 13.4481C347.222 13.0568 347.014 12.7455 346.735 12.5141C346.456 12.2827 346.109 12.167 345.694 12.167C345.268 12.167 344.915 12.2827 344.632 12.5141C344.353 12.7455 344.144 13.0568 344.004 13.4481C343.868 13.836 343.8 14.2699 343.8 14.7497C343.8 15.226 343.868 15.6582 344.004 16.0461C344.144 16.434 344.353 16.7436 344.632 16.975C344.915 17.203 345.268 17.317 345.694 17.317ZM357.205 12.8765L355.52 13.0602C355.473 12.8901 355.389 12.7302 355.27 12.5805C355.155 12.4307 354.998 12.3099 354.801 12.2181C354.603 12.1262 354.362 12.0803 354.076 12.0803C353.691 12.0803 353.368 12.1636 353.106 12.3304C352.848 12.4971 352.72 12.7132 352.723 12.9786C352.72 13.2066 352.803 13.392 352.973 13.5349C353.147 13.6778 353.433 13.7952 353.831 13.8871L355.168 14.1729C355.91 14.3328 356.461 14.5863 356.822 14.9334C357.186 15.2805 357.37 15.7347 357.373 16.2962C357.37 16.7896 357.225 17.2251 356.939 17.6028C356.657 17.9771 356.264 18.2697 355.76 18.4807C355.257 18.6917 354.678 18.7972 354.025 18.7972C353.065 18.7972 352.293 18.5964 351.708 18.1949C351.122 17.79 350.774 17.2268 350.661 16.5055L352.463 16.3319C352.545 16.6858 352.718 16.9529 352.984 17.1333C353.249 17.3136 353.594 17.4038 354.02 17.4038C354.459 17.4038 354.811 17.3136 355.076 17.1333C355.345 16.9529 355.479 16.73 355.479 16.4646C355.479 16.24 355.393 16.0546 355.219 15.9083C355.049 15.762 354.784 15.6497 354.423 15.5714L353.086 15.2907C352.334 15.1342 351.777 14.8705 351.417 14.4996C351.056 14.1253 350.877 13.6523 350.881 13.0807C350.877 12.5975 351.008 12.1789 351.274 11.8251C351.543 11.4678 351.915 11.1922 352.392 10.9982C352.871 10.8009 353.424 10.7022 354.05 10.7022C354.969 10.7022 355.692 10.8978 356.22 11.2891C356.75 11.6804 357.079 12.2096 357.205 12.8765ZM365.093 12.8765L363.409 13.0602C363.361 12.8901 363.278 12.7302 363.159 12.5805C363.043 12.4307 362.886 12.3099 362.689 12.2181C362.492 12.1262 362.25 12.0803 361.964 12.0803C361.58 12.0803 361.256 12.1636 360.994 12.3304C360.736 12.4971 360.608 12.7132 360.612 12.9786C360.608 13.2066 360.692 13.392 360.862 13.5349C361.035 13.6778 361.321 13.7952 361.719 13.8871L363.056 14.1729C363.798 14.3328 364.349 14.5863 364.71 14.9334C365.074 15.2805 365.258 15.7347 365.261 16.2962C365.258 16.7896 365.113 17.2251 364.828 17.6028C364.545 17.9771 364.152 18.2697 363.648 18.4807C363.145 18.6917 362.566 18.7972 361.913 18.7972C360.954 18.7972 360.181 18.5964 359.596 18.1949C359.011 17.79 358.662 17.2268 358.55 16.5055L360.351 16.3319C360.433 16.6858 360.606 16.9529 360.872 17.1333C361.137 17.3136 361.483 17.4038 361.908 17.4038C362.347 17.4038 362.699 17.3136 362.965 17.1333C363.233 16.9529 363.368 16.73 363.368 16.4646C363.368 16.24 363.281 16.0546 363.107 15.9083C362.937 15.762 362.672 15.6497 362.311 15.5714L360.974 15.2907C360.222 15.1342 359.666 14.8705 359.305 14.4996C358.944 14.1253 358.766 13.6523 358.769 13.0807C358.766 12.5975 358.897 12.1789 359.162 11.8251C359.431 11.4678 359.803 11.1922 360.28 10.9982C360.76 10.8009 361.313 10.7022 361.939 10.7022C362.857 10.7022 363.58 10.8978 364.108 11.2891C364.639 11.6804 364.967 12.2096 365.093 12.8765ZM366.785 18.644V10.8043H368.633V18.644H366.785ZM367.714 9.69158C367.421 9.69158 367.169 9.5946 366.958 9.40065C366.747 9.20329 366.642 8.96681 366.642 8.69119C366.642 8.41217 366.747 8.17568 366.958 7.98173C367.169 7.78437 367.421 7.68569 367.714 7.68569C368.01 7.68569 368.262 7.78437 368.469 7.98173C368.68 8.17568 368.786 8.41217 368.786 8.69119C368.786 8.96681 368.68 9.20329 368.469 9.40065C368.262 9.5946 368.01 9.69158 367.714 9.69158ZM370.614 18.644V8.19099H372.462V12.1007H372.538C372.634 11.9101 372.768 11.7077 372.942 11.4933C373.115 11.2755 373.35 11.0901 373.646 10.937C373.942 10.7804 374.32 10.7022 374.779 10.7022C375.385 10.7022 375.931 10.857 376.417 11.1666C376.907 11.4729 377.295 11.9271 377.581 12.5294C377.87 13.1283 378.015 13.8633 378.015 14.7344C378.015 15.5952 377.874 16.3268 377.591 16.9291C377.309 17.5314 376.924 17.9907 376.438 18.3072C375.951 18.6236 375.4 18.7819 374.784 18.7819C374.335 18.7819 373.962 18.707 373.666 18.5573C373.37 18.4076 373.132 18.2272 372.952 18.0162C372.775 17.8019 372.637 17.5994 372.538 17.4089H372.431V18.644H370.614ZM372.426 14.7241C372.426 15.2311 372.498 15.6752 372.641 16.0563C372.787 16.4374 372.996 16.7351 373.268 16.9495C373.544 17.1605 373.877 17.266 374.269 17.266C374.677 17.266 375.019 17.1571 375.295 16.9393C375.57 16.7181 375.778 16.417 375.917 16.0359C376.06 15.6514 376.132 15.2141 376.132 14.7241C376.132 14.2376 376.062 13.8054 375.922 13.4277C375.783 13.05 375.575 12.754 375.3 12.5396C375.024 12.3253 374.68 12.2181 374.269 12.2181C373.874 12.2181 373.539 12.3219 373.263 12.5294C372.988 12.737 372.778 13.0279 372.635 13.4022C372.496 13.7765 372.426 14.2171 372.426 14.7241ZM381.433 8.19099V18.644H379.586V8.19099H381.433ZM386.804 18.7972C386.018 18.7972 385.339 18.6338 384.768 18.3072C384.199 17.9771 383.762 17.5109 383.456 16.9087C383.15 16.303 382.997 15.5901 382.997 14.7701C382.997 13.9636 383.15 13.2559 383.456 12.6468C383.766 12.0343 384.198 11.558 384.752 11.2177C385.307 10.874 385.959 10.7022 386.707 10.7022C387.19 10.7022 387.646 10.7804 388.075 10.937C388.507 11.0901 388.888 11.3283 389.218 11.6515C389.552 11.9748 389.814 12.3865 390.004 12.8867C390.195 13.3835 390.29 13.9756 390.29 14.6629V15.2294H383.864V13.9841H388.519C388.516 13.6302 388.439 13.3154 388.289 13.0398C388.14 12.7608 387.93 12.5413 387.662 12.3814C387.396 12.2215 387.087 12.1415 386.733 12.1415C386.355 12.1415 386.023 12.2334 385.737 12.4171C385.452 12.5975 385.229 12.8357 385.069 13.1317C384.912 13.4243 384.832 13.7459 384.829 14.0964V15.1835C384.829 15.6395 384.912 16.0308 385.079 16.3574C385.246 16.6807 385.479 16.9291 385.778 17.1026C386.078 17.2728 386.428 17.3578 386.83 17.3578C387.099 17.3578 387.342 17.3204 387.56 17.2455C387.777 17.1673 387.966 17.0533 388.126 16.9036C388.286 16.7539 388.407 16.5684 388.489 16.3472L390.214 16.5412C390.105 16.9971 389.897 17.3953 389.591 17.7355C389.288 18.0724 388.9 18.3344 388.427 18.5215C387.954 18.7053 387.413 18.7972 386.804 18.7972Z" fill="white"/>
<path d="M19.418 249.615L8.96495 249.615L8.96495 245.695C8.96495 244.892 9.11467 244.218 9.4141 243.674C9.71354 243.126 10.1253 242.713 10.6493 242.434C11.1699 242.151 11.762 242.01 12.4255 242.01C13.0958 242.01 13.6913 242.151 14.2119 242.434C14.7325 242.716 15.1425 243.133 15.442 243.684C15.738 244.235 15.886 244.914 15.886 245.721L15.886 248.319L14.3293 248.319L14.3293 245.976C14.3293 245.506 14.2476 245.122 14.0843 244.822C13.921 244.523 13.6964 244.302 13.4106 244.159C13.1247 244.013 12.7964 243.939 12.4255 243.939C12.0546 243.939 11.7279 244.013 11.4455 244.159C11.1631 244.302 10.9436 244.525 10.7871 244.827C10.6272 245.127 10.5472 245.513 10.5472 245.986L10.5472 247.721L19.418 247.721L19.418 249.615ZM19.5711 237.088C19.5711 237.874 19.4078 238.553 19.0811 239.125C18.7511 239.693 18.2849 240.13 17.6826 240.437C17.077 240.743 16.3641 240.896 15.544 240.896C14.7376 240.896 14.0298 240.743 13.4208 240.437C12.8083 240.127 12.3319 239.695 11.9916 239.14C11.648 238.586 11.4761 237.934 11.4761 237.185C11.4761 236.702 11.5544 236.246 11.7109 235.818C11.864 235.385 12.1022 235.004 12.4255 234.674C12.7487 234.341 13.1605 234.079 13.6607 233.888C14.1574 233.698 14.7495 233.602 15.4369 233.602L16.0034 233.602L16.0034 240.028L14.758 240.028L14.758 235.374C14.4041 235.377 14.0894 235.453 13.8138 235.603C13.5348 235.753 13.3153 235.962 13.1554 236.231C12.9954 236.496 12.9155 236.806 12.9155 237.16C12.9155 237.538 13.0073 237.869 13.1911 238.155C13.3714 238.441 13.6096 238.664 13.9056 238.824C14.1983 238.98 14.5198 239.06 14.8703 239.064L15.9575 239.064C16.4134 239.064 16.8047 238.98 17.1314 238.814C17.4546 238.647 17.703 238.414 17.8766 238.114C18.0467 237.815 18.1318 237.464 18.1318 237.063C18.1318 236.794 18.0944 236.551 18.0195 236.333C17.9412 236.115 17.8272 235.926 17.6775 235.767C17.5278 235.607 17.3424 235.486 17.1212 235.404L17.3151 233.679C17.7711 233.788 18.1692 233.995 18.5095 234.302C18.8463 234.605 19.1084 234.992 19.2955 235.465C19.4792 235.938 19.5711 236.479 19.5711 237.088ZM19.418 232.039L11.5782 232.039L11.5782 230.248L12.8848 230.248L12.8848 230.166C12.4323 230.023 12.0835 229.778 11.8385 229.431C11.5901 229.081 11.4659 228.681 11.4659 228.232C11.4659 228.13 11.471 228.016 11.4812 227.89C11.488 227.76 11.4999 227.653 11.517 227.568L13.2166 227.568C13.1894 227.646 13.1656 227.771 13.1451 227.941C13.1213 228.108 13.1094 228.269 13.1094 228.426C13.1094 228.763 13.1826 229.065 13.3289 229.334C13.4718 229.6 13.6709 229.809 13.9261 229.962C14.1813 230.115 14.4756 230.192 14.8091 230.192L19.418 230.192L19.418 232.039ZM13.6504 220.144L13.8342 221.829C13.6641 221.876 13.5041 221.96 13.3544 222.079C13.2047 222.194 13.0839 222.351 12.992 222.548C12.9002 222.746 12.8542 222.987 12.8542 223.273C12.8542 223.658 12.9376 223.981 13.1043 224.243C13.271 224.502 13.4871 224.629 13.7525 224.626C13.9805 224.629 14.166 224.546 14.3089 224.376C14.4518 224.202 14.5692 223.916 14.661 223.518L14.9469 222.181C15.1068 221.439 15.3603 220.888 15.7074 220.527C16.0544 220.163 16.5087 219.979 17.0701 219.976C17.5635 219.979 17.9991 220.124 18.3768 220.41C18.7511 220.692 19.0437 221.085 19.2547 221.589C19.4656 222.092 19.5711 222.671 19.5711 223.324C19.5711 224.284 19.3704 225.056 18.9688 225.641C18.5639 226.227 18.0008 226.575 17.2794 226.688L17.1059 224.886C17.4598 224.804 17.7269 224.631 17.9072 224.365C18.0875 224.1 18.1777 223.755 18.1777 223.329C18.1777 222.89 18.0875 222.538 17.9072 222.273C17.7269 222.004 17.504 221.87 17.2386 221.87C17.014 221.87 16.8286 221.956 16.6822 222.13C16.5359 222.3 16.4236 222.565 16.3454 222.926L16.0647 224.263C15.9081 225.015 15.6444 225.572 15.2735 225.932C14.8992 226.293 14.4263 226.472 13.8546 226.468C13.3714 226.472 12.9529 226.341 12.599 226.075C12.2417 225.806 11.9661 225.434 11.7722 224.957C11.5748 224.478 11.4761 223.925 11.4761 223.299C11.4761 222.38 11.6718 221.657 12.0631 221.129C12.4544 220.599 12.9835 220.27 13.6504 220.144ZM19.5711 215.033C19.5711 215.798 19.4027 216.462 19.0658 217.023C18.729 217.585 18.2577 218.02 17.652 218.33C17.0463 218.636 16.3386 218.789 15.5287 218.789C14.7189 218.789 14.0094 218.636 13.4003 218.33C12.7913 218.02 12.3183 217.585 11.9814 217.023C11.6446 216.462 11.4761 215.798 11.4761 215.033C11.4761 214.267 11.6446 213.604 11.9814 213.042C12.3183 212.481 12.7913 212.047 13.4003 211.741C14.0094 211.431 14.7189 211.276 15.5287 211.276C16.3386 211.276 17.0463 211.431 17.652 211.741C18.2577 212.047 18.729 212.481 19.0658 213.042C19.4027 213.604 19.5711 214.267 19.5711 215.033ZM18.091 215.022C18.091 214.607 17.977 214.26 17.749 213.981C17.5176 213.702 17.208 213.495 16.82 213.359C16.4321 213.219 16 213.149 15.5236 213.149C15.0438 213.149 14.61 213.219 14.2221 213.359C13.8308 213.495 13.5194 213.702 13.2881 213.981C13.0567 214.26 12.941 214.607 12.941 215.022C12.941 215.448 13.0567 215.802 13.2881 216.084C13.5194 216.363 13.8308 216.572 14.2221 216.712C14.61 216.848 15.0438 216.916 15.5236 216.916C16 216.916 16.4321 216.848 16.82 216.712C17.208 216.572 17.5176 216.363 17.749 216.084C17.977 215.802 18.091 215.448 18.091 215.022ZM14.8244 207.86L19.418 207.86L19.418 209.708L11.5782 209.708L11.5782 207.942L12.9104 207.942L12.9104 207.85C12.4714 207.67 12.1226 207.382 11.864 206.987C11.6054 206.589 11.4761 206.098 11.4761 205.512C11.4761 204.971 11.5918 204.5 11.8232 204.099C12.0546 203.694 12.3898 203.381 12.8287 203.159C13.2676 202.935 13.8002 202.824 14.4263 202.828L19.418 202.828L19.418 204.675L14.7121 204.675C14.1881 204.675 13.778 204.811 13.482 205.084C13.186 205.352 13.038 205.725 13.038 206.201C13.038 206.525 13.1094 206.812 13.2523 207.064C13.3918 207.312 13.5943 207.508 13.8597 207.651C14.1251 207.79 14.4467 207.86 14.8244 207.86ZM19.5762 198.693C19.5762 199.19 19.4878 199.638 19.3108 200.036C19.1305 200.43 18.8651 200.744 18.5146 200.975C18.1641 201.203 17.732 201.317 17.2182 201.317C16.7758 201.317 16.41 201.235 16.1208 201.072C15.8316 200.909 15.6002 200.686 15.4266 200.403C15.2531 200.121 15.1221 199.803 15.0336 199.449C14.9418 199.092 14.8754 198.722 14.8346 198.341C14.7869 197.882 14.7444 197.509 14.707 197.223C14.6661 196.938 14.6049 196.73 14.5232 196.601C14.4382 196.468 14.3072 196.402 14.1302 196.402L14.0996 196.402C13.7151 196.402 13.4174 196.516 13.2064 196.744C12.9954 196.972 12.8899 197.3 12.8899 197.729C12.8899 198.181 12.9886 198.54 13.186 198.806C13.3833 199.068 13.6164 199.245 13.8852 199.337L13.6402 201.062C13.1639 200.926 12.7657 200.701 12.4459 200.388C12.1226 200.075 11.881 199.692 11.7211 199.24C11.5578 198.787 11.4761 198.287 11.4761 197.739C11.4761 197.361 11.5204 196.985 11.6088 196.611C11.6973 196.237 11.8436 195.895 12.0478 195.585C12.2485 195.275 12.5225 195.027 12.8695 194.84C13.2166 194.649 13.6504 194.554 14.1711 194.554L19.418 194.554L19.418 196.33L18.341 196.33L18.341 196.392C18.5588 196.504 18.763 196.662 18.9535 196.866C19.1407 197.067 19.2921 197.32 19.4078 197.627C19.5201 197.93 19.5762 198.285 19.5762 198.693ZM18.2186 198.214C18.2186 197.843 18.1454 197.521 17.9991 197.249C17.8494 196.977 17.652 196.768 17.407 196.621C17.162 196.471 16.8949 196.397 16.6057 196.397L15.6818 196.397C15.7295 196.454 15.7737 196.553 15.8146 196.693C15.8554 196.829 15.8911 196.982 15.9217 197.152C15.9524 197.322 15.9796 197.491 16.0034 197.657C16.0272 197.824 16.0476 197.969 16.0647 198.091C16.1021 198.367 16.1633 198.613 16.2484 198.831C16.3335 199.049 16.4526 199.221 16.6057 199.347C16.7554 199.473 16.9493 199.536 17.1875 199.536C17.5278 199.536 17.7847 199.411 17.9582 199.163C18.1318 198.915 18.2186 198.598 18.2186 198.214ZM8.96495 190.849L19.418 190.849L19.418 192.696L8.96495 192.696L8.96495 190.849Z" fill="white"/>
<path d="M706.582 196.12L717.035 196.12L717.035 198.013L708.169 198.013L708.169 202.617L706.582 202.617L706.582 196.12ZM706.429 207.599C706.429 206.833 706.597 206.17 706.934 205.608C707.271 205.047 707.742 204.611 708.348 204.302C708.954 203.995 709.661 203.842 710.471 203.842C711.281 203.842 711.991 203.995 712.6 204.302C713.209 204.611 713.682 205.047 714.019 205.608C714.355 206.17 714.524 206.833 714.524 207.599C714.524 208.364 714.355 209.028 714.019 209.589C713.682 210.151 713.209 210.585 712.6 210.891C711.991 211.2 711.281 211.355 710.471 211.355C709.661 211.355 708.954 211.2 708.348 210.891C707.742 210.585 707.271 210.151 706.934 209.589C706.597 209.028 706.429 208.364 706.429 207.599ZM707.909 207.609C707.909 208.024 708.023 208.371 708.251 208.65C708.482 208.929 708.792 209.137 709.18 209.273C709.568 209.412 710 209.482 710.476 209.482C710.956 209.482 711.39 209.412 711.778 209.273C712.169 209.137 712.481 208.929 712.712 208.65C712.943 208.371 713.059 208.024 713.059 207.609C713.059 207.184 712.943 206.83 712.712 206.547C712.481 206.268 712.169 206.059 711.778 205.92C711.39 205.783 710.956 205.715 710.476 205.715C710 205.715 709.568 205.783 709.18 205.92C708.792 206.059 708.482 206.268 708.251 206.547C708.023 206.83 707.909 207.184 707.909 207.609ZM703.479 216.333C703.479 215.669 703.569 215.1 703.749 214.623C703.926 214.147 704.164 213.764 704.464 213.475C704.763 213.186 705.095 212.985 705.459 212.872L705.862 214.536C705.709 214.611 705.558 214.72 705.408 214.863C705.255 215.006 705.129 215.198 705.03 215.44C704.928 215.685 704.877 215.993 704.877 216.364C704.877 216.888 705.005 217.321 705.26 217.665C705.512 218.009 705.927 218.181 706.505 218.181L707.991 218.181L707.991 218.089C707.8 217.994 707.605 217.854 707.404 217.67C707.203 217.49 707.035 217.25 706.898 216.951C706.762 216.655 706.694 216.282 706.694 215.833C706.694 215.231 706.836 214.684 707.118 214.194C707.404 213.708 707.829 213.32 708.394 213.031C708.962 212.745 709.673 212.602 710.527 212.602C711.388 212.602 712.115 212.745 712.707 213.031C713.302 213.32 713.753 213.71 714.059 214.2C714.369 214.69 714.524 215.236 714.524 215.838C714.524 216.297 714.446 216.675 714.289 216.971C714.136 217.27 713.951 217.509 713.733 217.686C713.518 217.863 713.316 217.997 713.125 218.089L713.125 218.191L714.422 218.191L714.422 220.013L706.454 220.013C705.784 220.013 705.229 219.853 704.791 219.533C704.352 219.213 704.023 218.776 703.805 218.222C703.588 217.667 703.479 217.037 703.479 216.333ZM708.144 216.348C708.144 216.74 708.239 217.073 708.43 217.349C708.62 217.624 708.894 217.834 709.251 217.977C709.609 218.119 710.037 218.191 710.538 218.191C711.031 218.191 711.463 218.119 711.834 217.977C712.205 217.837 712.492 217.629 712.697 217.354C712.904 217.082 713.008 216.746 713.008 216.348C713.008 215.937 712.901 215.593 712.686 215.317C712.472 215.042 712.178 214.834 711.803 214.695C711.433 214.555 711.011 214.485 710.538 214.485C710.058 214.485 709.638 214.555 709.277 214.695C708.92 214.838 708.641 215.047 708.44 215.322C708.243 215.601 708.144 215.943 708.144 216.348ZM706.582 221.907L714.422 221.907L714.422 223.754L706.582 223.754L706.582 221.907ZM715.534 222.836C715.534 222.543 715.631 222.291 715.825 222.08C716.023 221.869 716.259 221.764 716.535 221.764C716.814 221.764 717.05 221.869 717.244 222.08C717.442 222.291 717.54 222.543 717.54 222.836C717.54 223.132 717.442 223.383 717.244 223.591C717.05 223.802 716.814 223.907 716.535 223.907C716.259 223.907 716.023 223.802 715.825 223.591C715.631 223.383 715.534 223.132 715.534 222.836ZM706.429 229.074C706.429 228.291 706.601 227.619 706.944 227.058C707.288 226.5 707.763 226.069 708.368 225.767C708.978 225.467 709.678 225.317 710.471 225.317C711.268 225.317 711.97 225.471 712.579 225.777C713.192 226.083 713.668 226.515 714.008 227.073C714.352 227.635 714.524 228.298 714.524 229.064C714.524 229.7 714.407 230.263 714.172 230.753C713.94 231.247 713.612 231.64 713.187 231.932C712.765 232.225 712.271 232.392 711.706 232.432L711.706 230.666C712.084 230.595 712.399 230.425 712.651 230.156C712.906 229.891 713.034 229.535 713.034 229.089C713.034 228.712 712.931 228.38 712.727 228.094C712.527 227.808 712.237 227.585 711.86 227.425C711.482 227.269 711.029 227.191 710.502 227.191C709.968 227.191 709.508 227.269 709.124 227.425C708.743 227.582 708.448 227.801 708.241 228.084C708.037 228.37 707.935 228.705 707.935 229.089C707.935 229.361 707.986 229.605 708.088 229.819C708.193 230.037 708.345 230.219 708.542 230.365C708.739 230.512 708.979 230.612 709.262 230.666L709.262 232.432C708.707 232.388 708.215 232.225 707.787 231.942C707.361 231.66 707.028 231.275 706.786 230.789C706.548 230.302 706.429 229.731 706.429 229.074ZM706.424 236.206C706.424 235.709 706.512 235.261 706.689 234.863C706.87 234.468 707.135 234.155 707.485 233.924C707.836 233.696 708.268 233.582 708.782 233.582C709.224 233.582 709.59 233.664 709.879 233.827C710.168 233.99 710.4 234.213 710.573 234.496C710.747 234.778 710.878 235.096 710.966 235.45C711.058 235.807 711.125 236.177 711.165 236.558C711.213 237.017 711.256 237.39 711.293 237.676C711.334 237.961 711.395 238.169 711.477 238.298C711.562 238.431 711.693 238.497 711.87 238.497L711.9 238.497C712.285 238.497 712.583 238.383 712.794 238.155C713.005 237.927 713.11 237.599 713.11 237.17C713.11 236.718 713.011 236.359 712.814 236.093C712.617 235.831 712.384 235.654 712.115 235.562L712.36 233.837C712.836 233.973 713.234 234.198 713.554 234.511C713.877 234.824 714.119 235.207 714.279 235.659C714.442 236.112 714.524 236.612 714.524 237.16C714.524 237.538 714.48 237.914 714.391 238.288C714.303 238.662 714.156 239.004 713.952 239.314C713.751 239.624 713.478 239.872 713.13 240.059C712.783 240.25 712.35 240.345 711.829 240.345L706.582 240.345L706.582 238.569L707.659 238.569L707.659 238.507C707.441 238.395 707.237 238.237 707.046 238.033C706.859 237.832 706.708 237.579 706.592 237.272C706.48 236.969 706.424 236.614 706.424 236.206ZM707.781 236.685C707.781 237.056 707.855 237.378 708.001 237.65C708.151 237.922 708.348 238.131 708.593 238.278C708.838 238.428 709.105 238.502 709.394 238.502L710.318 238.502C710.271 238.445 710.226 238.346 710.185 238.206C710.145 238.07 710.109 237.917 710.078 237.747C710.048 237.577 710.02 237.408 709.997 237.242C709.973 237.075 709.952 236.93 709.935 236.808C709.898 236.532 709.837 236.286 709.752 236.068C709.667 235.85 709.547 235.678 709.394 235.552C709.245 235.426 709.051 235.363 708.812 235.363C708.472 235.363 708.215 235.488 708.042 235.736C707.868 235.984 707.781 236.301 707.781 236.685ZM717.035 244.05L706.582 244.05L706.582 242.203L717.035 242.203L717.035 244.05Z" fill="white"/>
<path d="M335.507 432.728V422.274H339.427C340.23 422.274 340.904 422.424 341.449 422.724C341.996 423.023 342.41 423.435 342.689 423.959C342.971 424.479 343.112 425.071 343.112 425.735C343.112 426.405 342.971 427.001 342.689 427.521C342.406 428.042 341.99 428.452 341.438 428.752C340.887 429.048 340.208 429.196 339.402 429.196H336.804V427.639H339.147C339.616 427.639 340.001 427.557 340.3 427.394C340.6 427.231 340.821 427.006 340.964 426.72C341.11 426.434 341.183 426.106 341.183 425.735C341.183 425.364 341.11 425.037 340.964 424.755C340.821 424.473 340.598 424.253 340.295 424.097C339.996 423.937 339.609 423.857 339.136 423.857H337.401V432.728H335.507ZM344.676 432.728V424.888H346.467V426.194H346.549C346.692 425.742 346.937 425.393 347.284 425.148C347.634 424.9 348.034 424.775 348.483 424.775C348.585 424.775 348.699 424.781 348.825 424.791C348.954 424.798 349.062 424.809 349.147 424.827V426.526C349.068 426.499 348.944 426.475 348.774 426.455C348.607 426.431 348.446 426.419 348.289 426.419C347.952 426.419 347.65 426.492 347.381 426.638C347.115 426.781 346.906 426.98 346.753 427.236C346.6 427.491 346.523 427.785 346.523 428.119V432.728H344.676ZM353.522 432.881C352.736 432.881 352.057 432.717 351.486 432.391C350.917 432.061 350.48 431.594 350.174 430.992C349.868 430.386 349.715 429.674 349.715 428.854C349.715 428.047 349.868 427.339 350.174 426.73C350.484 426.118 350.916 425.641 351.47 425.301C352.025 424.958 352.677 424.786 353.425 424.786C353.908 424.786 354.364 424.864 354.793 425.02C355.225 425.174 355.606 425.412 355.936 425.735C356.27 426.058 356.532 426.47 356.722 426.97C356.913 427.467 357.008 428.059 357.008 428.746V429.313H350.582V428.068H355.237C355.234 427.714 355.157 427.399 355.007 427.123C354.858 426.844 354.648 426.625 354.38 426.465C354.114 426.305 353.805 426.225 353.451 426.225C353.073 426.225 352.741 426.317 352.455 426.501C352.17 426.681 351.947 426.919 351.787 427.215C351.63 427.508 351.55 427.829 351.547 428.18V429.267C351.547 429.723 351.63 430.114 351.797 430.441C351.964 430.764 352.197 431.013 352.496 431.186C352.796 431.356 353.146 431.441 353.548 431.441C353.816 431.441 354.06 431.404 354.278 431.329C354.495 431.251 354.684 431.137 354.844 430.987C355.004 430.837 355.125 430.652 355.206 430.431L356.932 430.625C356.823 431.081 356.615 431.479 356.309 431.819C356.006 432.156 355.618 432.418 355.145 432.605C354.672 432.789 354.131 432.881 353.522 432.881ZM364.768 426.96L363.083 427.144C363.036 426.974 362.952 426.814 362.833 426.664C362.717 426.514 362.561 426.393 362.364 426.302C362.166 426.21 361.925 426.164 361.639 426.164C361.254 426.164 360.931 426.247 360.669 426.414C360.41 426.581 360.283 426.797 360.286 427.062C360.283 427.29 360.366 427.475 360.536 427.618C360.71 427.761 360.996 427.879 361.394 427.971L362.731 428.256C363.473 428.416 364.024 428.67 364.385 429.017C364.749 429.364 364.933 429.818 364.936 430.38C364.933 430.873 364.788 431.309 364.502 431.686C364.22 432.061 363.827 432.353 363.323 432.564C362.82 432.775 362.241 432.881 361.588 432.881C360.628 432.881 359.856 432.68 359.271 432.278C358.685 431.873 358.336 431.31 358.224 430.589L360.026 430.415C360.108 430.769 360.281 431.036 360.547 431.217C360.812 431.397 361.157 431.487 361.583 431.487C362.022 431.487 362.374 431.397 362.639 431.217C362.908 431.036 363.042 430.814 363.042 430.548C363.042 430.324 362.956 430.138 362.782 429.992C362.612 429.845 362.347 429.733 361.986 429.655L360.649 429.374C359.897 429.218 359.34 428.954 358.98 428.583C358.619 428.209 358.44 427.736 358.444 427.164C358.44 426.681 358.571 426.262 358.837 425.909C359.106 425.551 359.478 425.276 359.954 425.082C360.434 424.884 360.987 424.786 361.613 424.786C362.532 424.786 363.255 424.981 363.782 425.373C364.313 425.764 364.642 426.293 364.768 426.96ZM369.93 432.881C369.144 432.881 368.465 432.717 367.894 432.391C367.326 432.061 366.888 431.594 366.582 430.992C366.276 430.386 366.123 429.674 366.123 428.854C366.123 428.047 366.276 427.339 366.582 426.73C366.892 426.118 367.324 425.641 367.878 425.301C368.433 424.958 369.085 424.786 369.833 424.786C370.317 424.786 370.772 424.864 371.201 425.02C371.633 425.174 372.014 425.412 372.345 425.735C372.678 426.058 372.94 426.47 373.131 426.97C373.321 427.467 373.416 428.059 373.416 428.746V429.313H366.99V428.068H371.645C371.642 427.714 371.565 427.399 371.416 427.123C371.266 426.844 371.057 426.625 370.788 426.465C370.522 426.305 370.213 426.225 369.859 426.225C369.481 426.225 369.149 426.317 368.864 426.501C368.578 426.681 368.355 426.919 368.195 427.215C368.038 427.508 367.958 427.829 367.955 428.18V429.267C367.955 429.723 368.038 430.114 368.205 430.441C368.372 430.764 368.605 431.013 368.904 431.186C369.204 431.356 369.554 431.441 369.956 431.441C370.225 431.441 370.468 431.404 370.686 431.329C370.903 431.251 371.092 431.137 371.252 430.987C371.412 430.837 371.533 430.652 371.615 430.431L373.34 430.625C373.231 431.081 373.023 431.479 372.717 431.819C372.414 432.156 372.026 432.418 371.553 432.605C371.08 432.789 370.539 432.881 369.93 432.881ZM376.827 428.134V432.728H374.979V424.888H376.745V426.22H376.837C377.018 425.781 377.305 425.432 377.7 425.174C378.098 424.915 378.59 424.786 379.175 424.786C379.716 424.786 380.187 424.901 380.589 425.133C380.994 425.364 381.307 425.699 381.528 426.138C381.753 426.577 381.863 427.11 381.86 427.736V432.728H380.012V428.022C380.012 427.498 379.876 427.088 379.604 426.792C379.335 426.496 378.962 426.348 378.486 426.348C378.163 426.348 377.875 426.419 377.623 426.562C377.375 426.701 377.179 426.904 377.036 427.169C376.897 427.435 376.827 427.756 376.827 428.134ZM387.653 424.888V426.317H383.146V424.888H387.653ZM384.259 423.009H386.106V430.369C386.106 430.618 386.144 430.808 386.219 430.941C386.297 431.07 386.399 431.159 386.525 431.207C386.651 431.254 386.79 431.278 386.943 431.278C387.059 431.278 387.164 431.269 387.26 431.252C387.358 431.235 387.433 431.22 387.484 431.207L387.796 432.651C387.697 432.685 387.556 432.722 387.372 432.763C387.192 432.804 386.971 432.828 386.709 432.835C386.246 432.848 385.829 432.779 385.458 432.625C385.087 432.469 384.793 432.227 384.575 431.901C384.361 431.574 384.255 431.166 384.259 430.676V423.009Z" fill="white"/>
<defs>
<filter id="filter0_bi_2413_271" x="-13.1175" y="22.486" width="54.0987" height="396.201" filterUnits="userSpaceOnUse" color-interpolation-filters="sRGB">
<feFlood flood-opacity="0" result="BackgroundImageFix"/>
<feGaussianBlur in="BackgroundImageFix" stdDeviation="6.55877"/>
<feComposite in2="SourceAlpha" operator="in" result="effect1_backgroundBlur_2413_271"/>
<feBlend mode="normal" in="SourceGraphic" in2="effect1_backgroundBlur_2413_271" result="shape"/>
<feColorMatrix in="SourceAlpha" type="matrix" values="0 0 0 0 0 0 0 0 0 0 0 0 0 0 0 0 0 0 127 0" result="hardAlpha"/>
<feOffset dy="1.54324"/>
<feGaussianBlur stdDeviation="3.8581"/>
<feComposite in2="hardAlpha" operator="arithmetic" k2="-1" k3="1"/>
<feColorMatrix type="matrix" values="0 0 0 0 0.451496 0 0 0 0 0.288854 0 0 0 0 0.491667 0 0 0 1 0"/>
<feBlend mode="normal" in2="shape" result="effect2_innerShadow_2413_271"/>
</filter>
<filter id="filter1_bi_2413_271" x="685.019" y="22.486" width="54.0986" height="396.201" filterUnits="userSpaceOnUse" color-interpolation-filters="sRGB">
<feFlood flood-opacity="0" result="BackgroundImageFix"/>
<feGaussianBlur in="BackgroundImageFix" stdDeviation="6.55877"/>
<feComposite in2="SourceAlpha" operator="in" result="effect1_backgroundBlur_2413_271"/>
<feBlend mode="normal" in="SourceGraphic" in2="effect1_backgroundBlur_2413_271" result="shape"/>
<feColorMatrix in="SourceAlpha" type="matrix" values="0 0 0 0 0 0 0 0 0 0 0 0 0 0 0 0 0 0 127 0" result="hardAlpha"/>
<feOffset dy="1.54324"/>
<feGaussianBlur stdDeviation="3.8581"/>
<feComposite in2="hardAlpha" operator="arithmetic" k2="-1" k3="1"/>
<feColorMatrix type="matrix" values="0 0 0 0 0.451496 0 0 0 0 0.288854 0 0 0 0 0.491667 0 0 0 1 0"/>
<feBlend mode="normal" in2="shape" result="effect2_innerShadow_2413_271"/>
</filter>
<filter id="filter2_bi_2413_271" x="22.4858" y="-13.1175" width="681.028" height="54.0989" filterUnits="userSpaceOnUse" color-interpolation-filters="sRGB">
<feFlood flood-opacity="0" result="BackgroundImageFix"/>
<feGaussianBlur in="BackgroundImageFix" stdDeviation="6.55877"/>
<feComposite in2="SourceAlpha" operator="in" result="effect1_backgroundBlur_2413_271"/>
<feBlend mode="normal" in="SourceGraphic" in2="effect1_backgroundBlur_2413_271" result="shape"/>
<feColorMatrix in="SourceAlpha" type="matrix" values="0 0 0 0 0 0 0 0 0 0 0 0 0 0 0 0 0 0 127 0" result="hardAlpha"/>
<feOffset dy="1.54324"/>
<feGaussianBlur stdDeviation="3.8581"/>
<feComposite in2="hardAlpha" operator="arithmetic" k2="-1" k3="1"/>
<feColorMatrix type="matrix" values="0 0 0 0 0.451496 0 0 0 0 0.288854 0 0 0 0 0.491667 0 0 0 1 0"/>
<feBlend mode="normal" in2="shape" result="effect2_innerShadow_2413_271"/>
</filter>
<filter id="filter3_bi_2413_271" x="22.4858" y="400.192" width="677.158" height="54.0984" filterUnits="userSpaceOnUse" color-interpolation-filters="sRGB">
<feFlood flood-opacity="0" result="BackgroundImageFix"/>
<feGaussianBlur in="BackgroundImageFix" stdDeviation="6.55877"/>
<feComposite in2="SourceAlpha" operator="in" result="effect1_backgroundBlur_2413_271"/>
<feBlend mode="normal" in="SourceGraphic" in2="effect1_backgroundBlur_2413_271" result="shape"/>
<feColorMatrix in="SourceAlpha" type="matrix" values="0 0 0 0 0 0 0 0 0 0 0 0 0 0 0 0 0 0 127 0" result="hardAlpha"/>
<feOffset dy="1.54324"/>
<feGaussianBlur stdDeviation="3.8581"/>
<feComposite in2="hardAlpha" operator="arithmetic" k2="-1" k3="1"/>
<feColorMatrix type="matrix" values="0 0 0 0 0.451496 0 0 0 0 0.288854 0 0 0 0 0.491667 0 0 0 1 0"/>
<feBlend mode="normal" in2="shape" result="effect2_innerShadow_2413_271"/>
</filter>
<linearGradient id="paint0_linear_2413_271" x1="27.8636" y1="286.49" x2="-8.67006" y2="286.49" gradientUnits="userSpaceOnUse">
<stop stop-color="white"/>
<stop offset="0.0001" stop-color="#D630FF"/>
<stop offset="1" stop-color="#D630FF" stop-opacity="0"/>
</linearGradient>
<linearGradient id="paint1_linear_2413_271" x1="698.136" y1="286.49" x2="734.67" y2="286.49" gradientUnits="userSpaceOnUse">
<stop stop-color="white"/>
<stop offset="0.0001" stop-color="#D630FF"/>
<stop offset="1" stop-color="#D630FF" stop-opacity="0"/>
</linearGradient>
<linearGradient id="paint2_linear_2413_271" x1="246.359" y1="27.8635" x2="246.359" y2="-8.67008" gradientUnits="userSpaceOnUse">
<stop stop-color="white"/>
<stop offset="0.0001" stop-color="#D630FF"/>
<stop offset="1" stop-color="#D630FF" stop-opacity="0"/>
</linearGradient>
<linearGradient id="paint3_linear_2413_271" x1="245.113" y1="413.309" x2="245.113" y2="449.843" gradientUnits="userSpaceOnUse">
<stop stop-color="white"/>
<stop offset="0.0001" stop-color="#D630FF"/>
<stop offset="1" stop-color="#D630FF" stop-opacity="0"/>
</linearGradient>
</defs>
</svg>
