<svg width="21" height="28" viewBox="0 0 21 28" fill="none" xmlns="http://www.w3.org/2000/svg">
<path d="M4.4915 28V15.3561C3.30188 15.1163 2.25589 14.471 1.35354 13.4201C0.451179 12.3692 0 11.1125 0 9.64999V0H2.37594V9.64999H4.4915V0H6.84908V9.64999H8.96464V0H11.359V9.64999C11.359 11.1125 10.9048 12.3692 9.99625 13.4201C9.08776 14.471 8.0387 15.1156 6.84908 15.354V28H4.4915ZM18.6241 28V16.9714H14.8811V6.24554C14.8811 4.34808 15.4448 2.83279 16.5722 1.69967C17.6995 0.566558 19.1755 0 21 0V28H18.6241Z" fill="white"/>
</svg>
