<svg width="28" height="28" viewBox="0 0 28 28" fill="none" xmlns="http://www.w3.org/2000/svg">
<path d="M2.6762 28C1.94408 28 1.31502 27.7279 0.789028 27.1838C0.263009 26.6397 0 25.989 0 25.2317V9.05078C0 8.28805 0.263009 7.6327 0.789028 7.08471C1.31502 6.53676 1.94408 6.26278 2.6762 6.26278H8.14602V2.76829C8.14602 2.02481 8.40903 1.37756 8.93505 0.826551C9.46107 0.275517 10.0901 0 10.8222 0H17.1587C17.8908 0 18.5198 0.275517 19.0459 0.826551C19.5719 1.37756 19.8349 2.02481 19.8349 2.76829V6.26278H25.3047C26.0421 6.26278 26.6756 6.53676 27.2054 7.08471C27.7351 7.6327 28 8.28805 28 9.05078V25.2317C28 25.989 27.7351 26.6397 27.2054 27.1838C26.6756 27.7279 26.0421 28 25.3047 28H2.6762ZM2.6762 25.2317H25.3047V9.05078H2.6762V25.2317ZM10.8222 6.26278H17.1587V2.76829H10.8222V6.26278Z" fill="white"/>
</svg>
