<svg width="29" height="26" viewBox="0 0 29 26" fill="none" xmlns="http://www.w3.org/2000/svg">
<path d="M14.468 20.5231C16.2018 20.5231 17.6501 19.9477 18.8128 18.797C19.9756 17.6462 20.5569 16.2139 20.5569 14.4999C20.5569 12.7859 19.9771 11.3545 18.8175 10.2057C17.6578 9.05691 16.2144 8.48251 14.4872 8.48251C12.76 8.48251 11.3175 9.05482 10.1598 10.1995C9.00214 11.3441 8.4233 12.7712 8.4233 14.4808C8.4233 16.2013 9.00004 17.6385 10.1535 18.7924C11.307 19.9462 12.7451 20.5231 14.468 20.5231ZM14.4726 18.0474C13.4437 18.0474 12.5941 17.709 11.9237 17.0322C11.2534 16.3554 10.9182 15.5065 10.9182 14.4854C10.9182 13.4644 11.2534 12.6181 11.9237 11.9463C12.5941 11.2745 13.4437 10.9386 14.4726 10.9386C15.5015 10.9386 16.3603 11.2745 17.0489 11.9463C17.7375 12.6181 18.0818 13.4644 18.0818 14.4854C18.0818 15.5065 17.7375 16.3554 17.0489 17.0322C16.3603 17.709 15.5015 18.0474 14.4726 18.0474ZM2.77178 26C2.01351 26 1.36199 25.7297 0.817208 25.1891C0.272402 24.6485 0 24.0019 0 23.2495V5.79087C0 5.05617 0.272402 4.4108 0.817208 3.85476C1.36199 3.29874 2.01351 3.02072 2.77178 3.02072H7.4801L10.2321 0H18.7482L21.5199 3.02072H26.2085C26.9488 3.02072 27.5992 3.29874 28.1595 3.85476C28.7198 4.4108 29 5.05617 29 5.79087V23.2495C29 24.0019 28.7198 24.6485 28.1595 25.1891C27.5992 25.7297 26.9488 26 26.2085 26H2.77178ZM2.77178 23.2495H26.2085V5.79087H20.3029L17.5905 2.77014H11.4293L8.63779 5.79087H2.77178V23.2495Z" fill="white"/>
</svg>
