<svg width="65" height="63" viewBox="0 0 65 63" fill="none" xmlns="http://www.w3.org/2000/svg">
<path d="M46.8929 32.5756C44.4683 30.4244 42.1597 28.3244 39.9673 26.2756C37.7748 24.2268 35.8549 22.2306 34.2074 20.2871C32.56 18.3435 31.2445 16.4622 30.261 14.6433C29.2775 12.8243 28.7857 11.0676 28.7857 9.37317C28.7857 6.72215 29.6942 4.4972 31.5111 2.69832C33.3279 0.89944 35.5751 0 38.2526 0C39.7826 0 41.3085 0.422561 42.8304 1.26768C44.3522 2.1128 45.7064 3.25244 46.8929 4.68659C48.0794 3.25244 49.4335 2.1128 50.9554 1.26768C52.4772 0.422561 54.0031 0 55.5331 0C58.2106 0 60.4578 0.89944 62.2747 2.69832C64.0916 4.4972 65 6.72215 65 9.37317C65 11.0676 64.5082 12.8243 63.5247 14.6433C62.5412 16.4622 61.2257 18.3435 59.5783 20.2871C57.9309 22.2306 56.0063 24.2312 53.8048 26.2887C51.6032 28.3462 49.2993 30.4419 46.8929 32.5756ZM46.8929 26.1988C50.2976 23.1256 53.3929 20.078 56.1786 17.0561C58.9643 14.0341 60.3571 11.4732 60.3571 9.37317C60.3571 7.96858 59.9095 6.82351 59.0141 5.93798C58.1188 5.0525 56.961 4.60976 55.5408 4.60976C54.6763 4.60976 53.8185 4.81463 52.9673 5.22439C52.1161 5.63415 51.252 6.40244 50.375 7.52927L46.8929 11.7549L43.4107 7.52927C42.5337 6.40244 41.6696 5.63415 40.8185 5.22439C39.9673 4.81463 39.1094 4.60976 38.2449 4.60976C36.8247 4.60976 35.6669 5.0525 34.7716 5.93798C33.8762 6.82351 33.4286 7.96858 33.4286 9.37317C33.4286 11.4732 34.8214 14.0341 37.6071 17.0561C40.3929 20.078 43.4881 23.1256 46.8929 26.1988ZM40.7024 63L16.6369 56.1622V60.5415H0V30.2707H23.9107L43.6429 37.6463C45.0357 38.1585 46.2093 38.9909 47.1637 40.1433C48.1181 41.2957 48.5952 42.9476 48.5952 45.0988H57.4167C59.5833 45.0988 61.3889 45.8671 62.8333 47.4037C64.2778 48.9402 65 51.0146 65 53.6268V55.6244L40.7024 63ZM4.64286 55.9317H11.9167V34.8805H4.64286V55.9317ZM40.3929 58.2366L60.2024 52.2439C59.8929 51.2707 59.506 50.6049 59.0417 50.2463C58.5774 49.8878 58.0357 49.7085 57.4167 49.7085H41.3988C39.8512 49.7085 38.4196 49.6061 37.1042 49.4012C35.7887 49.1963 34.5377 48.9146 33.3512 48.5561L27.0833 46.6354L28.7857 42.1793L34.4345 44.0232C35.7242 44.4329 36.9494 44.7146 38.1101 44.8683C39.2708 45.022 41.1151 45.0988 43.6429 45.0988C43.6429 44.4841 43.5268 43.8823 43.2946 43.2933C43.0625 42.7043 42.6627 42.2817 42.0952 42.0256L23.1369 34.8805H16.6369V51.322L40.3929 58.2366Z" fill="white"/>
</svg>
