<svg width="75" height="68" viewBox="0 0 75 68" fill="none" xmlns="http://www.w3.org/2000/svg">
<path d="M26.5902 67.9225C24.0876 67.9225 21.8717 67.1859 19.9426 65.7127C18.0136 64.2395 16.658 62.3398 15.8759 60.0137C15.0417 61.3577 14.025 62.4044 12.8259 63.1539C11.6267 63.9035 10.1929 64.2782 8.5245 64.2782C6.07404 64.2782 4.04067 63.4253 2.4244 61.7195C0.808134 60.0137 0 57.9977 0 55.6716C0 53.1387 0.795099 51.1357 2.3853 49.6625C3.9755 48.1893 5.99583 47.4268 8.4463 47.3751C7.50782 46.3413 6.77789 45.1395 6.25652 43.7697C5.73514 42.3998 5.47445 41.0171 5.47445 39.6214C5.47445 37.6572 5.98279 35.8221 6.99948 34.1163C8.01616 32.4105 9.46298 31.0407 11.3399 30.0068C11.6006 30.6788 11.9265 31.4025 12.3175 32.1779C12.7086 32.9533 13.1126 33.6252 13.5297 34.1938C12.487 34.8658 11.6658 35.6929 11.0662 36.675C10.4666 37.6572 10.1668 38.691 10.1668 39.7765C10.1668 42.878 11.4312 44.8293 13.9599 45.6306C16.4885 46.4318 18.926 47.065 21.2722 47.5302L22.1324 49.0034C21.5068 50.8126 20.9984 52.2987 20.6074 53.4618C20.2164 54.6249 20.0209 55.6975 20.0209 56.6796C20.0209 58.4371 20.6856 59.9749 22.0151 61.293C23.3446 62.6112 24.8957 63.2702 26.6684 63.2702C28.806 63.2702 30.5657 62.3786 31.9473 60.5952C33.329 58.8119 34.4499 56.6925 35.3102 54.2372C36.1705 51.7818 36.8352 49.3006 37.3045 46.7936C37.7737 44.2866 38.1648 42.3352 38.4776 40.9396L43.0136 42.1802C42.5443 44.4029 41.9969 46.9875 41.3712 49.9339C40.7456 52.8803 39.8462 55.6845 38.6731 58.3466C37.5 61.0087 35.9619 63.2702 34.0589 65.1311C32.1559 66.992 29.6663 67.9225 26.5902 67.9225ZM8.60271 59.626C9.6976 59.626 10.623 59.2512 11.379 58.5017C12.135 57.7522 12.513 56.8347 12.513 55.7491C12.513 54.6636 12.135 53.7461 11.379 52.9966C10.623 52.2471 9.6976 51.8723 8.60271 51.8723C7.50782 51.8723 6.58238 52.2471 5.82638 52.9966C5.07039 53.7461 4.69239 54.6636 4.69239 55.7491C4.69239 56.8347 5.07039 57.7522 5.82638 58.5017C6.58238 59.2512 7.50782 59.626 8.60271 59.626ZM32.0647 44.894C29.7185 42.8263 27.5808 40.9008 25.6517 39.1174C23.7226 37.3341 22.0673 35.5895 20.6856 33.8837C19.304 32.1779 18.2351 30.4979 17.4791 28.8438C16.7231 27.1897 16.3452 25.4322 16.3452 23.5713C16.3452 20.4698 17.44 17.8335 19.6298 15.6625C21.8196 13.4914 24.4786 12.4059 27.6069 12.4059C28.0761 12.4059 28.5193 12.4189 28.9364 12.4447C29.3535 12.4705 29.7706 12.5352 30.1877 12.6385C29.7185 11.7598 29.3796 11.0103 29.171 10.39C28.9625 9.76967 28.8582 9.14937 28.8582 8.52908C28.8582 6.15127 29.6924 4.13531 31.3608 2.48119C33.0292 0.827062 35.0626 0 37.4609 0C39.8592 0 41.8926 0.827062 43.561 2.48119C45.2294 4.13531 46.0636 6.15127 46.0636 8.52908C46.0636 9.09768 45.9724 9.70506 45.7899 10.3512C45.6074 10.9973 45.2555 11.7598 44.7341 12.6385C45.1512 12.5352 45.5683 12.4705 45.9854 12.4447C46.4025 12.4189 46.8457 12.4059 47.3149 12.4059C50.2868 12.4059 52.8024 13.3493 54.8618 15.236C56.9213 17.1228 58.1074 19.4618 58.4202 22.2531C57.6903 22.2014 56.9082 22.1885 56.074 22.2144C55.2398 22.2402 54.4578 22.3048 53.7278 22.4082C53.4672 20.8575 52.7633 19.5781 51.6163 18.5701C50.4692 17.5621 49.0355 17.0582 47.3149 17.0582C45.3858 17.0582 43.8608 17.588 42.7398 18.6477C41.6189 19.7073 40.1199 21.3227 38.243 23.4937H36.6006C34.6715 21.2193 33.1465 19.5781 32.0255 18.5701C30.9046 17.5621 29.4317 17.0582 27.6069 17.0582C25.7299 17.0582 24.1658 17.6784 22.9145 18.919C21.6632 20.1596 21.0375 21.7104 21.0375 23.5713C21.0375 24.8119 21.3764 26.0783 22.0542 27.3706C22.732 28.6629 23.6966 30.0456 24.9479 31.5188C26.1992 32.992 27.7112 34.5428 29.4838 36.171C31.2565 37.7993 33.2377 39.5956 35.4275 41.5599L32.0647 44.894ZM37.4609 12.4059C38.5558 12.4059 39.4812 12.0312 40.2372 11.2816C40.9932 10.5321 41.3712 9.6146 41.3712 8.52908C41.3712 7.44356 40.9932 6.52604 40.2372 5.77651C39.4812 5.02699 38.5558 4.65222 37.4609 4.65222C36.366 4.65222 35.4406 5.02699 34.6846 5.77651C33.9286 6.52604 33.5506 7.44356 33.5506 8.52908C33.5506 9.6146 33.9286 10.5321 34.6846 11.2816C35.4406 12.0312 36.366 12.4059 37.4609 12.4059ZM48.2534 68C47.1064 68 45.9724 67.8191 44.8514 67.4572C43.7304 67.0954 42.6486 66.5526 41.6058 65.829C42.0229 65.2087 42.44 64.5108 42.8571 63.7355C43.2742 62.9601 43.6131 62.2364 43.8738 61.5644C44.6038 62.133 45.3467 62.5595 46.1027 62.8438C46.8587 63.1281 47.6277 63.2702 48.4098 63.2702C50.2346 63.2702 51.7857 62.6112 53.0631 61.293C54.3405 59.9749 54.9791 58.4371 54.9791 56.6796C54.9791 55.6458 54.7706 54.5473 54.3535 53.3843C53.9364 52.2212 53.4411 50.7609 52.8676 49.0034L53.7278 47.5302C56.1262 47.1167 58.5766 46.5093 61.0793 45.7081C63.5819 44.9069 64.8332 42.9555 64.8332 39.854C64.8332 37.5796 63.999 35.8867 62.3306 34.7754C60.6621 33.664 58.8113 33.1083 56.7779 33.1083C54.5881 33.1083 51.9943 33.5219 48.9963 34.3489C45.9984 35.176 42.5182 36.2357 38.5558 37.5279L37.3827 33.0308C41.3451 31.7385 44.9166 30.653 48.097 29.7742C51.2774 28.8955 54.171 28.4561 56.7779 28.4561C60.1147 28.4561 63.0735 29.4512 65.6543 31.4413C68.2351 33.4314 69.5256 36.2098 69.5256 39.7765C69.5256 41.1722 69.2649 42.542 68.7435 43.886C68.2221 45.2299 67.4922 46.4189 66.5537 47.4527C68.952 47.5044 70.9593 48.2797 72.5756 49.7788C74.1919 51.2778 75 53.268 75 55.7491C75 58.0753 74.1919 60.0912 72.5756 61.797C70.9593 63.5029 68.926 64.3558 66.4755 64.3558C64.8592 64.3558 63.4254 63.981 62.1741 63.2315C60.9228 62.4819 59.9062 61.4352 59.1241 60.0912C58.2899 62.4173 56.9082 64.317 54.9791 65.7902C53.0501 67.2634 50.8081 68 48.2534 68ZM66.4755 59.7035C67.5182 59.7035 68.4176 59.3288 69.1736 58.5793C69.9296 57.8297 70.3076 56.9122 70.3076 55.8267C70.3076 54.7929 69.9166 53.8753 69.1345 53.0741C68.3524 52.2729 67.44 51.8723 66.3973 51.8723C65.3545 51.8723 64.4421 52.26 63.6601 53.0353C62.878 53.8107 62.487 54.7153 62.487 55.7491C62.487 56.783 62.891 57.7005 63.6992 58.5017C64.5073 59.3029 65.4327 59.7035 66.4755 59.7035Z" fill="white"/>
</svg>
