<svg width="74" height="48" viewBox="0 0 74 48" fill="none" xmlns="http://www.w3.org/2000/svg">
<path d="M36.5375 22.8048C37.8736 21.156 38.8628 19.4557 39.5052 17.7039C40.1476 15.9521 40.4688 13.9169 40.4688 11.5983C40.4688 9.27974 40.1476 7.24454 39.5052 5.49273C38.8628 3.74091 37.8736 2.04062 36.5375 0.391853C40.4431 -0.484054 43.8733 0.108472 46.8281 2.16943C49.783 4.23039 51.2604 7.37335 51.2604 11.5983C51.2604 15.8233 49.783 18.9662 46.8281 21.0272C43.8733 23.0882 40.4431 23.6807 36.5375 22.8048ZM53.1875 48V40.7351C53.1875 38.1074 52.5194 35.66 51.1833 33.393C49.8472 31.1259 47.5347 29.2195 44.2458 27.6738C53.1361 28.8073 59.2128 30.4561 62.476 32.6201C65.7392 34.7841 67.3708 37.4891 67.3708 40.7351V48H53.1875ZM61.6667 25.6644V17.9358H53.9583V13.2986H61.6667V5.57001H66.2917V13.2986H74V17.9358H66.2917V25.6644H61.6667ZM24.2812 23.1912C20.8896 23.1912 18.1146 22.1092 15.9563 19.9452C13.7979 17.7812 12.7188 14.9989 12.7188 11.5983C12.7188 8.19773 13.7979 5.41544 15.9563 3.25143C18.1146 1.08743 20.8896 0.00542356 24.2812 0.00542356C27.6729 0.00542356 30.4479 1.08743 32.6063 3.25143C34.7646 5.41544 35.8438 8.19773 35.8438 11.5983C35.8438 14.9989 34.7646 17.7812 32.6063 19.9452C30.4479 22.1092 27.6729 23.1912 24.2812 23.1912ZM0 48V40.7351C0 38.9318 0.475347 37.2959 1.42604 35.8275C2.37674 34.359 3.64861 33.2641 5.24167 32.5428C8.94167 30.894 12.2434 29.709 15.1469 28.9877C18.0503 28.2663 21.0951 27.9057 24.2812 27.9057C27.4674 27.9057 30.4993 28.2663 33.3771 28.9877C36.2549 29.709 39.5438 30.894 43.2438 32.5428C44.8368 33.2641 46.1215 34.359 47.0979 35.8275C48.0743 37.2959 48.5625 38.9318 48.5625 40.7351V48H0ZM24.2812 18.5541C26.2854 18.5541 27.9427 17.8971 29.2531 16.5833C30.5635 15.2694 31.2188 13.6078 31.2188 11.5983C31.2188 9.58888 30.5635 7.92723 29.2531 6.61337C27.9427 5.29951 26.2854 4.64258 24.2812 4.64258C22.2771 4.64258 20.6198 5.29951 19.3094 6.61337C17.999 7.92723 17.3438 9.58888 17.3438 11.5983C17.3438 13.6078 17.999 15.2694 19.3094 16.5833C20.6198 17.8971 22.2771 18.5541 24.2812 18.5541ZM4.625 43.3628H43.9375V40.7351C43.9375 39.9107 43.7319 39.1379 43.3208 38.4165C42.9097 37.6952 42.2674 37.1284 41.3937 36.7163C37.8479 35.0675 34.8417 33.9597 32.375 33.393C29.9083 32.8262 27.2104 32.5428 24.2812 32.5428C21.3521 32.5428 18.667 32.8262 16.226 33.393C13.7851 33.9597 10.7403 35.0675 7.09167 36.7163C6.32083 37.0769 5.71701 37.6308 5.28021 38.3779C4.8434 39.125 4.625 39.9107 4.625 40.7351V43.3628Z" fill="white"/>
</svg>
