<svg width="28" height="28" viewBox="0 0 28 28" fill="none" xmlns="http://www.w3.org/2000/svg">
<path d="M24.8891 10.7796C24.2614 8.60775 23.0555 6.77933 21.2714 5.29435C19.4872 3.80938 17.3917 2.96065 14.9848 2.74815V5.0219L24.8891 10.7796ZM7.90369 16.2495L12.9579 13.2472V2.74815C12.0599 2.86076 11.187 3.04902 10.339 3.31293C9.491 3.57682 8.67923 3.95504 7.90369 4.44759V16.2495ZM3.66616 18.7641L5.87673 17.4656V6.05004C4.84368 7.10563 4.052 8.33088 3.50168 9.72576C2.95136 11.1206 2.6762 12.5549 2.6762 14.0286C2.6762 14.8943 2.75992 15.7092 2.92737 16.4735C3.09482 17.2378 3.34108 18.0013 3.66616 18.7641ZM8.77765 24.0929L19.1989 18.0929L13.9714 15.0039L4.64586 20.5208C5.18639 21.2513 5.805 21.9279 6.50171 22.5507C7.19842 23.1735 7.95707 23.6875 8.77765 24.0929ZM13.9714 25.3238C15.8828 25.3238 17.6478 24.903 19.2664 24.0613C20.8851 23.2197 22.2349 22.0459 23.3159 20.5399L21.1583 19.2752L11.2776 25.0051C11.7153 25.1177 12.1642 25.1989 12.6245 25.2489C13.0847 25.2988 13.5337 25.3238 13.9714 25.3238ZM24.2765 18.7303C24.6692 17.8999 24.9444 17.0488 25.102 16.1768C25.2597 15.3048 25.3272 14.3861 25.3047 13.4205L14.9848 7.38226V13.2854L24.2765 18.7303ZM13.9714 28C12.0384 28 10.2212 27.6357 8.51986 26.9072C6.81847 26.1787 5.33742 25.1808 4.07669 23.9137C2.81597 22.6467 1.82134 21.1624 1.0928 19.4611C0.364267 17.7597 0 15.9425 0 14.0095C0 12.0766 0.364267 10.2594 1.0928 8.55803C1.82134 6.85667 2.81597 5.37244 4.07669 4.10534C5.33742 2.83824 6.81847 1.83724 8.51986 1.10233C10.2212 0.367443 12.0384 0 13.9714 0C15.917 0 17.7406 0.367443 19.442 1.10233C21.1433 1.83724 22.6276 2.83824 23.8947 4.10534C25.1618 5.37244 26.1628 6.85667 26.8977 8.55803C27.6326 10.2594 28 12.0766 28 14.0095C28 15.9425 27.6326 17.7597 26.8977 19.4611C26.1628 21.1624 25.1618 22.6467 23.8947 23.9137C22.6276 25.1808 21.1433 26.1787 19.442 26.9072C17.7406 27.6357 15.917 28 13.9714 28Z" fill="white"/>
</svg>
