<svg width="28" height="24" viewBox="0 0 28 24" fill="none" xmlns="http://www.w3.org/2000/svg">
<path d="M7.83319 24H2.6762C1.92719 24 1.29391 23.7251 0.77636 23.1754C0.258786 22.6256 0 21.953 0 21.1574V2.86291C0 2.06175 0.258775 1.3843 0.776326 0.830564C1.2939 0.276855 1.92719 0 2.6762 0H25.2974V2.86291H2.6762V21.1574H7.83319V24ZM12.8859 20.6628C13.5234 20.6628 14.0602 20.4301 14.4965 19.9648C14.9327 19.4995 15.1508 18.9345 15.1508 18.2697C15.1508 17.6049 14.932 17.0409 14.4944 16.5775C14.0567 16.1141 13.5253 15.8825 12.9001 15.8825C12.26 15.8825 11.7219 16.1149 11.2856 16.5798C10.8494 17.0446 10.6313 17.6091 10.6313 18.2732C10.6313 18.9373 10.8477 19.5016 11.2805 19.9661C11.7134 20.4305 12.2485 20.6628 12.8859 20.6628ZM10.5358 24V21.485C10.0922 21.1127 9.737 20.6508 9.47016 20.0993C9.20335 19.5478 9.06994 18.9389 9.06994 18.2726C9.06994 17.6236 9.20335 17.0224 9.47016 16.4691C9.737 15.9157 10.0922 15.4475 10.5358 15.0642V12.5453H15.2654V15.0805C15.6969 15.4492 16.0459 15.9112 16.3124 16.4664C16.5789 17.0215 16.7122 17.627 16.7122 18.2828C16.7122 18.9386 16.5789 19.544 16.3124 20.0992C16.0459 20.6544 15.6969 21.1217 15.2654 21.5013V24H10.5358ZM26.6428 24H19.3061C18.9298 24 18.6127 23.863 18.3548 23.5891C18.0969 23.3152 17.968 22.9784 17.968 22.5787V9.00373C17.968 8.60406 18.0969 8.26725 18.3548 7.99331C18.6127 7.71938 18.9298 7.58241 19.3061 7.58241H26.6428C27.0175 7.58241 27.3374 7.71938 27.6024 7.99331C27.8675 8.26725 28 8.60406 28 9.00373V22.5787C28 22.9784 27.8675 23.3152 27.6024 23.5891C27.3374 23.863 27.0175 24 26.6428 24ZM20.205 21.6239H25.7439V9.95852H20.205V21.6239Z" fill="white"/>
</svg>
