<svg width="68" height="46" viewBox="0 0 68 46" fill="none" xmlns="http://www.w3.org/2000/svg">
<path d="M0 46V39.4077H33.2811V46H0ZM0 27.9725V21.3801H18.3564V27.9725H0ZM0 9.94491V3.3526H18.3564V9.94491H0ZM63.8122 45.0998L50.863 31.642C49.4352 32.7596 47.9131 33.5899 46.2965 34.1329C44.6799 34.6758 42.993 34.9473 41.236 34.9473C36.5311 34.9473 32.5351 33.2531 29.2479 29.8647C25.9607 26.4762 24.3171 22.3572 24.3171 17.5074C24.3171 12.6576 25.9628 8.52726 29.2542 5.11632C32.5457 1.70544 36.539 0 41.2344 0C45.9298 0 49.9237 1.70368 53.2161 5.11104C56.5086 8.51841 58.1548 12.6393 58.1548 17.4736C58.1548 19.3039 57.8968 21.0624 57.3808 22.7492C56.8647 24.436 56.0752 25.9921 55.0122 27.4176L68 40.869L63.8122 45.0998ZM41.1935 28.8762C44.2601 28.8762 46.871 27.7748 49.0259 25.5722C51.1808 23.3697 52.2583 20.6828 52.2583 17.5115C52.2583 14.3402 51.1907 11.6406 49.0555 9.41286C46.9202 7.18505 44.3274 6.07115 41.2771 6.07115C38.201 6.07115 35.5958 7.177 33.4614 9.38872C31.3271 11.6004 30.2599 14.286 30.2599 17.4455C30.2599 20.642 31.3187 23.3462 33.4363 25.5582C35.5539 27.7702 38.1396 28.8762 41.1935 28.8762Z" fill="white"/>
</svg>
