<svg width="66" height="67" viewBox="0 0 66 67" fill="none" xmlns="http://www.w3.org/2000/svg">
<path d="M43.9684 10.5047C42.851 10.5047 41.8982 10.1052 41.1102 9.30618C40.3221 8.50717 39.9281 7.54665 39.9281 6.42462C39.9281 5.30259 40.326 4.34593 41.1217 3.55463C41.9174 2.76333 42.874 2.36767 43.9914 2.36767C45.1088 2.36767 46.0615 2.76718 46.8496 3.56619C47.6376 4.3652 48.0317 5.32572 48.0317 6.44775C48.0317 7.56978 47.6338 8.52644 46.8381 9.31774C46.0423 10.109 45.0858 10.5047 43.9684 10.5047ZM43.9684 64.6323C42.851 64.6323 41.8982 64.2328 41.1102 63.4338C40.3221 62.6348 39.9281 61.6743 39.9281 60.5523C39.9281 59.4302 40.326 58.4736 41.1217 57.6823C41.9174 56.891 42.874 56.4953 43.9914 56.4953C45.1088 56.4953 46.0615 56.8948 46.8496 57.6938C47.6376 58.4928 48.0317 59.4533 48.0317 60.5754C48.0317 61.6974 47.6338 62.6541 46.8381 63.4454C46.0423 64.2367 45.0858 64.6323 43.9684 64.6323ZM57.0362 21.9863C55.9188 21.9863 54.9661 21.5868 54.1781 20.7878C53.39 19.9888 52.996 19.0283 52.996 17.9062C52.996 16.7842 53.3938 15.8275 54.1896 15.0362C54.9853 14.2449 55.9419 13.8493 57.0593 13.8493C58.1767 13.8493 59.1294 14.2488 59.9175 15.0478C60.7055 15.8468 61.0995 16.8073 61.0995 17.9294C61.0995 19.0514 60.7017 20.0081 59.906 20.7994C59.1102 21.5907 58.1537 21.9863 57.0362 21.9863ZM57.0362 53.1507C55.9188 53.1507 54.9661 52.7512 54.1781 51.9522C53.39 51.1532 52.996 50.1927 52.996 49.0706C52.996 47.9486 53.3938 46.9919 54.1896 46.2006C54.9853 45.4093 55.9419 45.0137 57.0593 45.0137C58.1767 45.0137 59.1294 45.4132 59.9175 46.2122C60.7055 47.0112 61.0995 47.9717 61.0995 49.0938C61.0995 50.2158 60.7017 51.1725 59.906 51.9638C59.1102 52.7551 58.1537 53.1507 57.0362 53.1507ZM61.9367 37.5685C60.8193 37.5685 59.8666 37.169 59.0785 36.37C58.2905 35.571 57.8964 34.6105 57.8964 33.4884C57.8964 32.3664 58.2943 31.4097 59.09 30.6184C59.8858 29.8271 60.8423 29.4315 61.9597 29.4315C63.0771 29.4315 64.0299 29.831 64.8179 30.63C65.606 31.429 66 32.3895 66 33.5116C66 34.6336 65.6021 35.5903 64.8064 36.3816C64.0107 37.1729 63.0541 37.5685 61.9367 37.5685ZM33.3622 67C28.7459 67 24.4084 66.1206 20.3496 64.3618C16.2909 62.6029 12.7602 60.216 9.75779 57.2008C6.75539 54.1857 4.3785 50.6401 2.62713 46.5641C0.875711 42.4881 0 38.1329 0 33.4985C0 28.8642 0.875766 24.5092 2.6273 20.4337C4.37883 16.3581 6.75588 12.813 9.75844 9.79817C12.7611 6.78331 16.2919 4.39659 20.3509 2.63799C24.41 0.879329 28.7471 0 33.3622 0V6.49687C25.9074 6.49687 19.5693 9.1216 14.3481 14.371C9.12691 19.6206 6.5163 25.9976 6.5163 33.5022C6.5163 41.0069 9.12555 47.3755 14.344 52.608C19.5626 57.8405 25.902 60.4568 33.3622 60.4568V67ZM33.355 40.0289C31.5492 40.0289 30.0153 39.3935 28.7533 38.1229C27.4912 36.8522 26.8602 35.3113 26.8602 33.5C26.8602 33.2246 26.8823 32.9354 26.9265 32.6324C26.9707 32.3294 27.0267 32.0599 27.0945 31.8238L20.2836 24.9708L24.8681 20.4137L31.748 27.2064C32.0287 27.0971 32.5668 27.0187 33.3622 26.9711C35.166 26.9711 36.7007 27.6072 37.9661 28.8792C39.2315 30.1513 39.8642 31.694 39.8642 33.5073C39.8642 35.3205 39.2308 36.8608 37.964 38.128C36.6971 39.3952 35.1608 40.0289 33.355 40.0289Z" fill="white"/>
</svg>
