<svg width="828" height="519" viewBox="0 0 828 519" fill="none" xmlns="http://www.w3.org/2000/svg">
<path d="M495.084 80.0675C525.074 90.6544 551.93 108.593 573.195 132.242C594.459 155.891 609.454 184.495 616.807 215.437C624.159 246.379 623.635 278.671 615.281 309.358C606.928 340.045 591.012 368.147 568.991 391.093L509.315 333.822C521.76 320.855 530.754 304.975 535.474 287.634C540.195 270.292 540.491 252.044 536.336 234.559C532.181 217.074 523.708 200.91 511.691 187.546C499.674 174.182 484.498 164.044 467.551 158.062L495.084 80.0675Z" fill="#FF29D0"/>
<path d="M568.995 391.087C549.611 411.286 526.007 426.957 499.868 436.98C473.728 447.004 445.698 451.133 417.779 449.073C389.859 447.012 362.739 438.814 338.354 425.062C313.969 411.31 292.92 392.345 276.711 369.519L344.148 321.63C353.308 334.529 365.203 345.246 378.983 353.017C392.763 360.788 408.088 365.421 423.865 366.585C439.643 367.75 455.482 365.416 470.254 359.752C485.025 354.088 498.364 345.233 509.318 333.818L568.995 391.087Z" fill="#8A43FF"/>
<path d="M276.777 369.61C261.138 347.615 250.359 322.544 245.157 296.062C239.955 269.581 240.449 242.295 246.605 216.019C252.762 189.742 264.44 165.077 280.864 143.662C297.288 122.248 318.082 104.574 341.864 91.8148L380.966 164.699C367.527 171.909 355.777 181.897 346.496 193.998C337.214 206.1 330.615 220.038 327.136 234.887C323.657 249.735 323.378 265.155 326.318 280.119C329.257 295.084 335.348 309.252 344.186 321.681L276.777 369.61Z" fill="#74B1F9"/>
<path d="M341.889 91.8002C376.991 72.9749 417.117 65.6457 456.607 70.8464L445.808 152.85C423.492 149.911 400.816 154.053 380.98 164.691L341.889 91.8002Z" fill="#61FFEC"/>
<path d="M456.564 70.841C469.703 72.5683 482.626 75.6644 495.122 80.0787L467.572 158.067C460.511 155.573 453.208 153.823 445.783 152.847L456.564 70.841Z" fill="white"/>
<path d="M687.35 218.627H683.553L683.578 216.198H687.35C688.448 216.198 689.368 215.958 690.108 215.478C690.857 214.997 691.419 214.31 691.793 213.415C692.175 212.519 692.367 211.453 692.367 210.216V209.252C692.367 208.292 692.257 207.441 692.037 206.701C691.826 205.96 691.508 205.338 691.085 204.833C690.67 204.328 690.157 203.946 689.547 203.686C688.945 203.425 688.249 203.295 687.459 203.295H683.48V200.854H687.459C688.639 200.854 689.718 201.053 690.694 201.452C691.671 201.842 692.513 202.408 693.221 203.148C693.937 203.889 694.487 204.776 694.869 205.81C695.252 206.843 695.443 207.999 695.443 209.276V210.216C695.443 211.494 695.252 212.65 694.869 213.683C694.487 214.717 693.937 215.604 693.221 216.344C692.505 217.077 691.651 217.642 690.658 218.041C689.673 218.432 688.57 218.627 687.35 218.627ZM685.25 200.854V218.627H682.186V200.854H685.25ZM704.049 218.871C703.072 218.871 702.189 218.712 701.4 218.395C700.619 218.069 699.951 217.618 699.398 217.04C698.853 216.462 698.434 215.783 698.141 215.001C697.848 214.22 697.701 213.378 697.701 212.475V211.986C697.701 210.953 697.852 210.017 698.153 209.179C698.454 208.34 698.873 207.624 699.41 207.03C699.947 206.428 700.582 205.968 701.314 205.651C702.047 205.333 702.84 205.175 703.695 205.175C704.639 205.175 705.465 205.333 706.173 205.651C706.881 205.968 707.467 206.416 707.931 206.994C708.403 207.563 708.753 208.243 708.98 209.032C709.216 209.822 709.334 210.692 709.334 211.645V212.902H699.129V210.79H706.429V210.558C706.413 210.029 706.307 209.533 706.112 209.069C705.925 208.605 705.636 208.231 705.245 207.946C704.854 207.661 704.334 207.519 703.683 207.519C703.194 207.519 702.759 207.624 702.376 207.836C702.002 208.039 701.689 208.336 701.437 208.727C701.184 209.118 700.989 209.59 700.851 210.143C700.72 210.688 700.655 211.303 700.655 211.986V212.475C700.655 213.052 700.733 213.59 700.887 214.086C701.05 214.574 701.286 215.001 701.595 215.368C701.904 215.734 702.279 216.023 702.718 216.234C703.158 216.438 703.658 216.54 704.22 216.54C704.928 216.54 705.558 216.397 706.112 216.112C706.665 215.827 707.145 215.425 707.552 214.904L709.103 216.405C708.818 216.82 708.447 217.219 707.992 217.602C707.536 217.976 706.979 218.281 706.319 218.517C705.668 218.753 704.911 218.871 704.049 218.871ZM715.755 216.295L718.99 205.419H722.042L717.452 218.627H715.548L715.755 216.295ZM713.277 205.419L716.573 216.344L716.732 218.627H714.828L710.213 205.419H713.277ZM729.513 218.871C728.536 218.871 727.653 218.712 726.864 218.395C726.083 218.069 725.415 217.618 724.862 217.04C724.317 216.462 723.897 215.783 723.604 215.001C723.312 214.22 723.165 213.378 723.165 212.475V211.986C723.165 210.953 723.316 210.017 723.617 209.179C723.918 208.34 724.337 207.624 724.874 207.03C725.411 206.428 726.046 205.968 726.778 205.651C727.511 205.333 728.304 205.175 729.159 205.175C730.103 205.175 730.929 205.333 731.637 205.651C732.345 205.968 732.931 206.416 733.395 206.994C733.867 207.563 734.216 208.243 734.444 209.032C734.68 209.822 734.798 210.692 734.798 211.645V212.902H724.593V210.79H731.893V210.558C731.877 210.029 731.771 209.533 731.576 209.069C731.389 208.605 731.1 208.231 730.709 207.946C730.318 207.661 729.798 207.519 729.146 207.519C728.658 207.519 728.223 207.624 727.84 207.836C727.466 208.039 727.153 208.336 726.9 208.727C726.648 209.118 726.453 209.59 726.314 210.143C726.184 210.688 726.119 211.303 726.119 211.986V212.475C726.119 213.052 726.196 213.59 726.351 214.086C726.514 214.574 726.75 215.001 727.059 215.368C727.368 215.734 727.743 216.023 728.182 216.234C728.622 216.438 729.122 216.54 729.684 216.54C730.392 216.54 731.022 216.397 731.576 216.112C732.129 215.827 732.609 215.425 733.016 214.904L734.566 216.405C734.282 216.82 733.911 217.219 733.456 217.602C733 217.976 732.442 218.281 731.783 218.517C731.132 218.753 730.375 218.871 729.513 218.871ZM740.243 199.877V218.627H737.289V199.877H740.243ZM742.904 212.169V211.889C742.904 210.937 743.042 210.054 743.319 209.24C743.596 208.418 743.994 207.706 744.515 207.104C745.044 206.493 745.687 206.021 746.444 205.688C747.209 205.346 748.071 205.175 749.032 205.175C750 205.175 750.863 205.346 751.62 205.688C752.385 206.021 753.032 206.493 753.561 207.104C754.09 207.706 754.492 208.418 754.769 209.24C755.046 210.054 755.184 210.937 755.184 211.889V212.169C755.184 213.122 755.046 214.005 754.769 214.818C754.492 215.632 754.09 216.344 753.561 216.955C753.032 217.557 752.389 218.029 751.632 218.371C750.875 218.704 750.016 218.871 749.056 218.871C748.088 218.871 747.221 218.704 746.456 218.371C745.699 218.029 745.056 217.557 744.527 216.955C743.998 216.344 743.596 215.632 743.319 214.818C743.042 214.005 742.904 213.122 742.904 212.169ZM745.846 211.889V212.169C745.846 212.764 745.907 213.325 746.029 213.854C746.151 214.383 746.342 214.847 746.603 215.246C746.863 215.644 747.197 215.958 747.604 216.186C748.01 216.413 748.495 216.527 749.056 216.527C749.601 216.527 750.073 216.413 750.472 216.186C750.879 215.958 751.213 215.644 751.473 215.246C751.734 214.847 751.925 214.383 752.047 213.854C752.177 213.325 752.242 212.764 752.242 212.169V211.889C752.242 211.303 752.177 210.749 752.047 210.229C751.925 209.7 751.729 209.232 751.461 208.825C751.201 208.418 750.867 208.1 750.46 207.873C750.061 207.637 749.585 207.519 749.032 207.519C748.478 207.519 747.998 207.637 747.591 207.873C747.193 208.1 746.863 208.418 746.603 208.825C746.342 209.232 746.151 209.7 746.029 210.229C745.907 210.749 745.846 211.303 745.846 211.889ZM760.604 207.958V223.705H757.662V205.419H760.372L760.604 207.958ZM769.21 211.901V212.157C769.21 213.118 769.096 214.009 768.868 214.831C768.648 215.644 768.319 216.356 767.879 216.967C767.448 217.569 766.915 218.037 766.28 218.371C765.646 218.704 764.913 218.871 764.083 218.871C763.261 218.871 762.541 218.721 761.922 218.419C761.312 218.11 760.795 217.675 760.372 217.113C759.949 216.552 759.607 215.893 759.347 215.136C759.094 214.371 758.915 213.533 758.81 212.621V211.632C758.915 210.664 759.094 209.785 759.347 208.996C759.607 208.206 759.949 207.527 760.372 206.957C760.795 206.387 761.312 205.948 761.922 205.639C762.533 205.329 763.245 205.175 764.059 205.175C764.889 205.175 765.625 205.338 766.268 205.663C766.911 205.98 767.452 206.436 767.892 207.03C768.331 207.616 768.661 208.324 768.88 209.154C769.1 209.976 769.21 210.892 769.21 211.901ZM766.268 212.157V211.901C766.268 211.291 766.211 210.725 766.097 210.204C765.983 209.675 765.804 209.211 765.56 208.812C765.316 208.414 765.003 208.104 764.62 207.885C764.246 207.657 763.794 207.543 763.265 207.543C762.744 207.543 762.297 207.632 761.922 207.812C761.548 207.982 761.235 208.222 760.982 208.532C760.73 208.841 760.535 209.203 760.396 209.618C760.258 210.025 760.16 210.469 760.104 210.949V213.317C760.201 213.903 760.368 214.44 760.604 214.928C760.84 215.417 761.174 215.807 761.605 216.1C762.044 216.385 762.606 216.527 763.29 216.527C763.819 216.527 764.27 216.413 764.645 216.186C765.019 215.958 765.324 215.644 765.56 215.246C765.804 214.839 765.983 214.371 766.097 213.842C766.211 213.313 766.268 212.751 766.268 212.157ZM774.654 208.104V218.627H771.712V205.419H774.483L774.654 208.104ZM774.178 211.535L773.177 211.522C773.177 210.611 773.291 209.769 773.519 208.996C773.747 208.222 774.081 207.551 774.52 206.981C774.959 206.404 775.505 205.96 776.156 205.651C776.815 205.333 777.576 205.175 778.438 205.175C779.041 205.175 779.59 205.264 780.086 205.443C780.591 205.614 781.026 205.887 781.393 206.261C781.767 206.636 782.052 207.116 782.247 207.702C782.451 208.288 782.552 208.996 782.552 209.826V218.627H779.61V210.082C779.61 209.439 779.513 208.935 779.317 208.568C779.13 208.202 778.858 207.942 778.5 207.787C778.15 207.624 777.73 207.543 777.242 207.543C776.689 207.543 776.217 207.649 775.826 207.86C775.444 208.072 775.13 208.361 774.886 208.727C774.642 209.093 774.463 209.516 774.349 209.997C774.235 210.477 774.178 210.989 774.178 211.535ZM782.369 210.753L780.99 211.059C780.99 210.261 781.1 209.508 781.319 208.8C781.547 208.084 781.877 207.458 782.308 206.92C782.748 206.375 783.289 205.948 783.932 205.639C784.575 205.329 785.311 205.175 786.141 205.175C786.817 205.175 787.419 205.268 787.948 205.456C788.485 205.635 788.941 205.919 789.315 206.31C789.689 206.701 789.974 207.209 790.169 207.836C790.365 208.454 790.462 209.203 790.462 210.082V218.627H787.508V210.07C787.508 209.403 787.411 208.886 787.215 208.52C787.028 208.153 786.76 207.901 786.41 207.763C786.06 207.616 785.641 207.543 785.152 207.543C784.697 207.543 784.294 207.628 783.944 207.799C783.602 207.962 783.313 208.194 783.077 208.495C782.841 208.788 782.662 209.126 782.54 209.508C782.426 209.891 782.369 210.306 782.369 210.753ZM799.312 218.871C798.336 218.871 797.453 218.712 796.664 218.395C795.882 218.069 795.215 217.618 794.662 217.04C794.116 216.462 793.697 215.783 793.404 215.001C793.111 214.22 792.965 213.378 792.965 212.475V211.986C792.965 210.953 793.115 210.017 793.417 209.179C793.718 208.34 794.137 207.624 794.674 207.03C795.211 206.428 795.846 205.968 796.578 205.651C797.311 205.333 798.104 205.175 798.958 205.175C799.903 205.175 800.729 205.333 801.437 205.651C802.145 205.968 802.73 206.416 803.194 206.994C803.666 207.563 804.016 208.243 804.244 209.032C804.48 209.822 804.598 210.692 804.598 211.645V212.902H794.393V210.79H801.693V210.558C801.677 210.029 801.571 209.533 801.375 209.069C801.188 208.605 800.899 208.231 800.509 207.946C800.118 207.661 799.597 207.519 798.946 207.519C798.458 207.519 798.023 207.624 797.64 207.836C797.266 208.039 796.952 208.336 796.7 208.727C796.448 209.118 796.253 209.59 796.114 210.143C795.984 210.688 795.919 211.303 795.919 211.986V212.475C795.919 213.052 795.996 213.59 796.151 214.086C796.314 214.574 796.55 215.001 796.859 215.368C797.168 215.734 797.542 216.023 797.982 216.234C798.421 216.438 798.922 216.54 799.483 216.54C800.191 216.54 800.822 216.397 801.375 216.112C801.929 215.827 802.409 215.425 802.816 214.904L804.366 216.405C804.081 216.82 803.711 217.219 803.255 217.602C802.8 217.976 802.242 218.281 801.583 218.517C800.932 218.753 800.175 218.871 799.312 218.871ZM809.811 208.239V218.627H806.869V205.419H809.64L809.811 208.239ZM809.286 211.535L808.333 211.522C808.342 210.587 808.472 209.728 808.724 208.947C808.985 208.166 809.343 207.494 809.798 206.933C810.262 206.371 810.816 205.94 811.458 205.639C812.101 205.329 812.818 205.175 813.607 205.175C814.242 205.175 814.815 205.264 815.328 205.443C815.849 205.614 816.292 205.895 816.659 206.286C817.033 206.676 817.318 207.185 817.513 207.812C817.708 208.43 817.806 209.191 817.806 210.094V218.627H814.852V210.082C814.852 209.447 814.758 208.947 814.571 208.581C814.392 208.206 814.128 207.942 813.778 207.787C813.436 207.624 813.009 207.543 812.496 207.543C811.992 207.543 811.54 207.649 811.141 207.86C810.742 208.072 810.405 208.361 810.128 208.727C809.859 209.093 809.652 209.516 809.505 209.997C809.359 210.477 809.286 210.989 809.286 211.535ZM826.864 205.419V207.567H819.417V205.419H826.864ZM821.566 202.184H824.508V214.977C824.508 215.384 824.565 215.697 824.679 215.917C824.801 216.129 824.968 216.271 825.179 216.344C825.391 216.417 825.639 216.454 825.924 216.454C826.127 216.454 826.323 216.442 826.51 216.417C826.697 216.393 826.847 216.369 826.961 216.344L826.974 218.59C826.729 218.664 826.445 218.729 826.119 218.786C825.802 218.843 825.436 218.871 825.021 218.871C824.345 218.871 823.747 218.753 823.226 218.517C822.705 218.273 822.298 217.878 822.005 217.333C821.712 216.788 821.566 216.063 821.566 215.16V202.184Z" fill="white"/>
<path d="M201.259 448.854V466.627H198.219V448.854H201.259ZM206.837 448.854V451.295H192.689V448.854H206.837ZM213.539 466.871C212.562 466.871 211.68 466.712 210.89 466.395C210.109 466.069 209.442 465.618 208.888 465.04C208.343 464.462 207.924 463.783 207.631 463.001C207.338 462.22 207.191 461.378 207.191 460.475V459.986C207.191 458.953 207.342 458.017 207.643 457.179C207.944 456.34 208.363 455.624 208.9 455.03C209.438 454.428 210.072 453.968 210.805 453.651C211.537 453.333 212.331 453.175 213.185 453.175C214.129 453.175 214.955 453.333 215.663 453.651C216.371 453.968 216.957 454.416 217.421 454.994C217.893 455.563 218.243 456.243 218.471 457.032C218.707 457.822 218.825 458.692 218.825 459.645V460.902H208.62V458.79H215.919V458.558C215.903 458.029 215.797 457.533 215.602 457.069C215.415 456.605 215.126 456.231 214.735 455.946C214.345 455.661 213.824 455.519 213.173 455.519C212.685 455.519 212.249 455.624 211.867 455.836C211.492 456.039 211.179 456.336 210.927 456.727C210.674 457.118 210.479 457.59 210.341 458.143C210.211 458.688 210.146 459.303 210.146 459.986V460.475C210.146 461.052 210.223 461.59 210.377 462.086C210.54 462.574 210.776 463.001 211.085 463.368C211.395 463.734 211.769 464.023 212.208 464.234C212.648 464.438 213.148 464.54 213.71 464.54C214.418 464.54 215.049 464.397 215.602 464.112C216.155 463.827 216.636 463.425 217.042 462.904L218.593 464.405C218.308 464.82 217.938 465.219 217.482 465.602C217.026 465.976 216.469 466.281 215.81 466.517C215.159 466.753 214.402 466.871 213.539 466.871ZM228.566 463.978V457.679C228.566 457.207 228.48 456.8 228.31 456.458C228.139 456.117 227.878 455.852 227.528 455.665C227.187 455.478 226.755 455.384 226.234 455.384C225.754 455.384 225.339 455.466 224.989 455.628C224.639 455.791 224.367 456.011 224.171 456.288C223.976 456.564 223.878 456.878 223.878 457.228H220.949C220.949 456.707 221.075 456.202 221.327 455.714C221.579 455.226 221.946 454.79 222.426 454.408C222.906 454.025 223.48 453.724 224.147 453.504C224.814 453.285 225.563 453.175 226.393 453.175C227.386 453.175 228.265 453.342 229.03 453.675C229.803 454.009 230.409 454.514 230.849 455.189C231.296 455.856 231.52 456.694 231.52 457.704V463.575C231.52 464.177 231.561 464.719 231.642 465.199C231.732 465.671 231.858 466.082 232.021 466.432V466.627H229.005C228.867 466.31 228.757 465.907 228.676 465.418C228.603 464.922 228.566 464.442 228.566 463.978ZM228.993 458.595L229.018 460.414H226.906C226.361 460.414 225.88 460.466 225.465 460.572C225.05 460.67 224.704 460.816 224.428 461.012C224.151 461.207 223.944 461.443 223.805 461.72C223.667 461.996 223.598 462.31 223.598 462.66C223.598 463.01 223.679 463.331 223.842 463.624C224.005 463.909 224.241 464.133 224.55 464.295C224.867 464.458 225.25 464.54 225.697 464.54C226.299 464.54 226.824 464.417 227.272 464.173C227.728 463.921 228.086 463.616 228.346 463.258C228.607 462.892 228.745 462.546 228.761 462.22L229.713 463.526C229.616 463.86 229.449 464.218 229.213 464.601C228.977 464.983 228.668 465.349 228.285 465.699C227.911 466.041 227.459 466.322 226.93 466.542C226.409 466.761 225.807 466.871 225.124 466.871C224.261 466.871 223.492 466.7 222.816 466.358C222.141 466.008 221.612 465.541 221.229 464.955C220.847 464.361 220.656 463.689 220.656 462.94C220.656 462.241 220.786 461.622 221.046 461.085C221.315 460.54 221.706 460.084 222.218 459.718C222.739 459.352 223.374 459.075 224.123 458.888C224.871 458.692 225.726 458.595 226.686 458.595H228.993ZM237.538 456.104V466.627H234.596V453.419H237.367L237.538 456.104ZM237.062 459.535L236.061 459.522C236.061 458.611 236.175 457.769 236.403 456.996C236.631 456.222 236.964 455.551 237.404 454.981C237.843 454.404 238.389 453.96 239.04 453.651C239.699 453.333 240.46 453.175 241.322 453.175C241.924 453.175 242.474 453.264 242.97 453.443C243.475 453.614 243.91 453.887 244.276 454.261C244.651 454.636 244.936 455.116 245.131 455.702C245.334 456.288 245.436 456.996 245.436 457.826V466.627H242.494V458.082C242.494 457.439 242.396 456.935 242.201 456.568C242.014 456.202 241.741 455.942 241.383 455.787C241.033 455.624 240.614 455.543 240.126 455.543C239.573 455.543 239.101 455.649 238.71 455.86C238.327 456.072 238.014 456.361 237.77 456.727C237.526 457.093 237.347 457.516 237.233 457.997C237.119 458.477 237.062 458.989 237.062 459.535ZM245.253 458.753L243.874 459.059C243.874 458.261 243.983 457.508 244.203 456.8C244.431 456.084 244.761 455.458 245.192 454.92C245.631 454.375 246.173 453.948 246.815 453.639C247.458 453.329 248.195 453.175 249.025 453.175C249.7 453.175 250.303 453.268 250.832 453.456C251.369 453.635 251.824 453.919 252.199 454.31C252.573 454.701 252.858 455.209 253.053 455.836C253.249 456.454 253.346 457.203 253.346 458.082V466.627H250.392V458.07C250.392 457.403 250.294 456.886 250.099 456.52C249.912 456.153 249.643 455.901 249.293 455.763C248.944 455.616 248.524 455.543 248.036 455.543C247.58 455.543 247.178 455.628 246.828 455.799C246.486 455.962 246.197 456.194 245.961 456.495C245.725 456.788 245.546 457.126 245.424 457.508C245.31 457.891 245.253 458.306 245.253 458.753Z" fill="white"/>
<path d="M3.35742 200.854H6.0918L11.231 214.562L16.3579 200.854H19.0923L12.3052 218.627H10.1323L3.35742 200.854ZM2.1123 200.854H4.7124L5.16406 212.719V218.627H2.1123V200.854ZM17.7373 200.854H20.3496V218.627H17.2856V212.719L17.7373 200.854ZM31.1406 215.978V209.679C31.1406 209.207 31.0552 208.8 30.8843 208.458C30.7134 208.117 30.453 207.852 30.103 207.665C29.7612 207.478 29.3299 207.384 28.8091 207.384C28.3289 207.384 27.9139 207.466 27.564 207.628C27.214 207.791 26.9414 208.011 26.7461 208.288C26.5508 208.564 26.4531 208.878 26.4531 209.228H23.5234C23.5234 208.707 23.6496 208.202 23.9019 207.714C24.1541 207.226 24.5203 206.79 25.0005 206.408C25.4806 206.025 26.0544 205.724 26.7217 205.504C27.389 205.285 28.1377 205.175 28.9678 205.175C29.9606 205.175 30.8395 205.342 31.6045 205.675C32.3776 206.009 32.9839 206.514 33.4233 207.189C33.8709 207.856 34.0947 208.694 34.0947 209.704V215.575C34.0947 216.177 34.1354 216.719 34.2168 217.199C34.3063 217.671 34.4325 218.082 34.5952 218.432V218.627H31.5801C31.4417 218.31 31.3319 217.907 31.2505 217.418C31.1772 216.922 31.1406 216.442 31.1406 215.978ZM31.5679 210.595L31.5923 212.414H29.4805C28.9352 212.414 28.4551 212.466 28.04 212.572C27.625 212.67 27.2791 212.816 27.0024 213.012C26.7257 213.207 26.5182 213.443 26.3799 213.72C26.2415 213.996 26.1724 214.31 26.1724 214.66C26.1724 215.01 26.2537 215.331 26.4165 215.624C26.5793 215.909 26.8153 216.133 27.1245 216.295C27.4419 216.458 27.8244 216.54 28.272 216.54C28.8742 216.54 29.3991 216.417 29.8467 216.173C30.3024 215.921 30.6605 215.616 30.9209 215.258C31.1813 214.892 31.3197 214.546 31.3359 214.22L32.2881 215.526C32.1904 215.86 32.0236 216.218 31.7876 216.601C31.5516 216.983 31.2424 217.349 30.8599 217.699C30.4855 218.041 30.0339 218.322 29.5049 218.542C28.984 218.761 28.3818 218.871 27.6982 218.871C26.8356 218.871 26.0666 218.7 25.3911 218.358C24.7157 218.008 24.1867 217.541 23.8042 216.955C23.4217 216.361 23.2305 215.689 23.2305 214.94C23.2305 214.241 23.3607 213.622 23.6211 213.085C23.8896 212.54 24.2803 212.084 24.793 211.718C25.3138 211.352 25.9486 211.075 26.6973 210.888C27.446 210.692 28.3005 210.595 29.2607 210.595H31.5679ZM40.125 207.934V218.627H37.1831V205.419H39.9907L40.125 207.934ZM44.1655 205.333L44.1411 208.068C43.9621 208.035 43.7668 208.011 43.5552 207.995C43.3517 207.978 43.1483 207.97 42.9448 207.97C42.4403 207.97 41.9967 208.043 41.6143 208.19C41.2318 208.328 40.9103 208.532 40.6499 208.8C40.3976 209.061 40.2023 209.378 40.064 209.752C39.9256 210.127 39.8442 210.546 39.8198 211.01L39.1484 211.059C39.1484 210.229 39.2298 209.459 39.3926 208.751C39.5553 208.043 39.7995 207.421 40.125 206.884C40.4587 206.347 40.8737 205.928 41.3701 205.626C41.8747 205.325 42.4565 205.175 43.1157 205.175C43.2948 205.175 43.486 205.191 43.6895 205.224C43.901 205.256 44.0597 205.293 44.1655 205.333ZM48.9751 199.877V218.627H46.021V199.877H48.9751ZM57.1782 205.419L51.4287 211.791L48.2793 215.014L47.5103 212.523L49.8906 209.582L53.626 205.419H57.1782ZM54.2607 218.627L49.9761 212.426L51.8315 210.363L57.6665 218.627H54.2607ZM64.6245 218.871C63.6479 218.871 62.765 218.712 61.9756 218.395C61.1943 218.069 60.527 217.618 59.9736 217.04C59.4284 216.462 59.0093 215.783 58.7163 215.001C58.4233 214.22 58.2769 213.378 58.2769 212.475V211.986C58.2769 210.953 58.4274 210.017 58.7285 209.179C59.0296 208.34 59.4487 207.624 59.9858 207.03C60.5229 206.428 61.1577 205.968 61.8901 205.651C62.6226 205.333 63.416 205.175 64.2705 205.175C65.2145 205.175 66.0405 205.333 66.7485 205.651C67.4565 205.968 68.0425 206.416 68.5063 206.994C68.9784 207.563 69.3283 208.243 69.5562 209.032C69.7922 209.822 69.9102 210.692 69.9102 211.645V212.902H59.7051V210.79H67.0049V210.558C66.9886 210.029 66.8828 209.533 66.6875 209.069C66.5003 208.605 66.2114 208.231 65.8208 207.946C65.4302 207.661 64.9093 207.519 64.2583 207.519C63.77 207.519 63.3346 207.624 62.9521 207.836C62.5778 208.039 62.2645 208.336 62.0122 208.727C61.7599 209.118 61.5646 209.59 61.4263 210.143C61.2961 210.688 61.231 211.303 61.231 211.986V212.475C61.231 213.052 61.3083 213.59 61.4629 214.086C61.6257 214.574 61.8617 215.001 62.1709 215.368C62.4801 215.734 62.8545 216.023 63.2939 216.234C63.7334 216.438 64.2339 216.54 64.7954 216.54C65.5034 216.54 66.1341 216.397 66.6875 216.112C67.2409 215.827 67.721 215.425 68.1279 214.904L69.6782 216.405C69.3934 216.82 69.0231 217.219 68.5674 217.602C68.1117 217.976 67.5542 218.281 66.895 218.517C66.244 218.753 65.4871 218.871 64.6245 218.871ZM78.2598 205.419V207.567H70.8135V205.419H78.2598ZM72.9619 202.184H75.9038V214.977C75.9038 215.384 75.9608 215.697 76.0747 215.917C76.1968 216.129 76.3636 216.271 76.5752 216.344C76.7868 216.417 77.035 216.454 77.3198 216.454C77.5233 216.454 77.7186 216.442 77.9058 216.417C78.0929 216.393 78.2435 216.369 78.3574 216.344L78.3696 218.59C78.1255 218.664 77.8407 218.729 77.5151 218.786C77.1978 218.843 76.8315 218.871 76.4165 218.871C75.741 218.871 75.1429 218.753 74.6221 218.517C74.1012 218.273 73.6943 217.878 73.4014 217.333C73.1084 216.788 72.9619 216.063 72.9619 215.16V202.184ZM83.6797 205.419V218.627H80.7256V205.419H83.6797ZM80.5303 201.952C80.5303 201.505 80.6768 201.134 80.9697 200.841C81.2708 200.54 81.6859 200.39 82.2148 200.39C82.7357 200.39 83.1466 200.54 83.4478 200.841C83.7489 201.134 83.8994 201.505 83.8994 201.952C83.8994 202.392 83.7489 202.758 83.4478 203.051C83.1466 203.344 82.7357 203.49 82.2148 203.49C81.6859 203.49 81.2708 203.344 80.9697 203.051C80.6768 202.758 80.5303 202.392 80.5303 201.952ZM89.8198 208.239V218.627H86.8779V205.419H89.6489L89.8198 208.239ZM89.2949 211.535L88.3428 211.522C88.3509 210.587 88.4811 209.728 88.7334 208.947C88.9938 208.166 89.3519 207.494 89.8076 206.933C90.2715 206.371 90.8249 205.94 91.4678 205.639C92.1107 205.329 92.8268 205.175 93.6162 205.175C94.251 205.175 94.8247 205.264 95.3374 205.443C95.8582 205.614 96.3018 205.895 96.668 206.286C97.0423 206.676 97.3271 207.185 97.5225 207.812C97.7178 208.43 97.8154 209.191 97.8154 210.094V218.627H94.8613V210.082C94.8613 209.447 94.7677 208.947 94.5806 208.581C94.4015 208.206 94.137 207.942 93.7871 207.787C93.4453 207.624 93.0181 207.543 92.5054 207.543C92.0008 207.543 91.5492 207.649 91.1504 207.86C90.7516 208.072 90.4139 208.361 90.1372 208.727C89.8687 209.093 89.6611 209.516 89.5146 209.997C89.3682 210.477 89.2949 210.989 89.2949 211.535ZM109.278 205.419H111.951V218.261C111.951 219.449 111.699 220.458 111.194 221.288C110.69 222.118 109.986 222.749 109.083 223.18C108.179 223.62 107.133 223.839 105.945 223.839C105.441 223.839 104.879 223.766 104.261 223.62C103.65 223.473 103.056 223.237 102.479 222.912C101.909 222.594 101.433 222.175 101.05 221.654L102.43 219.921C102.902 220.482 103.423 220.893 103.992 221.154C104.562 221.414 105.16 221.544 105.787 221.544C106.462 221.544 107.036 221.418 107.508 221.166C107.988 220.922 108.358 220.56 108.619 220.08C108.879 219.599 109.009 219.014 109.009 218.322V208.41L109.278 205.419ZM100.306 212.169V211.913C100.306 210.912 100.428 210.001 100.672 209.179C100.916 208.349 101.266 207.637 101.722 207.042C102.177 206.44 102.731 205.98 103.382 205.663C104.033 205.338 104.769 205.175 105.591 205.175C106.446 205.175 107.174 205.329 107.776 205.639C108.387 205.948 108.895 206.391 109.302 206.969C109.709 207.539 110.027 208.222 110.254 209.02C110.49 209.809 110.665 210.688 110.779 211.657V212.475C110.674 213.419 110.494 214.281 110.242 215.062C109.99 215.844 109.656 216.519 109.241 217.089C108.826 217.659 108.313 218.098 107.703 218.407C107.101 218.716 106.389 218.871 105.567 218.871C104.761 218.871 104.033 218.704 103.382 218.371C102.739 218.037 102.186 217.569 101.722 216.967C101.266 216.365 100.916 215.657 100.672 214.843C100.428 214.021 100.306 213.13 100.306 212.169ZM103.248 211.913V212.169C103.248 212.772 103.305 213.333 103.418 213.854C103.541 214.375 103.724 214.835 103.968 215.233C104.22 215.624 104.537 215.933 104.92 216.161C105.311 216.381 105.77 216.491 106.299 216.491C106.991 216.491 107.557 216.344 107.996 216.051C108.444 215.758 108.785 215.364 109.021 214.867C109.266 214.363 109.437 213.801 109.534 213.183V210.973C109.485 210.493 109.384 210.045 109.229 209.63C109.083 209.215 108.883 208.853 108.631 208.544C108.379 208.227 108.061 207.982 107.679 207.812C107.296 207.632 106.845 207.543 106.324 207.543C105.795 207.543 105.335 207.657 104.944 207.885C104.554 208.113 104.232 208.426 103.98 208.825C103.736 209.223 103.553 209.687 103.431 210.216C103.309 210.745 103.248 211.311 103.248 211.913ZM124.268 208.959L127.332 206.896C127.845 206.554 128.211 206.221 128.431 205.895C128.65 205.561 128.76 205.146 128.76 204.65C128.76 204.227 128.597 203.836 128.272 203.478C127.946 203.12 127.487 202.941 126.893 202.941C126.478 202.941 126.128 203.039 125.843 203.234C125.558 203.421 125.342 203.673 125.196 203.991C125.057 204.3 124.988 204.646 124.988 205.028C124.988 205.395 125.082 205.773 125.269 206.164C125.456 206.546 125.713 206.949 126.038 207.372C126.364 207.787 126.73 208.235 127.137 208.715L135.535 218.627H132.129L125.269 210.558C124.675 209.842 124.15 209.187 123.694 208.593C123.239 207.991 122.885 207.409 122.632 206.847C122.38 206.278 122.254 205.692 122.254 205.089C122.254 204.162 122.445 203.364 122.828 202.697C123.21 202.029 123.751 201.517 124.451 201.159C125.151 200.792 125.969 200.609 126.905 200.609C127.808 200.609 128.585 200.792 129.236 201.159C129.896 201.517 130.4 201.993 130.75 202.587C131.108 203.181 131.287 203.832 131.287 204.54C131.287 205.102 131.185 205.614 130.982 206.078C130.778 206.542 130.498 206.965 130.14 207.348C129.782 207.73 129.367 208.092 128.895 208.434L125.171 211.144C124.74 211.494 124.419 211.832 124.207 212.157C124.004 212.475 123.869 212.768 123.804 213.036C123.739 213.305 123.707 213.541 123.707 213.744C123.707 214.265 123.816 214.737 124.036 215.16C124.264 215.583 124.594 215.921 125.025 216.173C125.464 216.417 125.997 216.54 126.624 216.54C127.299 216.54 127.955 216.389 128.589 216.088C129.224 215.779 129.794 215.343 130.298 214.782C130.803 214.22 131.202 213.549 131.495 212.768C131.796 211.986 131.946 211.12 131.946 210.167H134.485C134.485 211.03 134.4 211.848 134.229 212.621C134.066 213.394 133.802 214.11 133.436 214.77C133.077 215.429 132.605 216.019 132.02 216.54C131.963 216.597 131.897 216.67 131.824 216.759C131.759 216.841 131.694 216.91 131.629 216.967C130.929 217.61 130.144 218.09 129.273 218.407C128.41 218.716 127.491 218.871 126.514 218.871C125.334 218.871 124.313 218.655 123.45 218.224C122.588 217.793 121.92 217.199 121.448 216.442C120.984 215.685 120.752 214.818 120.752 213.842C120.752 213.118 120.903 212.483 121.204 211.938C121.505 211.384 121.916 210.871 122.437 210.399C122.966 209.919 123.576 209.439 124.268 208.959ZM150.538 211.999H145.911V209.569H150.538C151.343 209.569 151.994 209.439 152.491 209.179C152.987 208.918 153.349 208.56 153.577 208.104C153.813 207.641 153.931 207.112 153.931 206.518C153.931 205.956 153.813 205.431 153.577 204.943C153.349 204.446 152.987 204.048 152.491 203.747C151.994 203.445 151.343 203.295 150.538 203.295H146.851V218.627H143.787V200.854H150.538C151.913 200.854 153.081 201.098 154.041 201.586C155.009 202.066 155.746 202.733 156.25 203.588C156.755 204.434 157.007 205.403 157.007 206.493C157.007 207.641 156.755 208.625 156.25 209.447C155.746 210.269 155.009 210.9 154.041 211.339C153.081 211.779 151.913 211.999 150.538 211.999ZM159.754 200.854H166.041C167.391 200.854 168.543 201.057 169.495 201.464C170.447 201.871 171.176 202.473 171.68 203.271C172.193 204.06 172.449 205.036 172.449 206.2C172.449 207.087 172.286 207.868 171.961 208.544C171.635 209.219 171.176 209.789 170.582 210.253C169.987 210.709 169.279 211.063 168.458 211.315L167.53 211.767H161.878L161.854 209.337H166.089C166.822 209.337 167.432 209.207 167.92 208.947C168.409 208.686 168.775 208.332 169.019 207.885C169.271 207.429 169.397 206.916 169.397 206.347C169.397 205.728 169.275 205.191 169.031 204.735C168.795 204.271 168.429 203.917 167.933 203.673C167.436 203.421 166.806 203.295 166.041 203.295H162.818V218.627H159.754V200.854ZM169.898 218.627L165.723 210.644L168.934 210.631L173.169 218.468V218.627H169.898Z" fill="white"/>
<path d="M205.971 30.1978V32.627H197.047V30.1978H205.971ZM197.902 14.8535V32.627H194.838V14.8535H197.902ZM213.869 32.8711C212.892 32.8711 212.009 32.7124 211.22 32.395C210.438 32.0695 209.771 31.6178 209.218 31.04C208.673 30.4622 208.253 29.7827 207.96 29.0015C207.667 28.2202 207.521 27.3779 207.521 26.4746V25.9863C207.521 24.9528 207.672 24.0169 207.973 23.1787C208.274 22.3405 208.693 21.6243 209.23 21.0303C209.767 20.4281 210.402 19.9683 211.134 19.6509C211.867 19.3335 212.66 19.1748 213.515 19.1748C214.459 19.1748 215.285 19.3335 215.993 19.6509C216.701 19.9683 217.287 20.4159 217.75 20.9937C218.222 21.5633 218.572 22.2428 218.8 23.0322C219.036 23.8216 219.154 24.6924 219.154 25.6445V26.9019H208.949V24.79H216.249V24.5581C216.233 24.0291 216.127 23.5327 215.932 23.0688C215.744 22.605 215.456 22.2306 215.065 21.9458C214.674 21.661 214.153 21.5186 213.502 21.5186C213.014 21.5186 212.579 21.6243 212.196 21.8359C211.822 22.0394 211.509 22.3364 211.256 22.7271C211.004 23.1177 210.809 23.5897 210.67 24.1431C210.54 24.6883 210.475 25.3027 210.475 25.9863V26.4746C210.475 27.0524 210.552 27.5895 210.707 28.0859C210.87 28.5742 211.106 29.0015 211.415 29.3677C211.724 29.7339 212.099 30.0228 212.538 30.2344C212.978 30.4378 213.478 30.5396 214.04 30.5396C214.748 30.5396 215.378 30.3971 215.932 30.1123C216.485 29.8275 216.965 29.4246 217.372 28.9038L218.922 30.4053C218.638 30.8203 218.267 31.2191 217.812 31.6016C217.356 31.9759 216.798 32.2811 216.139 32.5171C215.488 32.7531 214.731 32.8711 213.869 32.8711ZM229.909 19.4189H232.582V32.2607C232.582 33.4489 232.33 34.458 231.825 35.2881C231.321 36.1182 230.617 36.7489 229.713 37.1802C228.81 37.6196 227.764 37.8394 226.576 37.8394C226.072 37.8394 225.51 37.7661 224.892 37.6196C224.281 37.4731 223.687 37.2371 223.109 36.9116C222.54 36.5942 222.064 36.1751 221.681 35.6543L223.061 33.9209C223.533 34.4824 224.053 34.8934 224.623 35.1538C225.193 35.4142 225.791 35.5444 226.417 35.5444C227.093 35.5444 227.667 35.4183 228.139 35.166C228.619 34.9219 228.989 34.5597 229.25 34.0796C229.51 33.5994 229.64 33.0135 229.64 32.3218V22.4097L229.909 19.4189ZM220.937 26.1694V25.9131C220.937 24.9121 221.059 24.0007 221.303 23.1787C221.547 22.3486 221.897 21.6366 222.353 21.0425C222.808 20.4403 223.362 19.9805 224.013 19.6631C224.664 19.3376 225.4 19.1748 226.222 19.1748C227.077 19.1748 227.805 19.3294 228.407 19.6387C229.018 19.9479 229.526 20.3914 229.933 20.9692C230.34 21.5389 230.657 22.2225 230.885 23.02C231.121 23.8094 231.296 24.6883 231.41 25.6567V26.4746C231.304 27.4186 231.125 28.2812 230.873 29.0625C230.621 29.8438 230.287 30.5192 229.872 31.0889C229.457 31.6585 228.944 32.098 228.334 32.4072C227.732 32.7165 227.02 32.8711 226.198 32.8711C225.392 32.8711 224.664 32.7043 224.013 32.3706C223.37 32.0369 222.816 31.569 222.353 30.9668C221.897 30.3646 221.547 29.6566 221.303 28.8428C221.059 28.0208 220.937 27.1297 220.937 26.1694ZM223.878 25.9131V26.1694C223.878 26.7716 223.935 27.3332 224.049 27.854C224.171 28.3748 224.354 28.8346 224.599 29.2334C224.851 29.624 225.168 29.9333 225.551 30.1611C225.941 30.3809 226.401 30.4907 226.93 30.4907C227.622 30.4907 228.188 30.3442 228.627 30.0513C229.075 29.7583 229.416 29.3636 229.652 28.8672C229.896 28.3626 230.067 27.8011 230.165 27.1826V24.9731C230.116 24.493 230.014 24.0454 229.86 23.6304C229.713 23.2153 229.514 22.8532 229.262 22.5439C229.009 22.2266 228.692 21.9824 228.31 21.8115C227.927 21.6325 227.475 21.543 226.955 21.543C226.426 21.543 225.966 21.6569 225.575 21.8848C225.185 22.1126 224.863 22.4259 224.611 22.8247C224.367 23.2235 224.184 23.6873 224.062 24.2163C223.939 24.7453 223.878 25.3109 223.878 25.9131ZM243.08 29.978V23.6792C243.08 23.2072 242.995 22.8003 242.824 22.4585C242.653 22.1167 242.392 21.8522 242.042 21.665C241.701 21.4779 241.269 21.3843 240.749 21.3843C240.268 21.3843 239.853 21.4657 239.503 21.6284C239.153 21.7912 238.881 22.0109 238.686 22.2876C238.49 22.5643 238.393 22.8776 238.393 23.2275H235.463C235.463 22.7067 235.589 22.2021 235.841 21.7139C236.094 21.2256 236.46 20.7902 236.94 20.4077C237.42 20.0252 237.994 19.7241 238.661 19.5044C239.328 19.2847 240.077 19.1748 240.907 19.1748C241.9 19.1748 242.779 19.3416 243.544 19.6753C244.317 20.009 244.923 20.5135 245.363 21.189C245.81 21.8563 246.034 22.6945 246.034 23.7036V29.5752C246.034 30.1774 246.075 30.7186 246.156 31.1987C246.246 31.6707 246.372 32.0817 246.535 32.4316V32.627H243.52C243.381 32.3096 243.271 31.9067 243.19 31.4185C243.117 30.922 243.08 30.4419 243.08 29.978ZM243.507 24.5947L243.532 26.4136H241.42C240.875 26.4136 240.395 26.4665 239.979 26.5723C239.564 26.6699 239.219 26.8164 238.942 27.0117C238.665 27.207 238.458 27.443 238.319 27.7197C238.181 27.9964 238.112 28.3097 238.112 28.6597C238.112 29.0096 238.193 29.3311 238.356 29.624C238.519 29.9089 238.755 30.1326 239.064 30.2954C239.381 30.4582 239.764 30.5396 240.211 30.5396C240.814 30.5396 241.339 30.4175 241.786 30.1733C242.242 29.9211 242.6 29.6159 242.86 29.2578C243.121 28.8916 243.259 28.5457 243.275 28.2202L244.228 29.5264C244.13 29.86 243.963 30.2181 243.727 30.6006C243.491 30.9831 243.182 31.3493 242.799 31.6992C242.425 32.041 241.973 32.3218 241.444 32.5415C240.924 32.7612 240.321 32.8711 239.638 32.8711C238.775 32.8711 238.006 32.7002 237.331 32.3584C236.655 32.0085 236.126 31.5405 235.744 30.9546C235.361 30.3605 235.17 29.6891 235.17 28.9404C235.17 28.2406 235.3 27.6221 235.561 27.085C235.829 26.5397 236.22 26.084 236.732 25.7178C237.253 25.3516 237.888 25.0749 238.637 24.8877C239.385 24.6924 240.24 24.5947 241.2 24.5947H243.507ZM252.26 13.877V32.627H249.306V13.877H252.26Z" fill="white"/>
<path d="M553.101 14.8535V32.627H550.037V14.8535H553.101ZM559.534 22.2388V32.627H556.592V19.4189H559.363L559.534 22.2388ZM559.009 25.5347L558.057 25.5225C558.065 24.5866 558.195 23.728 558.448 22.9468C558.708 22.1655 559.066 21.4941 559.522 20.9326C559.986 20.3711 560.539 19.9398 561.182 19.6387C561.825 19.3294 562.541 19.1748 563.331 19.1748C563.965 19.1748 564.539 19.2643 565.052 19.4434C565.573 19.6143 566.016 19.895 566.382 20.2856C566.757 20.6763 567.042 21.1849 567.237 21.8115C567.432 22.43 567.53 23.1909 567.53 24.0942V32.627H564.576V24.082C564.576 23.4473 564.482 22.9468 564.295 22.5806C564.116 22.2062 563.851 21.9417 563.501 21.7871C563.16 21.6243 562.732 21.543 562.22 21.543C561.715 21.543 561.264 21.6488 560.865 21.8604C560.466 22.0719 560.128 22.3608 559.852 22.7271C559.583 23.0933 559.375 23.5164 559.229 23.9966C559.083 24.4767 559.009 24.9894 559.009 25.5347ZM574.512 32.627H571.57V18.1494C571.57 17.1647 571.753 16.3387 572.12 15.6714C572.494 14.9959 573.027 14.4873 573.719 14.1455C574.41 13.7956 575.228 13.6206 576.172 13.6206C576.465 13.6206 576.754 13.641 577.039 13.6816C577.324 13.7142 577.601 13.7671 577.869 13.8403L577.796 16.1108C577.633 16.0701 577.454 16.0417 577.259 16.0254C577.072 16.0091 576.868 16.001 576.648 16.001C576.201 16.001 575.814 16.0864 575.489 16.2573C575.171 16.4201 574.927 16.6602 574.756 16.9775C574.594 17.2949 574.512 17.6855 574.512 18.1494V32.627ZM577.234 19.4189V21.5674H569.544V19.4189H577.234ZM582.325 21.9336V32.627H579.383V19.4189H582.19L582.325 21.9336ZM586.365 19.3335L586.341 22.0679C586.162 22.0353 585.966 22.0109 585.755 21.9946C585.551 21.9784 585.348 21.9702 585.145 21.9702C584.64 21.9702 584.196 22.0435 583.814 22.1899C583.431 22.3283 583.11 22.5317 582.85 22.8003C582.597 23.0607 582.402 23.3781 582.264 23.7524C582.125 24.1268 582.044 24.5459 582.02 25.0098L581.348 25.0586C581.348 24.2285 581.43 23.4595 581.592 22.7515C581.755 22.0435 581.999 21.4209 582.325 20.8838C582.658 20.3467 583.073 19.9276 583.57 19.6265C584.074 19.3254 584.656 19.1748 585.315 19.1748C585.494 19.1748 585.686 19.1911 585.889 19.2236C586.101 19.2562 586.259 19.2928 586.365 19.3335ZM595.215 29.978V23.6792C595.215 23.2072 595.13 22.8003 594.959 22.4585C594.788 22.1167 594.528 21.8522 594.178 21.665C593.836 21.4779 593.405 21.3843 592.884 21.3843C592.404 21.3843 591.989 21.4657 591.639 21.6284C591.289 21.7912 591.016 22.0109 590.821 22.2876C590.625 22.5643 590.528 22.8776 590.528 23.2275H587.598C587.598 22.7067 587.724 22.2021 587.977 21.7139C588.229 21.2256 588.595 20.7902 589.075 20.4077C589.555 20.0252 590.129 19.7241 590.796 19.5044C591.464 19.2847 592.212 19.1748 593.042 19.1748C594.035 19.1748 594.914 19.3416 595.679 19.6753C596.452 20.009 597.059 20.5135 597.498 21.189C597.946 21.8563 598.169 22.6945 598.169 23.7036V29.5752C598.169 30.1774 598.21 30.7186 598.292 31.1987C598.381 31.6707 598.507 32.0817 598.67 32.4316V32.627H595.655C595.516 32.3096 595.407 31.9067 595.325 31.4185C595.252 30.922 595.215 30.4419 595.215 29.978ZM595.643 24.5947L595.667 26.4136H593.555C593.01 26.4136 592.53 26.4665 592.115 26.5723C591.7 26.6699 591.354 26.8164 591.077 27.0117C590.8 27.207 590.593 27.443 590.455 27.7197C590.316 27.9964 590.247 28.3097 590.247 28.6597C590.247 29.0096 590.328 29.3311 590.491 29.624C590.654 29.9089 590.89 30.1326 591.199 30.2954C591.517 30.4582 591.899 30.5396 592.347 30.5396C592.949 30.5396 593.474 30.4175 593.921 30.1733C594.377 29.9211 594.735 29.6159 594.996 29.2578C595.256 28.8916 595.394 28.5457 595.411 28.2202L596.363 29.5264C596.265 29.86 596.098 30.2181 595.862 30.6006C595.626 30.9831 595.317 31.3493 594.935 31.6992C594.56 32.041 594.109 32.3218 593.58 32.5415C593.059 32.7612 592.457 32.8711 591.773 32.8711C590.91 32.8711 590.141 32.7002 589.466 32.3584C588.79 32.0085 588.261 31.5405 587.879 30.9546C587.496 30.3605 587.305 29.6891 587.305 28.9404C587.305 28.2406 587.435 27.6221 587.696 27.085C587.964 26.5397 588.355 26.084 588.868 25.7178C589.389 25.3516 590.023 25.0749 590.772 24.8877C591.521 24.6924 592.375 24.5947 593.335 24.5947H595.643ZM608.655 29.0503C608.655 28.7573 608.582 28.4928 608.436 28.2568C608.289 28.0127 608.008 27.793 607.593 27.5977C607.186 27.4023 606.584 27.2233 605.787 27.0605C605.087 26.9059 604.444 26.7228 603.858 26.5112C603.28 26.2915 602.784 26.027 602.369 25.7178C601.954 25.4085 601.632 25.0423 601.404 24.6191C601.176 24.196 601.062 23.7077 601.062 23.1543C601.062 22.6172 601.181 22.1086 601.417 21.6284C601.653 21.1483 601.99 20.7251 602.43 20.3589C602.869 19.9927 603.402 19.7038 604.029 19.4922C604.664 19.2806 605.372 19.1748 606.153 19.1748C607.26 19.1748 608.208 19.362 608.997 19.7363C609.795 20.1025 610.405 20.603 610.828 21.2378C611.251 21.8644 611.463 22.5724 611.463 23.3618H608.521C608.521 23.0119 608.431 22.6864 608.252 22.3853C608.082 22.076 607.821 21.8278 607.471 21.6406C607.121 21.4453 606.682 21.3477 606.153 21.3477C605.648 21.3477 605.229 21.429 604.896 21.5918C604.57 21.7464 604.326 21.9499 604.163 22.2021C604.008 22.4544 603.931 22.7311 603.931 23.0322C603.931 23.252 603.972 23.4513 604.053 23.6304C604.143 23.8013 604.289 23.96 604.493 24.1064C604.696 24.2448 604.973 24.375 605.323 24.4971C605.681 24.6191 606.128 24.7371 606.666 24.8511C607.675 25.0627 608.541 25.3353 609.266 25.6689C609.998 25.9945 610.56 26.4176 610.95 26.9385C611.341 27.4512 611.536 28.1022 611.536 28.8916C611.536 29.4775 611.41 30.0146 611.158 30.5029C610.914 30.9831 610.556 31.4022 610.083 31.7603C609.611 32.1102 609.046 32.3828 608.387 32.5781C607.736 32.7734 607.003 32.8711 606.189 32.8711C604.993 32.8711 603.98 32.6595 603.15 32.2363C602.32 31.805 601.689 31.2557 601.258 30.5884C600.835 29.9129 600.623 29.2131 600.623 28.4888H603.467C603.5 29.034 603.65 29.4694 603.919 29.7949C604.196 30.1123 604.537 30.3442 604.944 30.4907C605.359 30.6291 605.787 30.6982 606.226 30.6982C606.755 30.6982 607.199 30.6291 607.557 30.4907C607.915 30.3442 608.187 30.1489 608.375 29.9048C608.562 29.6525 608.655 29.3677 608.655 29.0503ZM620.167 19.4189V21.5674H612.72V19.4189H620.167ZM614.869 16.1841H617.811V28.9771C617.811 29.384 617.868 29.6973 617.981 29.917C618.104 30.1286 618.27 30.271 618.482 30.3442C618.694 30.4175 618.942 30.4541 619.227 30.4541C619.43 30.4541 619.625 30.4419 619.812 30.4175C620 30.3931 620.15 30.3687 620.264 30.3442L620.276 32.5903C620.032 32.6636 619.747 32.7287 619.422 32.7856C619.104 32.8426 618.738 32.8711 618.323 32.8711C617.648 32.8711 617.05 32.7531 616.529 32.5171C616.008 32.2729 615.601 31.8783 615.308 31.333C615.015 30.7878 614.869 30.0635 614.869 29.1602V16.1841ZM625.391 21.9336V32.627H622.449V19.4189H625.257L625.391 21.9336ZM629.432 19.3335L629.407 22.0679C629.228 22.0353 629.033 22.0109 628.821 21.9946C628.618 21.9784 628.414 21.9702 628.211 21.9702C627.706 21.9702 627.263 22.0435 626.88 22.1899C626.498 22.3283 626.176 22.5317 625.916 22.8003C625.664 23.0607 625.468 23.3781 625.33 23.7524C625.192 24.1268 625.11 24.5459 625.086 25.0098L624.415 25.0586C624.415 24.2285 624.496 23.4595 624.659 22.7515C624.821 22.0435 625.066 21.4209 625.391 20.8838C625.725 20.3467 626.14 19.9276 626.636 19.6265C627.141 19.3254 627.723 19.1748 628.382 19.1748C628.561 19.1748 628.752 19.1911 628.956 19.2236C629.167 19.2562 629.326 19.2928 629.432 19.3335ZM639.222 29.5142V19.4189H642.176V32.627H639.393L639.222 29.5142ZM639.637 26.7676L640.625 26.7432C640.625 27.6302 640.528 28.4481 640.333 29.1968C640.137 29.9373 639.836 30.5843 639.429 31.1377C639.022 31.6829 638.501 32.1102 637.867 32.4194C637.232 32.7205 636.471 32.8711 635.584 32.8711C634.941 32.8711 634.351 32.7775 633.814 32.5903C633.277 32.4032 632.813 32.1143 632.422 31.7236C632.04 31.333 631.743 30.8244 631.531 30.1978C631.32 29.5711 631.214 28.8224 631.214 27.9517V19.4189H634.156V27.9761C634.156 28.4562 634.213 28.859 634.327 29.1846C634.441 29.502 634.595 29.7583 634.791 29.9536C634.986 30.1489 635.214 30.2873 635.474 30.3687C635.735 30.45 636.011 30.4907 636.304 30.4907C637.142 30.4907 637.802 30.328 638.282 30.0024C638.77 29.6688 639.116 29.2212 639.319 28.6597C639.531 28.0981 639.637 27.4674 639.637 26.7676ZM650.586 30.5273C651.067 30.5273 651.498 30.4338 651.88 30.2466C652.271 30.0513 652.584 29.7827 652.82 29.4409C653.064 29.0991 653.199 28.7044 653.223 28.2568H655.994C655.978 29.1113 655.726 29.8885 655.237 30.5884C654.749 31.2882 654.102 31.8457 653.296 32.2607C652.491 32.6676 651.6 32.8711 650.623 32.8711C649.614 32.8711 648.735 32.7002 647.986 32.3584C647.238 32.0085 646.615 31.5283 646.119 30.918C645.622 30.3076 645.248 29.6037 644.996 28.8062C644.751 28.0086 644.629 27.1541 644.629 26.2427V25.8154C644.629 24.904 644.751 24.0495 644.996 23.252C645.248 22.4463 645.622 21.7383 646.119 21.1279C646.615 20.5176 647.238 20.0415 647.986 19.6997C648.735 19.3498 649.61 19.1748 650.611 19.1748C651.669 19.1748 652.597 19.3864 653.394 19.8096C654.192 20.2246 654.818 20.8065 655.274 21.5552C655.738 22.2957 655.978 23.1584 655.994 24.1431H653.223C653.199 23.6548 653.077 23.2153 652.857 22.8247C652.645 22.4259 652.344 22.1086 651.954 21.8726C651.571 21.6366 651.111 21.5186 650.574 21.5186C649.98 21.5186 649.488 21.6406 649.097 21.8848C648.707 22.1208 648.401 22.4463 648.182 22.8613C647.962 23.2682 647.803 23.728 647.706 24.2407C647.616 24.7453 647.571 25.2702 647.571 25.8154V26.2427C647.571 26.7879 647.616 27.3169 647.706 27.8296C647.795 28.3423 647.95 28.8021 648.169 29.209C648.397 29.6077 648.707 29.9292 649.097 30.1733C649.488 30.4093 649.984 30.5273 650.586 30.5273ZM664.307 19.4189V21.5674H656.861V19.4189H664.307ZM659.009 16.1841H661.951V28.9771C661.951 29.384 662.008 29.6973 662.122 29.917C662.244 30.1286 662.411 30.271 662.623 30.3442C662.834 30.4175 663.082 30.4541 663.367 30.4541C663.571 30.4541 663.766 30.4419 663.953 30.4175C664.14 30.3931 664.291 30.3687 664.405 30.3442L664.417 32.5903C664.173 32.6636 663.888 32.7287 663.562 32.7856C663.245 32.8426 662.879 32.8711 662.464 32.8711C661.788 32.8711 661.19 32.7531 660.669 32.5171C660.149 32.2729 659.742 31.8783 659.449 31.333C659.156 30.7878 659.009 30.0635 659.009 29.1602V16.1841ZM674.524 29.5142V19.4189H677.479V32.627H674.695L674.524 29.5142ZM674.939 26.7676L675.928 26.7432C675.928 27.6302 675.831 28.4481 675.635 29.1968C675.44 29.9373 675.139 30.5843 674.732 31.1377C674.325 31.6829 673.804 32.1102 673.169 32.4194C672.535 32.7205 671.774 32.8711 670.887 32.8711C670.244 32.8711 669.654 32.7775 669.117 32.5903C668.58 32.4032 668.116 32.1143 667.725 31.7236C667.343 31.333 667.046 30.8244 666.834 30.1978C666.622 29.5711 666.517 28.8224 666.517 27.9517V19.4189H669.458V27.9761C669.458 28.4562 669.515 28.859 669.629 29.1846C669.743 29.502 669.898 29.7583 670.093 29.9536C670.289 30.1489 670.516 30.2873 670.777 30.3687C671.037 30.45 671.314 30.4907 671.607 30.4907C672.445 30.4907 673.104 30.328 673.584 30.0024C674.073 29.6688 674.419 29.2212 674.622 28.6597C674.834 28.0981 674.939 27.4674 674.939 26.7676ZM683.448 21.9336V32.627H680.506V19.4189H683.313L683.448 21.9336ZM687.488 19.3335L687.464 22.0679C687.285 22.0353 687.09 22.0109 686.878 21.9946C686.674 21.9784 686.471 21.9702 686.268 21.9702C685.763 21.9702 685.319 22.0435 684.937 22.1899C684.555 22.3283 684.233 22.5317 683.973 22.8003C683.72 23.0607 683.525 23.3781 683.387 23.7524C683.248 24.1268 683.167 24.5459 683.143 25.0098L682.471 25.0586C682.471 24.2285 682.553 23.4595 682.715 22.7515C682.878 22.0435 683.122 21.4209 683.448 20.8838C683.781 20.3467 684.196 19.9276 684.693 19.6265C685.197 19.3254 685.779 19.1748 686.438 19.1748C686.618 19.1748 686.809 19.1911 687.012 19.2236C687.224 19.2562 687.382 19.2928 687.488 19.3335ZM694.91 32.8711C693.934 32.8711 693.051 32.7124 692.261 32.395C691.48 32.0695 690.813 31.6178 690.259 31.04C689.714 30.4622 689.295 29.7827 689.002 29.0015C688.709 28.2202 688.562 27.3779 688.562 26.4746V25.9863C688.562 24.9528 688.713 24.0169 689.014 23.1787C689.315 22.3405 689.734 21.6243 690.271 21.0303C690.809 20.4281 691.443 19.9683 692.176 19.6509C692.908 19.3335 693.702 19.1748 694.556 19.1748C695.5 19.1748 696.326 19.3335 697.034 19.6509C697.742 19.9683 698.328 20.4159 698.792 20.9937C699.264 21.5633 699.614 22.2428 699.842 23.0322C700.078 23.8216 700.196 24.6924 700.196 25.6445V26.9019H689.991V24.79H697.291V24.5581C697.274 24.0291 697.168 23.5327 696.973 23.0688C696.786 22.605 696.497 22.2306 696.106 21.9458C695.716 21.661 695.195 21.5186 694.544 21.5186C694.056 21.5186 693.62 21.6243 693.238 21.8359C692.863 22.0394 692.55 22.3364 692.298 22.7271C692.046 23.1177 691.85 23.5897 691.712 24.1431C691.582 24.6883 691.517 25.3027 691.517 25.9863V26.4746C691.517 27.0524 691.594 27.5895 691.749 28.0859C691.911 28.5742 692.147 29.0015 692.457 29.3677C692.766 29.7339 693.14 30.0228 693.58 30.2344C694.019 30.4378 694.52 30.5396 695.081 30.5396C695.789 30.5396 696.42 30.3971 696.973 30.1123C697.527 29.8275 698.007 29.4246 698.414 28.9038L699.964 30.4053C699.679 30.8203 699.309 31.2191 698.853 31.6016C698.397 31.9759 697.84 32.2811 697.181 32.5171C696.53 32.7531 695.773 32.8711 694.91 32.8711Z" fill="white"/>
<path d="M736.324 243.935H737.813C738.724 243.935 739.485 243.78 740.096 243.471C740.714 243.153 741.178 242.734 741.487 242.213C741.805 241.693 741.963 241.115 741.963 240.48C741.963 239.764 741.829 239.137 741.561 238.6C741.292 238.055 740.881 237.632 740.328 237.331C739.782 237.021 739.083 236.867 738.228 236.867C737.479 236.867 736.812 237.013 736.226 237.306C735.64 237.599 735.176 238.018 734.834 238.563C734.493 239.109 734.322 239.76 734.322 240.517H732.869C732.869 239.548 733.101 238.698 733.565 237.965C734.029 237.225 734.668 236.647 735.481 236.232C736.295 235.817 737.211 235.609 738.228 235.609C739.278 235.609 740.189 235.801 740.962 236.183C741.744 236.566 742.346 237.123 742.769 237.855C743.2 238.588 743.416 239.479 743.416 240.529C743.416 241.066 743.298 241.595 743.062 242.116C742.834 242.637 742.492 243.109 742.037 243.532C741.581 243.947 741.015 244.28 740.34 244.533C739.664 244.785 738.879 244.911 737.984 244.911H736.324V243.935ZM736.324 245.192V244.228H737.984C739.001 244.228 739.872 244.346 740.596 244.582C741.32 244.809 741.915 245.135 742.378 245.558C742.85 245.973 743.196 246.457 743.416 247.011C743.636 247.564 743.746 248.158 743.746 248.793C743.746 249.607 743.611 250.327 743.343 250.954C743.074 251.58 742.692 252.113 742.195 252.553C741.707 252.984 741.129 253.314 740.462 253.542C739.803 253.761 739.078 253.871 738.289 253.871C737.573 253.871 736.873 253.765 736.189 253.554C735.514 253.342 734.904 253.029 734.358 252.614C733.821 252.191 733.394 251.662 733.077 251.027C732.759 250.384 732.601 249.643 732.601 248.805H734.053C734.053 249.554 734.232 250.217 734.59 250.795C734.948 251.365 735.445 251.812 736.08 252.138C736.722 252.455 737.459 252.614 738.289 252.614C739.127 252.614 739.843 252.471 740.438 252.187C741.04 251.894 741.5 251.466 741.817 250.905C742.134 250.343 742.293 249.656 742.293 248.842C742.293 247.987 742.102 247.292 741.719 246.754C741.345 246.217 740.82 245.823 740.145 245.57C739.477 245.318 738.7 245.192 737.813 245.192H736.324ZM758.064 252.37V253.627H746.944V252.492L752.767 245.888C753.491 245.066 754.069 244.346 754.5 243.727C754.931 243.1 755.241 242.531 755.428 242.018C755.623 241.497 755.721 240.993 755.721 240.504C755.721 239.788 755.578 239.158 755.293 238.612C755.017 238.067 754.602 237.64 754.048 237.331C753.495 237.021 752.811 236.867 751.998 236.867C751.184 236.867 750.476 237.042 749.874 237.392C749.271 237.742 748.807 238.23 748.482 238.856C748.165 239.475 748.006 240.179 748.006 240.968H746.553C746.553 239.992 746.769 239.097 747.2 238.283C747.64 237.469 748.266 236.822 749.08 236.342C749.894 235.854 750.866 235.609 751.998 235.609C753.072 235.609 753.995 235.801 754.769 236.183C755.542 236.557 756.136 237.099 756.551 237.807C756.974 238.515 757.186 239.369 757.186 240.37C757.186 240.907 757.088 241.448 756.893 241.994C756.705 242.539 756.445 243.084 756.111 243.629C755.786 244.167 755.411 244.7 754.988 245.229C754.573 245.757 754.138 246.278 753.682 246.791L748.726 252.37H758.064ZM760.469 240.211V239.271C760.469 238.596 760.612 237.982 760.896 237.428C761.181 236.875 761.584 236.431 762.105 236.098C762.626 235.764 763.236 235.597 763.936 235.597C764.652 235.597 765.267 235.764 765.779 236.098C766.3 236.431 766.703 236.875 766.988 237.428C767.273 237.982 767.415 238.596 767.415 239.271V240.211C767.415 240.871 767.273 241.477 766.988 242.03C766.711 242.584 766.312 243.027 765.792 243.361C765.279 243.694 764.668 243.861 763.96 243.861C763.252 243.861 762.634 243.694 762.105 243.361C761.584 243.027 761.181 242.584 760.896 242.03C760.612 241.477 760.469 240.871 760.469 240.211ZM761.641 239.271V240.211C761.641 240.643 761.722 241.058 761.885 241.457C762.056 241.847 762.312 242.169 762.654 242.421C763.004 242.673 763.44 242.799 763.96 242.799C764.481 242.799 764.909 242.677 765.242 242.433C765.576 242.181 765.824 241.859 765.987 241.469C766.158 241.07 766.243 240.651 766.243 240.211V239.271C766.243 238.824 766.158 238.405 765.987 238.014C765.824 237.615 765.572 237.29 765.23 237.038C764.888 236.785 764.457 236.659 763.936 236.659C763.431 236.659 763.008 236.785 762.667 237.038C762.325 237.29 762.068 237.615 761.897 238.014C761.727 238.405 761.641 238.824 761.641 239.271ZM769.405 250.221V249.269C769.405 248.602 769.547 247.991 769.832 247.438C770.117 246.885 770.52 246.441 771.041 246.107C771.561 245.774 772.176 245.607 772.884 245.607C773.6 245.607 774.214 245.774 774.727 246.107C775.248 246.441 775.651 246.885 775.936 247.438C776.22 247.991 776.363 248.602 776.363 249.269V250.221C776.363 250.889 776.22 251.499 775.936 252.052C775.659 252.606 775.26 253.049 774.739 253.383C774.227 253.716 773.616 253.883 772.908 253.883C772.192 253.883 771.574 253.716 771.053 253.383C770.532 253.049 770.125 252.606 769.832 252.052C769.547 251.499 769.405 250.889 769.405 250.221ZM770.589 249.269V250.221C770.589 250.661 770.67 251.08 770.833 251.479C771.004 251.869 771.26 252.191 771.602 252.443C771.952 252.695 772.387 252.821 772.908 252.821C773.421 252.821 773.844 252.699 774.178 252.455C774.52 252.203 774.772 251.877 774.935 251.479C775.105 251.08 775.191 250.661 775.191 250.221V249.269C775.191 248.805 775.105 248.378 774.935 247.987C774.772 247.589 774.52 247.271 774.178 247.035C773.836 246.791 773.405 246.669 772.884 246.669C772.379 246.669 771.952 246.791 771.602 247.035C771.26 247.271 771.004 247.589 770.833 247.987C770.67 248.378 770.589 248.805 770.589 249.269ZM773.104 238.258L764.424 252.15L763.521 251.564L772.2 237.672L773.104 238.258Z" fill="white"/>
<path d="M213.197 500.37V501.627H202.077V500.492L207.899 493.888C208.624 493.066 209.201 492.346 209.633 491.727C210.064 491.1 210.373 490.531 210.561 490.018C210.756 489.497 210.854 488.993 210.854 488.504C210.854 487.788 210.711 487.158 210.426 486.612C210.15 486.067 209.735 485.64 209.181 485.331C208.628 485.021 207.944 484.867 207.13 484.867C206.317 484.867 205.609 485.042 205.006 485.392C204.404 485.742 203.94 486.23 203.615 486.856C203.297 487.475 203.139 488.179 203.139 488.968H201.686C201.686 487.992 201.902 487.097 202.333 486.283C202.772 485.469 203.399 484.822 204.213 484.342C205.027 483.854 205.999 483.609 207.13 483.609C208.205 483.609 209.128 483.801 209.901 484.183C210.674 484.557 211.269 485.099 211.684 485.807C212.107 486.515 212.318 487.369 212.318 488.37C212.318 488.907 212.221 489.448 212.025 489.994C211.838 490.539 211.578 491.084 211.244 491.629C210.919 492.167 210.544 492.7 210.121 493.229C209.706 493.757 209.271 494.278 208.815 494.791L203.859 500.37H213.197ZM226.869 496.915C226.869 497.989 226.617 498.897 226.112 499.637C225.616 500.378 224.94 500.935 224.086 501.31C223.231 501.684 222.275 501.871 221.217 501.871C220.151 501.871 219.191 501.684 218.336 501.31C217.482 500.935 216.802 500.378 216.298 499.637C215.801 498.897 215.553 497.989 215.553 496.915C215.553 496.207 215.692 495.564 215.968 494.986C216.253 494.4 216.648 493.896 217.152 493.473C217.665 493.041 218.263 492.708 218.947 492.472C219.63 492.236 220.379 492.118 221.193 492.118C222.267 492.118 223.231 492.325 224.086 492.74C224.94 493.147 225.616 493.709 226.112 494.425C226.617 495.141 226.869 495.971 226.869 496.915ZM225.404 496.915C225.404 496.158 225.221 495.495 224.855 494.925C224.489 494.356 223.988 493.916 223.354 493.607C222.719 493.29 221.999 493.131 221.193 493.131C220.379 493.131 219.659 493.29 219.032 493.607C218.406 493.916 217.913 494.356 217.555 494.925C217.197 495.495 217.018 496.158 217.018 496.915C217.018 497.704 217.193 498.376 217.543 498.929C217.901 499.483 218.397 499.902 219.032 500.187C219.667 500.471 220.395 500.614 221.217 500.614C222.039 500.614 222.764 500.471 223.39 500.187C224.017 499.902 224.509 499.483 224.867 498.929C225.225 498.376 225.404 497.704 225.404 496.915ZM226.405 488.419C226.405 489.29 226.173 490.067 225.709 490.75C225.254 491.426 224.635 491.959 223.854 492.35C223.073 492.732 222.19 492.923 221.205 492.923C220.212 492.923 219.321 492.732 218.532 492.35C217.75 491.959 217.132 491.426 216.676 490.75C216.229 490.067 216.005 489.29 216.005 488.419C216.005 487.385 216.229 486.515 216.676 485.807C217.132 485.09 217.75 484.545 218.532 484.171C219.313 483.797 220.2 483.609 221.193 483.609C222.178 483.609 223.061 483.797 223.842 484.171C224.631 484.545 225.254 485.09 225.709 485.807C226.173 486.515 226.405 487.385 226.405 488.419ZM224.953 488.407C224.953 487.715 224.786 487.105 224.452 486.576C224.127 486.047 223.679 485.632 223.109 485.331C222.548 485.021 221.909 484.867 221.193 484.867C220.469 484.867 219.826 485.009 219.264 485.294C218.711 485.579 218.271 485.986 217.946 486.515C217.628 487.044 217.47 487.674 217.47 488.407C217.47 489.123 217.628 489.741 217.946 490.262C218.271 490.775 218.715 491.174 219.276 491.458C219.838 491.743 220.481 491.886 221.205 491.886C221.929 491.886 222.572 491.743 223.134 491.458C223.695 491.174 224.139 490.775 224.464 490.262C224.79 489.741 224.953 489.123 224.953 488.407ZM229.469 488.211V487.271C229.469 486.596 229.612 485.982 229.896 485.428C230.181 484.875 230.584 484.431 231.105 484.098C231.626 483.764 232.236 483.597 232.936 483.597C233.652 483.597 234.267 483.764 234.779 484.098C235.3 484.431 235.703 484.875 235.988 485.428C236.273 485.982 236.415 486.596 236.415 487.271V488.211C236.415 488.871 236.273 489.477 235.988 490.03C235.711 490.584 235.312 491.027 234.792 491.361C234.279 491.694 233.668 491.861 232.96 491.861C232.252 491.861 231.634 491.694 231.105 491.361C230.584 491.027 230.181 490.584 229.896 490.03C229.612 489.477 229.469 488.871 229.469 488.211ZM230.641 487.271V488.211C230.641 488.643 230.722 489.058 230.885 489.457C231.056 489.847 231.312 490.169 231.654 490.421C232.004 490.673 232.44 490.799 232.96 490.799C233.481 490.799 233.909 490.677 234.242 490.433C234.576 490.181 234.824 489.859 234.987 489.469C235.158 489.07 235.243 488.651 235.243 488.211V487.271C235.243 486.824 235.158 486.405 234.987 486.014C234.824 485.615 234.572 485.29 234.23 485.038C233.888 484.785 233.457 484.659 232.936 484.659C232.431 484.659 232.008 484.785 231.667 485.038C231.325 485.29 231.068 485.615 230.897 486.014C230.727 486.405 230.641 486.824 230.641 487.271ZM238.405 498.221V497.269C238.405 496.602 238.547 495.991 238.832 495.438C239.117 494.885 239.52 494.441 240.041 494.107C240.561 493.774 241.176 493.607 241.884 493.607C242.6 493.607 243.214 493.774 243.727 494.107C244.248 494.441 244.651 494.885 244.936 495.438C245.22 495.991 245.363 496.602 245.363 497.269V498.221C245.363 498.889 245.22 499.499 244.936 500.052C244.659 500.606 244.26 501.049 243.739 501.383C243.227 501.716 242.616 501.883 241.908 501.883C241.192 501.883 240.574 501.716 240.053 501.383C239.532 501.049 239.125 500.606 238.832 500.052C238.547 499.499 238.405 498.889 238.405 498.221ZM239.589 497.269V498.221C239.589 498.661 239.67 499.08 239.833 499.479C240.004 499.869 240.26 500.191 240.602 500.443C240.952 500.695 241.387 500.821 241.908 500.821C242.421 500.821 242.844 500.699 243.178 500.455C243.52 500.203 243.772 499.877 243.935 499.479C244.105 499.08 244.191 498.661 244.191 498.221V497.269C244.191 496.805 244.105 496.378 243.935 495.987C243.772 495.589 243.52 495.271 243.178 495.035C242.836 494.791 242.405 494.669 241.884 494.669C241.379 494.669 240.952 494.791 240.602 495.035C240.26 495.271 240.004 495.589 239.833 495.987C239.67 496.378 239.589 496.805 239.589 497.269ZM242.104 486.258L233.424 500.15L232.521 499.564L241.2 485.672L242.104 486.258Z" fill="white"/>
<path d="M77.1973 252.37V253.627H66.0767V252.492L71.8994 245.888C72.6237 245.066 73.2015 244.346 73.6328 243.727C74.0641 243.1 74.3734 242.531 74.5605 242.018C74.7559 241.497 74.8535 240.993 74.8535 240.504C74.8535 239.788 74.7111 239.158 74.4263 238.612C74.1496 238.067 73.7345 237.64 73.1812 237.331C72.6278 237.021 71.9442 236.867 71.1304 236.867C70.3166 236.867 69.6086 237.042 69.0063 237.392C68.4041 237.742 67.9403 238.23 67.6147 238.856C67.2974 239.475 67.1387 240.179 67.1387 240.968H65.686C65.686 239.992 65.9017 239.097 66.333 238.283C66.7725 237.469 67.3991 236.822 68.2129 236.342C69.0267 235.854 69.9992 235.609 71.1304 235.609C72.2046 235.609 73.1283 235.801 73.9014 236.183C74.6745 236.557 75.2686 237.099 75.6836 237.807C76.1068 238.515 76.3184 239.369 76.3184 240.37C76.3184 240.907 76.2207 241.448 76.0254 241.994C75.8382 242.539 75.5778 243.084 75.2441 243.629C74.9186 244.167 74.5443 244.7 74.1211 245.229C73.7061 245.757 73.2707 246.278 72.8149 246.791L67.8589 252.37H77.1973ZM90.8813 235.854V236.696L83.2886 253.627H81.7749L89.3188 237.111H79.1992V235.854H90.8813ZM93.4692 240.211V239.271C93.4692 238.596 93.6117 237.982 93.8965 237.428C94.1813 236.875 94.5841 236.431 95.105 236.098C95.6258 235.764 96.2362 235.597 96.936 235.597C97.6522 235.597 98.2666 235.764 98.7793 236.098C99.3001 236.431 99.703 236.875 99.9878 237.428C100.273 237.982 100.415 238.596 100.415 239.271V240.211C100.415 240.871 100.273 241.477 99.9878 242.03C99.7111 242.584 99.3123 243.027 98.7915 243.361C98.2788 243.694 97.6685 243.861 96.9604 243.861C96.2524 243.861 95.634 243.694 95.105 243.361C94.5841 243.027 94.1813 242.584 93.8965 242.03C93.6117 241.477 93.4692 240.871 93.4692 240.211ZM94.6411 239.271V240.211C94.6411 240.643 94.7225 241.058 94.8853 241.457C95.0562 241.847 95.3125 242.169 95.6543 242.421C96.0042 242.673 96.4396 242.799 96.9604 242.799C97.4813 242.799 97.9085 242.677 98.2422 242.433C98.5758 242.181 98.8241 241.859 98.9868 241.469C99.1577 241.07 99.2432 240.651 99.2432 240.211V239.271C99.2432 238.824 99.1577 238.405 98.9868 238.014C98.8241 237.615 98.5718 237.29 98.23 237.038C97.8882 236.785 97.4569 236.659 96.936 236.659C96.4315 236.659 96.0083 236.785 95.6665 237.038C95.3247 237.29 95.0684 237.615 94.8975 238.014C94.7266 238.405 94.6411 238.824 94.6411 239.271ZM102.405 250.221V249.269C102.405 248.602 102.547 247.991 102.832 247.438C103.117 246.885 103.52 246.441 104.041 246.107C104.561 245.774 105.176 245.607 105.884 245.607C106.6 245.607 107.214 245.774 107.727 246.107C108.248 246.441 108.651 246.885 108.936 247.438C109.22 247.991 109.363 248.602 109.363 249.269V250.221C109.363 250.889 109.22 251.499 108.936 252.052C108.659 252.606 108.26 253.049 107.739 253.383C107.227 253.716 106.616 253.883 105.908 253.883C105.192 253.883 104.574 253.716 104.053 253.383C103.532 253.049 103.125 252.606 102.832 252.052C102.547 251.499 102.405 250.889 102.405 250.221ZM103.589 249.269V250.221C103.589 250.661 103.67 251.08 103.833 251.479C104.004 251.869 104.26 252.191 104.602 252.443C104.952 252.695 105.387 252.821 105.908 252.821C106.421 252.821 106.844 252.699 107.178 252.455C107.52 252.203 107.772 251.877 107.935 251.479C108.105 251.08 108.191 250.661 108.191 250.221V249.269C108.191 248.805 108.105 248.378 107.935 247.987C107.772 247.589 107.52 247.271 107.178 247.035C106.836 246.791 106.405 246.669 105.884 246.669C105.379 246.669 104.952 246.791 104.602 247.035C104.26 247.271 104.004 247.589 103.833 247.987C103.67 248.378 103.589 248.805 103.589 249.269ZM106.104 238.258L97.4243 252.15L96.521 251.564L105.2 237.672L106.104 238.258Z" fill="white"/>
<path d="M208.864 49.7803V67.627H207.411V51.6235L202.577 53.418V52.0386L208.62 49.7803H208.864ZM226.649 57.2144V60.2051C226.649 61.5072 226.527 62.6424 226.283 63.6108C226.039 64.5711 225.681 65.3687 225.209 66.0034C224.745 66.63 224.175 67.098 223.5 67.4072C222.833 67.7165 222.068 67.8711 221.205 67.8711C220.521 67.8711 219.895 67.7734 219.325 67.5781C218.756 67.3828 218.247 67.0858 217.799 66.687C217.36 66.2801 216.986 65.7715 216.676 65.1611C216.367 64.5508 216.131 63.8346 215.968 63.0127C215.806 62.1826 215.724 61.2467 215.724 60.2051V57.2144C215.724 55.9041 215.846 54.7729 216.09 53.8208C216.343 52.8687 216.701 52.0793 217.165 51.4526C217.637 50.826 218.21 50.3621 218.886 50.061C219.561 49.7518 220.326 49.5972 221.181 49.5972C221.864 49.5972 222.491 49.6989 223.061 49.9023C223.638 50.0977 224.147 50.3906 224.586 50.7812C225.034 51.1719 225.408 51.6724 225.709 52.2827C226.019 52.8849 226.251 53.597 226.405 54.4189C226.568 55.2409 226.649 56.1727 226.649 57.2144ZM225.197 60.376V57.0312C225.197 56.2256 225.14 55.4932 225.026 54.834C224.92 54.1748 224.761 53.597 224.55 53.1006C224.338 52.6042 224.07 52.1891 223.744 51.8555C223.427 51.5218 223.052 51.2736 222.621 51.1108C222.198 50.9399 221.718 50.8545 221.181 50.8545C220.521 50.8545 219.94 50.9888 219.435 51.2573C218.939 51.5177 218.524 51.9084 218.19 52.4292C217.856 52.9419 217.604 53.5848 217.433 54.3579C217.27 55.131 217.189 56.0221 217.189 57.0312V60.376C217.189 61.1735 217.242 61.9019 217.348 62.561C217.453 63.2121 217.616 63.7899 217.836 64.2944C218.056 64.799 218.324 65.2262 218.642 65.5762C218.967 65.918 219.341 66.1784 219.765 66.3574C220.196 66.5283 220.676 66.6138 221.205 66.6138C221.881 66.6138 222.466 66.4795 222.963 66.2109C223.459 65.9342 223.874 65.5314 224.208 65.0024C224.542 64.4653 224.79 63.8102 224.953 63.0371C225.115 62.2559 225.197 61.3688 225.197 60.376ZM229.469 54.2114V53.2715C229.469 52.596 229.612 51.9816 229.896 51.4282C230.181 50.8748 230.584 50.4313 231.105 50.0977C231.626 49.764 232.236 49.5972 232.936 49.5972C233.652 49.5972 234.267 49.764 234.779 50.0977C235.3 50.4313 235.703 50.8748 235.988 51.4282C236.273 51.9816 236.415 52.596 236.415 53.2715V54.2114C236.415 54.8706 236.273 55.4769 235.988 56.0303C235.711 56.5837 235.312 57.0272 234.792 57.3608C234.279 57.6945 233.668 57.8613 232.96 57.8613C232.252 57.8613 231.634 57.6945 231.105 57.3608C230.584 57.0272 230.181 56.5837 229.896 56.0303C229.612 55.4769 229.469 54.8706 229.469 54.2114ZM230.641 53.2715V54.2114C230.641 54.6427 230.722 55.0578 230.885 55.4565C231.056 55.8472 231.312 56.1686 231.654 56.4209C232.004 56.6732 232.44 56.7993 232.96 56.7993C233.481 56.7993 233.909 56.6772 234.242 56.4331C234.576 56.1808 234.824 55.8594 234.987 55.4688C235.158 55.07 235.243 54.6509 235.243 54.2114V53.2715C235.243 52.8239 235.158 52.4048 234.987 52.0142C234.824 51.6154 234.572 51.2899 234.23 51.0376C233.888 50.7853 233.457 50.6592 232.936 50.6592C232.431 50.6592 232.008 50.7853 231.667 51.0376C231.325 51.2899 231.068 51.6154 230.897 52.0142C230.727 52.4048 230.641 52.8239 230.641 53.2715ZM238.405 64.2212V63.269C238.405 62.6017 238.547 61.9914 238.832 61.438C239.117 60.8846 239.52 60.4411 240.041 60.1074C240.561 59.7738 241.176 59.6069 241.884 59.6069C242.6 59.6069 243.214 59.7738 243.727 60.1074C244.248 60.4411 244.651 60.8846 244.936 61.438C245.22 61.9914 245.363 62.6017 245.363 63.269V64.2212C245.363 64.8885 245.22 65.4989 244.936 66.0522C244.659 66.6056 244.26 67.0492 243.739 67.3828C243.227 67.7165 242.616 67.8833 241.908 67.8833C241.192 67.8833 240.574 67.7165 240.053 67.3828C239.532 67.0492 239.125 66.6056 238.832 66.0522C238.547 65.4989 238.405 64.8885 238.405 64.2212ZM239.589 63.269V64.2212C239.589 64.6606 239.67 65.0798 239.833 65.4785C240.004 65.8691 240.26 66.1906 240.602 66.4429C240.952 66.6951 241.387 66.8213 241.908 66.8213C242.421 66.8213 242.844 66.6992 243.178 66.4551C243.52 66.2028 243.772 65.8773 243.935 65.4785C244.105 65.0798 244.191 64.6606 244.191 64.2212V63.269C244.191 62.8052 244.105 62.3779 243.935 61.9873C243.772 61.5885 243.52 61.2712 243.178 61.0352C242.836 60.791 242.405 60.6689 241.884 60.6689C241.379 60.6689 240.952 60.791 240.602 61.0352C240.26 61.2712 240.004 61.5885 239.833 61.9873C239.67 62.3779 239.589 62.8052 239.589 63.269ZM242.104 52.2583L233.424 66.1499L232.521 65.564L241.2 51.6724L242.104 52.2583Z" fill="white"/>
<path d="M613.257 57.9346H614.747C615.658 57.9346 616.419 57.7799 617.029 57.4707C617.648 57.1533 618.112 56.7342 618.421 56.2134C618.738 55.6925 618.897 55.1147 618.897 54.48C618.897 53.7638 618.763 53.1372 618.494 52.6001C618.226 52.0549 617.815 51.6317 617.261 51.3306C616.716 51.0213 616.016 50.8667 615.162 50.8667C614.413 50.8667 613.746 51.0132 613.16 51.3062C612.574 51.5991 612.11 52.0182 611.768 52.5635C611.426 53.1087 611.255 53.7598 611.255 54.5166H609.803C609.803 53.5482 610.035 52.6978 610.499 51.9653C610.962 51.2248 611.601 50.647 612.415 50.2319C613.229 49.8169 614.144 49.6094 615.162 49.6094C616.211 49.6094 617.123 49.8006 617.896 50.1831C618.677 50.5656 619.279 51.123 619.703 51.8555C620.134 52.5879 620.35 53.479 620.35 54.5288C620.35 55.0659 620.232 55.5949 619.996 56.1157C619.768 56.6366 619.426 57.1086 618.97 57.5317C618.514 57.9468 617.949 58.2804 617.273 58.5327C616.598 58.785 615.813 58.9111 614.917 58.9111H613.257V57.9346ZM613.257 59.1919V58.2275H614.917C615.935 58.2275 616.806 58.3455 617.53 58.5815C618.254 58.8094 618.848 59.1349 619.312 59.5581C619.784 59.9731 620.13 60.4574 620.35 61.0107C620.569 61.5641 620.679 62.1582 620.679 62.793C620.679 63.6068 620.545 64.327 620.276 64.9536C620.008 65.5802 619.625 66.1133 619.129 66.5527C618.641 66.984 618.063 67.3136 617.396 67.5415C616.736 67.7612 616.012 67.8711 615.223 67.8711C614.507 67.8711 613.807 67.7653 613.123 67.5537C612.448 67.3421 611.837 67.0288 611.292 66.6138C610.755 66.1906 610.328 65.6616 610.01 65.0269C609.693 64.384 609.534 63.6434 609.534 62.8052H610.987C610.987 63.5539 611.166 64.2171 611.524 64.7949C611.882 65.3646 612.378 65.8122 613.013 66.1377C613.656 66.4551 614.393 66.6138 615.223 66.6138C616.061 66.6138 616.777 66.4714 617.371 66.1865C617.973 65.8936 618.433 65.4663 618.75 64.9048C619.068 64.3433 619.227 63.6556 619.227 62.8418C619.227 61.9873 619.035 61.2915 618.653 60.7544C618.278 60.2173 617.754 59.8226 617.078 59.5703C616.411 59.318 615.634 59.1919 614.747 59.1919H613.257ZM623.536 54.2114V53.2715C623.536 52.596 623.678 51.9816 623.963 51.4282C624.248 50.8748 624.651 50.4313 625.171 50.0977C625.692 49.764 626.303 49.5972 627.002 49.5972C627.719 49.5972 628.333 49.764 628.846 50.0977C629.367 50.4313 629.769 50.8748 630.054 51.4282C630.339 51.9816 630.481 52.596 630.481 53.2715V54.2114C630.481 54.8706 630.339 55.4769 630.054 56.0303C629.778 56.5837 629.379 57.0272 628.858 57.3608C628.345 57.6945 627.735 57.8613 627.027 57.8613C626.319 57.8613 625.7 57.6945 625.171 57.3608C624.651 57.0272 624.248 56.5837 623.963 56.0303C623.678 55.4769 623.536 54.8706 623.536 54.2114ZM624.708 53.2715V54.2114C624.708 54.6427 624.789 55.0578 624.952 55.4565C625.123 55.8472 625.379 56.1686 625.721 56.4209C626.071 56.6732 626.506 56.7993 627.027 56.7993C627.548 56.7993 627.975 56.6772 628.309 56.4331C628.642 56.1808 628.89 55.8594 629.053 55.4688C629.224 55.07 629.31 54.6509 629.31 54.2114V53.2715C629.31 52.8239 629.224 52.4048 629.053 52.0142C628.89 51.6154 628.638 51.2899 628.296 51.0376C627.955 50.7853 627.523 50.6592 627.002 50.6592C626.498 50.6592 626.075 50.7853 625.733 51.0376C625.391 51.2899 625.135 51.6154 624.964 52.0142C624.793 52.4048 624.708 52.8239 624.708 53.2715ZM632.471 64.2212V63.269C632.471 62.6017 632.614 61.9914 632.898 61.438C633.183 60.8846 633.586 60.4411 634.107 60.1074C634.628 59.7738 635.242 59.6069 635.95 59.6069C636.666 59.6069 637.281 59.7738 637.793 60.1074C638.314 60.4411 638.717 60.8846 639.002 61.438C639.287 61.9914 639.429 62.6017 639.429 63.269V64.2212C639.429 64.8885 639.287 65.4989 639.002 66.0522C638.725 66.6056 638.326 67.0492 637.806 67.3828C637.293 67.7165 636.683 67.8833 635.975 67.8833C635.258 67.8833 634.64 67.7165 634.119 67.3828C633.598 67.0492 633.191 66.6056 632.898 66.0522C632.614 65.4989 632.471 64.8885 632.471 64.2212ZM633.655 63.269V64.2212C633.655 64.6606 633.737 65.0798 633.899 65.4785C634.07 65.8691 634.327 66.1906 634.668 66.4429C635.018 66.6951 635.454 66.8213 635.975 66.8213C636.487 66.8213 636.91 66.6992 637.244 66.4551C637.586 66.2028 637.838 65.8773 638.001 65.4785C638.172 65.0798 638.257 64.6606 638.257 64.2212V63.269C638.257 62.8052 638.172 62.3779 638.001 61.9873C637.838 61.5885 637.586 61.2712 637.244 61.0352C636.902 60.791 636.471 60.6689 635.95 60.6689C635.446 60.6689 635.018 60.791 634.668 61.0352C634.327 61.2712 634.07 61.5885 633.899 61.9873C633.737 62.3779 633.655 62.8052 633.655 63.269ZM636.17 52.2583L627.491 66.1499L626.587 65.564L635.267 51.6724L636.17 52.2583Z" fill="white"/>
<path opacity="0.5" d="M270.5 24.627H332C368.175 24.627 397.5 53.9523 397.5 90.127V90.127M474 90.127V88.127C474 53.0569 502.43 24.627 537.5 24.627V24.627M186 210.127H236C255.054 210.127 270.5 225.573 270.5 244.627V244.627M578.5 244.627V244.627C578.5 225.573 593.946 210.127 613 210.127H669.5M267.5 459.127H314C343.271 459.127 367 435.398 367 406.127V406.127" stroke="url(#paint0_linear_2436_214)" stroke-width="3" stroke-dasharray="6 6"/>
<mask id="mask0_2436_214" style="mask-type:alpha" maskUnits="userSpaceOnUse" x="380" y="202" width="104" height="116">
<path d="M445.913 208.396L400.866 233.94C396.875 236.204 394.401 240.458 394.401 245.041V297.937L387.531 293.97C382.874 291.279 380 286.306 380 280.92V238.678C380 233.292 382.874 228.319 387.531 225.629L424.118 204.508C428.78 201.813 434.523 201.813 439.18 204.508L445.913 208.396Z" fill="white"/>
<path d="M464.474 219.111L419.492 244.618C415.501 246.876 413.022 251.131 413.022 255.714V308.685L398.157 300.102V245.04C398.157 241.805 399.903 238.805 402.716 237.208L449.688 210.574L464.474 219.111Z" fill="white"/>
<path d="M483.297 238.678V242.829C483.297 243.876 482.855 244.881 482.062 245.557C481.512 246.022 480.86 246.482 480.141 246.886L438.08 270.731C434.69 272.651 430.483 272.651 427.093 270.731L417.482 265.284C417.045 265.035 416.778 264.575 416.778 264.072V255.709C416.778 252.474 418.529 249.473 421.341 247.882L467.478 221.722H467.487C467.957 221.445 468.535 221.445 469.004 221.717L475.77 225.624C480.433 228.315 483.301 233.287 483.301 238.673L483.297 238.678Z" fill="white"/>
<path d="M483.297 250.909V266.18C483.297 267.344 482.771 268.443 481.865 269.176C481.358 269.584 480.771 269.983 480.141 270.34L438.08 294.185C434.69 296.11 430.483 296.11 427.093 294.185L417.919 288.986C417.214 288.587 416.778 287.836 416.778 287.024V270.692C416.778 270.03 417.491 269.617 418.064 269.941L425.239 274.007C427.506 275.294 430.047 275.933 432.587 275.933C435.127 275.933 437.667 275.294 439.935 274.007L481.991 250.163H482.001C482.578 249.829 483.297 250.243 483.297 250.909Z" fill="white"/>
<path d="M482.001 273.598C482.579 273.27 483.297 273.678 483.297 274.345V280.919C483.297 286.305 480.428 291.277 475.766 293.968L439.179 315.089C434.522 317.784 428.779 317.784 424.117 315.089L416.712 310.816C416.754 310.661 416.778 310.497 416.778 310.328V294.132C416.778 293.47 417.492 293.057 418.064 293.381L425.239 297.448C427.507 298.734 430.047 299.377 432.587 299.377C435.127 299.377 437.668 298.734 439.935 297.448L481.992 273.603C481.992 273.603 481.996 273.603 482.001 273.598Z" fill="white"/>
</mask>
<g mask="url(#mask0_2436_214)">
<rect x="351.806" y="189.014" width="159.638" height="160.087" fill="white"/>
</g>
<defs>
<linearGradient id="paint0_linear_2436_214" x1="447.809" y1="1922.72" x2="1466.7" y2="2324.37" gradientUnits="userSpaceOnUse">
<stop stop-color="white"/>
<stop offset="1" stop-color="white" stop-opacity="0"/>
</linearGradient>
</defs>
</svg>
