<svg width="828" height="520" viewBox="0 0 828 520" fill="none" xmlns="http://www.w3.org/2000/svg">
<path d="M495.084 80.5812C525.074 91.1681 551.93 109.107 573.194 132.756C594.459 156.405 609.454 185.009 616.807 215.951C624.159 246.893 623.635 279.185 615.281 309.872C606.928 340.559 591.012 368.661 568.991 391.607L509.315 334.336C521.759 321.369 530.753 305.488 535.474 288.147C540.194 270.806 540.491 252.558 536.336 235.073C532.181 217.587 523.707 201.423 511.691 188.059C499.674 174.695 484.498 164.558 467.55 158.575L495.084 80.5812Z" fill="#FF29D0"/>
<path d="M568.996 391.601C549.612 411.8 526.007 427.471 499.868 437.494C473.728 447.518 445.698 451.647 417.779 449.586C389.859 447.526 362.739 439.327 338.354 425.576C313.969 411.824 292.92 392.859 276.711 370.033L344.149 322.144C353.308 335.042 365.203 345.76 378.983 353.531C392.763 361.302 408.088 365.935 423.866 367.099C439.643 368.263 455.483 365.93 470.254 360.266C485.025 354.602 498.364 345.746 509.318 334.332L568.996 391.601Z" fill="#8A43FF"/>
<path d="M276.777 370.124C261.138 348.129 250.359 323.058 245.157 296.576C239.955 270.094 240.449 242.809 246.605 216.532C252.762 190.256 264.44 165.591 280.864 144.176C297.288 122.761 318.082 105.087 341.864 92.3285L380.966 165.213C367.527 172.423 355.777 182.411 346.496 194.512C337.214 206.614 330.615 220.552 327.136 235.4C323.657 250.249 323.378 265.668 326.318 280.633C329.257 295.598 335.348 309.766 344.186 322.195L276.777 370.124Z" fill="#74B1F9"/>
<path d="M341.889 92.3139C376.991 73.4886 417.117 66.1594 456.607 71.3601L445.808 153.363C423.492 150.425 400.816 154.566 380.98 165.204L341.889 92.3139Z" fill="#61FFEC"/>
<path d="M456.564 71.3546C469.703 73.082 482.627 76.1781 495.123 80.5924L467.573 158.581C460.511 156.086 453.208 154.337 445.783 153.36L456.564 71.3546Z" fill="white"/>
<path d="M687.35 219.141H683.553L683.578 216.711H687.35C688.448 216.711 689.368 216.471 690.108 215.991C690.857 215.511 691.419 214.823 691.793 213.928C692.175 213.033 692.367 211.967 692.367 210.73V209.766C692.367 208.805 692.257 207.955 692.037 207.214C691.826 206.474 691.508 205.851 691.085 205.347C690.67 204.842 690.157 204.46 689.547 204.199C688.945 203.939 688.249 203.809 687.459 203.809H683.48V201.367H687.459C688.639 201.367 689.718 201.567 690.694 201.965C691.671 202.356 692.513 202.922 693.221 203.662C693.937 204.403 694.487 205.29 694.869 206.323C695.252 207.357 695.443 208.512 695.443 209.79V210.73C695.443 212.008 695.252 213.163 694.869 214.197C694.487 215.23 693.937 216.117 693.221 216.858C692.505 217.59 691.651 218.156 690.658 218.555C689.673 218.945 688.57 219.141 687.35 219.141ZM685.25 201.367V219.141H682.186V201.367H685.25ZM704.049 219.385C703.072 219.385 702.189 219.226 701.4 218.909C700.619 218.583 699.951 218.132 699.398 217.554C698.853 216.976 698.434 216.296 698.141 215.515C697.848 214.734 697.701 213.892 697.701 212.988V212.5C697.701 211.466 697.852 210.531 698.153 209.692C698.454 208.854 698.873 208.138 699.41 207.544C699.947 206.942 700.582 206.482 701.314 206.165C702.047 205.847 702.84 205.688 703.695 205.688C704.639 205.688 705.465 205.847 706.173 206.165C706.881 206.482 707.467 206.93 707.931 207.507C708.403 208.077 708.753 208.757 708.98 209.546C709.216 210.335 709.334 211.206 709.334 212.158V213.416H699.129V211.304H706.429V211.072C706.413 210.543 706.307 210.046 706.112 209.583C705.925 209.119 705.636 208.744 705.245 208.459C704.854 208.175 704.334 208.032 703.683 208.032C703.194 208.032 702.759 208.138 702.376 208.35C702.002 208.553 701.689 208.85 701.437 209.241C701.184 209.631 700.989 210.103 700.851 210.657C700.72 211.202 700.655 211.816 700.655 212.5V212.988C700.655 213.566 700.733 214.103 700.887 214.6C701.05 215.088 701.286 215.515 701.595 215.881C701.904 216.248 702.279 216.536 702.718 216.748C703.158 216.951 703.658 217.053 704.22 217.053C704.928 217.053 705.558 216.911 706.112 216.626C706.665 216.341 707.145 215.938 707.552 215.417L709.103 216.919C708.818 217.334 708.447 217.733 707.992 218.115C707.536 218.49 706.979 218.795 706.319 219.031C705.668 219.267 704.911 219.385 704.049 219.385ZM715.755 216.809L718.99 205.933H722.042L717.452 219.141H715.548L715.755 216.809ZM713.277 205.933L716.573 216.858L716.732 219.141H714.828L710.213 205.933H713.277ZM729.513 219.385C728.536 219.385 727.653 219.226 726.864 218.909C726.083 218.583 725.415 218.132 724.862 217.554C724.317 216.976 723.897 216.296 723.604 215.515C723.312 214.734 723.165 213.892 723.165 212.988V212.5C723.165 211.466 723.316 210.531 723.617 209.692C723.918 208.854 724.337 208.138 724.874 207.544C725.411 206.942 726.046 206.482 726.778 206.165C727.511 205.847 728.304 205.688 729.159 205.688C730.103 205.688 730.929 205.847 731.637 206.165C732.345 206.482 732.931 206.93 733.395 207.507C733.867 208.077 734.216 208.757 734.444 209.546C734.68 210.335 734.798 211.206 734.798 212.158V213.416H724.593V211.304H731.893V211.072C731.877 210.543 731.771 210.046 731.576 209.583C731.389 209.119 731.1 208.744 730.709 208.459C730.318 208.175 729.798 208.032 729.146 208.032C728.658 208.032 728.223 208.138 727.84 208.35C727.466 208.553 727.153 208.85 726.9 209.241C726.648 209.631 726.453 210.103 726.314 210.657C726.184 211.202 726.119 211.816 726.119 212.5V212.988C726.119 213.566 726.196 214.103 726.351 214.6C726.514 215.088 726.75 215.515 727.059 215.881C727.368 216.248 727.743 216.536 728.182 216.748C728.622 216.951 729.122 217.053 729.684 217.053C730.392 217.053 731.022 216.911 731.576 216.626C732.129 216.341 732.609 215.938 733.016 215.417L734.566 216.919C734.282 217.334 733.911 217.733 733.456 218.115C733 218.49 732.442 218.795 731.783 219.031C731.132 219.267 730.375 219.385 729.513 219.385ZM740.243 200.391V219.141H737.289V200.391H740.243ZM742.904 212.683V212.402C742.904 211.45 743.042 210.567 743.319 209.753C743.596 208.931 743.994 208.219 744.515 207.617C745.044 207.007 745.687 206.535 746.444 206.201C747.209 205.859 748.071 205.688 749.032 205.688C750 205.688 750.863 205.859 751.62 206.201C752.385 206.535 753.032 207.007 753.561 207.617C754.09 208.219 754.492 208.931 754.769 209.753C755.046 210.567 755.184 211.45 755.184 212.402V212.683C755.184 213.635 755.046 214.518 754.769 215.332C754.492 216.146 754.09 216.858 753.561 217.468C753.032 218.07 752.389 218.542 751.632 218.884C750.875 219.218 750.016 219.385 749.056 219.385C748.088 219.385 747.221 219.218 746.456 218.884C745.699 218.542 745.056 218.07 744.527 217.468C743.998 216.858 743.596 216.146 743.319 215.332C743.042 214.518 742.904 213.635 742.904 212.683ZM745.846 212.402V212.683C745.846 213.277 745.907 213.839 746.029 214.368C746.151 214.897 746.342 215.361 746.603 215.759C746.863 216.158 747.197 216.471 747.604 216.699C748.01 216.927 748.495 217.041 749.056 217.041C749.601 217.041 750.073 216.927 750.472 216.699C750.879 216.471 751.213 216.158 751.473 215.759C751.734 215.361 751.925 214.897 752.047 214.368C752.177 213.839 752.242 213.277 752.242 212.683V212.402C752.242 211.816 752.177 211.263 752.047 210.742C751.925 210.213 751.729 209.745 751.461 209.338C751.201 208.931 750.867 208.614 750.46 208.386C750.061 208.15 749.585 208.032 749.032 208.032C748.478 208.032 747.998 208.15 747.591 208.386C747.193 208.614 746.863 208.931 746.603 209.338C746.342 209.745 746.151 210.213 746.029 210.742C745.907 211.263 745.846 211.816 745.846 212.402ZM760.604 208.472V224.219H757.662V205.933H760.372L760.604 208.472ZM769.21 212.415V212.671C769.21 213.631 769.096 214.522 768.868 215.344C768.648 216.158 768.319 216.87 767.879 217.48C767.448 218.083 766.915 218.551 766.28 218.884C765.646 219.218 764.913 219.385 764.083 219.385C763.261 219.385 762.541 219.234 761.922 218.933C761.312 218.624 760.795 218.188 760.372 217.627C759.949 217.065 759.607 216.406 759.347 215.649C759.094 214.884 758.915 214.046 758.81 213.135V212.146C758.915 211.178 759.094 210.299 759.347 209.509C759.607 208.72 759.949 208.04 760.372 207.471C760.795 206.901 761.312 206.462 761.922 206.152C762.533 205.843 763.245 205.688 764.059 205.688C764.889 205.688 765.625 205.851 766.268 206.177C766.911 206.494 767.452 206.95 767.892 207.544C768.331 208.13 768.661 208.838 768.88 209.668C769.1 210.49 769.21 211.405 769.21 212.415ZM766.268 212.671V212.415C766.268 211.804 766.211 211.239 766.097 210.718C765.983 210.189 765.804 209.725 765.56 209.326C765.316 208.927 765.003 208.618 764.62 208.398C764.246 208.171 763.794 208.057 763.265 208.057C762.744 208.057 762.297 208.146 761.922 208.325C761.548 208.496 761.235 208.736 760.982 209.045C760.73 209.355 760.535 209.717 760.396 210.132C760.258 210.539 760.16 210.982 760.104 211.462V213.831C760.201 214.417 760.368 214.954 760.604 215.442C760.84 215.93 761.174 216.321 761.605 216.614C762.044 216.899 762.606 217.041 763.29 217.041C763.819 217.041 764.27 216.927 764.645 216.699C765.019 216.471 765.324 216.158 765.56 215.759C765.804 215.352 765.983 214.884 766.097 214.355C766.211 213.826 766.268 213.265 766.268 212.671ZM774.654 208.618V219.141H771.712V205.933H774.483L774.654 208.618ZM774.178 212.048L773.177 212.036C773.177 211.125 773.291 210.282 773.519 209.509C773.747 208.736 774.081 208.065 774.52 207.495C774.959 206.917 775.505 206.474 776.156 206.165C776.815 205.847 777.576 205.688 778.438 205.688C779.041 205.688 779.59 205.778 780.086 205.957C780.591 206.128 781.026 206.401 781.393 206.775C781.767 207.149 782.052 207.629 782.247 208.215C782.451 208.801 782.552 209.509 782.552 210.339V219.141H779.61V210.596C779.61 209.953 779.513 209.448 779.317 209.082C779.13 208.716 778.858 208.455 778.5 208.301C778.15 208.138 777.73 208.057 777.242 208.057C776.689 208.057 776.217 208.162 775.826 208.374C775.444 208.586 775.13 208.875 774.886 209.241C774.642 209.607 774.463 210.03 774.349 210.51C774.235 210.99 774.178 211.503 774.178 212.048ZM782.369 211.267L780.99 211.572C780.99 210.775 781.1 210.022 781.319 209.314C781.547 208.598 781.877 207.971 782.308 207.434C782.748 206.889 783.289 206.462 783.932 206.152C784.575 205.843 785.311 205.688 786.141 205.688C786.817 205.688 787.419 205.782 787.948 205.969C788.485 206.148 788.941 206.433 789.315 206.824C789.689 207.214 789.974 207.723 790.169 208.35C790.365 208.968 790.462 209.717 790.462 210.596V219.141H787.508V210.583C787.508 209.916 787.411 209.399 787.215 209.033C787.028 208.667 786.76 208.415 786.41 208.276C786.06 208.13 785.641 208.057 785.152 208.057C784.697 208.057 784.294 208.142 783.944 208.313C783.602 208.476 783.313 208.708 783.077 209.009C782.841 209.302 782.662 209.639 782.54 210.022C782.426 210.404 782.369 210.819 782.369 211.267ZM799.312 219.385C798.336 219.385 797.453 219.226 796.664 218.909C795.882 218.583 795.215 218.132 794.662 217.554C794.116 216.976 793.697 216.296 793.404 215.515C793.111 214.734 792.965 213.892 792.965 212.988V212.5C792.965 211.466 793.115 210.531 793.417 209.692C793.718 208.854 794.137 208.138 794.674 207.544C795.211 206.942 795.846 206.482 796.578 206.165C797.311 205.847 798.104 205.688 798.958 205.688C799.903 205.688 800.729 205.847 801.437 206.165C802.145 206.482 802.73 206.93 803.194 207.507C803.666 208.077 804.016 208.757 804.244 209.546C804.48 210.335 804.598 211.206 804.598 212.158V213.416H794.393V211.304H801.693V211.072C801.677 210.543 801.571 210.046 801.375 209.583C801.188 209.119 800.899 208.744 800.509 208.459C800.118 208.175 799.597 208.032 798.946 208.032C798.458 208.032 798.023 208.138 797.64 208.35C797.266 208.553 796.952 208.85 796.7 209.241C796.448 209.631 796.253 210.103 796.114 210.657C795.984 211.202 795.919 211.816 795.919 212.5V212.988C795.919 213.566 795.996 214.103 796.151 214.6C796.314 215.088 796.55 215.515 796.859 215.881C797.168 216.248 797.542 216.536 797.982 216.748C798.421 216.951 798.922 217.053 799.483 217.053C800.191 217.053 800.822 216.911 801.375 216.626C801.929 216.341 802.409 215.938 802.816 215.417L804.366 216.919C804.081 217.334 803.711 217.733 803.255 218.115C802.8 218.49 802.242 218.795 801.583 219.031C800.932 219.267 800.175 219.385 799.312 219.385ZM809.811 208.752V219.141H806.869V205.933H809.64L809.811 208.752ZM809.286 212.048L808.333 212.036C808.342 211.1 808.472 210.242 808.724 209.46C808.985 208.679 809.343 208.008 809.798 207.446C810.262 206.885 810.816 206.453 811.458 206.152C812.101 205.843 812.818 205.688 813.607 205.688C814.242 205.688 814.815 205.778 815.328 205.957C815.849 206.128 816.292 206.409 816.659 206.799C817.033 207.19 817.318 207.699 817.513 208.325C817.708 208.944 817.806 209.705 817.806 210.608V219.141H814.852V210.596C814.852 209.961 814.758 209.46 814.571 209.094C814.392 208.72 814.128 208.455 813.778 208.301C813.436 208.138 813.009 208.057 812.496 208.057C811.992 208.057 811.54 208.162 811.141 208.374C810.742 208.586 810.405 208.875 810.128 209.241C809.859 209.607 809.652 210.03 809.505 210.51C809.359 210.99 809.286 211.503 809.286 212.048ZM826.864 205.933V208.081H819.417V205.933H826.864ZM821.566 202.698H824.508V215.491C824.508 215.898 824.565 216.211 824.679 216.431C824.801 216.642 824.968 216.785 825.179 216.858C825.391 216.931 825.639 216.968 825.924 216.968C826.127 216.968 826.323 216.956 826.51 216.931C826.697 216.907 826.847 216.882 826.961 216.858L826.974 219.104C826.729 219.177 826.445 219.242 826.119 219.299C825.802 219.356 825.436 219.385 825.021 219.385C824.345 219.385 823.747 219.267 823.226 219.031C822.705 218.787 822.298 218.392 822.005 217.847C821.712 217.301 821.566 216.577 821.566 215.674V202.698Z" fill="white"/>
<path d="M201.259 449.367V467.141H198.219V449.367H201.259ZM206.837 449.367V451.809H192.689V449.367H206.837ZM213.539 467.385C212.562 467.385 211.68 467.226 210.89 466.909C210.109 466.583 209.442 466.132 208.888 465.554C208.343 464.976 207.924 464.296 207.631 463.515C207.338 462.734 207.191 461.892 207.191 460.988V460.5C207.191 459.466 207.342 458.531 207.643 457.692C207.944 456.854 208.363 456.138 208.9 455.544C209.438 454.942 210.072 454.482 210.805 454.165C211.537 453.847 212.331 453.688 213.185 453.688C214.129 453.688 214.955 453.847 215.663 454.165C216.371 454.482 216.957 454.93 217.421 455.507C217.893 456.077 218.243 456.757 218.471 457.546C218.707 458.335 218.825 459.206 218.825 460.158V461.416H208.62V459.304H215.919V459.072C215.903 458.543 215.797 458.046 215.602 457.583C215.415 457.119 215.126 456.744 214.735 456.459C214.345 456.175 213.824 456.032 213.173 456.032C212.685 456.032 212.249 456.138 211.867 456.35C211.492 456.553 211.179 456.85 210.927 457.241C210.674 457.631 210.479 458.103 210.341 458.657C210.211 459.202 210.146 459.816 210.146 460.5V460.988C210.146 461.566 210.223 462.103 210.377 462.6C210.54 463.088 210.776 463.515 211.085 463.881C211.395 464.248 211.769 464.536 212.208 464.748C212.648 464.951 213.148 465.053 213.71 465.053C214.418 465.053 215.049 464.911 215.602 464.626C216.155 464.341 216.636 463.938 217.042 463.417L218.593 464.919C218.308 465.334 217.938 465.733 217.482 466.115C217.026 466.49 216.469 466.795 215.81 467.031C215.159 467.267 214.402 467.385 213.539 467.385ZM228.566 464.492V458.193C228.566 457.721 228.48 457.314 228.31 456.972C228.139 456.63 227.878 456.366 227.528 456.179C227.187 455.992 226.755 455.898 226.234 455.898C225.754 455.898 225.339 455.979 224.989 456.142C224.639 456.305 224.367 456.525 224.171 456.801C223.976 457.078 223.878 457.391 223.878 457.741H220.949C220.949 457.22 221.075 456.716 221.327 456.228C221.579 455.739 221.946 455.304 222.426 454.921C222.906 454.539 223.48 454.238 224.147 454.018C224.814 453.798 225.563 453.688 226.393 453.688C227.386 453.688 228.265 453.855 229.03 454.189C229.803 454.523 230.409 455.027 230.849 455.703C231.296 456.37 231.52 457.208 231.52 458.217V464.089C231.52 464.691 231.561 465.232 231.642 465.712C231.732 466.184 231.858 466.595 232.021 466.945V467.141H229.005C228.867 466.823 228.757 466.42 228.676 465.932C228.603 465.436 228.566 464.956 228.566 464.492ZM228.993 459.108L229.018 460.927H226.906C226.361 460.927 225.88 460.98 225.465 461.086C225.05 461.184 224.704 461.33 224.428 461.525C224.151 461.721 223.944 461.957 223.805 462.233C223.667 462.51 223.598 462.823 223.598 463.173C223.598 463.523 223.679 463.845 223.842 464.138C224.005 464.423 224.241 464.646 224.55 464.809C224.867 464.972 225.25 465.053 225.697 465.053C226.299 465.053 226.824 464.931 227.272 464.687C227.728 464.435 228.086 464.13 228.346 463.771C228.607 463.405 228.745 463.059 228.761 462.734L229.713 464.04C229.616 464.374 229.449 464.732 229.213 465.114C228.977 465.497 228.668 465.863 228.285 466.213C227.911 466.555 227.459 466.835 226.93 467.055C226.409 467.275 225.807 467.385 225.124 467.385C224.261 467.385 223.492 467.214 222.816 466.872C222.141 466.522 221.612 466.054 221.229 465.468C220.847 464.874 220.656 464.203 220.656 463.454C220.656 462.754 220.786 462.136 221.046 461.599C221.315 461.053 221.706 460.598 222.218 460.231C222.739 459.865 223.374 459.589 224.123 459.401C224.871 459.206 225.726 459.108 226.686 459.108H228.993ZM237.538 456.618V467.141H234.596V453.933H237.367L237.538 456.618ZM237.062 460.048L236.061 460.036C236.061 459.125 236.175 458.282 236.403 457.509C236.631 456.736 236.964 456.065 237.404 455.495C237.843 454.917 238.389 454.474 239.04 454.165C239.699 453.847 240.46 453.688 241.322 453.688C241.924 453.688 242.474 453.778 242.97 453.957C243.475 454.128 243.91 454.401 244.276 454.775C244.651 455.149 244.936 455.629 245.131 456.215C245.334 456.801 245.436 457.509 245.436 458.339V467.141H242.494V458.596C242.494 457.953 242.396 457.448 242.201 457.082C242.014 456.716 241.741 456.455 241.383 456.301C241.033 456.138 240.614 456.057 240.126 456.057C239.573 456.057 239.101 456.162 238.71 456.374C238.327 456.586 238.014 456.875 237.77 457.241C237.526 457.607 237.347 458.03 237.233 458.51C237.119 458.99 237.062 459.503 237.062 460.048ZM245.253 459.267L243.874 459.572C243.874 458.775 243.983 458.022 244.203 457.314C244.431 456.598 244.761 455.971 245.192 455.434C245.631 454.889 246.173 454.462 246.815 454.152C247.458 453.843 248.195 453.688 249.025 453.688C249.7 453.688 250.303 453.782 250.832 453.969C251.369 454.148 251.824 454.433 252.199 454.824C252.573 455.214 252.858 455.723 253.053 456.35C253.249 456.968 253.346 457.717 253.346 458.596V467.141H250.392V458.583C250.392 457.916 250.294 457.399 250.099 457.033C249.912 456.667 249.643 456.415 249.293 456.276C248.944 456.13 248.524 456.057 248.036 456.057C247.58 456.057 247.178 456.142 246.828 456.313C246.486 456.476 246.197 456.708 245.961 457.009C245.725 457.302 245.546 457.639 245.424 458.022C245.31 458.404 245.253 458.819 245.253 459.267Z" fill="white"/>
<path d="M3.35742 201.367H6.0918L11.231 215.076L16.3579 201.367H19.0923L12.3052 219.141H10.1323L3.35742 201.367ZM2.1123 201.367H4.7124L5.16406 213.232V219.141H2.1123V201.367ZM17.7373 201.367H20.3496V219.141H17.2856V213.232L17.7373 201.367ZM31.1406 216.492V210.193C31.1406 209.721 31.0552 209.314 30.8843 208.972C30.7134 208.63 30.453 208.366 30.103 208.179C29.7612 207.992 29.3299 207.898 28.8091 207.898C28.3289 207.898 27.9139 207.979 27.564 208.142C27.214 208.305 26.9414 208.525 26.7461 208.801C26.5508 209.078 26.4531 209.391 26.4531 209.741H23.5234C23.5234 209.22 23.6496 208.716 23.9019 208.228C24.1541 207.739 24.5203 207.304 25.0005 206.921C25.4806 206.539 26.0544 206.238 26.7217 206.018C27.389 205.798 28.1377 205.688 28.9678 205.688C29.9606 205.688 30.8395 205.855 31.6045 206.189C32.3776 206.523 32.9839 207.027 33.4233 207.703C33.8709 208.37 34.0947 209.208 34.0947 210.217V216.089C34.0947 216.691 34.1354 217.232 34.2168 217.712C34.3063 218.184 34.4325 218.595 34.5952 218.945V219.141H31.5801C31.4417 218.823 31.3319 218.42 31.2505 217.932C31.1772 217.436 31.1406 216.956 31.1406 216.492ZM31.5679 211.108L31.5923 212.927H29.4805C28.9352 212.927 28.4551 212.98 28.04 213.086C27.625 213.184 27.2791 213.33 27.0024 213.525C26.7257 213.721 26.5182 213.957 26.3799 214.233C26.2415 214.51 26.1724 214.823 26.1724 215.173C26.1724 215.523 26.2537 215.845 26.4165 216.138C26.5793 216.423 26.8153 216.646 27.1245 216.809C27.4419 216.972 27.8244 217.053 28.272 217.053C28.8742 217.053 29.3991 216.931 29.8467 216.687C30.3024 216.435 30.6605 216.13 30.9209 215.771C31.1813 215.405 31.3197 215.059 31.3359 214.734L32.2881 216.04C32.1904 216.374 32.0236 216.732 31.7876 217.114C31.5516 217.497 31.2424 217.863 30.8599 218.213C30.4855 218.555 30.0339 218.835 29.5049 219.055C28.984 219.275 28.3818 219.385 27.6982 219.385C26.8356 219.385 26.0666 219.214 25.3911 218.872C24.7157 218.522 24.1867 218.054 23.8042 217.468C23.4217 216.874 23.2305 216.203 23.2305 215.454C23.2305 214.754 23.3607 214.136 23.6211 213.599C23.8896 213.053 24.2803 212.598 24.793 212.231C25.3138 211.865 25.9486 211.589 26.6973 211.401C27.446 211.206 28.3005 211.108 29.2607 211.108H31.5679ZM40.125 208.447V219.141H37.1831V205.933H39.9907L40.125 208.447ZM44.1655 205.847L44.1411 208.582C43.9621 208.549 43.7668 208.525 43.5552 208.508C43.3517 208.492 43.1483 208.484 42.9448 208.484C42.4403 208.484 41.9967 208.557 41.6143 208.704C41.2318 208.842 40.9103 209.045 40.6499 209.314C40.3976 209.574 40.2023 209.892 40.064 210.266C39.9256 210.64 39.8442 211.06 39.8198 211.523L39.1484 211.572C39.1484 210.742 39.2298 209.973 39.3926 209.265C39.5553 208.557 39.7995 207.935 40.125 207.397C40.4587 206.86 40.8737 206.441 41.3701 206.14C41.8747 205.839 42.4565 205.688 43.1157 205.688C43.2948 205.688 43.486 205.705 43.6895 205.737C43.901 205.77 44.0597 205.806 44.1655 205.847ZM48.9751 200.391V219.141H46.021V200.391H48.9751ZM57.1782 205.933L51.4287 212.305L48.2793 215.527L47.5103 213.037L49.8906 210.095L53.626 205.933H57.1782ZM54.2607 219.141L49.9761 212.939L51.8315 210.876L57.6665 219.141H54.2607ZM64.6245 219.385C63.6479 219.385 62.765 219.226 61.9756 218.909C61.1943 218.583 60.527 218.132 59.9736 217.554C59.4284 216.976 59.0093 216.296 58.7163 215.515C58.4233 214.734 58.2769 213.892 58.2769 212.988V212.5C58.2769 211.466 58.4274 210.531 58.7285 209.692C59.0296 208.854 59.4487 208.138 59.9858 207.544C60.5229 206.942 61.1577 206.482 61.8901 206.165C62.6226 205.847 63.416 205.688 64.2705 205.688C65.2145 205.688 66.0405 205.847 66.7485 206.165C67.4565 206.482 68.0425 206.93 68.5063 207.507C68.9784 208.077 69.3283 208.757 69.5562 209.546C69.7922 210.335 69.9102 211.206 69.9102 212.158V213.416H59.7051V211.304H67.0049V211.072C66.9886 210.543 66.8828 210.046 66.6875 209.583C66.5003 209.119 66.2114 208.744 65.8208 208.459C65.4302 208.175 64.9093 208.032 64.2583 208.032C63.77 208.032 63.3346 208.138 62.9521 208.35C62.5778 208.553 62.2645 208.85 62.0122 209.241C61.7599 209.631 61.5646 210.103 61.4263 210.657C61.2961 211.202 61.231 211.816 61.231 212.5V212.988C61.231 213.566 61.3083 214.103 61.4629 214.6C61.6257 215.088 61.8617 215.515 62.1709 215.881C62.4801 216.248 62.8545 216.536 63.2939 216.748C63.7334 216.951 64.2339 217.053 64.7954 217.053C65.5034 217.053 66.1341 216.911 66.6875 216.626C67.2409 216.341 67.721 215.938 68.1279 215.417L69.6782 216.919C69.3934 217.334 69.0231 217.733 68.5674 218.115C68.1117 218.49 67.5542 218.795 66.895 219.031C66.244 219.267 65.4871 219.385 64.6245 219.385ZM78.2598 205.933V208.081H70.8135V205.933H78.2598ZM72.9619 202.698H75.9038V215.491C75.9038 215.898 75.9608 216.211 76.0747 216.431C76.1968 216.642 76.3636 216.785 76.5752 216.858C76.7868 216.931 77.035 216.968 77.3198 216.968C77.5233 216.968 77.7186 216.956 77.9058 216.931C78.0929 216.907 78.2435 216.882 78.3574 216.858L78.3696 219.104C78.1255 219.177 77.8407 219.242 77.5151 219.299C77.1978 219.356 76.8315 219.385 76.4165 219.385C75.741 219.385 75.1429 219.267 74.6221 219.031C74.1012 218.787 73.6943 218.392 73.4014 217.847C73.1084 217.301 72.9619 216.577 72.9619 215.674V202.698ZM83.6797 205.933V219.141H80.7256V205.933H83.6797ZM80.5303 202.466C80.5303 202.018 80.6768 201.648 80.9697 201.355C81.2708 201.054 81.6859 200.903 82.2148 200.903C82.7357 200.903 83.1466 201.054 83.4478 201.355C83.7489 201.648 83.8994 202.018 83.8994 202.466C83.8994 202.905 83.7489 203.271 83.4478 203.564C83.1466 203.857 82.7357 204.004 82.2148 204.004C81.6859 204.004 81.2708 203.857 80.9697 203.564C80.6768 203.271 80.5303 202.905 80.5303 202.466ZM89.8198 208.752V219.141H86.8779V205.933H89.6489L89.8198 208.752ZM89.2949 212.048L88.3428 212.036C88.3509 211.1 88.4811 210.242 88.7334 209.46C88.9938 208.679 89.3519 208.008 89.8076 207.446C90.2715 206.885 90.8249 206.453 91.4678 206.152C92.1107 205.843 92.8268 205.688 93.6162 205.688C94.251 205.688 94.8247 205.778 95.3374 205.957C95.8582 206.128 96.3018 206.409 96.668 206.799C97.0423 207.19 97.3271 207.699 97.5225 208.325C97.7178 208.944 97.8154 209.705 97.8154 210.608V219.141H94.8613V210.596C94.8613 209.961 94.7677 209.46 94.5806 209.094C94.4015 208.72 94.137 208.455 93.7871 208.301C93.4453 208.138 93.0181 208.057 92.5054 208.057C92.0008 208.057 91.5492 208.162 91.1504 208.374C90.7516 208.586 90.4139 208.875 90.1372 209.241C89.8687 209.607 89.6611 210.03 89.5146 210.51C89.3682 210.99 89.2949 211.503 89.2949 212.048ZM109.278 205.933H111.951V218.774C111.951 219.963 111.699 220.972 111.194 221.802C110.69 222.632 109.986 223.263 109.083 223.694C108.179 224.133 107.133 224.353 105.945 224.353C105.441 224.353 104.879 224.28 104.261 224.133C103.65 223.987 103.056 223.751 102.479 223.425C101.909 223.108 101.433 222.689 101.05 222.168L102.43 220.435C102.902 220.996 103.423 221.407 103.992 221.667C104.562 221.928 105.16 222.058 105.787 222.058C106.462 222.058 107.036 221.932 107.508 221.68C107.988 221.436 108.358 221.073 108.619 220.593C108.879 220.113 109.009 219.527 109.009 218.835V208.923L109.278 205.933ZM100.306 212.683V212.427C100.306 211.426 100.428 210.514 100.672 209.692C100.916 208.862 101.266 208.15 101.722 207.556C102.177 206.954 102.731 206.494 103.382 206.177C104.033 205.851 104.769 205.688 105.591 205.688C106.446 205.688 107.174 205.843 107.776 206.152C108.387 206.462 108.895 206.905 109.302 207.483C109.709 208.053 110.027 208.736 110.254 209.534C110.49 210.323 110.665 211.202 110.779 212.17V212.988C110.674 213.932 110.494 214.795 110.242 215.576C109.99 216.357 109.656 217.033 109.241 217.603C108.826 218.172 108.313 218.612 107.703 218.921C107.101 219.23 106.389 219.385 105.567 219.385C104.761 219.385 104.033 219.218 103.382 218.884C102.739 218.551 102.186 218.083 101.722 217.48C101.266 216.878 100.916 216.17 100.672 215.356C100.428 214.535 100.306 213.643 100.306 212.683ZM103.248 212.427V212.683C103.248 213.285 103.305 213.847 103.418 214.368C103.541 214.889 103.724 215.348 103.968 215.747C104.22 216.138 104.537 216.447 104.92 216.675C105.311 216.895 105.77 217.004 106.299 217.004C106.991 217.004 107.557 216.858 107.996 216.565C108.444 216.272 108.785 215.877 109.021 215.381C109.266 214.876 109.437 214.315 109.534 213.696V211.487C109.485 211.007 109.384 210.559 109.229 210.144C109.083 209.729 108.883 209.367 108.631 209.058C108.379 208.74 108.061 208.496 107.679 208.325C107.296 208.146 106.845 208.057 106.324 208.057C105.795 208.057 105.335 208.171 104.944 208.398C104.554 208.626 104.232 208.94 103.98 209.338C103.736 209.737 103.553 210.201 103.431 210.73C103.309 211.259 103.248 211.825 103.248 212.427ZM124.268 209.473L127.332 207.41C127.845 207.068 128.211 206.734 128.431 206.409C128.65 206.075 128.76 205.66 128.76 205.164C128.76 204.74 128.597 204.35 128.272 203.992C127.946 203.634 127.487 203.455 126.893 203.455C126.478 203.455 126.128 203.552 125.843 203.748C125.558 203.935 125.342 204.187 125.196 204.504C125.057 204.814 124.988 205.16 124.988 205.542C124.988 205.908 125.082 206.287 125.269 206.677C125.456 207.06 125.713 207.463 126.038 207.886C126.364 208.301 126.73 208.748 127.137 209.229L135.535 219.141H132.129L125.269 211.072C124.675 210.356 124.15 209.701 123.694 209.106C123.239 208.504 122.885 207.922 122.632 207.361C122.38 206.791 122.254 206.205 122.254 205.603C122.254 204.675 122.445 203.878 122.828 203.21C123.21 202.543 123.751 202.03 124.451 201.672C125.151 201.306 125.969 201.123 126.905 201.123C127.808 201.123 128.585 201.306 129.236 201.672C129.896 202.03 130.4 202.507 130.75 203.101C131.108 203.695 131.287 204.346 131.287 205.054C131.287 205.615 131.185 206.128 130.982 206.592C130.778 207.056 130.498 207.479 130.14 207.861C129.782 208.244 129.367 208.606 128.895 208.948L125.171 211.658C124.74 212.008 124.419 212.345 124.207 212.671C124.004 212.988 123.869 213.281 123.804 213.55C123.739 213.818 123.707 214.054 123.707 214.258C123.707 214.779 123.816 215.251 124.036 215.674C124.264 216.097 124.594 216.435 125.025 216.687C125.464 216.931 125.997 217.053 126.624 217.053C127.299 217.053 127.955 216.903 128.589 216.602C129.224 216.292 129.794 215.857 130.298 215.295C130.803 214.734 131.202 214.062 131.495 213.281C131.796 212.5 131.946 211.633 131.946 210.681H134.485C134.485 211.544 134.4 212.362 134.229 213.135C134.066 213.908 133.802 214.624 133.436 215.283C133.077 215.942 132.605 216.532 132.02 217.053C131.963 217.11 131.897 217.183 131.824 217.273C131.759 217.354 131.694 217.424 131.629 217.48C130.929 218.123 130.144 218.604 129.273 218.921C128.41 219.23 127.491 219.385 126.514 219.385C125.334 219.385 124.313 219.169 123.45 218.738C122.588 218.306 121.92 217.712 121.448 216.956C120.984 216.199 120.752 215.332 120.752 214.355C120.752 213.631 120.903 212.996 121.204 212.451C121.505 211.898 121.916 211.385 122.437 210.913C122.966 210.433 123.576 209.953 124.268 209.473ZM150.538 212.512H145.911V210.083H150.538C151.343 210.083 151.994 209.953 152.491 209.692C152.987 209.432 153.349 209.074 153.577 208.618C153.813 208.154 153.931 207.625 153.931 207.031C153.931 206.47 153.813 205.945 153.577 205.457C153.349 204.96 152.987 204.561 152.491 204.26C151.994 203.959 151.343 203.809 150.538 203.809H146.851V219.141H143.787V201.367H150.538C151.913 201.367 153.081 201.611 154.041 202.1C155.009 202.58 155.746 203.247 156.25 204.102C156.755 204.948 157.007 205.916 157.007 207.007C157.007 208.154 156.755 209.139 156.25 209.961C155.746 210.783 155.009 211.414 154.041 211.853C153.081 212.292 151.913 212.512 150.538 212.512ZM159.754 201.367H166.041C167.391 201.367 168.543 201.571 169.495 201.978C170.447 202.384 171.176 202.987 171.68 203.784C172.193 204.574 172.449 205.55 172.449 206.714C172.449 207.601 172.286 208.382 171.961 209.058C171.635 209.733 171.176 210.303 170.582 210.767C169.987 211.222 169.279 211.576 168.458 211.829L167.53 212.28H161.878L161.854 209.851H166.089C166.822 209.851 167.432 209.721 167.92 209.46C168.409 209.2 168.775 208.846 169.019 208.398C169.271 207.943 169.397 207.43 169.397 206.86C169.397 206.242 169.275 205.705 169.031 205.249C168.795 204.785 168.429 204.431 167.933 204.187C167.436 203.935 166.806 203.809 166.041 203.809H162.818V219.141H159.754V201.367ZM169.898 219.141L165.723 211.157L168.934 211.145L173.169 218.982V219.141H169.898Z" fill="white"/>
<path d="M205.971 30.7114V33.1406H197.047V30.7114H205.971ZM197.902 15.3672V33.1406H194.838V15.3672H197.902ZM213.869 33.3848C212.892 33.3848 212.009 33.2261 211.22 32.9087C210.438 32.5832 209.771 32.1315 209.218 31.5537C208.673 30.9759 208.253 30.2964 207.96 29.5151C207.667 28.7339 207.521 27.8916 207.521 26.9883V26.5C207.521 25.4665 207.672 24.5306 207.973 23.6924C208.274 22.8542 208.693 22.138 209.23 21.5439C209.767 20.9417 210.402 20.4819 211.134 20.1646C211.867 19.8472 212.66 19.6885 213.515 19.6885C214.459 19.6885 215.285 19.8472 215.993 20.1646C216.701 20.4819 217.287 20.9295 217.75 21.5073C218.222 22.077 218.572 22.7565 218.8 23.5459C219.036 24.3353 219.154 25.2061 219.154 26.1582V27.4155H208.949V25.3037H216.249V25.0718C216.233 24.5428 216.127 24.0464 215.932 23.5825C215.744 23.1187 215.456 22.7443 215.065 22.4595C214.674 22.1746 214.153 22.0322 213.502 22.0322C213.014 22.0322 212.579 22.138 212.196 22.3496C211.822 22.5531 211.509 22.8501 211.256 23.2407C211.004 23.6313 210.809 24.1034 210.67 24.6567C210.54 25.202 210.475 25.8164 210.475 26.5V26.9883C210.475 27.5661 210.552 28.1032 210.707 28.5996C210.87 29.0879 211.106 29.5151 211.415 29.8813C211.724 30.2476 212.099 30.5365 212.538 30.748C212.978 30.9515 213.478 31.0532 214.04 31.0532C214.748 31.0532 215.378 30.9108 215.932 30.626C216.485 30.3411 216.965 29.9383 217.372 29.4175L218.922 30.9189C218.638 31.334 218.267 31.7327 217.812 32.1152C217.356 32.4896 216.798 32.7948 216.139 33.0308C215.488 33.2668 214.731 33.3848 213.869 33.3848ZM229.909 19.9326H232.582V32.7744C232.582 33.9626 232.33 34.9717 231.825 35.8018C231.321 36.6318 230.617 37.2625 229.713 37.6938C228.81 38.1333 227.764 38.353 226.576 38.353C226.072 38.353 225.51 38.2798 224.892 38.1333C224.281 37.9868 223.687 37.7508 223.109 37.4253C222.54 37.1079 222.064 36.6888 221.681 36.168L223.061 34.4346C223.533 34.9961 224.053 35.4071 224.623 35.6675C225.193 35.9279 225.791 36.0581 226.417 36.0581C227.093 36.0581 227.667 35.932 228.139 35.6797C228.619 35.4355 228.989 35.0734 229.25 34.5933C229.51 34.1131 229.64 33.5272 229.64 32.8354V22.9233L229.909 19.9326ZM220.937 26.6831V26.4268C220.937 25.4258 221.059 24.5143 221.303 23.6924C221.547 22.8623 221.897 22.1502 222.353 21.5562C222.808 20.9539 223.362 20.4941 224.013 20.1768C224.664 19.8512 225.4 19.6885 226.222 19.6885C227.077 19.6885 227.805 19.8431 228.407 20.1523C229.018 20.4616 229.526 20.9051 229.933 21.4829C230.34 22.0526 230.657 22.7362 230.885 23.5337C231.121 24.3231 231.296 25.202 231.41 26.1704V26.9883C231.304 27.9323 231.125 28.7949 230.873 29.5762C230.621 30.3574 230.287 31.0329 229.872 31.6025C229.457 32.1722 228.944 32.6117 228.334 32.9209C227.732 33.2301 227.02 33.3848 226.198 33.3848C225.392 33.3848 224.664 33.2179 224.013 32.8843C223.37 32.5506 222.816 32.0827 222.353 31.4805C221.897 30.8783 221.547 30.1702 221.303 29.3564C221.059 28.5345 220.937 27.6434 220.937 26.6831ZM223.878 26.4268V26.6831C223.878 27.2853 223.935 27.8468 224.049 28.3677C224.171 28.8885 224.354 29.3483 224.599 29.7471C224.851 30.1377 225.168 30.4469 225.551 30.6748C225.941 30.8945 226.401 31.0044 226.93 31.0044C227.622 31.0044 228.188 30.8579 228.627 30.5649C229.075 30.272 229.416 29.8773 229.652 29.3809C229.896 28.8763 230.067 28.3148 230.165 27.6963V25.4868C230.116 25.0067 230.014 24.5591 229.86 24.144C229.713 23.729 229.514 23.3669 229.262 23.0576C229.009 22.7402 228.692 22.4961 228.31 22.3252C227.927 22.1462 227.475 22.0566 226.955 22.0566C226.426 22.0566 225.966 22.1706 225.575 22.3984C225.185 22.6263 224.863 22.9396 224.611 23.3384C224.367 23.7371 224.184 24.201 224.062 24.73C223.939 25.259 223.878 25.8245 223.878 26.4268ZM243.08 30.4917V24.1929C243.08 23.7209 242.995 23.314 242.824 22.9722C242.653 22.6304 242.392 22.3659 242.042 22.1787C241.701 21.9915 241.269 21.8979 240.749 21.8979C240.268 21.8979 239.853 21.9793 239.503 22.1421C239.153 22.3049 238.881 22.5246 238.686 22.8013C238.49 23.078 238.393 23.3913 238.393 23.7412H235.463C235.463 23.2204 235.589 22.7158 235.841 22.2275C236.094 21.7393 236.46 21.3039 236.94 20.9214C237.42 20.5389 237.994 20.2378 238.661 20.0181C239.328 19.7983 240.077 19.6885 240.907 19.6885C241.9 19.6885 242.779 19.8553 243.544 20.189C244.317 20.5226 244.923 21.0272 245.363 21.7026C245.81 22.37 246.034 23.2082 246.034 24.2173V30.0889C246.034 30.6911 246.075 31.2323 246.156 31.7124C246.246 32.1844 246.372 32.5954 246.535 32.9453V33.1406H243.52C243.381 32.8232 243.271 32.4204 243.19 31.9321C243.117 31.4357 243.08 30.9556 243.08 30.4917ZM243.507 25.1084L243.532 26.9272H241.42C240.875 26.9272 240.395 26.9801 239.979 27.0859C239.564 27.1836 239.219 27.3301 238.942 27.5254C238.665 27.7207 238.458 27.9567 238.319 28.2334C238.181 28.5101 238.112 28.8234 238.112 29.1733C238.112 29.5233 238.193 29.8447 238.356 30.1377C238.519 30.4225 238.755 30.6463 239.064 30.8091C239.381 30.9718 239.764 31.0532 240.211 31.0532C240.814 31.0532 241.339 30.9312 241.786 30.687C242.242 30.4347 242.6 30.1296 242.86 29.7715C243.121 29.4053 243.259 29.0594 243.275 28.7339L244.228 30.04C244.13 30.3737 243.963 30.7318 243.727 31.1143C243.491 31.4967 243.182 31.863 242.799 32.2129C242.425 32.5547 241.973 32.8354 241.444 33.0552C240.924 33.2749 240.321 33.3848 239.638 33.3848C238.775 33.3848 238.006 33.2139 237.331 32.8721C236.655 32.5221 236.126 32.0542 235.744 31.4683C235.361 30.8742 235.17 30.2028 235.17 29.4541C235.17 28.7542 235.3 28.1357 235.561 27.5986C235.829 27.0534 236.22 26.5977 236.732 26.2314C237.253 25.8652 237.888 25.5885 238.637 25.4014C239.385 25.2061 240.24 25.1084 241.2 25.1084H243.507ZM252.26 14.3906V33.1406H249.306V14.3906H252.26Z" fill="white"/>
<path d="M553.101 15.3672V33.1406H550.037V15.3672H553.101ZM559.534 22.7524V33.1406H556.592V19.9326H559.363L559.534 22.7524ZM559.009 26.0483L558.057 26.0361C558.065 25.1003 558.195 24.2417 558.448 23.4604C558.708 22.6792 559.066 22.0078 559.522 21.4463C559.986 20.8848 560.539 20.4535 561.182 20.1523C561.825 19.8431 562.541 19.6885 563.331 19.6885C563.965 19.6885 564.539 19.778 565.052 19.957C565.573 20.1279 566.016 20.4087 566.382 20.7993C566.757 21.1899 567.042 21.6986 567.237 22.3252C567.432 22.9437 567.53 23.7046 567.53 24.6079V33.1406H564.576V24.5957C564.576 23.9609 564.482 23.4604 564.295 23.0942C564.116 22.7199 563.851 22.4554 563.501 22.3008C563.16 22.138 562.732 22.0566 562.22 22.0566C561.715 22.0566 561.264 22.1624 560.865 22.374C560.466 22.5856 560.128 22.8745 559.852 23.2407C559.583 23.6069 559.375 24.0301 559.229 24.5103C559.083 24.9904 559.009 25.5031 559.009 26.0483ZM574.512 33.1406H571.57V18.6631C571.57 17.6784 571.753 16.8524 572.12 16.1851C572.494 15.5096 573.027 15.001 573.719 14.6592C574.41 14.3092 575.228 14.1343 576.172 14.1343C576.465 14.1343 576.754 14.1546 577.039 14.1953C577.324 14.2279 577.601 14.2808 577.869 14.354L577.796 16.6245C577.633 16.5838 577.454 16.5553 577.259 16.5391C577.072 16.5228 576.868 16.5146 576.648 16.5146C576.201 16.5146 575.814 16.6001 575.489 16.771C575.171 16.9338 574.927 17.1738 574.756 17.4912C574.594 17.8086 574.512 18.1992 574.512 18.6631V33.1406ZM577.234 19.9326V22.0811H569.544V19.9326H577.234ZM582.325 22.4473V33.1406H579.383V19.9326H582.19L582.325 22.4473ZM586.365 19.8472L586.341 22.5815C586.162 22.549 585.966 22.5246 585.755 22.5083C585.551 22.492 585.348 22.4839 585.145 22.4839C584.64 22.4839 584.196 22.5571 583.814 22.7036C583.431 22.842 583.11 23.0454 582.85 23.314C582.597 23.5744 582.402 23.8918 582.264 24.2661C582.125 24.6405 582.044 25.0596 582.02 25.5234L581.348 25.5723C581.348 24.7422 581.43 23.9731 581.592 23.2651C581.755 22.5571 581.999 21.9346 582.325 21.3975C582.658 20.8604 583.073 20.4412 583.57 20.1401C584.074 19.839 584.656 19.6885 585.315 19.6885C585.494 19.6885 585.686 19.7048 585.889 19.7373C586.101 19.7699 586.259 19.8065 586.365 19.8472ZM595.215 30.4917V24.1929C595.215 23.7209 595.13 23.314 594.959 22.9722C594.788 22.6304 594.528 22.3659 594.178 22.1787C593.836 21.9915 593.405 21.8979 592.884 21.8979C592.404 21.8979 591.989 21.9793 591.639 22.1421C591.289 22.3049 591.016 22.5246 590.821 22.8013C590.625 23.078 590.528 23.3913 590.528 23.7412H587.598C587.598 23.2204 587.724 22.7158 587.977 22.2275C588.229 21.7393 588.595 21.3039 589.075 20.9214C589.555 20.5389 590.129 20.2378 590.796 20.0181C591.464 19.7983 592.212 19.6885 593.042 19.6885C594.035 19.6885 594.914 19.8553 595.679 20.189C596.452 20.5226 597.059 21.0272 597.498 21.7026C597.946 22.37 598.169 23.2082 598.169 24.2173V30.0889C598.169 30.6911 598.21 31.2323 598.292 31.7124C598.381 32.1844 598.507 32.5954 598.67 32.9453V33.1406H595.655C595.516 32.8232 595.407 32.4204 595.325 31.9321C595.252 31.4357 595.215 30.9556 595.215 30.4917ZM595.643 25.1084L595.667 26.9272H593.555C593.01 26.9272 592.53 26.9801 592.115 27.0859C591.7 27.1836 591.354 27.3301 591.077 27.5254C590.8 27.7207 590.593 27.9567 590.455 28.2334C590.316 28.5101 590.247 28.8234 590.247 29.1733C590.247 29.5233 590.328 29.8447 590.491 30.1377C590.654 30.4225 590.89 30.6463 591.199 30.8091C591.517 30.9718 591.899 31.0532 592.347 31.0532C592.949 31.0532 593.474 30.9312 593.921 30.687C594.377 30.4347 594.735 30.1296 594.996 29.7715C595.256 29.4053 595.394 29.0594 595.411 28.7339L596.363 30.04C596.265 30.3737 596.098 30.7318 595.862 31.1143C595.626 31.4967 595.317 31.863 594.935 32.2129C594.56 32.5547 594.109 32.8354 593.58 33.0552C593.059 33.2749 592.457 33.3848 591.773 33.3848C590.91 33.3848 590.141 33.2139 589.466 32.8721C588.79 32.5221 588.261 32.0542 587.879 31.4683C587.496 30.8742 587.305 30.2028 587.305 29.4541C587.305 28.7542 587.435 28.1357 587.696 27.5986C587.964 27.0534 588.355 26.5977 588.868 26.2314C589.389 25.8652 590.023 25.5885 590.772 25.4014C591.521 25.2061 592.375 25.1084 593.335 25.1084H595.643ZM608.655 29.564C608.655 29.271 608.582 29.0065 608.436 28.7705C608.289 28.5264 608.008 28.3066 607.593 28.1113C607.186 27.916 606.584 27.737 605.787 27.5742C605.087 27.4196 604.444 27.2365 603.858 27.0249C603.28 26.8052 602.784 26.5407 602.369 26.2314C601.954 25.9222 601.632 25.556 601.404 25.1328C601.176 24.7096 601.062 24.2214 601.062 23.668C601.062 23.1309 601.181 22.6222 601.417 22.1421C601.653 21.6619 601.99 21.2388 602.43 20.8726C602.869 20.5063 603.402 20.2174 604.029 20.0059C604.664 19.7943 605.372 19.6885 606.153 19.6885C607.26 19.6885 608.208 19.8757 608.997 20.25C609.795 20.6162 610.405 21.1167 610.828 21.7515C611.251 22.3781 611.463 23.0861 611.463 23.8755H608.521C608.521 23.5256 608.431 23.2 608.252 22.8989C608.082 22.5897 607.821 22.3415 607.471 22.1543C607.121 21.959 606.682 21.8613 606.153 21.8613C605.648 21.8613 605.229 21.9427 604.896 22.1055C604.57 22.2601 604.326 22.4635 604.163 22.7158C604.008 22.9681 603.931 23.2448 603.931 23.5459C603.931 23.7656 603.972 23.965 604.053 24.144C604.143 24.3149 604.289 24.4736 604.493 24.6201C604.696 24.7585 604.973 24.8887 605.323 25.0107C605.681 25.1328 606.128 25.2508 606.666 25.3647C607.675 25.5763 608.541 25.849 609.266 26.1826C609.998 26.5081 610.56 26.9313 610.95 27.4521C611.341 27.9648 611.536 28.6159 611.536 29.4053C611.536 29.9912 611.41 30.5283 611.158 31.0166C610.914 31.4967 610.556 31.9159 610.083 32.2739C609.611 32.6239 609.046 32.8965 608.387 33.0918C607.736 33.2871 607.003 33.3848 606.189 33.3848C604.993 33.3848 603.98 33.1732 603.15 32.75C602.32 32.3187 601.689 31.7694 601.258 31.1021C600.835 30.4266 600.623 29.7267 600.623 29.0024H603.467C603.5 29.5477 603.65 29.9831 603.919 30.3086C604.196 30.626 604.537 30.8579 604.944 31.0044C605.359 31.1427 605.787 31.2119 606.226 31.2119C606.755 31.2119 607.199 31.1427 607.557 31.0044C607.915 30.8579 608.187 30.6626 608.375 30.4185C608.562 30.1662 608.655 29.8813 608.655 29.564ZM620.167 19.9326V22.0811H612.72V19.9326H620.167ZM614.869 16.6978H617.811V29.4907C617.811 29.8976 617.868 30.2109 617.981 30.4307C618.104 30.6423 618.27 30.7847 618.482 30.8579C618.694 30.9312 618.942 30.9678 619.227 30.9678C619.43 30.9678 619.625 30.9556 619.812 30.9312C620 30.9067 620.15 30.8823 620.264 30.8579L620.276 33.104C620.032 33.1772 619.747 33.2424 619.422 33.2993C619.104 33.3563 618.738 33.3848 618.323 33.3848C617.648 33.3848 617.05 33.2668 616.529 33.0308C616.008 32.7866 615.601 32.3919 615.308 31.8467C615.015 31.3014 614.869 30.5771 614.869 29.6738V16.6978ZM625.391 22.4473V33.1406H622.449V19.9326H625.257L625.391 22.4473ZM629.432 19.8472L629.407 22.5815C629.228 22.549 629.033 22.5246 628.821 22.5083C628.618 22.492 628.414 22.4839 628.211 22.4839C627.706 22.4839 627.263 22.5571 626.88 22.7036C626.498 22.842 626.176 23.0454 625.916 23.314C625.664 23.5744 625.468 23.8918 625.33 24.2661C625.192 24.6405 625.11 25.0596 625.086 25.5234L624.415 25.5723C624.415 24.7422 624.496 23.9731 624.659 23.2651C624.821 22.5571 625.066 21.9346 625.391 21.3975C625.725 20.8604 626.14 20.4412 626.636 20.1401C627.141 19.839 627.723 19.6885 628.382 19.6885C628.561 19.6885 628.752 19.7048 628.956 19.7373C629.167 19.7699 629.326 19.8065 629.432 19.8472ZM639.222 30.0278V19.9326H642.176V33.1406H639.393L639.222 30.0278ZM639.637 27.2812L640.625 27.2568C640.625 28.1439 640.528 28.9618 640.333 29.7104C640.137 30.451 639.836 31.098 639.429 31.6514C639.022 32.1966 638.501 32.6239 637.867 32.9331C637.232 33.2342 636.471 33.3848 635.584 33.3848C634.941 33.3848 634.351 33.2912 633.814 33.104C633.277 32.9168 632.813 32.6279 632.422 32.2373C632.04 31.8467 631.743 31.3381 631.531 30.7114C631.32 30.0848 631.214 29.3361 631.214 28.4653V19.9326H634.156V28.4897C634.156 28.9699 634.213 29.3727 634.327 29.6982C634.441 30.0156 634.595 30.272 634.791 30.4673C634.986 30.6626 635.214 30.8009 635.474 30.8823C635.735 30.9637 636.011 31.0044 636.304 31.0044C637.142 31.0044 637.802 30.8416 638.282 30.5161C638.77 30.1825 639.116 29.7349 639.319 29.1733C639.531 28.6118 639.637 27.9811 639.637 27.2812ZM650.586 31.041C651.067 31.041 651.498 30.9474 651.88 30.7603C652.271 30.5649 652.584 30.2964 652.82 29.9546C653.064 29.6128 653.199 29.2181 653.223 28.7705H655.994C655.978 29.625 655.726 30.4022 655.237 31.1021C654.749 31.8019 654.102 32.3594 653.296 32.7744C652.491 33.1813 651.6 33.3848 650.623 33.3848C649.614 33.3848 648.735 33.2139 647.986 32.8721C647.238 32.5221 646.615 32.042 646.119 31.4316C645.622 30.8213 645.248 30.1174 644.996 29.3198C644.751 28.5223 644.629 27.6678 644.629 26.7563V26.3291C644.629 25.4176 644.751 24.5632 644.996 23.7656C645.248 22.96 645.622 22.252 646.119 21.6416C646.615 21.0312 647.238 20.5552 647.986 20.2134C648.735 19.8634 649.61 19.6885 650.611 19.6885C651.669 19.6885 652.597 19.9001 653.394 20.3232C654.192 20.7383 654.818 21.3201 655.274 22.0688C655.738 22.8094 655.978 23.672 655.994 24.6567H653.223C653.199 24.1685 653.077 23.729 652.857 23.3384C652.645 22.9396 652.344 22.6222 651.954 22.3862C651.571 22.1502 651.111 22.0322 650.574 22.0322C649.98 22.0322 649.488 22.1543 649.097 22.3984C648.707 22.6344 648.401 22.96 648.182 23.375C647.962 23.7819 647.803 24.2417 647.706 24.7544C647.616 25.259 647.571 25.7839 647.571 26.3291V26.7563C647.571 27.3016 647.616 27.8306 647.706 28.3433C647.795 28.856 647.95 29.3158 648.169 29.7227C648.397 30.1214 648.707 30.4429 649.097 30.687C649.488 30.923 649.984 31.041 650.586 31.041ZM664.307 19.9326V22.0811H656.861V19.9326H664.307ZM659.009 16.6978H661.951V29.4907C661.951 29.8976 662.008 30.2109 662.122 30.4307C662.244 30.6423 662.411 30.7847 662.623 30.8579C662.834 30.9312 663.082 30.9678 663.367 30.9678C663.571 30.9678 663.766 30.9556 663.953 30.9312C664.14 30.9067 664.291 30.8823 664.405 30.8579L664.417 33.104C664.173 33.1772 663.888 33.2424 663.562 33.2993C663.245 33.3563 662.879 33.3848 662.464 33.3848C661.788 33.3848 661.19 33.2668 660.669 33.0308C660.149 32.7866 659.742 32.3919 659.449 31.8467C659.156 31.3014 659.009 30.5771 659.009 29.6738V16.6978ZM674.524 30.0278V19.9326H677.479V33.1406H674.695L674.524 30.0278ZM674.939 27.2812L675.928 27.2568C675.928 28.1439 675.831 28.9618 675.635 29.7104C675.44 30.451 675.139 31.098 674.732 31.6514C674.325 32.1966 673.804 32.6239 673.169 32.9331C672.535 33.2342 671.774 33.3848 670.887 33.3848C670.244 33.3848 669.654 33.2912 669.117 33.104C668.58 32.9168 668.116 32.6279 667.725 32.2373C667.343 31.8467 667.046 31.3381 666.834 30.7114C666.622 30.0848 666.517 29.3361 666.517 28.4653V19.9326H669.458V28.4897C669.458 28.9699 669.515 29.3727 669.629 29.6982C669.743 30.0156 669.898 30.272 670.093 30.4673C670.289 30.6626 670.516 30.8009 670.777 30.8823C671.037 30.9637 671.314 31.0044 671.607 31.0044C672.445 31.0044 673.104 30.8416 673.584 30.5161C674.073 30.1825 674.419 29.7349 674.622 29.1733C674.834 28.6118 674.939 27.9811 674.939 27.2812ZM683.448 22.4473V33.1406H680.506V19.9326H683.313L683.448 22.4473ZM687.488 19.8472L687.464 22.5815C687.285 22.549 687.09 22.5246 686.878 22.5083C686.674 22.492 686.471 22.4839 686.268 22.4839C685.763 22.4839 685.319 22.5571 684.937 22.7036C684.555 22.842 684.233 23.0454 683.973 23.314C683.72 23.5744 683.525 23.8918 683.387 24.2661C683.248 24.6405 683.167 25.0596 683.143 25.5234L682.471 25.5723C682.471 24.7422 682.553 23.9731 682.715 23.2651C682.878 22.5571 683.122 21.9346 683.448 21.3975C683.781 20.8604 684.196 20.4412 684.693 20.1401C685.197 19.839 685.779 19.6885 686.438 19.6885C686.618 19.6885 686.809 19.7048 687.012 19.7373C687.224 19.7699 687.382 19.8065 687.488 19.8472ZM694.91 33.3848C693.934 33.3848 693.051 33.2261 692.261 32.9087C691.48 32.5832 690.813 32.1315 690.259 31.5537C689.714 30.9759 689.295 30.2964 689.002 29.5151C688.709 28.7339 688.562 27.8916 688.562 26.9883V26.5C688.562 25.4665 688.713 24.5306 689.014 23.6924C689.315 22.8542 689.734 22.138 690.271 21.5439C690.809 20.9417 691.443 20.4819 692.176 20.1646C692.908 19.8472 693.702 19.6885 694.556 19.6885C695.5 19.6885 696.326 19.8472 697.034 20.1646C697.742 20.4819 698.328 20.9295 698.792 21.5073C699.264 22.077 699.614 22.7565 699.842 23.5459C700.078 24.3353 700.196 25.2061 700.196 26.1582V27.4155H689.991V25.3037H697.291V25.0718C697.274 24.5428 697.168 24.0464 696.973 23.5825C696.786 23.1187 696.497 22.7443 696.106 22.4595C695.716 22.1746 695.195 22.0322 694.544 22.0322C694.056 22.0322 693.62 22.138 693.238 22.3496C692.863 22.5531 692.55 22.8501 692.298 23.2407C692.046 23.6313 691.85 24.1034 691.712 24.6567C691.582 25.202 691.517 25.8164 691.517 26.5V26.9883C691.517 27.5661 691.594 28.1032 691.749 28.5996C691.911 29.0879 692.147 29.5151 692.457 29.8813C692.766 30.2476 693.14 30.5365 693.58 30.748C694.019 30.9515 694.52 31.0532 695.081 31.0532C695.789 31.0532 696.42 30.9108 696.973 30.626C697.527 30.3411 698.007 29.9383 698.414 29.4175L699.964 30.9189C699.679 31.334 699.309 31.7327 698.853 32.1152C698.397 32.4896 697.84 32.7948 697.181 33.0308C696.53 33.2668 695.773 33.3848 694.91 33.3848Z" fill="white"/>
<path d="M736.324 244.448H737.813C738.724 244.448 739.485 244.294 740.096 243.984C740.714 243.667 741.178 243.248 741.487 242.727C741.805 242.206 741.963 241.628 741.963 240.994C741.963 240.278 741.829 239.651 741.561 239.114C741.292 238.569 740.881 238.145 740.328 237.844C739.782 237.535 739.083 237.38 738.228 237.38C737.479 237.38 736.812 237.527 736.226 237.82C735.64 238.113 735.176 238.532 734.834 239.077C734.493 239.622 734.322 240.273 734.322 241.03H732.869C732.869 240.062 733.101 239.211 733.565 238.479C734.029 237.738 734.668 237.161 735.481 236.746C736.295 236.331 737.211 236.123 738.228 236.123C739.278 236.123 740.189 236.314 740.962 236.697C741.744 237.079 742.346 237.637 742.769 238.369C743.2 239.102 743.416 239.993 743.416 241.042C743.416 241.58 743.298 242.109 743.062 242.629C742.834 243.15 742.492 243.622 742.037 244.045C741.581 244.46 741.015 244.794 740.34 245.046C739.664 245.299 738.879 245.425 737.984 245.425H736.324V244.448ZM736.324 245.706V244.741H737.984C739.001 244.741 739.872 244.859 740.596 245.095C741.32 245.323 741.915 245.649 742.378 246.072C742.85 246.487 743.196 246.971 743.416 247.524C743.636 248.078 743.746 248.672 743.746 249.307C743.746 250.12 743.611 250.841 743.343 251.467C743.074 252.094 742.692 252.627 742.195 253.066C741.707 253.498 741.129 253.827 740.462 254.055C739.803 254.275 739.078 254.385 738.289 254.385C737.573 254.385 736.873 254.279 736.189 254.067C735.514 253.856 734.904 253.542 734.358 253.127C733.821 252.704 733.394 252.175 733.077 251.541C732.759 250.898 732.601 250.157 732.601 249.319H734.053C734.053 250.068 734.232 250.731 734.59 251.309C734.948 251.878 735.445 252.326 736.08 252.651C736.722 252.969 737.459 253.127 738.289 253.127C739.127 253.127 739.843 252.985 740.438 252.7C741.04 252.407 741.5 251.98 741.817 251.418C742.134 250.857 742.293 250.169 742.293 249.355C742.293 248.501 742.102 247.805 741.719 247.268C741.345 246.731 740.82 246.336 740.145 246.084C739.477 245.832 738.7 245.706 737.813 245.706H736.324ZM758.064 252.883V254.141H746.944V253.005L752.767 246.401C753.491 245.579 754.069 244.859 754.5 244.241C754.931 243.614 755.241 243.044 755.428 242.532C755.623 242.011 755.721 241.506 755.721 241.018C755.721 240.302 755.578 239.671 755.293 239.126C755.017 238.581 754.602 238.153 754.048 237.844C753.495 237.535 752.811 237.38 751.998 237.38C751.184 237.38 750.476 237.555 749.874 237.905C749.271 238.255 748.807 238.743 748.482 239.37C748.165 239.989 748.006 240.693 748.006 241.482H746.553C746.553 240.505 746.769 239.61 747.2 238.796C747.64 237.983 748.266 237.336 749.08 236.855C749.894 236.367 750.866 236.123 751.998 236.123C753.072 236.123 753.995 236.314 754.769 236.697C755.542 237.071 756.136 237.612 756.551 238.32C756.974 239.028 757.186 239.883 757.186 240.884C757.186 241.421 757.088 241.962 756.893 242.507C756.705 243.053 756.445 243.598 756.111 244.143C755.786 244.68 755.411 245.213 754.988 245.742C754.573 246.271 754.138 246.792 753.682 247.305L748.726 252.883H758.064ZM760.469 240.725V239.785C760.469 239.11 760.612 238.495 760.896 237.942C761.181 237.389 761.584 236.945 762.105 236.611C762.626 236.278 763.236 236.111 763.936 236.111C764.652 236.111 765.267 236.278 765.779 236.611C766.3 236.945 766.703 237.389 766.988 237.942C767.273 238.495 767.415 239.11 767.415 239.785V240.725C767.415 241.384 767.273 241.991 766.988 242.544C766.711 243.097 766.312 243.541 765.792 243.875C765.279 244.208 764.668 244.375 763.96 244.375C763.252 244.375 762.634 244.208 762.105 243.875C761.584 243.541 761.181 243.097 760.896 242.544C760.612 241.991 760.469 241.384 760.469 240.725ZM761.641 239.785V240.725C761.641 241.156 761.722 241.571 761.885 241.97C762.056 242.361 762.312 242.682 762.654 242.935C763.004 243.187 763.44 243.313 763.96 243.313C764.481 243.313 764.909 243.191 765.242 242.947C765.576 242.694 765.824 242.373 765.987 241.982C766.158 241.584 766.243 241.165 766.243 240.725V239.785C766.243 239.338 766.158 238.918 765.987 238.528C765.824 238.129 765.572 237.804 765.23 237.551C764.888 237.299 764.457 237.173 763.936 237.173C763.431 237.173 763.008 237.299 762.667 237.551C762.325 237.804 762.068 238.129 761.897 238.528C761.727 238.918 761.641 239.338 761.641 239.785ZM769.405 250.735V249.783C769.405 249.115 769.547 248.505 769.832 247.952C770.117 247.398 770.52 246.955 771.041 246.621C771.561 246.287 772.176 246.121 772.884 246.121C773.6 246.121 774.214 246.287 774.727 246.621C775.248 246.955 775.651 247.398 775.936 247.952C776.22 248.505 776.363 249.115 776.363 249.783V250.735C776.363 251.402 776.22 252.013 775.936 252.566C775.659 253.119 775.26 253.563 774.739 253.896C774.227 254.23 773.616 254.397 772.908 254.397C772.192 254.397 771.574 254.23 771.053 253.896C770.532 253.563 770.125 253.119 769.832 252.566C769.547 252.013 769.405 251.402 769.405 250.735ZM770.589 249.783V250.735C770.589 251.174 770.67 251.593 770.833 251.992C771.004 252.383 771.26 252.704 771.602 252.957C771.952 253.209 772.387 253.335 772.908 253.335C773.421 253.335 773.844 253.213 774.178 252.969C774.52 252.716 774.772 252.391 774.935 251.992C775.105 251.593 775.191 251.174 775.191 250.735V249.783C775.191 249.319 775.105 248.892 774.935 248.501C774.772 248.102 774.52 247.785 774.178 247.549C773.836 247.305 773.405 247.183 772.884 247.183C772.379 247.183 771.952 247.305 771.602 247.549C771.26 247.785 771.004 248.102 770.833 248.501C770.67 248.892 770.589 249.319 770.589 249.783ZM773.104 238.772L764.424 252.664L763.521 252.078L772.2 238.186L773.104 238.772Z" fill="white"/>
<path d="M213.197 500.883V502.141H202.077V501.005L207.899 494.401C208.624 493.579 209.201 492.859 209.633 492.241C210.064 491.614 210.373 491.044 210.561 490.532C210.756 490.011 210.854 489.506 210.854 489.018C210.854 488.302 210.711 487.671 210.426 487.126C210.15 486.581 209.735 486.153 209.181 485.844C208.628 485.535 207.944 485.38 207.13 485.38C206.317 485.38 205.609 485.555 205.006 485.905C204.404 486.255 203.94 486.743 203.615 487.37C203.297 487.989 203.139 488.693 203.139 489.482H201.686C201.686 488.505 201.902 487.61 202.333 486.796C202.772 485.983 203.399 485.336 204.213 484.855C205.027 484.367 205.999 484.123 207.13 484.123C208.205 484.123 209.128 484.314 209.901 484.697C210.674 485.071 211.269 485.612 211.684 486.32C212.107 487.028 212.318 487.883 212.318 488.884C212.318 489.421 212.221 489.962 212.025 490.507C211.838 491.053 211.578 491.598 211.244 492.143C210.919 492.68 210.544 493.213 210.121 493.742C209.706 494.271 209.271 494.792 208.815 495.305L203.859 500.883H213.197ZM226.869 497.429C226.869 498.503 226.617 499.41 226.112 500.151C225.616 500.891 224.94 501.449 224.086 501.823C223.231 502.198 222.275 502.385 221.217 502.385C220.151 502.385 219.191 502.198 218.336 501.823C217.482 501.449 216.802 500.891 216.298 500.151C215.801 499.41 215.553 498.503 215.553 497.429C215.553 496.721 215.692 496.078 215.968 495.5C216.253 494.914 216.648 494.41 217.152 493.986C217.665 493.555 218.263 493.221 218.947 492.985C219.63 492.749 220.379 492.631 221.193 492.631C222.267 492.631 223.231 492.839 224.086 493.254C224.94 493.661 225.616 494.222 226.112 494.938C226.617 495.655 226.869 496.485 226.869 497.429ZM225.404 497.429C225.404 496.672 225.221 496.009 224.855 495.439C224.489 494.869 223.988 494.43 223.354 494.121C222.719 493.803 221.999 493.645 221.193 493.645C220.379 493.645 219.659 493.803 219.032 494.121C218.406 494.43 217.913 494.869 217.555 495.439C217.197 496.009 217.018 496.672 217.018 497.429C217.018 498.218 217.193 498.889 217.543 499.443C217.901 499.996 218.397 500.415 219.032 500.7C219.667 500.985 220.395 501.127 221.217 501.127C222.039 501.127 222.764 500.985 223.39 500.7C224.017 500.415 224.509 499.996 224.867 499.443C225.225 498.889 225.404 498.218 225.404 497.429ZM226.405 488.933C226.405 489.803 226.173 490.581 225.709 491.264C225.254 491.94 224.635 492.473 223.854 492.863C223.073 493.246 222.19 493.437 221.205 493.437C220.212 493.437 219.321 493.246 218.532 492.863C217.75 492.473 217.132 491.94 216.676 491.264C216.229 490.581 216.005 489.803 216.005 488.933C216.005 487.899 216.229 487.028 216.676 486.32C217.132 485.604 217.75 485.059 218.532 484.685C219.313 484.31 220.2 484.123 221.193 484.123C222.178 484.123 223.061 484.31 223.842 484.685C224.631 485.059 225.254 485.604 225.709 486.32C226.173 487.028 226.405 487.899 226.405 488.933ZM224.953 488.92C224.953 488.229 224.786 487.618 224.452 487.089C224.127 486.56 223.679 486.145 223.109 485.844C222.548 485.535 221.909 485.38 221.193 485.38C220.469 485.38 219.826 485.523 219.264 485.808C218.711 486.092 218.271 486.499 217.946 487.028C217.628 487.557 217.47 488.188 217.47 488.92C217.47 489.637 217.628 490.255 217.946 490.776C218.271 491.289 218.715 491.687 219.276 491.972C219.838 492.257 220.481 492.399 221.205 492.399C221.929 492.399 222.572 492.257 223.134 491.972C223.695 491.687 224.139 491.289 224.464 490.776C224.79 490.255 224.953 489.637 224.953 488.92ZM229.469 488.725V487.785C229.469 487.11 229.612 486.495 229.896 485.942C230.181 485.389 230.584 484.945 231.105 484.611C231.626 484.278 232.236 484.111 232.936 484.111C233.652 484.111 234.267 484.278 234.779 484.611C235.3 484.945 235.703 485.389 235.988 485.942C236.273 486.495 236.415 487.11 236.415 487.785V488.725C236.415 489.384 236.273 489.991 235.988 490.544C235.711 491.097 235.312 491.541 234.792 491.875C234.279 492.208 233.668 492.375 232.96 492.375C232.252 492.375 231.634 492.208 231.105 491.875C230.584 491.541 230.181 491.097 229.896 490.544C229.612 489.991 229.469 489.384 229.469 488.725ZM230.641 487.785V488.725C230.641 489.156 230.722 489.571 230.885 489.97C231.056 490.361 231.312 490.682 231.654 490.935C232.004 491.187 232.44 491.313 232.96 491.313C233.481 491.313 233.909 491.191 234.242 490.947C234.576 490.694 234.824 490.373 234.987 489.982C235.158 489.584 235.243 489.165 235.243 488.725V487.785C235.243 487.338 235.158 486.918 234.987 486.528C234.824 486.129 234.572 485.804 234.23 485.551C233.888 485.299 233.457 485.173 232.936 485.173C232.431 485.173 232.008 485.299 231.667 485.551C231.325 485.804 231.068 486.129 230.897 486.528C230.727 486.918 230.641 487.338 230.641 487.785ZM238.405 498.735V497.783C238.405 497.115 238.547 496.505 238.832 495.952C239.117 495.398 239.52 494.955 240.041 494.621C240.561 494.287 241.176 494.121 241.884 494.121C242.6 494.121 243.214 494.287 243.727 494.621C244.248 494.955 244.651 495.398 244.936 495.952C245.22 496.505 245.363 497.115 245.363 497.783V498.735C245.363 499.402 245.22 500.013 244.936 500.566C244.659 501.119 244.26 501.563 243.739 501.896C243.227 502.23 242.616 502.397 241.908 502.397C241.192 502.397 240.574 502.23 240.053 501.896C239.532 501.563 239.125 501.119 238.832 500.566C238.547 500.013 238.405 499.402 238.405 498.735ZM239.589 497.783V498.735C239.589 499.174 239.67 499.593 239.833 499.992C240.004 500.383 240.26 500.704 240.602 500.957C240.952 501.209 241.387 501.335 241.908 501.335C242.421 501.335 242.844 501.213 243.178 500.969C243.52 500.716 243.772 500.391 243.935 499.992C244.105 499.593 244.191 499.174 244.191 498.735V497.783C244.191 497.319 244.105 496.892 243.935 496.501C243.772 496.102 243.52 495.785 243.178 495.549C242.836 495.305 242.405 495.183 241.884 495.183C241.379 495.183 240.952 495.305 240.602 495.549C240.26 495.785 240.004 496.102 239.833 496.501C239.67 496.892 239.589 497.319 239.589 497.783ZM242.104 486.772L233.424 500.664L232.521 500.078L241.2 486.186L242.104 486.772Z" fill="white"/>
<path d="M77.1973 252.883V254.141H66.0767V253.005L71.8994 246.401C72.6237 245.579 73.2015 244.859 73.6328 244.241C74.0641 243.614 74.3734 243.044 74.5605 242.532C74.7559 242.011 74.8535 241.506 74.8535 241.018C74.8535 240.302 74.7111 239.671 74.4263 239.126C74.1496 238.581 73.7345 238.153 73.1812 237.844C72.6278 237.535 71.9442 237.38 71.1304 237.38C70.3166 237.38 69.6086 237.555 69.0063 237.905C68.4041 238.255 67.9403 238.743 67.6147 239.37C67.2974 239.989 67.1387 240.693 67.1387 241.482H65.686C65.686 240.505 65.9017 239.61 66.333 238.796C66.7725 237.983 67.3991 237.336 68.2129 236.855C69.0267 236.367 69.9992 236.123 71.1304 236.123C72.2046 236.123 73.1283 236.314 73.9014 236.697C74.6745 237.071 75.2686 237.612 75.6836 238.32C76.1068 239.028 76.3184 239.883 76.3184 240.884C76.3184 241.421 76.2207 241.962 76.0254 242.507C75.8382 243.053 75.5778 243.598 75.2441 244.143C74.9186 244.68 74.5443 245.213 74.1211 245.742C73.7061 246.271 73.2707 246.792 72.8149 247.305L67.8589 252.883H77.1973ZM90.8813 236.367V237.209L83.2886 254.141H81.7749L89.3188 237.625H79.1992V236.367H90.8813ZM93.4692 240.725V239.785C93.4692 239.11 93.6117 238.495 93.8965 237.942C94.1813 237.389 94.5841 236.945 95.105 236.611C95.6258 236.278 96.2362 236.111 96.936 236.111C97.6522 236.111 98.2666 236.278 98.7793 236.611C99.3001 236.945 99.703 237.389 99.9878 237.942C100.273 238.495 100.415 239.11 100.415 239.785V240.725C100.415 241.384 100.273 241.991 99.9878 242.544C99.7111 243.097 99.3123 243.541 98.7915 243.875C98.2788 244.208 97.6685 244.375 96.9604 244.375C96.2524 244.375 95.634 244.208 95.105 243.875C94.5841 243.541 94.1813 243.097 93.8965 242.544C93.6117 241.991 93.4692 241.384 93.4692 240.725ZM94.6411 239.785V240.725C94.6411 241.156 94.7225 241.571 94.8853 241.97C95.0562 242.361 95.3125 242.682 95.6543 242.935C96.0042 243.187 96.4396 243.313 96.9604 243.313C97.4813 243.313 97.9085 243.191 98.2422 242.947C98.5758 242.694 98.8241 242.373 98.9868 241.982C99.1577 241.584 99.2432 241.165 99.2432 240.725V239.785C99.2432 239.338 99.1577 238.918 98.9868 238.528C98.8241 238.129 98.5718 237.804 98.23 237.551C97.8882 237.299 97.4569 237.173 96.936 237.173C96.4315 237.173 96.0083 237.299 95.6665 237.551C95.3247 237.804 95.0684 238.129 94.8975 238.528C94.7266 238.918 94.6411 239.338 94.6411 239.785ZM102.405 250.735V249.783C102.405 249.115 102.547 248.505 102.832 247.952C103.117 247.398 103.52 246.955 104.041 246.621C104.561 246.287 105.176 246.121 105.884 246.121C106.6 246.121 107.214 246.287 107.727 246.621C108.248 246.955 108.651 247.398 108.936 247.952C109.22 248.505 109.363 249.115 109.363 249.783V250.735C109.363 251.402 109.22 252.013 108.936 252.566C108.659 253.119 108.26 253.563 107.739 253.896C107.227 254.23 106.616 254.397 105.908 254.397C105.192 254.397 104.574 254.23 104.053 253.896C103.532 253.563 103.125 253.119 102.832 252.566C102.547 252.013 102.405 251.402 102.405 250.735ZM103.589 249.783V250.735C103.589 251.174 103.67 251.593 103.833 251.992C104.004 252.383 104.26 252.704 104.602 252.957C104.952 253.209 105.387 253.335 105.908 253.335C106.421 253.335 106.844 253.213 107.178 252.969C107.52 252.716 107.772 252.391 107.935 251.992C108.105 251.593 108.191 251.174 108.191 250.735V249.783C108.191 249.319 108.105 248.892 107.935 248.501C107.772 248.102 107.52 247.785 107.178 247.549C106.836 247.305 106.405 247.183 105.884 247.183C105.379 247.183 104.952 247.305 104.602 247.549C104.26 247.785 104.004 248.102 103.833 248.501C103.67 248.892 103.589 249.319 103.589 249.783ZM106.104 238.772L97.4243 252.664L96.521 252.078L105.2 238.186L106.104 238.772Z" fill="white"/>
<path d="M208.864 50.2939V68.1406H207.411V52.1372L202.577 53.9316V52.5522L208.62 50.2939H208.864ZM226.649 57.728V60.7188C226.649 62.0208 226.527 63.1561 226.283 64.1245C226.039 65.0848 225.681 65.8823 225.209 66.5171C224.745 67.1437 224.175 67.6117 223.5 67.9209C222.833 68.2301 222.068 68.3848 221.205 68.3848C220.521 68.3848 219.895 68.2871 219.325 68.0918C218.756 67.8965 218.247 67.5994 217.799 67.2007C217.36 66.7938 216.986 66.2852 216.676 65.6748C216.367 65.0645 216.131 64.3483 215.968 63.5264C215.806 62.6963 215.724 61.7604 215.724 60.7188V57.728C215.724 56.4178 215.846 55.2866 216.09 54.3345C216.343 53.3823 216.701 52.5929 217.165 51.9663C217.637 51.3397 218.21 50.8758 218.886 50.5747C219.561 50.2655 220.326 50.1108 221.181 50.1108C221.864 50.1108 222.491 50.2126 223.061 50.416C223.638 50.6113 224.147 50.9043 224.586 51.2949C225.034 51.6855 225.408 52.186 225.709 52.7964C226.019 53.3986 226.251 54.1107 226.405 54.9326C226.568 55.7546 226.649 56.6864 226.649 57.728ZM225.197 60.8896V57.5449C225.197 56.7393 225.14 56.0068 225.026 55.3477C224.92 54.6885 224.761 54.1107 224.55 53.6143C224.338 53.1178 224.07 52.7028 223.744 52.3691C223.427 52.0355 223.052 51.7873 222.621 51.6245C222.198 51.4536 221.718 51.3682 221.181 51.3682C220.521 51.3682 219.94 51.5024 219.435 51.771C218.939 52.0314 218.524 52.422 218.19 52.9429C217.856 53.4556 217.604 54.0985 217.433 54.8716C217.27 55.6447 217.189 56.5358 217.189 57.5449V60.8896C217.189 61.6872 217.242 62.4155 217.348 63.0747C217.453 63.7257 217.616 64.3035 217.836 64.8081C218.056 65.3127 218.324 65.7399 218.642 66.0898C218.967 66.4316 219.341 66.6921 219.765 66.8711C220.196 67.042 220.676 67.1274 221.205 67.1274C221.881 67.1274 222.466 66.9932 222.963 66.7246C223.459 66.4479 223.874 66.0451 224.208 65.5161C224.542 64.979 224.79 64.3239 224.953 63.5508C225.115 62.7695 225.197 61.8825 225.197 60.8896ZM229.469 54.7251V53.7852C229.469 53.1097 229.612 52.4953 229.896 51.9419C230.181 51.3885 230.584 50.945 231.105 50.6113C231.626 50.2777 232.236 50.1108 232.936 50.1108C233.652 50.1108 234.267 50.2777 234.779 50.6113C235.3 50.945 235.703 51.3885 235.988 51.9419C236.273 52.4953 236.415 53.1097 236.415 53.7852V54.7251C236.415 55.3843 236.273 55.9906 235.988 56.5439C235.711 57.0973 235.312 57.5409 234.792 57.8745C234.279 58.2082 233.668 58.375 232.96 58.375C232.252 58.375 231.634 58.2082 231.105 57.8745C230.584 57.5409 230.181 57.0973 229.896 56.5439C229.612 55.9906 229.469 55.3843 229.469 54.7251ZM230.641 53.7852V54.7251C230.641 55.1564 230.722 55.5715 230.885 55.9702C231.056 56.3608 231.312 56.6823 231.654 56.9346C232.004 57.1868 232.44 57.313 232.96 57.313C233.481 57.313 233.909 57.1909 234.242 56.9468C234.576 56.6945 234.824 56.373 234.987 55.9824C235.158 55.5837 235.243 55.1646 235.243 54.7251V53.7852C235.243 53.3376 235.158 52.9185 234.987 52.5278C234.824 52.1291 234.572 51.8035 234.23 51.5513C233.888 51.299 233.457 51.1729 232.936 51.1729C232.431 51.1729 232.008 51.299 231.667 51.5513C231.325 51.8035 231.068 52.1291 230.897 52.5278C230.727 52.9185 230.641 53.3376 230.641 53.7852ZM238.405 64.7349V63.7827C238.405 63.1154 238.547 62.505 238.832 61.9517C239.117 61.3983 239.52 60.9548 240.041 60.6211C240.561 60.2874 241.176 60.1206 241.884 60.1206C242.6 60.1206 243.214 60.2874 243.727 60.6211C244.248 60.9548 244.651 61.3983 244.936 61.9517C245.22 62.505 245.363 63.1154 245.363 63.7827V64.7349C245.363 65.4022 245.22 66.0125 244.936 66.5659C244.659 67.1193 244.26 67.5628 243.739 67.8965C243.227 68.2301 242.616 68.397 241.908 68.397C241.192 68.397 240.574 68.2301 240.053 67.8965C239.532 67.5628 239.125 67.1193 238.832 66.5659C238.547 66.0125 238.405 65.4022 238.405 64.7349ZM239.589 63.7827V64.7349C239.589 65.1743 239.67 65.5934 239.833 65.9922C240.004 66.3828 240.26 66.7043 240.602 66.9565C240.952 67.2088 241.387 67.335 241.908 67.335C242.421 67.335 242.844 67.2129 243.178 66.9688C243.52 66.7165 243.772 66.391 243.935 65.9922C244.105 65.5934 244.191 65.1743 244.191 64.7349V63.7827C244.191 63.3188 244.105 62.8916 243.935 62.501C243.772 62.1022 243.52 61.7848 243.178 61.5488C242.836 61.3047 242.405 61.1826 241.884 61.1826C241.379 61.1826 240.952 61.3047 240.602 61.5488C240.26 61.7848 240.004 62.1022 239.833 62.501C239.67 62.8916 239.589 63.3188 239.589 63.7827ZM242.104 52.772L233.424 66.6636L232.521 66.0776L241.2 52.186L242.104 52.772Z" fill="white"/>
<path d="M613.257 58.4482H614.747C615.658 58.4482 616.419 58.2936 617.029 57.9844C617.648 57.667 618.112 57.2479 618.421 56.7271C618.738 56.2062 618.897 55.6284 618.897 54.9937C618.897 54.2775 618.763 53.6509 618.494 53.1138C618.226 52.5685 617.815 52.1453 617.261 51.8442C616.716 51.535 616.016 51.3804 615.162 51.3804C614.413 51.3804 613.746 51.5269 613.16 51.8198C612.574 52.1128 612.11 52.5319 611.768 53.0771C611.426 53.6224 611.255 54.2734 611.255 55.0303H609.803C609.803 54.0618 610.035 53.2114 610.499 52.479C610.962 51.7384 611.601 51.1606 612.415 50.7456C613.229 50.3306 614.144 50.123 615.162 50.123C616.211 50.123 617.123 50.3143 617.896 50.6968C618.677 51.0793 619.279 51.6367 619.703 52.3691C620.134 53.1016 620.35 53.9927 620.35 55.0425C620.35 55.5796 620.232 56.1086 619.996 56.6294C619.768 57.1502 619.426 57.6222 618.97 58.0454C618.514 58.4604 617.949 58.7941 617.273 59.0464C616.598 59.2987 615.813 59.4248 614.917 59.4248H613.257V58.4482ZM613.257 59.7056V58.7412H614.917C615.935 58.7412 616.806 58.8592 617.53 59.0952C618.254 59.3231 618.848 59.6486 619.312 60.0718C619.784 60.4868 620.13 60.971 620.35 61.5244C620.569 62.0778 620.679 62.6719 620.679 63.3066C620.679 64.1204 620.545 64.8407 620.276 65.4673C620.008 66.0939 619.625 66.627 619.129 67.0664C618.641 67.4977 618.063 67.8273 617.396 68.0552C616.736 68.2749 616.012 68.3848 615.223 68.3848C614.507 68.3848 613.807 68.279 613.123 68.0674C612.448 67.8558 611.837 67.5425 611.292 67.1274C610.755 66.7043 610.328 66.1753 610.01 65.5405C609.693 64.8976 609.534 64.1571 609.534 63.3188H610.987C610.987 64.0675 611.166 64.7308 611.524 65.3086C611.882 65.8783 612.378 66.3258 613.013 66.6514C613.656 66.9688 614.393 67.1274 615.223 67.1274C616.061 67.1274 616.777 66.985 617.371 66.7002C617.973 66.4072 618.433 65.98 618.75 65.4185C619.068 64.8569 619.227 64.1693 619.227 63.3555C619.227 62.501 619.035 61.8052 618.653 61.2681C618.278 60.731 617.754 60.3363 617.078 60.084C616.411 59.8317 615.634 59.7056 614.747 59.7056H613.257ZM623.536 54.7251V53.7852C623.536 53.1097 623.678 52.4953 623.963 51.9419C624.248 51.3885 624.651 50.945 625.171 50.6113C625.692 50.2777 626.303 50.1108 627.002 50.1108C627.719 50.1108 628.333 50.2777 628.846 50.6113C629.367 50.945 629.769 51.3885 630.054 51.9419C630.339 52.4953 630.481 53.1097 630.481 53.7852V54.7251C630.481 55.3843 630.339 55.9906 630.054 56.5439C629.778 57.0973 629.379 57.5409 628.858 57.8745C628.345 58.2082 627.735 58.375 627.027 58.375C626.319 58.375 625.7 58.2082 625.171 57.8745C624.651 57.5409 624.248 57.0973 623.963 56.5439C623.678 55.9906 623.536 55.3843 623.536 54.7251ZM624.708 53.7852V54.7251C624.708 55.1564 624.789 55.5715 624.952 55.9702C625.123 56.3608 625.379 56.6823 625.721 56.9346C626.071 57.1868 626.506 57.313 627.027 57.313C627.548 57.313 627.975 57.1909 628.309 56.9468C628.642 56.6945 628.89 56.373 629.053 55.9824C629.224 55.5837 629.31 55.1646 629.31 54.7251V53.7852C629.31 53.3376 629.224 52.9185 629.053 52.5278C628.89 52.1291 628.638 51.8035 628.296 51.5513C627.955 51.299 627.523 51.1729 627.002 51.1729C626.498 51.1729 626.075 51.299 625.733 51.5513C625.391 51.8035 625.135 52.1291 624.964 52.5278C624.793 52.9185 624.708 53.3376 624.708 53.7852ZM632.471 64.7349V63.7827C632.471 63.1154 632.614 62.505 632.898 61.9517C633.183 61.3983 633.586 60.9548 634.107 60.6211C634.628 60.2874 635.242 60.1206 635.95 60.1206C636.666 60.1206 637.281 60.2874 637.793 60.6211C638.314 60.9548 638.717 61.3983 639.002 61.9517C639.287 62.505 639.429 63.1154 639.429 63.7827V64.7349C639.429 65.4022 639.287 66.0125 639.002 66.5659C638.725 67.1193 638.326 67.5628 637.806 67.8965C637.293 68.2301 636.683 68.397 635.975 68.397C635.258 68.397 634.64 68.2301 634.119 67.8965C633.598 67.5628 633.191 67.1193 632.898 66.5659C632.614 66.0125 632.471 65.4022 632.471 64.7349ZM633.655 63.7827V64.7349C633.655 65.1743 633.737 65.5934 633.899 65.9922C634.07 66.3828 634.327 66.7043 634.668 66.9565C635.018 67.2088 635.454 67.335 635.975 67.335C636.487 67.335 636.91 67.2129 637.244 66.9688C637.586 66.7165 637.838 66.391 638.001 65.9922C638.172 65.5934 638.257 65.1743 638.257 64.7349V63.7827C638.257 63.3188 638.172 62.8916 638.001 62.501C637.838 62.1022 637.586 61.7848 637.244 61.5488C636.902 61.3047 636.471 61.1826 635.95 61.1826C635.446 61.1826 635.018 61.3047 634.668 61.5488C634.327 61.7848 634.07 62.1022 633.899 62.501C633.737 62.8916 633.655 63.3188 633.655 63.7827ZM636.17 52.772L627.491 66.6636L626.587 66.0776L635.267 52.186L636.17 52.772Z" fill="white"/>
<path opacity="0.5" d="M270.5 25.1406H332C368.175 25.1406 397.5 54.466 397.5 90.6406V90.6406M474 90.6406V88.6406C474 53.5705 502.43 25.1406 537.5 25.1406V25.1406M186 210.641H236C255.054 210.641 270.5 226.087 270.5 245.141V245.141M578.5 245.141V245.141C578.5 226.087 593.946 210.641 613 210.641H669.5M267.5 459.641H314C343.271 459.641 367 435.912 367 406.641V406.641" stroke="url(#paint0_linear_2523_216)" stroke-width="3" stroke-dasharray="6 6"/>
<mask id="mask0_2523_216" style="mask-type:alpha" maskUnits="userSpaceOnUse" x="380" y="203" width="104" height="115">
<path d="M445.913 208.909L400.866 234.454C396.875 236.717 394.401 240.971 394.401 245.554V298.451L387.531 294.483C382.874 291.793 380 286.82 380 281.434V239.192C380 233.806 382.874 228.833 387.531 226.143L424.118 205.021C428.78 202.326 434.523 202.326 439.18 205.021L445.913 208.909Z" fill="white"/>
<path d="M464.474 219.625L419.492 245.131C415.501 247.39 413.022 251.644 413.022 256.227V309.199L398.157 300.615V245.554C398.157 242.319 399.903 239.318 402.716 237.722L449.688 211.088L464.474 219.625Z" fill="white"/>
<path d="M483.297 239.191V243.342C483.297 244.389 482.855 245.394 482.062 246.07C481.513 246.535 480.86 246.995 480.142 247.399L438.081 271.243C434.691 273.164 430.483 273.164 427.093 271.243L417.482 265.796C417.045 265.548 416.778 265.087 416.778 264.585V256.222C416.778 252.987 418.529 249.986 421.342 248.394L467.478 222.235H467.488C467.957 221.958 468.535 221.958 469.004 222.23L475.77 226.137C480.433 228.827 483.302 233.8 483.302 239.186L483.297 239.191Z" fill="white"/>
<path d="M483.297 251.424V266.694C483.297 267.859 482.771 268.958 481.865 269.69C481.358 270.099 480.771 270.498 480.142 270.855L438.081 294.699C434.691 296.624 430.483 296.624 427.093 294.699L417.919 289.501C417.214 289.102 416.778 288.351 416.778 287.538V271.207C416.778 270.545 417.491 270.132 418.064 270.456L425.239 274.522C427.507 275.809 430.047 276.447 432.587 276.447C435.127 276.447 437.667 275.809 439.935 274.522L481.992 250.677H482.001C482.578 250.344 483.297 250.757 483.297 251.424Z" fill="white"/>
<path d="M482.001 274.113C482.579 273.784 483.297 274.193 483.297 274.86V281.433C483.297 286.819 480.428 291.792 475.766 294.483L439.18 315.604C434.522 318.299 428.779 318.299 424.117 315.604L416.712 311.331C416.755 311.176 416.778 311.011 416.778 310.842V294.647C416.778 293.985 417.492 293.572 418.065 293.896L425.239 297.962C427.507 299.249 430.047 299.892 432.587 299.892C435.127 299.892 437.668 299.249 439.936 297.962L481.992 274.118C481.992 274.118 481.997 274.118 482.001 274.113Z" fill="white"/>
</mask>
<g mask="url(#mask0_2523_216)">
<rect x="351.806" y="189.526" width="159.638" height="160.087" fill="white"/>
</g>
<defs>
<linearGradient id="paint0_linear_2523_216" x1="447.809" y1="1923.23" x2="1466.7" y2="2324.88" gradientUnits="userSpaceOnUse">
<stop stop-color="white"/>
<stop offset="1" stop-color="white" stop-opacity="0"/>
</linearGradient>
</defs>
</svg>
