<svg width="96" height="255" viewBox="0 0 96 255" fill="none" xmlns="http://www.w3.org/2000/svg">
<path opacity="0.5" d="M3.66964e-06 251.718L34.5262 254.536L19.7034 223.227L3.66964e-06 251.718ZM12.0652 249.064C14.4562 247.783 16.7999 246.465 19.0956 245.111L16.0476 239.943C13.8235 241.255 11.5517 242.532 9.23279 243.774L12.0652 249.064ZM25.9516 240.87C28.2217 239.397 30.4402 237.887 32.6064 236.343L29.1228 231.457C27.0288 232.951 24.8831 234.411 22.6861 235.836L25.9516 240.87ZM39.0457 231.528C41.184 229.851 43.2653 228.139 45.2887 226.392L41.3683 221.85C39.4169 223.535 37.4086 225.187 35.3439 226.806L39.0457 231.528ZM51.2745 220.967C53.239 219.097 55.1414 217.192 56.9808 215.256L52.6303 211.124C50.8608 212.987 49.0296 214.82 47.1374 216.622L51.2745 220.967ZM62.3868 209.261C64.149 207.201 65.8436 205.109 67.4698 202.988L62.7081 199.338C61.1477 201.373 59.5206 203.381 57.8276 205.36L62.3868 209.261ZM72.2195 196.425C73.7509 194.18 75.2087 191.905 76.5921 189.605L71.4501 186.513C70.1261 188.715 68.7301 190.893 67.2627 193.044L72.2195 196.425ZM80.5622 182.542C81.8223 180.136 83.0036 177.706 84.1051 175.253L78.6316 172.795C77.5801 175.137 76.4518 177.459 75.2473 179.758L80.5622 182.542ZM87.1963 167.758C88.1526 165.218 89.0251 162.657 89.8127 160.08L84.0746 158.326C83.3243 160.782 82.4929 163.222 81.581 165.644L87.1963 167.758ZM91.9326 152.245C92.5557 149.604 93.091 146.949 93.5372 144.282L87.6195 143.292C87.1951 145.828 86.686 148.354 86.093 150.867L91.9326 152.245ZM94.6102 136.227C94.8777 133.532 95.0547 130.828 95.1401 128.119L89.1431 127.93C89.062 130.504 88.8938 133.073 88.6395 135.635L94.6102 136.227ZM95.121 119.994C95.0231 117.293 94.8337 114.59 94.5518 111.889L88.5842 112.511C88.852 115.078 89.0319 117.645 89.1249 120.211L95.121 119.994ZM93.4371 103.841C92.9776 101.185 92.4276 98.5322 91.7862 95.8868L85.9552 97.3006C86.5652 99.8168 87.0882 102.339 87.5249 104.864L93.4371 103.841ZM89.6133 88.0582C88.8092 85.49 87.9172 82.9314 86.9365 80.385L81.3374 82.5414C82.2722 84.9685 83.1219 87.4059 83.8874 89.8509L89.6133 88.0582ZM83.7889 72.9188C82.6734 70.4867 81.4747 68.0686 80.1922 65.6669L74.8996 68.4932C76.1256 70.789 77.2705 73.0987 78.3352 75.4201L83.7889 72.9188ZM76.1718 58.6429C74.7775 56.3632 73.305 54.1009 71.7537 51.8582L66.8192 55.2715C68.3071 57.4226 69.7182 59.5906 71.0532 61.7734L76.1718 58.6429ZM66.9626 45.3196C65.3331 43.2165 63.6312 41.1331 61.8566 39.0714L57.3091 42.9854C59.0173 44.9701 60.6539 46.9737 62.2197 48.9945L66.9626 45.3196ZM56.4547 33.1004C54.6237 31.1729 52.7259 29.2668 50.7609 27.3835L46.6093 31.7153C48.5074 33.5345 50.339 35.3742 52.1046 37.2328L56.4547 33.1004ZM44.7903 21.9144C42.8051 20.1753 40.7592 18.4581 38.6525 16.7641L34.8926 21.4399C36.9345 23.0818 38.9158 24.7449 40.8368 26.4277L44.7903 21.9144ZM32.2886 11.8559C30.1484 10.2723 27.9517 8.71129 25.6981 7.17406L22.3171 12.1307C24.5081 13.6253 26.6421 15.1418 28.7196 16.679L32.2886 11.8559ZM19.0159 2.79196C17.8756 2.07302 16.722 1.35987 15.555 0.652627L12.4452 5.78382C13.5822 6.47286 14.7057 7.16742 15.8158 7.86737L19.0159 2.79196Z" fill="url(#paint0_linear_2511_2)"/>
<defs>
<linearGradient id="paint0_linear_2511_2" x1="25.4999" y1="247.717" x2="51.4999" y2="49.7173" gradientUnits="userSpaceOnUse">
<stop stop-color="white"/>
<stop offset="1" stop-color="white" stop-opacity="0"/>
</linearGradient>
</defs>
</svg>
