<svg width="202" height="207" viewBox="0 0 202 207" fill="none" xmlns="http://www.w3.org/2000/svg">
<path opacity="0.5" d="M9 206.217L0.467882 172.643L33.8097 182.041L9 206.217ZM9.40004 193.982C10.1591 191.427 10.9281 188.893 11.7075 186.383L17.4378 188.161C16.6659 190.648 15.904 193.158 15.1516 195.69L9.40004 193.982ZM14.11 178.816C14.9322 176.285 15.7657 173.778 16.6112 171.295L22.291 173.229C21.4548 175.685 20.6302 178.165 19.8165 180.67L14.11 178.816ZM19.2199 163.817C20.1194 161.301 21.0323 158.81 21.959 156.345L27.5752 158.456C26.6603 160.89 25.7587 163.35 24.8698 165.837L19.2199 163.817ZM24.821 148.928C25.8033 146.448 26.801 143.996 27.8146 141.571L33.3504 143.885C32.3517 146.274 31.3682 148.692 30.3993 151.138L24.821 148.928ZM30.9494 134.276C32.0296 131.832 33.1274 129.417 34.2436 127.032L39.6779 129.576C38.5805 131.92 37.5006 134.296 36.4375 136.701L30.9494 134.276ZM37.7054 119.852C38.8958 117.456 40.1064 115.092 41.3382 112.759L46.6437 115.562C45.4358 117.849 44.2478 120.169 43.079 122.522L37.7054 119.852ZM45.1526 105.762C46.4647 103.43 47.7999 101.133 49.1591 98.8701L54.3024 101.96C52.9733 104.173 51.6666 106.421 50.3816 108.704L45.1526 105.762ZM53.368 92.0954C54.8154 89.8433 56.2888 87.6283 57.7894 85.4506L62.7301 88.855C61.2668 90.9785 59.8289 93.14 58.4156 95.3392L53.368 92.0954ZM62.4389 78.941C64.0345 76.7863 65.6596 74.6713 67.3151 72.5962L72.0054 76.338C70.3957 78.3557 68.8144 80.4137 67.2606 82.5118L62.4389 78.941ZM72.4238 66.4329C74.1727 64.4027 75.9541 62.4145 77.7689 60.4686L82.1568 64.5608C80.3967 66.4481 78.6679 68.3776 76.9696 70.349L72.4238 66.4329ZM83.3518 54.7213C85.2562 52.8399 87.1956 51.0023 89.1712 49.2089L93.2041 53.6514C91.2918 55.3874 89.4136 57.1669 87.5686 58.9897L83.3518 54.7213ZM95.2233 43.9484C97.2783 42.239 99.3705 40.5745 101.501 38.9554L105.131 43.7324C103.071 45.2979 101.048 46.9076 99.0603 48.5611L95.2233 43.9484ZM107.994 34.2437C110.188 32.7252 112.42 31.252 114.692 29.8244L117.884 34.9045C115.688 36.2848 113.53 37.709 111.409 39.177L107.994 34.2437ZM121.579 25.7056C123.893 24.3896 126.247 23.1184 128.64 21.8921L131.376 27.232C129.06 28.4188 126.783 29.6487 124.544 30.9215L121.579 25.7056ZM135.851 18.3896C138.26 17.2818 140.708 16.217 143.195 15.1955L145.475 20.7456C143.063 21.736 140.691 22.7679 138.358 23.8409L135.851 18.3896ZM150.659 12.3037C153.143 11.3971 155.666 10.5314 158.226 9.70687L160.066 15.418C157.577 16.2194 155.127 17.0603 152.715 17.9403L150.659 12.3037ZM165.885 7.39573C168.428 6.67852 171.007 5.99974 173.623 5.35959L175.049 11.1876C172.5 11.8115 169.989 12.4725 167.514 13.1704L165.885 7.39573ZM181.432 3.58682C184.007 3.04668 186.616 2.54211 189.259 2.07326L190.307 7.9811C187.724 8.43921 185.176 8.93192 182.664 9.45898L181.432 3.58682ZM197.122 0.799749C198.441 0.605759 199.77 0.420257 201.106 0.24326L201.894 6.19134C200.585 6.36462 199.285 6.54617 197.994 6.73596L197.122 0.799749Z" fill="url(#paint0_linear_2511_3)"/>
<defs>
<linearGradient id="paint0_linear_2511_3" x1="105.25" y1="206.217" x2="105.25" y2="3.21731" gradientUnits="userSpaceOnUse">
<stop stop-color="white"/>
<stop offset="1" stop-color="white" stop-opacity="0"/>
</linearGradient>
</defs>
</svg>
