<svg width="199" height="163" viewBox="0 0 199 163" fill="none" xmlns="http://www.w3.org/2000/svg">
<path opacity="0.5" d="M198.641 52.0355L187.769 11.84L158.394 41.3528L198.641 52.0355ZM190.283 39.1846C187.721 36.9521 185.136 34.8246 182.531 32.8002L178.106 38.4951C180.603 40.4358 183.084 42.4774 185.545 44.6219L190.283 39.1846ZM174.412 26.8636C171.612 24.9412 168.794 23.1326 165.963 21.4356L162.255 27.6215C164.958 29.2418 167.651 30.9703 170.33 32.8095L174.412 26.8636ZM157.193 16.5518C154.176 14.997 151.149 13.5646 148.118 12.2518L145.251 18.8698C148.133 20.1182 151.015 21.4816 153.89 22.963L157.193 16.5518ZM138.739 8.57014C135.521 7.43608 132.306 6.43367 129.099 5.55967L127.203 12.5181C130.239 13.3458 133.288 14.296 136.341 15.3722L138.739 8.57014ZM119.26 3.27104C115.91 2.62482 112.577 2.11732 109.268 1.74478L108.461 8.91171C111.581 9.26303 114.728 9.742 117.894 10.3527L119.26 3.27104ZM99.1778 1.02044C95.7633 0.915646 92.3848 0.955587 89.0512 1.1359L89.4408 8.3376C92.5693 8.16837 95.744 8.13067 98.9565 8.22927L99.1778 1.02044ZM78.9604 2.12684C75.5733 2.61228 72.2452 3.24699 68.9867 4.026L70.6637 11.0406C73.7038 10.3138 76.8136 9.72043 79.9836 9.26611L78.9604 2.12684ZM59.2225 6.86212C55.9814 7.9776 52.8272 9.24479 49.7721 10.6581L52.8001 17.2039C55.6296 15.895 58.5562 14.7188 61.5696 13.6818L59.2225 6.86212ZM40.7532 15.428C37.8093 17.1949 34.9848 19.1127 32.2933 21.175L36.6797 26.8999C39.1512 25.0063 41.75 23.2413 44.4649 21.6117L40.7532 15.428ZM24.537 27.8805C22.0811 30.2755 19.7783 32.8137 17.6434 35.4878L23.2797 39.9876C25.2252 37.5508 27.3267 35.2339 29.5724 33.0439L24.537 27.8805ZM11.7569 43.9109C9.98633 46.8268 8.39641 49.8679 7.00103 53.0266L13.5982 55.9409C14.8666 53.0698 16.3117 50.3055 17.9216 47.6542L11.7569 43.9109ZM3.4622 62.6789C2.50467 65.9202 1.73908 69.26 1.17674 72.6915L8.29403 73.8579C8.80813 70.7207 9.50696 67.6738 10.3789 64.7222L3.4622 62.6789ZM0.126348 82.8858C-0.0209736 86.2216 0.0155038 89.6282 0.244087 93.1001L7.44073 92.6263C7.22918 89.413 7.1961 86.2709 7.33155 83.204L0.126348 82.8858ZM1.42902 103.204C1.97481 106.458 2.68463 109.76 3.5644 113.107L10.5397 111.273C9.71395 108.132 9.05057 105.044 8.54186 102.011L1.42902 103.204ZM6.53439 122.755C7.62389 125.848 8.85624 128.973 10.2358 132.129L16.8443 129.24C15.5333 126.241 14.366 123.28 13.3368 120.359L6.53439 122.755ZM14.5844 141.232C16.0947 144.147 17.7298 147.086 19.493 150.045L25.6889 146.354C23.9966 143.513 22.4311 140.699 20.9882 137.915L14.5844 141.232ZM24.799 158.433C25.7363 159.833 26.7022 161.238 27.6971 162.646L33.588 158.485C32.6274 157.125 31.6957 155.771 30.7925 154.421L24.799 158.433Z" fill="url(#paint0_linear_2512_63)"/>
<defs>
<linearGradient id="paint0_linear_2512_63" x1="120.416" y1="-68.1433" x2="14.4392" y2="159.687" gradientUnits="userSpaceOnUse">
<stop stop-color="white"/>
<stop offset="1" stop-color="white" stop-opacity="0"/>
</linearGradient>
</defs>
</svg>
