<svg width="43" height="36" viewBox="0 0 43 36" fill="none" xmlns="http://www.w3.org/2000/svg">
<path d="M18.1675 25.6562C19.0633 26.5677 20.1921 26.9961 21.5538 26.9414C22.9154 26.8867 23.9008 26.3854 24.51 25.4375L36.3888 7.22656L18.49 19.3125C17.5583 19.9688 17.0477 20.9622 16.9581 22.293C16.8685 23.6237 17.2717 24.7448 18.1675 25.6562ZM6.02 35.5C5.375 35.5 4.76583 35.3451 4.1925 35.0352C3.61917 34.7253 3.18917 34.2786 2.9025 33.6953C1.97083 31.9453 1.25417 30.1224 0.7525 28.2266C0.250833 26.3307 0 24.3984 0 22.4297C0 19.4036 0.564375 16.5599 1.69313 13.8984C2.82188 11.237 4.35375 8.91276 6.28875 6.92578C8.22375 4.9388 10.4902 3.37109 13.0881 2.22266C15.686 1.07422 18.4542 0.5 21.3925 0.5C24.3667 0.5 27.1706 1.07422 29.8044 2.22266C32.4381 3.37109 34.7315 4.9388 36.6844 6.92578C38.6373 8.91276 40.1781 11.237 41.3069 13.8984C42.4356 16.5599 43 19.4036 43 22.4297C43 24.3984 42.7671 26.3398 42.3013 28.2539C41.8354 30.168 41.1188 31.9818 40.1513 33.6953C39.8288 34.2786 39.3808 34.7253 38.8075 35.0352C38.2342 35.3451 37.625 35.5 36.98 35.5H6.02Z" fill="white"/>
</svg>
