<svg width="30" height="30" viewBox="0 0 30 30" fill="none" xmlns="http://www.w3.org/2000/svg">
<path d="M18.9583 30C18.4028 30 17.9097 29.9375 17.4792 29.8125C17.0486 29.6875 16.6389 29.5139 16.25 29.2917V0.708333C16.6389 0.486111 17.0417 0.3125 17.4583 0.1875C17.875 0.0625 18.3472 0 18.875 0C20.2639 0 21.4583 0.493056 22.4583 1.47917C23.4583 2.46528 24 3.66667 24.0833 5.08333C25.6944 5.22222 27.0833 5.89583 28.25 7.10417C29.4167 8.3125 30 9.76389 30 11.4583C30 12.0972 29.9167 12.7014 29.75 13.2708C29.5833 13.8403 29.3472 14.375 29.0417 14.875C29.3472 15.4306 29.5833 16.0139 29.75 16.625C29.9167 17.2361 30 17.8333 30 18.4167C30 20.1944 29.4514 21.6736 28.3542 22.8542C27.2569 24.0347 25.8889 24.6944 24.25 24.8333C24.1111 26.1667 23.5417 27.3611 22.5417 28.4167C21.5417 29.4722 20.3472 30 18.9583 30ZM11.0417 30C9.625 30 8.42361 29.4722 7.4375 28.4167C6.45139 27.3611 5.88889 26.1667 5.75 24.8333C4.11111 24.6944 2.74306 24.0069 1.64583 22.7708C0.548611 21.5347 0 20.0278 0 18.25C0 17.6389 0.0763889 17.0486 0.229167 16.4792C0.381944 15.9097 0.611111 15.3611 0.916667 14.8333C0.611111 14.3333 0.381944 13.8056 0.229167 13.25C0.0763889 12.6944 0 12.0972 0 11.4583C0 9.79167 0.576389 8.36111 1.72917 7.16667C2.88194 5.97222 4.25 5.27778 5.83333 5.08333C5.88889 3.66667 6.42361 2.46528 7.4375 1.47917C8.45139 0.493056 9.66667 0 11.0833 0C11.6111 0 12.0903 0.0625 12.5208 0.1875C12.9514 0.3125 13.3611 0.486111 13.75 0.708333V29.2917C13.3611 29.5139 12.9514 29.6875 12.5208 29.8125C12.0903 29.9375 11.5972 30 11.0417 30Z" fill="white"/>
</svg>
