<svg width="35" height="36" viewBox="0 0 35 36" fill="none" xmlns="http://www.w3.org/2000/svg">
<path d="M17.5 27.5812C19.425 27.5812 21.1969 27.0635 22.8156 26.0281C24.4344 24.9927 25.6083 23.5854 26.3375 21.8062H8.6625C9.42083 23.5854 10.6021 24.9927 12.2062 26.0281C13.8104 27.0635 15.575 27.5812 17.5 27.5812ZM9.7125 15.6812L11.6812 13.7125L13.65 15.6812L15.225 14.1062L11.6812 10.5625L8.1375 14.1062L9.7125 15.6812ZM21.3937 15.6812L23.3625 13.7125L25.3312 15.6812L26.9062 14.1062L23.3625 10.5625L19.8187 14.1062L21.3937 15.6812ZM17.5 35.5C15.0792 35.5 12.8042 35.0406 10.675 34.1219C8.54583 33.2031 6.69375 31.9562 5.11875 30.3812C3.54375 28.8062 2.29687 26.9542 1.37812 24.825C0.459375 22.6958 0 20.4208 0 18C0 15.5792 0.459375 13.3042 1.37812 11.175C2.29687 9.04583 3.54375 7.19375 5.11875 5.61875C6.69375 4.04375 8.54583 2.79687 10.675 1.87812C12.8042 0.959375 15.0792 0.5 17.5 0.5C19.9208 0.5 22.1958 0.959375 24.325 1.87812C26.4542 2.79687 28.3062 4.04375 29.8812 5.61875C31.4562 7.19375 32.7031 9.04583 33.6219 11.175C34.5406 13.3042 35 15.5792 35 18C35 20.4208 34.5406 22.6958 33.6219 24.825C32.7031 26.9542 31.4562 28.8062 29.8812 30.3812C28.3062 31.9562 26.4542 33.2031 24.325 34.1219C22.1958 35.0406 19.9208 35.5 17.5 35.5ZM17.5 32.875C21.6526 32.875 25.1699 31.434 28.052 28.552C30.934 25.6699 32.375 22.1526 32.375 18C32.375 13.8474 30.934 10.3301 28.052 7.44803C25.1699 4.56601 21.6526 3.125 17.5 3.125C13.3474 3.125 9.83007 4.56601 6.94802 7.44803C4.06601 10.3301 2.625 13.8474 2.625 18C2.625 22.1526 4.06601 25.6699 6.94802 28.552C9.83007 31.434 13.3474 32.875 17.5 32.875Z" fill="white"/>
</svg>
