<svg width="32" height="33" viewBox="0 0 32 33" fill="none" xmlns="http://www.w3.org/2000/svg">
<path d="M16.0364 28.4625C12.7879 28.4625 10.0364 27.3036 7.78182 24.9859C5.52727 22.6682 4.4 19.8395 4.4 16.5C4.4 13.1395 5.52727 10.2932 7.78182 7.96091C10.0364 5.62864 12.7879 4.4625 16.0364 4.4625C19.2848 4.4625 22.0364 5.62864 24.2909 7.96091C26.5455 10.2932 27.6727 13.1395 27.6727 16.5C27.6727 19.8395 26.5455 22.6682 24.2909 24.9859C22.0364 27.3036 19.2848 28.4625 16.0364 28.4625ZM16.1091 26.2125C18.6788 26.2125 20.8727 25.2719 22.6909 23.3906C24.5091 21.5094 25.4182 19.225 25.4182 16.5375C25.4182 15.9875 25.3697 15.4625 25.2727 14.9625C25.1758 14.4625 25.0303 13.925 24.8364 13.35C23.9879 13.475 23.3636 13.5563 22.9636 13.5938C22.5636 13.6313 22.2182 13.65 21.9273 13.65C20.4 13.65 18.8909 13.225 17.4 12.375C15.9091 11.525 14.5576 10.3375 13.3455 8.8125C12.7152 10.5375 11.8121 12.0313 10.6364 13.2938C9.46061 14.5563 8.08485 15.4375 6.50909 15.9375C6.50909 18.9625 7.44749 21.4313 9.32429 23.3438C11.2011 25.2563 13.4627 26.2125 16.1091 26.2125ZM12.7636 19.125C12.3515 19.125 12.0061 18.9813 11.7273 18.6938C11.4485 18.4063 11.3091 18.05 11.3091 17.625C11.3091 17.2 11.4485 16.8438 11.7273 16.5563C12.0061 16.2688 12.3515 16.125 12.7636 16.125C13.1758 16.125 13.5212 16.2688 13.8 16.5563C14.0788 16.8438 14.2182 17.2 14.2182 17.625C14.2182 18.05 14.0788 18.4063 13.8 18.6938C13.5212 18.9813 13.1758 19.125 12.7636 19.125ZM19.2727 19.1625C18.8606 19.1625 18.5091 19.0152 18.2182 18.7205C17.9273 18.4258 17.7818 18.0606 17.7818 17.625C17.7818 17.1894 17.9247 16.8242 18.2104 16.5296C18.4962 16.2349 18.8503 16.0875 19.2727 16.0875C19.6848 16.0875 20.0303 16.2349 20.3091 16.5296C20.5879 16.8242 20.7273 17.1894 20.7273 17.625C20.7273 18.0606 20.5879 18.4258 20.3091 18.7205C20.0303 19.0152 19.6848 19.1625 19.2727 19.1625ZM0 7.2V2.25C0 1.65 0.218182 1.125 0.654545 0.675C1.09091 0.225 1.6 0 2.18182 0H6.98182V2.25H2.18182V7.2H0ZM6.98182 33H2.18182C1.6 33 1.09091 32.775 0.654545 32.325C0.218182 31.875 0 31.35 0 30.75V25.8H2.18182V30.75H6.98182V33ZM25.0182 33V30.75H29.8182V25.8H32V30.75C32 31.35 31.7818 31.875 31.3455 32.325C30.9091 32.775 30.4 33 29.8182 33H25.0182ZM29.8182 7.2V2.25H25.0182V0H29.8182C30.4 0 30.9091 0.225 31.3455 0.675C31.7818 1.125 32 1.65 32 2.25V7.2H29.8182Z" fill="white"/>
</svg>
