<svg width="43" height="40" viewBox="0 0 43 40" fill="none" xmlns="http://www.w3.org/2000/svg">
<path d="M18.8663 22.4829L16.34 18.7176C16.1608 18.4993 15.9727 18.3265 15.7756 18.1992C15.5785 18.0719 15.3367 18.0082 15.05 18.0082H1.55875C0.985417 16.844 0.582292 15.7435 0.349375 14.7067C0.116458 13.6698 0 12.6057 0 11.5143C0 8.24011 1.08396 5.5025 3.25188 3.3015C5.41979 1.1005 8.09833 0 11.2875 0C13.33 0 15.2202 0.491132 16.9581 1.4734C18.696 2.45566 20.21 3.87449 21.5 5.72988C23.005 3.76535 24.5996 2.31924 26.2838 1.39154C27.9679 0.463847 29.7775 0 31.7125 0C34.9017 0 37.5802 1.1005 39.7481 3.3015C41.916 5.5025 43 8.24011 43 11.5143C43 12.6057 42.8835 13.6698 42.6506 14.7067C42.4177 15.7435 42.0146 16.844 41.4413 18.0082H28.8638L24.9938 12.2237C24.8146 11.9691 24.5996 11.7872 24.3488 11.678C24.0979 11.5689 23.8292 11.5143 23.5425 11.5143C23.22 11.5143 22.9244 11.6144 22.6556 11.8145C22.3869 12.0146 22.1988 12.2783 22.0913 12.6057L18.8663 22.4829ZM21.5 40L19.2963 37.9809C15.2829 34.2337 12.0042 31.0323 9.46 28.3765C6.91583 25.7208 4.92708 23.3561 3.49375 21.2824H14.0825L17.9525 27.1214C18.1317 27.3761 18.3556 27.558 18.6244 27.6671C18.8931 27.7763 19.1708 27.8308 19.4575 27.8308C19.78 27.8308 20.0667 27.7308 20.3175 27.5307C20.5683 27.3306 20.7475 27.0668 20.855 26.7394L24.1338 16.8622L26.6063 20.573C26.7854 20.7913 26.9825 20.9641 27.1975 21.0914C27.4125 21.2187 27.6633 21.2824 27.95 21.2824H39.5063C38.0729 23.3561 36.0842 25.7208 33.54 28.3765C30.9958 31.0323 27.7171 34.2337 23.7038 37.9809L21.5 40Z" fill="white"/>
</svg>
