<svg width="29" height="39" viewBox="0 0 29 39" fill="none" xmlns="http://www.w3.org/2000/svg">
<path d="M14.5 23.4513C13.0155 23.4513 11.7726 22.9225 10.7714 21.8648C9.77024 20.8071 9.26964 19.5228 9.26964 18.0118V5.13158C9.26964 3.70613 9.77785 2.49451 10.7943 1.49673C11.8107 0.498909 13.0449 0 14.4969 0C15.949 0 17.1842 0.498909 18.2027 1.49673C19.2211 2.49451 19.7304 3.70613 19.7304 5.13158V18.0118C19.7304 19.5228 19.2298 20.8071 18.2286 21.8648C17.2274 22.9225 15.9845 23.4513 14.5 23.4513ZM12.9464 39V32.0211C9.28691 31.6447 6.21429 30.1224 3.72857 27.4539C1.24286 24.7855 0 21.6382 0 18.0118H3.10714C3.10714 21.125 4.21688 23.7421 6.43634 25.8632C8.65581 27.9842 11.34 29.0447 14.489 29.0447C17.638 29.0447 20.3259 27.9842 22.5527 25.8632C24.7795 23.7421 25.8929 21.125 25.8929 18.0118H29C29 21.6382 27.7571 24.7855 25.2714 27.4539C22.7857 30.1224 19.7131 31.6447 16.0536 32.0211V39H12.9464Z" fill="white"/>
</svg>
