<svg width="380" height="477" viewBox="0 0 380 477" fill="none" xmlns="http://www.w3.org/2000/svg">
<path fill-rule="evenodd" clip-rule="evenodd" d="M153.815 88.5794L146.175 37.3871L147.813 37.1426L155.453 88.3361C157.81 88.4298 159.692 90.3698 159.692 92.7492C159.692 95.1885 157.714 97.1659 155.275 97.1659C152.836 97.1659 150.858 95.1885 150.858 92.7492C150.858 90.8215 152.093 89.1822 153.815 88.5794ZM106.598 98.0887L88.6638 50.3922L90.214 49.8093L108.148 97.5057C108.392 97.4638 108.643 97.4419 108.9 97.4419C111.339 97.4419 113.317 99.4193 113.317 101.859C113.317 104.298 111.339 106.275 108.9 106.275C106.461 106.275 104.483 104.298 104.483 101.859C104.483 100.263 105.329 98.8648 106.598 98.0887ZM163.556 117.869C161.117 117.869 159.139 115.892 159.139 113.452C159.139 111.013 161.117 109.036 163.556 109.036C165.995 109.036 167.973 111.013 167.973 113.452C167.973 115.232 166.921 116.765 165.405 117.465L177.61 166.667L176.002 167.066L163.797 117.863C163.717 117.867 163.637 117.869 163.556 117.869ZM95.6498 133.189C93.2106 133.189 91.2332 131.212 91.2332 128.773C91.2332 126.333 93.2106 124.356 95.6498 124.356C98.0891 124.356 100.067 126.333 100.067 128.773C100.067 128.897 100.061 129.02 100.051 129.141L149.287 142.881L148.841 144.477L99.6069 130.737C98.8839 132.19 97.3835 133.189 95.6498 133.189ZM178.462 184.533C176.023 184.533 174.046 182.556 174.046 180.116C174.046 177.677 176.023 175.7 178.462 175.7C180.619 175.7 182.414 177.245 182.802 179.288H200.822V180.945H182.802C182.414 182.988 180.619 184.533 178.462 184.533ZM151.134 198.551V175.976H152.79V198.551C154.834 198.938 156.379 200.734 156.379 202.89C156.379 205.329 154.402 207.307 151.962 207.307C149.523 207.307 147.546 205.329 147.546 202.89C147.546 200.734 149.091 198.938 151.134 198.551ZM65.0092 186.603C62.5699 186.603 60.5925 184.626 60.5925 182.187C60.5925 179.747 62.5699 177.77 65.0092 177.77C67.4485 177.77 69.4259 179.747 69.4259 182.187C69.4259 184.024 68.3038 185.6 66.7074 186.265L71.6167 209.76L69.9955 210.098L65.0859 186.603C65.0604 186.603 65.0348 186.603 65.0092 186.603ZM88.623 237.399L78.6855 180.258L80.3173 179.975L90.2548 237.115L88.623 237.399ZM137.47 185.499H96.892V183.843H137.47V185.499ZM60.0404 245.754V214.898H61.6967V245.754C63.7401 246.142 65.2852 247.937 65.2852 250.093C65.2852 252.532 63.3078 254.51 60.8686 254.51C58.4293 254.51 56.4519 252.532 56.4519 250.093C56.4519 247.937 57.997 246.142 60.0404 245.754ZM29.4405 270.411L19.8906 219.605L21.5184 219.299L31.0685 270.106C33.502 270.113 35.4727 272.088 35.4727 274.523C35.4727 276.962 33.4953 278.939 31.0561 278.939C28.6168 278.939 26.6394 276.962 26.6394 274.523C26.6394 272.654 27.8004 271.056 29.4405 270.411ZM119.188 247.93L139.518 235.311L140.391 236.718L120.063 249.336C120.252 249.828 120.356 250.363 120.356 250.921C120.356 253.36 118.378 255.338 115.939 255.338C113.5 255.338 111.522 253.36 111.522 250.921C111.522 248.482 113.5 246.504 115.939 246.504C117.224 246.504 118.381 247.053 119.188 247.93ZM171.02 335.043L151.202 288.928L152.723 288.274L172.541 334.389C172.848 334.321 173.167 334.286 173.494 334.286C175.933 334.286 177.91 336.263 177.91 338.702C177.91 341.142 175.933 343.119 173.494 343.119C171.054 343.119 169.077 341.142 169.077 338.702C169.077 337.18 169.847 335.837 171.02 335.043ZM177.634 299.151C175.591 298.763 174.046 296.968 174.046 294.812C174.046 292.373 176.023 290.395 178.462 290.395C180.902 290.395 182.879 292.373 182.879 294.812C182.879 296.968 181.334 298.763 179.29 299.151V321.312H177.634V299.151ZM149.867 342.68L134.196 292.991L135.776 292.492L151.447 342.183C151.616 342.163 151.788 342.153 151.962 342.153C154.402 342.153 156.379 344.13 156.379 346.57C156.379 349.009 154.402 350.986 151.962 350.986C149.523 350.986 147.546 349.009 147.546 346.57C147.546 344.888 148.485 343.427 149.867 342.68ZM125.746 353.327L92.949 314.81L94.21 313.736L127.006 352.252C127.65 351.886 128.395 351.676 129.189 351.676C131.628 351.676 133.606 353.654 133.606 356.093C133.606 358.532 131.628 360.51 129.189 360.51C126.75 360.51 124.772 358.532 124.772 356.093C124.772 355.046 125.137 354.084 125.746 353.327ZM111.529 368.34L60.7575 361.468L60.9796 359.827L111.75 366.698C112.336 364.947 113.99 363.684 115.939 363.684C118.378 363.684 120.356 365.662 120.356 368.101C120.356 370.54 118.378 372.518 115.939 372.518C113.58 372.518 111.653 370.668 111.529 368.34ZM127.034 383.345C126.397 382.58 126.014 381.596 126.014 380.523C126.014 378.083 127.992 376.106 130.431 376.106C132.87 376.106 134.848 378.083 134.848 380.523C134.848 382.962 132.87 384.939 130.431 384.939C129.663 384.939 128.941 384.743 128.312 384.399L96.2891 423.284L95.0106 422.231L127.034 383.345ZM147.839 396.6C147.649 396.108 147.546 395.574 147.546 395.015C147.546 392.576 149.523 390.598 151.962 390.598C154.402 390.598 156.379 392.576 156.379 395.015C156.379 397.454 154.402 399.432 151.962 399.432C150.677 399.432 149.52 398.883 148.713 398.006L104.368 425.531L103.494 424.124L147.839 396.6ZM169.99 411.202C168.254 410.606 167.007 408.96 167.007 407.023C167.007 404.584 168.984 402.606 171.423 402.606C173.863 402.606 175.84 404.584 175.84 407.023C175.84 409.393 173.973 411.327 171.63 411.435L164.376 462.21L162.736 461.976L169.99 411.202Z" fill="#8BF8FF"/>
<path fill-rule="evenodd" clip-rule="evenodd" d="M212.828 187.983H165.625V235.187H212.828V187.983ZM164.797 187.155V236.015H213.656V187.155H164.797Z" fill="white"/>
<path fill-rule="evenodd" clip-rule="evenodd" d="M207.859 353.609H170.594V390.875H207.859V353.609ZM169.766 352.781V391.703H208.688V352.781H169.766Z" fill="white"/>
<path fill-rule="evenodd" clip-rule="evenodd" d="M136.641 192.953H99.375V230.219H136.641V192.953ZM98.5469 192.125V231.047H137.469V192.125H98.5469Z" fill="#8BF8FF"/>
<path fill-rule="evenodd" clip-rule="evenodd" d="M187.992 245.953H150.727V283.219H187.992V245.953ZM149.898 245.125V284.047H188.82V245.125H149.898Z" fill="white"/>
<path d="M123.391 211.585C123.391 214.558 120.981 216.968 118.008 216.968C115.035 216.968 112.625 214.558 112.625 211.585C112.625 208.612 115.035 206.202 118.008 206.202C120.981 206.202 123.391 208.612 123.391 211.585Z" fill="#8BF8FF"/>
<path d="M121.734 184.258C121.734 186.316 120.066 187.984 118.008 187.984C115.95 187.984 114.281 186.316 114.281 184.258C114.281 182.2 115.95 180.531 118.008 180.531C120.066 180.531 121.734 182.2 121.734 184.258Z" fill="white"/>
<path d="M174.742 264.586C174.742 267.559 172.332 269.969 169.359 269.969C166.387 269.969 163.977 267.559 163.977 264.586C163.977 261.613 166.387 259.203 169.359 259.203C172.332 259.203 174.742 261.613 174.742 264.586Z" fill="white"/>
<path d="M196.266 211.586C196.266 215.474 193.114 218.625 189.227 218.625C185.339 218.625 182.188 215.474 182.188 211.586C182.188 207.698 185.339 204.547 189.227 204.547C193.114 204.547 196.266 207.698 196.266 211.586Z" fill="white"/>
<path d="M194.609 372.242C194.609 375.215 192.199 377.625 189.227 377.625C186.254 377.625 183.844 375.215 183.844 372.242C183.844 369.269 186.254 366.859 189.227 366.859C192.199 366.859 194.609 369.269 194.609 372.242Z" fill="white"/>
<path d="M88.6094 207.444C88.6094 209.96 86.5702 211.999 84.0547 211.999C81.5392 211.999 79.5 209.96 79.5 207.444C79.5 204.929 81.5392 202.89 84.0547 202.89C86.5702 202.89 88.6094 204.929 88.6094 207.444Z" fill="white"/>
<path fill-rule="evenodd" clip-rule="evenodd" d="M225.052 88.5794L232.693 37.3871L231.055 37.1426L223.414 88.3361C221.057 88.4298 219.176 90.3698 219.176 92.7492C219.176 95.1885 221.153 97.1659 223.592 97.1659C226.032 97.1659 228.009 95.1885 228.009 92.7492C228.009 90.8215 226.774 89.1822 225.052 88.5794ZM272.27 98.0887L290.203 50.3922L288.653 49.8093L270.719 97.5057C270.475 97.4638 270.224 97.4419 269.967 97.4419C267.528 97.4419 265.551 99.4193 265.551 101.859C265.551 104.298 267.528 106.275 269.967 106.275C272.407 106.275 274.384 104.298 274.384 101.859C274.384 100.263 273.538 98.8648 272.27 98.0887ZM215.311 117.869C217.75 117.869 219.728 115.892 219.728 113.452C219.728 111.013 217.75 109.036 215.311 109.036C212.872 109.036 210.894 111.013 210.894 113.452C210.894 115.232 211.947 116.765 213.463 117.465L201.257 166.667L202.865 167.066L215.07 117.863C215.15 117.867 215.23 117.869 215.311 117.869ZM283.217 133.189C285.657 133.189 287.634 131.212 287.634 128.773C287.634 126.333 285.657 124.356 283.217 124.356C280.778 124.356 278.801 126.333 278.801 128.773C278.801 128.897 278.806 129.02 278.816 129.141L229.581 142.881L230.026 144.477L279.26 130.737C279.983 132.19 281.484 133.189 283.217 133.189ZM227.733 198.551V175.976H226.077V198.551C224.033 198.938 222.488 200.734 222.488 202.89C222.488 205.329 224.466 207.307 226.905 207.307C229.344 207.307 231.321 205.329 231.321 202.89C231.321 200.734 229.776 198.938 227.733 198.551ZM313.858 186.603C316.297 186.603 318.275 184.626 318.275 182.187C318.275 179.747 316.297 177.77 313.858 177.77C311.419 177.77 309.441 179.747 309.441 182.187C309.441 184.024 310.563 185.6 312.16 186.265L307.25 209.76L308.872 210.098L313.781 186.603C313.807 186.603 313.832 186.603 313.858 186.603ZM290.244 237.399L300.182 180.258L298.55 179.975L288.612 237.115L290.244 237.399ZM241.397 185.499H281.975V183.843H241.397V185.499ZM318.827 245.754V214.898H317.17V245.754C315.127 246.141 313.582 247.937 313.582 250.093C313.582 252.532 315.559 254.51 317.999 254.51C320.438 254.51 322.415 252.532 322.415 250.093C322.415 247.937 320.87 246.141 318.827 245.754ZM349.427 270.411L358.977 219.605L357.349 219.299L347.799 270.106C345.365 270.113 343.394 272.088 343.394 274.523C343.394 276.962 345.372 278.939 347.811 278.939C350.25 278.939 352.228 276.962 352.228 274.523C352.228 272.654 351.067 271.056 349.427 270.411ZM259.679 247.93L239.349 235.311L238.476 236.719L258.804 249.336C258.615 249.828 258.512 250.363 258.512 250.921C258.512 253.36 260.489 255.338 262.928 255.338C265.368 255.338 267.345 253.36 267.345 250.921C267.345 248.482 265.368 246.504 262.928 246.504C261.643 246.504 260.486 247.053 259.679 247.93ZM207.848 335.043L227.666 288.928L226.144 288.274L206.326 334.389C206.019 334.321 205.701 334.286 205.374 334.286C202.934 334.286 200.957 336.263 200.957 338.702C200.957 341.142 202.934 343.119 205.374 343.119C207.813 343.119 209.79 341.142 209.79 338.702C209.79 337.18 209.02 335.837 207.848 335.043ZM201.233 299.151C203.276 298.763 204.821 296.968 204.821 294.812C204.821 292.373 202.844 290.395 200.405 290.395C197.966 290.395 195.988 292.373 195.988 294.812C195.988 296.968 197.533 298.763 199.577 299.151V321.312H201.233V299.151ZM229 342.68L244.671 292.991L243.092 292.492L227.42 342.183C227.251 342.163 227.079 342.153 226.905 342.153C224.466 342.153 222.488 344.13 222.488 346.57C222.488 349.009 224.466 350.986 226.905 350.986C229.344 350.986 231.321 349.009 231.321 346.57C231.321 344.888 230.382 343.427 229 342.68ZM253.121 353.327L285.918 314.81L284.657 313.736L251.861 352.252C251.217 351.886 250.472 351.676 249.678 351.676C247.239 351.676 245.262 353.654 245.262 356.093C245.262 358.532 247.239 360.51 249.678 360.51C252.118 360.51 254.095 358.532 254.095 356.093C254.095 355.046 253.73 354.084 253.121 353.327ZM267.339 368.34L318.11 361.468L317.888 359.827L267.118 366.698C266.531 364.947 264.877 363.684 262.928 363.684C260.489 363.684 258.512 365.662 258.512 368.101C258.512 370.54 260.489 372.518 262.928 372.518C265.287 372.518 267.215 370.668 267.339 368.34ZM251.833 383.345C252.47 382.58 252.853 381.596 252.853 380.523C252.853 378.083 250.875 376.106 248.436 376.106C245.997 376.106 244.019 378.083 244.019 380.523C244.019 382.962 245.997 384.939 248.436 384.939C249.204 384.939 249.926 384.743 250.555 384.399L282.578 423.284L283.857 422.231L251.833 383.345ZM231.029 396.6C231.218 396.108 231.321 395.574 231.321 395.015C231.321 392.576 229.344 390.598 226.905 390.598C224.466 390.598 222.488 392.576 222.488 395.015C222.488 397.454 224.466 399.432 226.905 399.432C228.19 399.432 229.347 398.883 230.154 398.006L274.499 425.531L275.373 424.124L231.029 396.6ZM208.877 411.202C210.613 410.606 211.861 408.96 211.861 407.023C211.861 404.584 209.883 402.606 207.444 402.606C205.005 402.606 203.027 404.584 203.027 407.023C203.027 409.393 204.894 411.327 207.238 411.435L214.491 462.21L216.131 461.976L208.877 411.202Z" fill="#8BF8FF"/>
<path fill-rule="evenodd" clip-rule="evenodd" d="M242.227 192.953H279.492V230.219H242.227V192.953ZM280.32 192.125V231.047H241.398V192.125H280.32Z" fill="#8BF8FF"/>
<path fill-rule="evenodd" clip-rule="evenodd" d="M190.875 245.953H228.141V283.219H190.875V245.953ZM228.969 245.125V284.047H190.047V245.125H228.969Z" fill="white"/>
<path d="M255.477 211.585C255.477 214.558 257.887 216.968 260.859 216.968C263.832 216.968 266.242 214.558 266.242 211.585C266.242 208.612 263.832 206.202 260.859 206.202C257.887 206.202 255.477 208.612 255.477 211.585Z" fill="#8BF8FF"/>
<path d="M257.133 184.258C257.133 186.316 258.801 187.984 260.859 187.984C262.917 187.984 264.586 186.316 264.586 184.258C264.586 182.2 262.917 180.531 260.859 180.531C258.801 180.531 257.133 182.2 257.133 184.258Z" fill="white"/>
<path d="M204.125 264.585C204.125 267.558 206.535 269.968 209.508 269.968C212.481 269.968 214.891 267.558 214.891 264.585C214.891 261.612 212.481 259.202 209.508 259.202C206.535 259.202 204.125 261.612 204.125 264.585Z" fill="white"/>
<path d="M290.258 207.444C290.258 209.96 292.297 211.999 294.812 211.999C297.328 211.999 299.367 209.96 299.367 207.444C299.367 204.929 297.328 202.89 294.812 202.89C292.297 202.89 290.258 204.929 290.258 207.444Z" fill="white"/>
<path fill-rule="evenodd" clip-rule="evenodd" d="M189.641 1.65625C173.138 1.65607 130.602 3.04604 80.7396 40.0013C49.6994 63.0067 37.4187 97.2298 33.0194 126.722C28.8733 154.517 31.7433 178.008 32.4428 183.733C32.4853 184.082 32.5199 184.364 32.5443 184.578C32.7709 186.562 32.5426 188.862 32.035 190.997C31.5282 193.129 30.7254 195.171 29.7485 196.624C29.2615 197.349 28.6998 197.974 28.066 198.376C27.4157 198.788 26.6516 198.982 25.8546 198.74C25.0862 198.507 24.4388 197.914 23.8939 197.082C23.3457 196.244 22.852 195.093 22.4138 193.601C19.7862 184.655 14.0319 182.898 11.7577 183.015L11.7164 183.017L11.6751 183.015C8.53028 182.862 6.35998 183.996 4.84279 185.915C3.28942 187.88 2.37437 190.731 1.94848 194.052C1.101 200.661 2.23578 208.751 3.56515 214.223C4.42977 216.266 5.56181 219.497 6.18689 222.657C6.50254 224.253 6.69501 225.86 6.64708 227.303C6.59969 228.729 6.31444 230.095 5.57935 231.117C5.28356 231.528 4.94933 232.257 4.61274 233.298C4.28161 234.323 3.96653 235.591 3.68478 237.035C3.12143 239.921 2.70007 243.465 2.54207 247.076C2.38396 250.691 2.49081 254.347 2.97213 257.466C3.45915 260.622 4.30904 263.084 5.52549 264.449C10.0876 269.57 10.9847 275.412 10.8443 277.844C11.8633 301.513 28.181 309.493 36.0903 310.554L36.7043 310.637L36.7987 311.249C37.6394 316.705 41.0263 329.758 44.411 338.401L44.4176 338.418L44.4233 338.435C45.1857 340.66 45.778 343.911 46.4036 347.345C46.4978 347.862 46.5927 348.382 46.689 348.905C47.434 352.942 48.2717 357.103 49.5123 360.329C55.0275 372.564 71.9075 402.556 95.2875 424.64L95.3465 424.696L95.3936 424.762C99.8386 431.008 107.66 440.699 116.653 449.44C125.674 458.209 135.761 465.908 144.737 468.333C146.322 468.762 147.796 469.162 149.175 469.536C157.821 471.884 162.716 473.213 167.535 474.009C173.106 474.93 178.58 475.137 189.656 475.344L189.625 477C178.567 476.793 172.974 476.586 167.265 475.643C162.358 474.833 157.369 473.478 148.742 471.135C147.361 470.76 145.887 470.36 144.305 469.932C134.892 467.389 124.547 459.423 115.499 450.628C106.455 441.837 98.5931 432.105 94.0913 425.789C70.5228 403.503 53.55 373.325 47.9928 360.989L47.9834 360.968L47.9751 360.946C46.6663 357.551 45.8035 353.233 45.0603 349.205C44.9625 348.675 44.8668 348.151 44.7726 347.634C44.1431 344.183 43.5779 341.085 42.8622 338.988C39.5564 330.541 36.2568 317.983 35.2595 312.104C26.5378 310.644 10.2052 301.957 9.18768 277.871L9.18582 277.827L9.18864 277.783C9.31802 275.769 8.55167 270.336 4.28885 265.551C2.73852 263.811 1.83258 260.942 1.33526 257.719C0.832241 254.459 0.726268 250.687 0.8874 247.004C1.04864 243.318 1.4786 239.693 2.0592 236.718C2.34943 235.231 2.67949 233.895 3.03673 232.789C3.38851 231.701 3.78587 230.773 4.23499 230.149C4.69174 229.515 4.949 228.534 4.99174 227.248C5.03395 225.977 4.86416 224.505 4.56212 222.978C3.95824 219.925 2.85006 216.772 2.01451 214.809L1.98804 214.747L1.97201 214.681C0.612352 209.112 -0.581584 200.761 0.305678 193.842C0.748841 190.386 1.72264 187.192 3.5435 184.888C5.39374 182.548 8.07017 181.192 11.7154 181.359C14.8482 181.222 21.1948 183.573 24.0029 193.134C24.416 194.54 24.8534 195.524 25.2796 196.174C25.7091 196.83 26.0793 197.078 26.3351 197.155C26.5623 197.224 26.8292 197.199 27.1798 196.977C27.5469 196.744 27.9563 196.321 28.3739 195.7C29.206 194.462 29.9461 192.623 30.4237 190.614C30.9004 188.608 31.0978 186.508 30.8987 184.766C30.8744 184.552 30.8398 184.27 30.7972 183.921C30.0953 178.178 27.2014 154.499 31.3813 126.477C35.8144 96.7585 48.2219 62.0402 79.7534 38.6706C130.006 1.42585 172.942 -0.000178766 189.641 1.68e-08L189.641 1.65625Z" fill="white"/>
<path fill-rule="evenodd" clip-rule="evenodd" d="M189.641 1.65625C206.143 1.65607 248.68 3.04604 298.542 40.0013C329.582 63.0067 341.863 97.2298 346.262 126.722C350.408 154.517 347.538 178.008 346.838 183.733C346.796 184.082 346.761 184.364 346.737 184.578C346.51 186.562 346.739 188.862 347.246 190.997C347.753 193.129 348.556 195.171 349.533 196.624C350.02 197.349 350.581 197.974 351.215 198.376C351.866 198.788 352.63 198.982 353.427 198.74C354.195 198.507 354.842 197.914 355.387 197.082C355.936 196.244 356.429 195.093 356.867 193.601C359.495 184.655 365.249 182.898 367.524 183.015L367.565 183.017L367.606 183.015C370.751 182.862 372.921 183.996 374.438 185.915C375.992 187.88 376.907 190.731 377.333 194.052C378.18 200.661 377.045 208.751 375.716 214.223C374.851 216.266 373.719 219.497 373.094 222.657C372.779 224.253 372.586 225.86 372.634 227.303C372.682 228.729 372.967 230.095 373.702 231.117C373.998 231.528 374.332 232.257 374.669 233.298C375 234.323 375.315 235.591 375.596 237.035C376.16 239.921 376.581 243.465 376.739 247.076C376.897 250.691 376.79 254.347 376.309 257.466C375.822 260.622 374.972 263.084 373.756 264.449C369.194 269.57 368.297 275.412 368.437 277.844C367.418 301.513 351.1 309.493 343.191 310.554L342.577 310.637L342.483 311.249C341.642 316.705 338.255 329.758 334.87 338.401L334.864 338.418L334.858 338.435C334.096 340.66 333.503 343.911 332.878 347.345C332.783 347.862 332.689 348.382 332.592 348.905C331.847 352.942 331.01 357.103 329.769 360.329C324.254 372.564 307.374 402.556 283.994 424.64L283.935 424.696L283.888 424.762C279.443 431.008 271.621 440.699 262.628 449.44C253.607 458.209 243.52 465.908 234.544 468.333C232.96 468.762 231.485 469.162 230.106 469.536C221.46 471.884 216.565 473.213 211.746 474.009C206.175 474.93 200.701 475.137 189.625 475.344L189.656 477C200.715 476.793 206.308 476.586 212.016 475.643C216.923 474.833 221.912 473.478 230.539 471.135C231.92 470.76 233.394 470.36 234.976 469.932C244.389 467.389 254.734 459.423 263.782 450.628C272.826 441.837 280.688 432.105 285.19 425.789C308.758 403.503 325.731 373.325 331.288 360.989L331.298 360.968L331.306 360.946C332.615 357.551 333.478 353.233 334.221 349.205C334.319 348.675 334.414 348.151 334.509 347.634C335.138 344.183 335.703 341.085 336.419 338.988C339.725 330.541 343.024 317.983 344.022 312.104C352.743 310.644 369.076 301.957 370.094 277.871L370.095 277.827L370.093 277.783C369.963 275.769 370.73 270.336 374.992 265.551C376.543 263.811 377.449 260.942 377.946 257.719C378.449 254.459 378.555 250.687 378.394 247.004C378.233 243.318 377.803 239.693 377.222 236.718C376.932 235.231 376.602 233.895 376.245 232.789C375.893 231.701 375.495 230.773 375.046 230.149C374.59 229.515 374.332 228.534 374.29 227.248C374.247 225.977 374.417 224.505 374.719 222.978C375.323 219.925 376.431 216.772 377.267 214.809L377.293 214.747L377.309 214.681C378.669 209.112 379.863 200.761 378.976 193.842C378.532 190.386 377.559 187.192 375.738 184.888C373.888 182.548 371.211 181.192 367.566 181.359C364.433 181.222 358.086 183.573 355.278 193.134C354.865 194.54 354.428 195.524 354.002 196.174C353.572 196.83 353.202 197.078 352.946 197.155C352.719 197.224 352.452 197.199 352.101 196.977C351.734 196.744 351.325 196.321 350.907 195.7C350.075 194.462 349.335 192.623 348.858 190.614C348.381 188.608 348.183 186.508 348.383 184.766C348.407 184.552 348.441 184.27 348.484 183.921C349.186 178.178 352.08 154.499 347.9 126.477C343.467 96.7585 331.059 62.0402 299.528 38.6706C249.275 1.42585 206.34 -0.000178766 189.641 1.68e-08L189.641 1.65625Z" fill="white"/>
</svg>
