<svg width="80" height="80" viewBox="0 0 80 80" fill="none" xmlns="http://www.w3.org/2000/svg">
<path d="M80 40C80 62.0914 62.0914 80 40 80C17.9086 80 0 62.0914 0 40C0 17.9086 17.9086 0 40 0C62.0914 0 80 17.9086 80 40ZM7.19159 40C7.19159 58.1196 21.8804 72.8084 40 72.8084C58.1196 72.8084 72.8084 58.1196 72.8084 40C72.8084 21.8804 58.1196 7.19159 40 7.19159C21.8804 7.19159 7.19159 21.8804 7.19159 40Z" fill="white"/>
<path d="M80 40C80 62.0914 62.0914 80 40 80C17.9086 80 0 62.0914 0 40C0 17.9086 17.9086 0 40 0C62.0914 0 80 17.9086 80 40ZM7.19159 40C7.19159 58.1196 21.8804 72.8084 40 72.8084C58.1196 72.8084 72.8084 58.1196 72.8084 40C72.8084 21.8804 58.1196 7.19159 40 7.19159C21.8804 7.19159 7.19159 21.8804 7.19159 40Z" fill="white"/>
<path d="M80 40C80 49.5304 76.5972 58.7477 70.4043 65.9918C64.2115 73.236 55.6357 78.031 46.2212 79.5132L45.1027 72.4092C52.8245 71.1934 59.8585 67.2605 64.938 61.3188C70.0174 55.377 72.8084 47.817 72.8084 40H80Z" fill="white"/>
<path d="M80 40C80 49.5304 76.5972 58.7477 70.4043 65.9918C64.2115 73.236 55.6357 78.031 46.2212 79.5132L45.1027 72.4092C52.8245 71.1934 59.8585 67.2605 64.938 61.3188C70.0174 55.377 72.8084 47.817 72.8084 40H80Z" fill="#FF3F4E"/>
</svg>
