<svg width="20" height="16" viewBox="0 0 20 16" fill="none" xmlns="http://www.w3.org/2000/svg">
<path d="M8.60474 11.0482C8.98016 11.4302 9.45319 11.6097 10.0238 11.5868C10.5945 11.5639 11.0074 11.3538 11.2627 10.9565L16.2408 3.32479L8.7399 8.3897C8.34946 8.66471 8.13547 9.08106 8.09793 9.63873C8.06038 10.1964 8.22932 10.6662 8.60474 11.0482ZM3.51404 15.1735C3.24374 15.1735 2.98845 15.1085 2.74818 14.9787C2.50791 14.8488 2.32771 14.6616 2.20757 14.4172C1.81714 13.6838 1.5168 12.9198 1.30656 12.1253C1.09633 11.3309 0.991211 10.5211 0.991211 9.69603C0.991211 8.42789 1.22773 7.23615 1.70076 6.1208C2.17379 5.00545 2.81576 4.03143 3.62666 3.19874C4.43757 2.36605 5.38739 1.70906 6.47611 1.22778C7.56483 0.7465 8.72488 0.505859 9.95626 0.505859C11.2027 0.505859 12.3777 0.7465 13.4815 1.22778C14.5852 1.70906 15.5463 2.36605 16.3647 3.19874C17.1831 4.03143 17.8288 5.00545 18.3019 6.1208C18.7749 7.23615 19.0114 8.42789 19.0114 9.69603C19.0114 10.5211 18.9138 11.3347 18.7186 12.1368C18.5234 12.9389 18.223 13.6991 17.8176 14.4172C17.6824 14.6616 17.4947 14.8488 17.2544 14.9787C17.0142 15.1085 16.7589 15.1735 16.4886 15.1735H3.51404Z" fill="#D630FF"/>
</svg>
