<svg width="13" height="13" viewBox="0 0 13 13" fill="none" xmlns="http://www.w3.org/2000/svg">
<path d="M8.16626 12.1301C7.94897 12.1301 7.75611 12.1056 7.58771 12.0567C7.4193 12.0078 7.25905 11.9399 7.10694 11.853V0.673051C7.25905 0.586132 7.41659 0.518226 7.57956 0.469334C7.74253 0.420442 7.92724 0.395996 8.13367 0.395996C8.67691 0.395996 9.1441 0.588848 9.53524 0.974551C9.92638 1.36026 10.1382 1.83016 10.1708 2.38427C10.801 2.4386 11.3442 2.70207 11.8006 3.17469C12.2569 3.64731 12.4851 4.215 12.4851 4.87776C12.4851 5.12766 12.4525 5.36397 12.3873 5.5867C12.3221 5.80943 12.2297 6.01858 12.1102 6.21414C12.2297 6.43144 12.3221 6.65961 12.3873 6.89863C12.4525 7.13766 12.4851 7.37126 12.4851 7.59942C12.4851 8.29477 12.2705 8.87333 11.8413 9.33508C11.4121 9.79684 10.8771 10.0549 10.236 10.1092C10.1817 10.6307 9.95897 11.0979 9.56783 11.5108C9.1767 11.9236 8.70951 12.1301 8.16626 12.1301ZM5.06977 12.1301C4.51566 12.1301 4.04575 11.9236 3.66005 11.5108C3.27435 11.0979 3.05433 10.6307 3.00001 10.1092C2.35898 10.0549 1.82388 9.78598 1.39472 9.30249C0.965558 8.819 0.750977 8.22958 0.750977 7.53423C0.750977 7.2952 0.780855 7.06432 0.840612 6.84159C0.900369 6.61886 0.990004 6.40428 1.10952 6.19785C0.990004 6.00228 0.900369 5.79585 0.840612 5.57855C0.780855 5.36125 0.750977 5.12766 0.750977 4.87776C0.750977 4.22587 0.976423 3.66633 1.42732 3.19914C1.87821 2.73195 2.4133 2.46033 3.0326 2.38427C3.05433 1.83016 3.26348 1.36026 3.66005 0.974551C4.05662 0.588848 4.53196 0.395996 5.08607 0.395996C5.2925 0.395996 5.47992 0.420442 5.64833 0.469334C5.81673 0.518226 5.97699 0.586132 6.1291 0.673051V11.853C5.97699 11.9399 5.81673 12.0078 5.64833 12.0567C5.47992 12.1056 5.28707 12.1301 5.06977 12.1301Z" fill="#D630FF"/>
</svg>
