<svg width="16" height="16" viewBox="0 0 16 16" fill="none" xmlns="http://www.w3.org/2000/svg">
<path d="M7.92267 11.8554C8.72939 11.8554 9.47193 11.6384 10.1503 11.2045C10.8287 10.7706 11.3207 10.1809 11.6262 9.43525H4.2191C4.5369 10.1809 5.03193 10.7706 5.70419 11.2045C6.37646 11.6384 7.11595 11.8554 7.92267 11.8554ZM4.65913 6.86842L5.48418 6.04337L6.30923 6.86842L6.96927 6.20838L5.48418 4.72328L3.99908 6.20838L4.65913 6.86842ZM9.55444 6.86842L10.3795 6.04337L11.2045 6.86842L11.8646 6.20838L10.3795 4.72328L8.8944 6.20838L9.55444 6.86842ZM7.92267 15.1739C6.90816 15.1739 5.95476 14.9814 5.06249 14.5964C4.17021 14.2114 3.39405 13.6889 2.734 13.0288C2.07396 12.3688 1.55143 11.5926 1.1664 10.7003C0.781379 9.80805 0.588867 8.85466 0.588867 7.84015C0.588867 6.82564 0.781379 5.87225 1.1664 4.97997C1.55143 4.08769 2.07396 3.31153 2.734 2.65148C3.39405 1.99144 4.17021 1.46891 5.06249 1.08388C5.95476 0.69886 6.90816 0.506348 7.92267 0.506348C8.93718 0.506348 9.89057 0.69886 10.7829 1.08388C11.6751 1.46891 12.4513 1.99144 13.1113 2.65148C13.7714 3.31153 14.2939 4.08769 14.6789 4.97997C15.064 5.87225 15.2565 6.82564 15.2565 7.84015C15.2565 8.85466 15.064 9.80805 14.6789 10.7003C14.2939 11.5926 13.7714 12.3688 13.1113 13.0288C12.4513 13.6889 11.6751 14.2114 10.7829 14.5964C9.89057 14.9814 8.93718 15.1739 7.92267 15.1739ZM7.92267 14.0739C9.66292 14.0739 11.1369 13.47 12.3447 12.2622C13.5525 11.0544 14.1564 9.5804 14.1564 7.84015C14.1564 6.0999 13.5525 4.62588 12.3447 3.41809C11.1369 2.21031 9.66292 1.60642 7.92267 1.60642C6.18242 1.60642 4.7084 2.21031 3.50061 3.41809C2.29283 4.62588 1.68894 6.0999 1.68894 7.84015C1.68894 9.5804 2.29283 11.0544 3.50061 12.2622C4.7084 13.47 6.18242 14.0739 7.92267 14.0739Z" fill="#D630FF"/>
</svg>
