<svg width="34" height="35" viewBox="0 0 34 35" fill="none" xmlns="http://www.w3.org/2000/svg">
<path d="M17.0386 30.1875C13.5871 30.1875 10.6636 28.9584 8.26818 26.5002C5.87273 24.042 4.675 21.0419 4.675 17.5C4.675 13.9359 5.87273 10.917 8.26818 8.44339C10.6636 5.96977 13.5871 4.73295 17.0386 4.73295C20.4902 4.73295 23.4136 5.96977 25.8091 8.44339C28.2045 10.917 29.4023 13.9359 29.4023 17.5C29.4023 21.0419 28.2045 24.042 25.8091 26.5002C23.4136 28.9584 20.4902 30.1875 17.0386 30.1875ZM17.1159 27.8011C19.8462 27.8011 22.1773 26.8035 24.1091 24.8082C26.0409 22.813 27.0068 20.3902 27.0068 17.5398C27.0068 16.9564 26.9553 16.3996 26.8523 15.8693C26.7492 15.339 26.5947 14.7689 26.3886 14.1591C25.4871 14.2917 24.8239 14.3778 24.3989 14.4176C23.9739 14.4574 23.6068 14.4773 23.2977 14.4773C21.675 14.4773 20.0716 14.0265 18.4875 13.125C16.9034 12.2235 15.4674 10.964 14.1795 9.34659C13.5098 11.1761 12.5504 12.7604 11.3011 14.0994C10.0519 15.4384 8.59015 16.3731 6.91591 16.9034C6.91591 20.1117 7.91296 22.7301 9.90706 24.7585C11.9011 26.7869 14.3041 27.8011 17.1159 27.8011ZM13.5614 20.2841C13.1235 20.2841 12.7564 20.1316 12.4602 19.8267C12.164 19.5218 12.0159 19.1439 12.0159 18.6932C12.0159 18.2424 12.164 17.8646 12.4602 17.5597C12.7564 17.2547 13.1235 17.1023 13.5614 17.1023C13.9992 17.1023 14.3663 17.2547 14.6625 17.5597C14.9587 17.8646 15.1068 18.2424 15.1068 18.6932C15.1068 19.1439 14.9587 19.5218 14.6625 19.8267C14.3663 20.1316 13.9992 20.2841 13.5614 20.2841ZM20.4773 20.3239C20.0394 20.3239 19.6659 20.1676 19.3568 19.855C19.0477 19.5425 18.8932 19.1552 18.8932 18.6932C18.8932 18.2312 19.045 17.8439 19.3486 17.5313C19.6522 17.2188 20.0284 17.0625 20.4773 17.0625C20.9152 17.0625 21.2822 17.2188 21.5784 17.5313C21.8746 17.8439 22.0227 18.2312 22.0227 18.6932C22.0227 19.1552 21.8746 19.5425 21.5784 19.855C21.2822 20.1676 20.9152 20.3239 20.4773 20.3239ZM0 7.63636V2.38636C0 1.75 0.231818 1.19318 0.695455 0.715909C1.15909 0.238636 1.7 0 2.31818 0H7.41818V2.38636H2.31818V7.63636H0ZM7.41818 35H2.31818C1.7 35 1.15909 34.7614 0.695455 34.2841C0.231818 33.8068 0 33.25 0 32.6136V27.3636H2.31818V32.6136H7.41818V35ZM26.5818 35V32.6136H31.6818V27.3636H34V32.6136C34 33.25 33.7682 33.8068 33.3045 34.2841C32.8409 34.7614 32.3 35 31.6818 35H26.5818ZM31.6818 7.63636V2.38636H26.5818V0H31.6818C32.3 0 32.8409 0.238636 33.3045 0.715909C33.7682 1.19318 34 1.75 34 2.38636V7.63636H31.6818Z" fill="#68D6FF"/>
</svg>
