<svg width="14" height="14" viewBox="0 0 14 14" fill="none" xmlns="http://www.w3.org/2000/svg">
<path d="M6.75895 11.3461C5.44014 11.3461 4.32308 10.8899 3.40778 9.97746C2.49249 9.06502 2.03484 7.95146 2.03484 6.63677C2.03484 5.31383 2.49249 4.19328 3.40778 3.27513C4.32308 2.35697 5.44014 1.89789 6.75895 1.89789C8.07776 1.89789 9.19482 2.35697 10.1101 3.27513C11.0254 4.19328 11.4831 5.31383 11.4831 6.63677C11.4831 7.95146 11.0254 9.06502 10.1101 9.97746C9.19482 10.8899 8.07776 11.3461 6.75895 11.3461ZM6.78848 10.4603C7.83172 10.4603 8.72241 10.09 9.46055 9.34944C10.1987 8.60884 10.5678 7.70953 10.5678 6.65153C10.5678 6.43501 10.5481 6.22833 10.5087 6.03149C10.4693 5.83465 10.4103 5.62305 10.3316 5.39669C9.98709 5.4459 9.73366 5.47788 9.57127 5.49264C9.40888 5.50741 9.26863 5.51479 9.15053 5.51479C8.53049 5.51479 7.91783 5.34748 7.31256 5.01285C6.70728 4.67823 6.15859 4.21074 5.6665 3.61038C5.41061 4.28947 5.044 4.87753 4.56667 5.37454C4.08934 5.87156 3.53081 6.21848 2.89108 6.41532C2.89108 7.60619 3.27205 8.57808 4.03399 9.33099C4.79592 10.0839 5.71409 10.4603 6.78848 10.4603ZM5.43029 7.67016C5.26298 7.67016 5.12273 7.61357 5.00955 7.50039C4.89637 7.38721 4.83978 7.24696 4.83978 7.07965C4.83978 6.91234 4.89637 6.77209 5.00955 6.65891C5.12273 6.54573 5.26298 6.48914 5.43029 6.48914C5.59761 6.48914 5.73785 6.54573 5.85104 6.65891C5.96422 6.77209 6.02081 6.91234 6.02081 7.07965C6.02081 7.24696 5.96422 7.38721 5.85104 7.50039C5.73785 7.61357 5.59761 7.67016 5.43029 7.67016ZM8.07284 7.68493C7.90553 7.68493 7.76282 7.62692 7.64472 7.5109C7.52662 7.3949 7.46757 7.25115 7.46757 7.07965C7.46757 6.90816 7.52557 6.7644 7.64158 6.6484C7.75759 6.53238 7.90135 6.47437 8.07284 6.47437C8.24016 6.47437 8.3804 6.53238 8.49358 6.6484C8.60677 6.7644 8.66336 6.90816 8.66336 7.07965C8.66336 7.25115 8.60677 7.3949 8.49358 7.5109C8.3804 7.62692 8.24016 7.68493 8.07284 7.68493ZM0.248535 2.97558V1.02688C0.248535 0.790679 0.337112 0.583999 0.514266 0.406844C0.691421 0.22969 0.8981 0.141113 1.13431 0.141113H3.083V1.02688H1.13431V2.97558H0.248535ZM3.083 13.1324H1.13431C0.8981 13.1324 0.691421 13.0438 0.514266 12.8667C0.337112 12.6895 0.248535 12.4829 0.248535 12.2466V10.298H1.13431V12.2466H3.083V13.1324ZM10.4054 13.1324V12.2466H12.3541V10.298H13.2398V12.2466C13.2398 12.4829 13.1513 12.6895 12.9741 12.8667C12.797 13.0438 12.5903 13.1324 12.3541 13.1324H10.4054ZM12.3541 2.97558V1.02688H10.4054V0.141113H12.3541C12.5903 0.141113 12.797 0.22969 12.9741 0.406844C13.1513 0.583999 13.2398 0.790679 13.2398 1.02688V2.97558H12.3541Z" fill="#D630FF"/>
</svg>
