<svg width="19" height="17" viewBox="0 0 19 17" fill="none" xmlns="http://www.w3.org/2000/svg">
<path d="M8.46642 9.50992L7.40773 7.93196C7.33265 7.84048 7.25381 7.76806 7.17122 7.7147C7.08863 7.66134 6.98726 7.63466 6.86713 7.63466H1.21329C0.973021 7.14679 0.804082 6.6856 0.706473 6.25109C0.608863 5.81657 0.560059 5.37063 0.560059 4.91325C0.560059 3.54111 1.01432 2.39385 1.92284 1.47146C2.83135 0.549082 3.95386 0.0878906 5.29036 0.0878906C6.14632 0.0878906 6.93846 0.293712 7.66677 0.705354C8.39509 1.117 9.02955 1.71159 9.57016 2.48914C10.2009 1.66585 10.8691 1.05982 11.5749 0.67105C12.2807 0.282277 13.039 0.0878906 13.85 0.0878906C15.1865 0.0878906 16.309 0.549082 17.2175 1.47146C18.126 2.39385 18.5803 3.54111 18.5803 4.91325C18.5803 5.37063 18.5315 5.81657 18.4338 6.25109C18.3362 6.6856 18.1673 7.14679 17.927 7.63466H12.6561L11.0343 5.21055C10.9592 5.10382 10.8691 5.02759 10.764 4.98186C10.6589 4.93612 10.5463 4.91325 10.4261 4.91325C10.291 4.91325 10.1671 4.95518 10.0544 5.03903C9.94182 5.12288 9.86298 5.23341 9.81793 5.37063L8.46642 9.50992ZM9.57016 16.8509L8.64662 16.0047C6.96474 14.4344 5.5907 13.0927 4.5245 11.9798C3.45831 10.8668 2.62487 9.87582 2.0242 9.0068H6.46167L8.08349 11.4538C8.15857 11.5605 8.25243 11.6367 8.36506 11.6825C8.47768 11.7282 8.59406 11.7511 8.7142 11.7511C8.84935 11.7511 8.96948 11.7092 9.0746 11.6253C9.17972 11.5414 9.2548 11.4309 9.29985 11.2937L10.6739 7.15441L11.7101 8.7095C11.7851 8.80098 11.8677 8.8734 11.9578 8.92676C12.0479 8.98012 12.1531 9.0068 12.2732 9.0068H17.1161C16.5154 9.87582 15.682 10.8668 14.6158 11.9798C13.5496 13.0927 12.1756 14.4344 10.4937 16.0047L9.57016 16.8509Z" fill="#D630FF"/>
</svg>
