<svg width="11" height="15" viewBox="0 0 11 15" fill="none" xmlns="http://www.w3.org/2000/svg">
<path d="M5.46971 8.71781C4.93056 8.71781 4.47918 8.52556 4.11557 8.14105C3.75196 7.75655 3.57015 7.28965 3.57015 6.74036V2.0579C3.57015 1.5397 3.75472 1.09923 4.12387 0.736499C4.49301 0.373755 4.94125 0.192383 5.4686 0.192383C5.99595 0.192383 6.44457 0.373755 6.81445 0.736499C7.18433 1.09923 7.36927 1.5397 7.36927 2.0579V6.74036C7.36927 7.28965 7.18746 7.75655 6.82385 8.14105C6.46024 8.52556 6.00886 8.71781 5.46971 8.71781ZM4.90549 14.3703V11.8332C3.57642 11.6964 2.46051 11.143 1.55775 10.1729C0.654993 9.20285 0.203613 8.05866 0.203613 6.74036H1.33206C1.33206 7.87211 1.73509 8.82352 2.54116 9.5946C3.34722 10.3657 4.32208 10.7512 5.46572 10.7512C6.60937 10.7512 7.58555 10.3657 8.39428 9.5946C9.203 8.82352 9.60736 7.87211 9.60736 6.74036H10.7358C10.7358 8.05866 10.2844 9.20285 9.38167 10.1729C8.47891 11.143 7.363 11.6964 6.03394 11.8332V14.3703H4.90549Z" fill="#D630FF"/>
</svg>
